<?xml version="1.0" encoding="utf-8" standalone="no"?>
<!DOCTYPE svg PUBLIC "-//W3C//DTD SVG 1.1//EN"
  "http://www.w3.org/Graphics/SVG/1.1/DTD/svg11.dtd">
<!-- Created with matplotlib (https://matplotlib.org/) -->
<svg height="345.6pt" version="1.1" viewBox="0 0 460.8 345.6" width="460.8pt" xmlns="http://www.w3.org/2000/svg" xmlns:xlink="http://www.w3.org/1999/xlink">
 <defs>
  <style type="text/css">
*{stroke-linecap:butt;stroke-linejoin:round;}
  </style>
 </defs>
 <g id="figure_1">
  <g id="patch_1">
   <path d="M 0 345.6 
L 460.8 345.6 
L 460.8 0 
L 0 0 
z
" style="fill:#ffffff;"/>
  </g>
  <g id="axes_1">
   <g id="patch_2">
    <path clip-path="url(#pd7d388733c)" d="M 236.16 307.584 
C 271.446864 307.584 305.293219 293.56438 330.2448 268.6128 
C 355.19638 243.661219 369.216 209.814864 369.216 174.528 
C 369.216 139.241136 355.19638 105.394781 330.2448 80.4432 
C 305.293219 55.49162 271.446864 41.472 236.16 41.472 
C 200.873136 41.472 167.026781 55.49162 142.0752 80.4432 
C 117.12362 105.394781 103.104 139.241136 103.104 174.528 
C 103.104 209.814864 117.12362 243.661219 142.0752 268.6128 
C 167.026781 293.56438 200.873136 307.584 236.16 307.584 
z
" style="fill:#d3d3d3;stroke:#d3d3d3;stroke-linejoin:miter;"/>
   </g>
   <g id="patch_3">
    <path clip-path="url(#pd7d388733c)" d="M 236.16 288.73984 
C 266.449334 288.73984 295.502173 276.70576 316.919967 255.287967 
C 338.33776 233.870173 350.37184 204.817334 350.37184 174.528 
C 350.37184 144.238666 338.33776 115.185827 316.919967 93.768033 
C 295.502173 72.35024 266.449334 60.31616 236.16 60.31616 
C 205.870666 60.31616 176.817827 72.35024 155.400033 93.768033 
C 133.98224 115.185827 121.94816 144.238666 121.94816 174.528 
C 121.94816 204.817334 133.98224 233.870173 155.400033 255.287967 
C 176.817827 276.70576 205.870666 288.73984 236.16 288.73984 
z
" style="fill:#ffffff;stroke:#ffffff;stroke-linejoin:miter;"/>
   </g>
   <g id="patch_4">
    <path clip-path="url(#pd7d388733c)" d="M 236.16 236.531726 
C 252.60358 236.531726 268.375888 229.998622 280.003255 218.371255 
C 291.630622 206.743888 298.163726 190.97158 298.163726 174.528 
C 298.163726 158.08442 291.630622 142.312112 280.003255 130.684745 
C 268.375888 119.057378 252.60358 112.524274 236.16 112.524274 
C 219.71642 112.524274 203.944112 119.057378 192.316745 130.684745 
C 180.689378 142.312112 174.156274 158.08442 174.156274 174.528 
C 174.156274 190.97158 180.689378 206.743888 192.316745 218.371255 
C 203.944112 229.998622 219.71642 236.531726 236.16 236.531726 
z
" style="fill:#d3d3d3;stroke:#d3d3d3;stroke-linejoin:miter;"/>
   </g>
   <g id="patch_5">
    <path clip-path="url(#pd7d388733c)" d="M 236.16 227.7504 
C 250.274745 227.7504 263.813288 222.142552 273.79392 212.16192 
C 283.774552 202.181288 289.3824 188.642745 289.3824 174.528 
C 289.3824 160.413255 283.774552 146.874712 273.79392 136.89408 
C 263.813288 126.913448 250.274745 121.3056 236.16 121.3056 
C 222.045255 121.3056 208.506712 126.913448 198.52608 136.89408 
C 188.545448 146.874712 182.9376 160.413255 182.9376 174.528 
C 182.9376 188.642745 188.545448 202.181288 198.52608 212.16192 
C 208.506712 222.142552 222.045255 227.7504 236.16 227.7504 
z
" style="fill:#ffffff;stroke:#ffffff;stroke-linejoin:miter;"/>
   </g>
   <g id="patch_6">
    <path d="M 236.16 227.7504 
C 250.274745 227.7504 263.813288 222.142552 273.79392 212.16192 
C 283.774552 202.181288 289.3824 188.642745 289.3824 174.528 
C 289.3824 160.413255 283.774552 146.874712 273.79392 136.89408 
C 263.813288 126.913448 250.274745 121.3056 236.16 121.3056 
C 222.045255 121.3056 208.506712 126.913448 198.52608 136.89408 
C 188.545448 146.874712 182.9376 160.413255 182.9376 174.528 
C 182.9376 188.642745 188.545448 202.181288 198.52608 212.16192 
C 208.506712 222.142552 222.045255 227.7504 236.16 227.7504 
z
" style="fill:none;stroke:#000000;stroke-linejoin:miter;"/>
   </g>
   <g id="patch_7">
    <path d="M 236.16 236.531726 
C 252.60358 236.531726 268.375888 229.998622 280.003255 218.371255 
C 291.630622 206.743888 298.163726 190.97158 298.163726 174.528 
C 298.163726 158.08442 291.630622 142.312112 280.003255 130.684745 
C 268.375888 119.057378 252.60358 112.524274 236.16 112.524274 
C 219.71642 112.524274 203.944112 119.057378 192.316745 130.684745 
C 180.689378 142.312112 174.156274 158.08442 174.156274 174.528 
C 174.156274 190.97158 180.689378 206.743888 192.316745 218.371255 
C 203.944112 229.998622 219.71642 236.531726 236.16 236.531726 
z
" style="fill:none;stroke:#000000;stroke-linejoin:miter;"/>
   </g>
   <g id="patch_8">
    <path d="M 236.16 246.76191 
C 255.316657 246.76191 273.691286 239.15089 287.237088 225.605088 
C 300.78289 212.059286 308.39391 193.684657 308.39391 174.528 
C 308.39391 155.371343 300.78289 136.996714 287.237088 123.450912 
C 273.691286 109.90511 255.316657 102.29409 236.16 102.29409 
C 217.003343 102.29409 198.628714 109.90511 185.082912 123.450912 
C 171.53711 136.996714 163.92609 155.371343 163.92609 174.528 
C 163.92609 193.684657 171.53711 212.059286 185.082912 225.605088 
C 198.628714 239.15089 217.003343 246.76191 236.16 246.76191 
z
" style="fill:none;stroke:#000000;stroke-linejoin:miter;"/>
   </g>
   <g id="patch_9">
    <path d="M 236.16 258.680003 
C 258.477372 258.680003 279.883687 249.813217 295.664452 234.032452 
C 311.445217 218.251687 320.312003 196.845372 320.312003 174.528 
C 320.312003 152.210628 311.445217 130.804313 295.664452 115.023548 
C 279.883687 99.242783 258.477372 90.375997 236.16 90.375997 
C 213.842628 90.375997 192.436313 99.242783 176.655548 115.023548 
C 160.874783 130.804313 152.007997 152.210628 152.007997 174.528 
C 152.007997 196.845372 160.874783 218.251687 176.655548 234.032452 
C 192.436313 249.813217 213.842628 258.680003 236.16 258.680003 
z
" style="fill:none;stroke:#000000;stroke-linejoin:miter;"/>
   </g>
   <g id="patch_10">
    <path d="M 236.16 272.564499 
C 262.159583 272.564499 287.097791 262.234755 305.482273 243.850273 
C 323.866755 225.465791 334.196499 200.527583 334.196499 174.528 
C 334.196499 148.528417 323.866755 123.590209 305.482273 105.205727 
C 287.097791 86.821245 262.159583 76.491501 236.16 76.491501 
C 210.160417 76.491501 185.222209 86.821245 166.837727 105.205727 
C 148.453245 123.590209 138.123501 148.528417 138.123501 174.528 
C 138.123501 200.527583 148.453245 225.465791 166.837727 243.850273 
C 185.222209 262.234755 210.160417 272.564499 236.16 272.564499 
z
" style="fill:none;stroke:#000000;stroke-linejoin:miter;"/>
   </g>
   <g id="patch_11">
    <path d="M 236.16 288.73984 
C 266.449334 288.73984 295.502173 276.70576 316.919967 255.287967 
C 338.33776 233.870173 350.37184 204.817334 350.37184 174.528 
C 350.37184 144.238666 338.33776 115.185827 316.919967 93.768033 
C 295.502173 72.35024 266.449334 60.31616 236.16 60.31616 
C 205.870666 60.31616 176.817827 72.35024 155.400033 93.768033 
C 133.98224 115.185827 121.94816 144.238666 121.94816 174.528 
C 121.94816 204.817334 133.98224 233.870173 155.400033 255.287967 
C 176.817827 276.70576 205.870666 288.73984 236.16 288.73984 
z
" style="fill:none;stroke:#000000;stroke-linejoin:miter;"/>
   </g>
   <g id="patch_12">
    <path d="M 236.16 307.584 
C 271.446864 307.584 305.293219 293.56438 330.2448 268.6128 
C 355.19638 243.661219 369.216 209.814864 369.216 174.528 
C 369.216 139.241136 355.19638 105.394781 330.2448 80.4432 
C 305.293219 55.49162 271.446864 41.472 236.16 41.472 
C 200.873136 41.472 167.026781 55.49162 142.0752 80.4432 
C 117.12362 105.394781 103.104 139.241136 103.104 174.528 
C 103.104 209.814864 117.12362 243.661219 142.0752 268.6128 
C 167.026781 293.56438 200.873136 307.584 236.16 307.584 
z
" style="fill:none;stroke:#000000;stroke-linejoin:miter;"/>
   </g>
   <g id="line2d_1">
    <path clip-path="url(#pd7d388733c)" d="M 229.5072 174.528 
L 242.8128 174.528 
" style="fill:none;stroke:#000000;stroke-linecap:square;stroke-width:1.5;"/>
   </g>
   <g id="line2d_2">
    <path clip-path="url(#pd7d388733c)" d="M 236.16 181.1808 
L 236.16 167.8752 
" style="fill:none;stroke:#000000;stroke-linecap:square;stroke-width:1.5;"/>
   </g>
   <g id="text_1">
    <!-- $position = (x, y)$ -->
    <defs>
     <path d="M 49.609375 33.6875 
Q 49.609375 40.875 46.484375 44.671875 
Q 43.359375 48.484375 37.5 48.484375 
Q 33.5 48.484375 29.859375 46.4375 
Q 26.21875 44.390625 23.390625 40.484375 
Q 20.609375 36.625 18.9375 31.15625 
Q 17.28125 25.6875 17.28125 20.3125 
Q 17.28125 13.484375 20.40625 9.796875 
Q 23.53125 6.109375 29.296875 6.109375 
Q 33.546875 6.109375 37.1875 8.109375 
Q 40.828125 10.109375 43.40625 13.921875 
Q 46.1875 17.921875 47.890625 23.34375 
Q 49.609375 28.765625 49.609375 33.6875 
z
M 21.78125 46.390625 
Q 25.390625 51.125 30.296875 53.5625 
Q 35.203125 56 41.21875 56 
Q 49.609375 56 54.25 50.5 
Q 58.890625 45.015625 58.890625 35.109375 
Q 58.890625 27 56 19.65625 
Q 53.125 12.3125 47.703125 6.5 
Q 44.09375 2.640625 39.546875 0.609375 
Q 35.015625 -1.421875 29.984375 -1.421875 
Q 24.171875 -1.421875 20.21875 1 
Q 16.265625 3.421875 14.3125 8.203125 
L 8.6875 -20.796875 
L -0.296875 -20.796875 
L 14.40625 54.6875 
L 23.390625 54.6875 
z
" id="DejaVuSans-Oblique-112"/>
     <path d="M 25.390625 -1.421875 
Q 15.765625 -1.421875 10.171875 4.515625 
Q 4.59375 10.453125 4.59375 20.703125 
Q 4.59375 26.65625 6.515625 32.828125 
Q 8.453125 39.015625 11.53125 43.21875 
Q 16.359375 49.75 22.3125 52.875 
Q 28.265625 56 35.796875 56 
Q 45.125 56 50.859375 50.1875 
Q 56.59375 44.390625 56.59375 35.015625 
Q 56.59375 28.515625 54.6875 22.0625 
Q 52.78125 15.625 49.703125 11.375 
Q 44.921875 4.828125 38.96875 1.703125 
Q 33.015625 -1.421875 25.390625 -1.421875 
z
M 13.921875 21 
Q 13.921875 13.578125 17.015625 9.890625 
Q 20.125 6.203125 26.421875 6.203125 
Q 35.453125 6.203125 41.375 14.078125 
Q 47.3125 21.96875 47.3125 34.078125 
Q 47.3125 41.15625 44.140625 44.765625 
Q 40.96875 48.390625 34.8125 48.390625 
Q 29.734375 48.390625 25.78125 46.015625 
Q 21.828125 43.65625 18.703125 38.8125 
Q 16.40625 35.203125 15.15625 30.5625 
Q 13.921875 25.921875 13.921875 21 
z
" id="DejaVuSans-Oblique-111"/>
     <path d="M 50 53.078125 
L 48.296875 44.578125 
Q 44.734375 46.53125 40.765625 47.5 
Q 36.8125 48.484375 32.625 48.484375 
Q 25.53125 48.484375 21.453125 46.0625 
Q 17.390625 43.65625 17.390625 39.5 
Q 17.390625 34.671875 26.859375 32.078125 
Q 27.59375 31.890625 27.9375 31.78125 
L 30.8125 30.90625 
Q 39.796875 28.421875 42.796875 25.6875 
Q 45.796875 22.953125 45.796875 18.21875 
Q 45.796875 9.515625 38.890625 4.046875 
Q 31.984375 -1.421875 20.796875 -1.421875 
Q 16.453125 -1.421875 11.671875 -0.578125 
Q 6.890625 0.25 1.125 2 
L 2.875 11.28125 
Q 7.8125 8.734375 12.59375 7.421875 
Q 17.390625 6.109375 21.78125 6.109375 
Q 28.375 6.109375 32.5 8.9375 
Q 36.625 11.765625 36.625 16.109375 
Q 36.625 20.796875 25.78125 23.6875 
L 24.859375 23.921875 
L 21.78125 24.703125 
Q 14.9375 26.515625 11.765625 29.46875 
Q 8.59375 32.421875 8.59375 37.015625 
Q 8.59375 45.75 15.15625 50.875 
Q 21.734375 56 33.015625 56 
Q 37.453125 56 41.671875 55.265625 
Q 45.90625 54.546875 50 53.078125 
z
" id="DejaVuSans-Oblique-115"/>
     <path d="M 18.3125 75.984375 
L 27.296875 75.984375 
L 25.09375 64.59375 
L 16.109375 64.59375 
z
M 14.203125 54.6875 
L 23.1875 54.6875 
L 12.5 0 
L 3.515625 0 
z
" id="DejaVuSans-Oblique-105"/>
     <path d="M 42.28125 54.6875 
L 40.921875 47.703125 
L 23 47.703125 
L 17.1875 18.015625 
Q 16.890625 16.359375 16.75 15.234375 
Q 16.609375 14.109375 16.609375 13.484375 
Q 16.609375 10.359375 18.484375 8.9375 
Q 20.359375 7.515625 24.515625 7.515625 
L 33.59375 7.515625 
L 32.078125 0 
L 23.484375 0 
Q 15.484375 0 11.546875 3.125 
Q 7.625 6.25 7.625 12.59375 
Q 7.625 13.71875 7.765625 15.0625 
Q 7.90625 16.40625 8.203125 18.015625 
L 14.015625 47.703125 
L 6.390625 47.703125 
L 7.8125 54.6875 
L 15.28125 54.6875 
L 18.3125 70.21875 
L 27.296875 70.21875 
L 24.3125 54.6875 
z
" id="DejaVuSans-Oblique-116"/>
     <path d="M 55.71875 33.015625 
L 49.3125 0 
L 40.28125 0 
L 46.6875 32.671875 
Q 47.125 34.96875 47.359375 36.71875 
Q 47.609375 38.484375 47.609375 39.5 
Q 47.609375 43.609375 45.015625 45.890625 
Q 42.4375 48.1875 37.796875 48.1875 
Q 30.5625 48.1875 25.34375 43.375 
Q 20.125 38.578125 18.5 30.328125 
L 12.5 0 
L 3.515625 0 
L 14.109375 54.6875 
L 23.09375 54.6875 
L 21.296875 46.09375 
Q 25.046875 50.828125 30.3125 53.40625 
Q 35.59375 56 41.40625 56 
Q 48.640625 56 52.609375 52.09375 
Q 56.59375 48.1875 56.59375 41.109375 
Q 56.59375 39.359375 56.375 37.359375 
Q 56.15625 35.359375 55.71875 33.015625 
z
" id="DejaVuSans-Oblique-110"/>
     <path d="M 10.59375 45.40625 
L 73.1875 45.40625 
L 73.1875 37.203125 
L 10.59375 37.203125 
z
M 10.59375 25.484375 
L 73.1875 25.484375 
L 73.1875 17.1875 
L 10.59375 17.1875 
z
" id="DejaVuSans-61"/>
     <path d="M 31 75.875 
Q 24.46875 64.65625 21.28125 53.65625 
Q 18.109375 42.671875 18.109375 31.390625 
Q 18.109375 20.125 21.3125 9.0625 
Q 24.515625 -2 31 -13.1875 
L 23.1875 -13.1875 
Q 15.875 -1.703125 12.234375 9.375 
Q 8.59375 20.453125 8.59375 31.390625 
Q 8.59375 42.28125 12.203125 53.3125 
Q 15.828125 64.359375 23.1875 75.875 
z
" id="DejaVuSans-40"/>
     <path d="M 60.015625 54.6875 
L 34.90625 27.875 
L 50.296875 0 
L 39.984375 0 
L 28.421875 21.6875 
L 8.296875 0 
L -2.59375 0 
L 24.3125 28.8125 
L 10.015625 54.6875 
L 20.3125 54.6875 
L 30.8125 34.90625 
L 49.125 54.6875 
z
" id="DejaVuSans-Oblique-120"/>
     <path d="M 11.71875 12.40625 
L 22.015625 12.40625 
L 22.015625 4 
L 14.015625 -11.625 
L 7.71875 -11.625 
L 11.71875 4 
z
" id="DejaVuSans-44"/>
     <path d="M 24.8125 -5.078125 
Q 18.5625 -15.578125 14.625 -18.1875 
Q 10.6875 -20.796875 4.59375 -20.796875 
L -2.484375 -20.796875 
L -0.984375 -13.28125 
L 4.203125 -13.28125 
Q 7.953125 -13.28125 10.59375 -11.234375 
Q 13.234375 -9.1875 16.5 -3.21875 
L 19.28125 2 
L 7.171875 54.6875 
L 16.703125 54.6875 
L 25.78125 12.796875 
L 50.875 54.6875 
L 60.296875 54.6875 
z
" id="DejaVuSans-Oblique-121"/>
     <path d="M 8.015625 75.875 
L 15.828125 75.875 
Q 23.140625 64.359375 26.78125 53.3125 
Q 30.421875 42.28125 30.421875 31.390625 
Q 30.421875 20.453125 26.78125 9.375 
Q 23.140625 -1.703125 15.828125 -13.1875 
L 8.015625 -13.1875 
Q 14.5 -2 17.703125 9.0625 
Q 20.90625 20.125 20.90625 31.390625 
Q 20.90625 42.671875 17.703125 53.65625 
Q 14.5 64.65625 8.015625 75.875 
z
" id="DejaVuSans-41"/>
    </defs>
    <g transform="translate(197.81 188.7808)scale(0.1 -0.1)">
     <use transform="translate(0 0.015625)" xlink:href="#DejaVuSans-Oblique-112"/>
     <use transform="translate(63.476562 0.015625)" xlink:href="#DejaVuSans-Oblique-111"/>
     <use transform="translate(124.658203 0.015625)" xlink:href="#DejaVuSans-Oblique-115"/>
     <use transform="translate(176.757812 0.015625)" xlink:href="#DejaVuSans-Oblique-105"/>
     <use transform="translate(204.541016 0.015625)" xlink:href="#DejaVuSans-Oblique-116"/>
     <use transform="translate(243.75 0.015625)" xlink:href="#DejaVuSans-Oblique-105"/>
     <use transform="translate(271.533203 0.015625)" xlink:href="#DejaVuSans-Oblique-111"/>
     <use transform="translate(332.714844 0.015625)" xlink:href="#DejaVuSans-Oblique-110"/>
     <use transform="translate(415.576172 0.015625)" xlink:href="#DejaVuSans-61"/>
     <use transform="translate(518.847656 0.015625)" xlink:href="#DejaVuSans-40"/>
     <use transform="translate(557.861328 0.015625)" xlink:href="#DejaVuSans-Oblique-120"/>
     <use transform="translate(617.041016 0.015625)" xlink:href="#DejaVuSans-44"/>
     <use transform="translate(668.310547 0.015625)" xlink:href="#DejaVuSans-Oblique-121"/>
     <use transform="translate(727.490234 0.015625)" xlink:href="#DejaVuSans-41"/>
    </g>
   </g>
   <g id="patch_13">
    <path d="M 234.74735 173.11535 
Q 217.343056 155.711056 200.729332 139.097332 
" style="fill:none;stroke:#000000;stroke-linecap:round;"/>
    <path d="M 202.143546 143.339973 
L 200.729332 139.097332 
L 204.971973 140.511546 
L 202.143546 143.339973 
z
" style="fill:#1f77b4;stroke:#000000;stroke-linecap:round;"/>
   </g>
   <g id="text_2">
    <!-- start -->
    <defs>
     <path d="M 44.28125 53.078125 
L 44.28125 44.578125 
Q 40.484375 46.53125 36.375 47.5 
Q 32.28125 48.484375 27.875 48.484375 
Q 21.1875 48.484375 17.84375 46.4375 
Q 14.5 44.390625 14.5 40.28125 
Q 14.5 37.15625 16.890625 35.375 
Q 19.28125 33.59375 26.515625 31.984375 
L 29.59375 31.296875 
Q 39.15625 29.25 43.1875 25.515625 
Q 47.21875 21.78125 47.21875 15.09375 
Q 47.21875 7.46875 41.1875 3.015625 
Q 35.15625 -1.421875 24.609375 -1.421875 
Q 20.21875 -1.421875 15.453125 -0.5625 
Q 10.6875 0.296875 5.421875 2 
L 5.421875 11.28125 
Q 10.40625 8.6875 15.234375 7.390625 
Q 20.0625 6.109375 24.8125 6.109375 
Q 31.15625 6.109375 34.5625 8.28125 
Q 37.984375 10.453125 37.984375 14.40625 
Q 37.984375 18.0625 35.515625 20.015625 
Q 33.0625 21.96875 24.703125 23.78125 
L 21.578125 24.515625 
Q 13.234375 26.265625 9.515625 29.90625 
Q 5.8125 33.546875 5.8125 39.890625 
Q 5.8125 47.609375 11.28125 51.796875 
Q 16.75 56 26.8125 56 
Q 31.78125 56 36.171875 55.265625 
Q 40.578125 54.546875 44.28125 53.078125 
z
" id="DejaVuSans-115"/>
     <path d="M 18.3125 70.21875 
L 18.3125 54.6875 
L 36.8125 54.6875 
L 36.8125 47.703125 
L 18.3125 47.703125 
L 18.3125 18.015625 
Q 18.3125 11.328125 20.140625 9.421875 
Q 21.96875 7.515625 27.59375 7.515625 
L 36.8125 7.515625 
L 36.8125 0 
L 27.59375 0 
Q 17.1875 0 13.234375 3.875 
Q 9.28125 7.765625 9.28125 18.015625 
L 9.28125 47.703125 
L 2.6875 47.703125 
L 2.6875 54.6875 
L 9.28125 54.6875 
L 9.28125 70.21875 
z
" id="DejaVuSans-116"/>
     <path d="M 34.28125 27.484375 
Q 23.390625 27.484375 19.1875 25 
Q 14.984375 22.515625 14.984375 16.5 
Q 14.984375 11.71875 18.140625 8.90625 
Q 21.296875 6.109375 26.703125 6.109375 
Q 34.1875 6.109375 38.703125 11.40625 
Q 43.21875 16.703125 43.21875 25.484375 
L 43.21875 27.484375 
z
M 52.203125 31.203125 
L 52.203125 0 
L 43.21875 0 
L 43.21875 8.296875 
Q 40.140625 3.328125 35.546875 0.953125 
Q 30.953125 -1.421875 24.3125 -1.421875 
Q 15.921875 -1.421875 10.953125 3.296875 
Q 6 8.015625 6 15.921875 
Q 6 25.140625 12.171875 29.828125 
Q 18.359375 34.515625 30.609375 34.515625 
L 43.21875 34.515625 
L 43.21875 35.40625 
Q 43.21875 41.609375 39.140625 45 
Q 35.0625 48.390625 27.6875 48.390625 
Q 23 48.390625 18.546875 47.265625 
Q 14.109375 46.140625 10.015625 43.890625 
L 10.015625 52.203125 
Q 14.9375 54.109375 19.578125 55.046875 
Q 24.21875 56 28.609375 56 
Q 40.484375 56 46.34375 49.84375 
Q 52.203125 43.703125 52.203125 31.203125 
z
" id="DejaVuSans-97"/>
     <path d="M 41.109375 46.296875 
Q 39.59375 47.171875 37.8125 47.578125 
Q 36.03125 48 33.890625 48 
Q 26.265625 48 22.1875 43.046875 
Q 18.109375 38.09375 18.109375 28.8125 
L 18.109375 0 
L 9.078125 0 
L 9.078125 54.6875 
L 18.109375 54.6875 
L 18.109375 46.1875 
Q 20.953125 51.171875 25.484375 53.578125 
Q 30.03125 56 36.53125 56 
Q 37.453125 56 38.578125 55.875 
Q 39.703125 55.765625 41.0625 55.515625 
z
" id="DejaVuSans-114"/>
    </defs>
    <g transform="translate(211.83168 139.653455)scale(0.1 -0.1)">
     <use xlink:href="#DejaVuSans-115"/>
     <use x="52.099609" xlink:href="#DejaVuSans-116"/>
     <use x="91.308594" xlink:href="#DejaVuSans-97"/>
     <use x="152.587891" xlink:href="#DejaVuSans-114"/>
     <use x="193.701172" xlink:href="#DejaVuSans-116"/>
    </g>
   </g>
   <g id="text_3">
    <!-- $n$ -->
    <g transform="translate(336.8976 282.864037)scale(0.1 -0.1)">
     <use xlink:href="#DejaVuSans-Oblique-110"/>
    </g>
   </g>
   <g id="patch_14">
    <path d="M 237.575521 173.112479 
Q 283.201736 127.486264 328.037381 82.650619 
" style="fill:none;stroke:#000000;stroke-linecap:round;"/>
    <path d="M 323.794741 84.064832 
L 328.037381 82.650619 
L 326.623168 86.893259 
L 323.794741 84.064832 
z
" style="fill:#1f77b4;stroke:#000000;stroke-linecap:round;"/>
   </g>
   <g id="text_4">
    <!-- stop -->
    <defs>
     <path d="M 30.609375 48.390625 
Q 23.390625 48.390625 19.1875 42.75 
Q 14.984375 37.109375 14.984375 27.296875 
Q 14.984375 17.484375 19.15625 11.84375 
Q 23.34375 6.203125 30.609375 6.203125 
Q 37.796875 6.203125 41.984375 11.859375 
Q 46.1875 17.53125 46.1875 27.296875 
Q 46.1875 37.015625 41.984375 42.703125 
Q 37.796875 48.390625 30.609375 48.390625 
z
M 30.609375 56 
Q 42.328125 56 49.015625 48.375 
Q 55.71875 40.765625 55.71875 27.296875 
Q 55.71875 13.875 49.015625 6.21875 
Q 42.328125 -1.421875 30.609375 -1.421875 
Q 18.84375 -1.421875 12.171875 6.21875 
Q 5.515625 13.875 5.515625 27.296875 
Q 5.515625 40.765625 12.171875 48.375 
Q 18.84375 56 30.609375 56 
z
" id="DejaVuSans-111"/>
     <path d="M 18.109375 8.203125 
L 18.109375 -20.796875 
L 9.078125 -20.796875 
L 9.078125 54.6875 
L 18.109375 54.6875 
L 18.109375 46.390625 
Q 20.953125 51.265625 25.265625 53.625 
Q 29.59375 56 35.59375 56 
Q 45.5625 56 51.78125 48.09375 
Q 58.015625 40.1875 58.015625 27.296875 
Q 58.015625 14.40625 51.78125 6.484375 
Q 45.5625 -1.421875 35.59375 -1.421875 
Q 29.59375 -1.421875 25.265625 0.953125 
Q 20.953125 3.328125 18.109375 8.203125 
z
M 48.6875 27.296875 
Q 48.6875 37.203125 44.609375 42.84375 
Q 40.53125 48.484375 33.40625 48.484375 
Q 26.265625 48.484375 22.1875 42.84375 
Q 18.109375 37.203125 18.109375 27.296875 
Q 18.109375 17.390625 22.1875 11.75 
Q 26.265625 6.109375 33.40625 6.109375 
Q 40.53125 6.109375 44.609375 11.75 
Q 48.6875 17.390625 48.6875 27.296875 
z
" id="DejaVuSans-112"/>
    </defs>
    <g transform="translate(336.8976 73.7904)scale(0.1 -0.1)">
     <use xlink:href="#DejaVuSans-115"/>
     <use x="52.099609" xlink:href="#DejaVuSans-116"/>
     <use x="91.308594" xlink:href="#DejaVuSans-111"/>
     <use x="152.490234" xlink:href="#DejaVuSans-112"/>
    </g>
   </g>
  </g>
 </g>
 <defs>
  <clipPath id="pd7d388733c">
   <rect height="266.112" width="266.112" x="103.104" y="41.472"/>
  </clipPath>
 </defs>
</svg>
