<?xml version="1.0" encoding="utf-8" standalone="no"?>
<!DOCTYPE svg PUBLIC "-//W3C//DTD SVG 1.1//EN"
  "http://www.w3.org/Graphics/SVG/1.1/DTD/svg11.dtd">
<!-- Created with matplotlib (https://matplotlib.org/) -->
<svg height="345.6pt" version="1.1" viewBox="0 0 460.8 345.6" width="460.8pt" xmlns="http://www.w3.org/2000/svg" xmlns:xlink="http://www.w3.org/1999/xlink">
 <defs>
  <style type="text/css">
*{stroke-linecap:butt;stroke-linejoin:round;}
  </style>
 </defs>
 <g id="figure_1">
  <g id="patch_1">
   <path d="M 0 345.6 
L 460.8 345.6 
L 460.8 0 
L 0 0 
z
" style="fill:#ffffff;"/>
  </g>
  <g id="axes_1">
   <g id="patch_2">
    <path clip-path="url(#pb3251c96b6)" d="M 236.16 307.584 
C 271.446864 307.584 305.293219 293.56438 330.2448 268.6128 
C 355.19638 243.661219 369.216 209.814864 369.216 174.528 
C 369.216 139.241136 355.19638 105.394781 330.2448 80.4432 
C 305.293219 55.49162 271.446864 41.472 236.16 41.472 
C 200.873136 41.472 167.026781 55.49162 142.0752 80.4432 
C 117.12362 105.394781 103.104 139.241136 103.104 174.528 
C 103.104 209.814864 117.12362 243.661219 142.0752 268.6128 
C 167.026781 293.56438 200.873136 307.584 236.16 307.584 
z
" style="fill:#d3d3d3;stroke:#d3d3d3;stroke-linejoin:miter;"/>
   </g>
   <g id="patch_3">
    <path clip-path="url(#pb3251c96b6)" d="M 236.16 285.408 
C 265.56572 285.408 293.771016 273.724984 314.564 252.932 
C 335.356984 232.139016 347.04 203.93372 347.04 174.528 
C 347.04 145.12228 335.356984 116.916984 314.564 96.124 
C 293.771016 75.331016 265.56572 63.648 236.16 63.648 
C 206.75428 63.648 178.548984 75.331016 157.756 96.124 
C 136.963016 116.916984 125.28 145.12228 125.28 174.528 
C 125.28 203.93372 136.963016 232.139016 157.756 252.932 
C 178.548984 273.724984 206.75428 285.408 236.16 285.408 
z
" style="fill:#ffffff;stroke:#ffffff;stroke-linejoin:miter;"/>
   </g>
   <g id="patch_4">
    <path clip-path="url(#pb3251c96b6)" d="M 236.16 196.704 
C 242.041144 196.704 247.682203 194.367397 251.8408 190.2088 
C 255.999397 186.050203 258.336 180.409144 258.336 174.528 
C 258.336 168.646856 255.999397 163.005797 251.8408 158.8472 
C 247.682203 154.688603 242.041144 152.352 236.16 152.352 
C 230.278856 152.352 224.637797 154.688603 220.4792 158.8472 
C 216.320603 163.005797 213.984 168.646856 213.984 174.528 
C 213.984 180.409144 216.320603 186.050203 220.4792 190.2088 
C 224.637797 194.367397 230.278856 196.704 236.16 196.704 
z
" style="fill:#d3d3d3;stroke:#d3d3d3;stroke-linejoin:miter;"/>
   </g>
   <g id="patch_5">
    <path clip-path="url(#pb3251c96b6)" d="M 236.16 174.528 
C 236.16 174.528 236.16 174.528 236.16 174.528 
C 236.16 174.528 236.16 174.528 236.16 174.528 
C 236.16 174.528 236.16 174.528 236.16 174.528 
C 236.16 174.528 236.16 174.528 236.16 174.528 
C 236.16 174.528 236.16 174.528 236.16 174.528 
C 236.16 174.528 236.16 174.528 236.16 174.528 
C 236.16 174.528 236.16 174.528 236.16 174.528 
C 236.16 174.528 236.16 174.528 236.16 174.528 
z
" style="fill:#ffffff;stroke:#ffffff;stroke-linejoin:miter;"/>
   </g>
   <g id="patch_6">
    <path d="M 236.16 196.704 
C 242.041144 196.704 247.682203 194.367397 251.8408 190.2088 
C 255.999397 186.050203 258.336 180.409144 258.336 174.528 
C 258.336 168.646856 255.999397 163.005797 251.8408 158.8472 
C 247.682203 154.688603 242.041144 152.352 236.16 152.352 
C 230.278856 152.352 224.637797 154.688603 220.4792 158.8472 
C 216.320603 163.005797 213.984 168.646856 213.984 174.528 
C 213.984 180.409144 216.320603 186.050203 220.4792 190.2088 
C 224.637797 194.367397 230.278856 196.704 236.16 196.704 
z
" style="fill:none;stroke:#000000;stroke-linejoin:miter;"/>
   </g>
   <g id="patch_7">
    <path d="M 236.16 218.88 
C 247.922288 218.88 259.204406 214.206793 267.5216 205.8896 
C 275.838793 197.572406 280.512 186.290288 280.512 174.528 
C 280.512 162.765712 275.838793 151.483594 267.5216 143.1664 
C 259.204406 134.849207 247.922288 130.176 236.16 130.176 
C 224.397712 130.176 213.115594 134.849207 204.7984 143.1664 
C 196.481207 151.483594 191.808 162.765712 191.808 174.528 
C 191.808 186.290288 196.481207 197.572406 204.7984 205.8896 
C 213.115594 214.206793 224.397712 218.88 236.16 218.88 
z
" style="fill:none;stroke:#000000;stroke-linejoin:miter;"/>
   </g>
   <g id="patch_8">
    <path d="M 236.16 241.056 
C 253.803432 241.056 270.72661 234.04619 283.2024 221.5704 
C 295.67819 209.09461 302.688 192.171432 302.688 174.528 
C 302.688 156.884568 295.67819 139.96139 283.2024 127.4856 
C 270.72661 115.00981 253.803432 108 236.16 108 
C 218.516568 108 201.59339 115.00981 189.1176 127.4856 
C 176.64181 139.96139 169.632 156.884568 169.632 174.528 
C 169.632 192.171432 176.64181 209.09461 189.1176 221.5704 
C 201.59339 234.04619 218.516568 241.056 236.16 241.056 
z
" style="fill:none;stroke:#000000;stroke-linejoin:miter;"/>
   </g>
   <g id="patch_9">
    <path d="M 236.16 263.232 
C 259.684576 263.232 282.248813 253.885587 298.8832 237.2512 
C 315.517587 220.616813 324.864 198.052576 324.864 174.528 
C 324.864 151.003424 315.517587 128.439187 298.8832 111.8048 
C 282.248813 95.170413 259.684576 85.824 236.16 85.824 
C 212.635424 85.824 190.071187 95.170413 173.4368 111.8048 
C 156.802413 128.439187 147.456 151.003424 147.456 174.528 
C 147.456 198.052576 156.802413 220.616813 173.4368 237.2512 
C 190.071187 253.885587 212.635424 263.232 236.16 263.232 
z
" style="fill:none;stroke:#000000;stroke-linejoin:miter;"/>
   </g>
   <g id="patch_10">
    <path d="M 236.16 285.408 
C 265.56572 285.408 293.771016 273.724984 314.564 252.932 
C 335.356984 232.139016 347.04 203.93372 347.04 174.528 
C 347.04 145.12228 335.356984 116.916984 314.564 96.124 
C 293.771016 75.331016 265.56572 63.648 236.16 63.648 
C 206.75428 63.648 178.548984 75.331016 157.756 96.124 
C 136.963016 116.916984 125.28 145.12228 125.28 174.528 
C 125.28 203.93372 136.963016 232.139016 157.756 252.932 
C 178.548984 273.724984 206.75428 285.408 236.16 285.408 
z
" style="fill:none;stroke:#000000;stroke-linejoin:miter;"/>
   </g>
   <g id="patch_11">
    <path d="M 236.16 307.584 
C 271.446864 307.584 305.293219 293.56438 330.2448 268.6128 
C 355.19638 243.661219 369.216 209.814864 369.216 174.528 
C 369.216 139.241136 355.19638 105.394781 330.2448 80.4432 
C 305.293219 55.49162 271.446864 41.472 236.16 41.472 
C 200.873136 41.472 167.026781 55.49162 142.0752 80.4432 
C 117.12362 105.394781 103.104 139.241136 103.104 174.528 
C 103.104 209.814864 117.12362 243.661219 142.0752 268.6128 
C 167.026781 293.56438 200.873136 307.584 236.16 307.584 
z
" style="fill:none;stroke:#000000;stroke-linejoin:miter;"/>
   </g>
   <g id="text_1">
    <!-- $n$ -->
    <defs>
     <path d="M 55.71875 33.015625 
L 49.3125 0 
L 40.28125 0 
L 46.6875 32.671875 
Q 47.125 34.96875 47.359375 36.71875 
Q 47.609375 38.484375 47.609375 39.5 
Q 47.609375 43.609375 45.015625 45.890625 
Q 42.4375 48.1875 37.796875 48.1875 
Q 30.5625 48.1875 25.34375 43.375 
Q 20.125 38.578125 18.5 30.328125 
L 12.5 0 
L 3.515625 0 
L 14.109375 54.6875 
L 23.09375 54.6875 
L 21.296875 46.09375 
Q 25.046875 50.828125 30.3125 53.40625 
Q 35.59375 56 41.40625 56 
Q 48.640625 56 52.609375 52.09375 
Q 56.59375 48.1875 56.59375 41.109375 
Q 56.59375 39.359375 56.375 37.359375 
Q 56.15625 35.359375 55.71875 33.015625 
z
" id="DejaVuSans-Oblique-110"/>
    </defs>
    <g transform="translate(336.8976 282.864037)scale(0.1 -0.1)">
     <use xlink:href="#DejaVuSans-Oblique-110"/>
    </g>
   </g>
   <g id="patch_12">
    <path d="M 237.575521 173.112479 
Q 283.201736 127.486264 328.037381 82.650619 
" style="fill:none;stroke:#000000;stroke-linecap:round;"/>
    <path d="M 323.794741 84.064832 
L 328.037381 82.650619 
L 326.623168 86.893259 
L 323.794741 84.064832 
z
" style="fill:#1f77b4;stroke:#000000;stroke-linecap:round;"/>
   </g>
   <g id="text_2">
    <!-- stop -->
    <defs>
     <path d="M 44.28125 53.078125 
L 44.28125 44.578125 
Q 40.484375 46.53125 36.375 47.5 
Q 32.28125 48.484375 27.875 48.484375 
Q 21.1875 48.484375 17.84375 46.4375 
Q 14.5 44.390625 14.5 40.28125 
Q 14.5 37.15625 16.890625 35.375 
Q 19.28125 33.59375 26.515625 31.984375 
L 29.59375 31.296875 
Q 39.15625 29.25 43.1875 25.515625 
Q 47.21875 21.78125 47.21875 15.09375 
Q 47.21875 7.46875 41.1875 3.015625 
Q 35.15625 -1.421875 24.609375 -1.421875 
Q 20.21875 -1.421875 15.453125 -0.5625 
Q 10.6875 0.296875 5.421875 2 
L 5.421875 11.28125 
Q 10.40625 8.6875 15.234375 7.390625 
Q 20.0625 6.109375 24.8125 6.109375 
Q 31.15625 6.109375 34.5625 8.28125 
Q 37.984375 10.453125 37.984375 14.40625 
Q 37.984375 18.0625 35.515625 20.015625 
Q 33.0625 21.96875 24.703125 23.78125 
L 21.578125 24.515625 
Q 13.234375 26.265625 9.515625 29.90625 
Q 5.8125 33.546875 5.8125 39.890625 
Q 5.8125 47.609375 11.28125 51.796875 
Q 16.75 56 26.8125 56 
Q 31.78125 56 36.171875 55.265625 
Q 40.578125 54.546875 44.28125 53.078125 
z
" id="DejaVuSans-115"/>
     <path d="M 18.3125 70.21875 
L 18.3125 54.6875 
L 36.8125 54.6875 
L 36.8125 47.703125 
L 18.3125 47.703125 
L 18.3125 18.015625 
Q 18.3125 11.328125 20.140625 9.421875 
Q 21.96875 7.515625 27.59375 7.515625 
L 36.8125 7.515625 
L 36.8125 0 
L 27.59375 0 
Q 17.1875 0 13.234375 3.875 
Q 9.28125 7.765625 9.28125 18.015625 
L 9.28125 47.703125 
L 2.6875 47.703125 
L 2.6875 54.6875 
L 9.28125 54.6875 
L 9.28125 70.21875 
z
" id="DejaVuSans-116"/>
     <path d="M 30.609375 48.390625 
Q 23.390625 48.390625 19.1875 42.75 
Q 14.984375 37.109375 14.984375 27.296875 
Q 14.984375 17.484375 19.15625 11.84375 
Q 23.34375 6.203125 30.609375 6.203125 
Q 37.796875 6.203125 41.984375 11.859375 
Q 46.1875 17.53125 46.1875 27.296875 
Q 46.1875 37.015625 41.984375 42.703125 
Q 37.796875 48.390625 30.609375 48.390625 
z
M 30.609375 56 
Q 42.328125 56 49.015625 48.375 
Q 55.71875 40.765625 55.71875 27.296875 
Q 55.71875 13.875 49.015625 6.21875 
Q 42.328125 -1.421875 30.609375 -1.421875 
Q 18.84375 -1.421875 12.171875 6.21875 
Q 5.515625 13.875 5.515625 27.296875 
Q 5.515625 40.765625 12.171875 48.375 
Q 18.84375 56 30.609375 56 
z
" id="DejaVuSans-111"/>
     <path d="M 18.109375 8.203125 
L 18.109375 -20.796875 
L 9.078125 -20.796875 
L 9.078125 54.6875 
L 18.109375 54.6875 
L 18.109375 46.390625 
Q 20.953125 51.265625 25.265625 53.625 
Q 29.59375 56 35.59375 56 
Q 45.5625 56 51.78125 48.09375 
Q 58.015625 40.1875 58.015625 27.296875 
Q 58.015625 14.40625 51.78125 6.484375 
Q 45.5625 -1.421875 35.59375 -1.421875 
Q 29.59375 -1.421875 25.265625 0.953125 
Q 20.953125 3.328125 18.109375 8.203125 
z
M 48.6875 27.296875 
Q 48.6875 37.203125 44.609375 42.84375 
Q 40.53125 48.484375 33.40625 48.484375 
Q 26.265625 48.484375 22.1875 42.84375 
Q 18.109375 37.203125 18.109375 27.296875 
Q 18.109375 17.390625 22.1875 11.75 
Q 26.265625 6.109375 33.40625 6.109375 
Q 40.53125 6.109375 44.609375 11.75 
Q 48.6875 17.390625 48.6875 27.296875 
z
" id="DejaVuSans-112"/>
    </defs>
    <g transform="translate(336.8976 73.7904)scale(0.1 -0.1)">
     <use xlink:href="#DejaVuSans-115"/>
     <use x="52.099609" xlink:href="#DejaVuSans-116"/>
     <use x="91.308594" xlink:href="#DejaVuSans-111"/>
     <use x="152.490234" xlink:href="#DejaVuSans-112"/>
    </g>
   </g>
  </g>
 </g>
 <defs>
  <clipPath id="pb3251c96b6">
   <rect height="266.112" width="266.112" x="103.104" y="41.472"/>
  </clipPath>
 </defs>
</svg>
