<?xml version="1.0" encoding="utf-8" standalone="no"?>
<!DOCTYPE svg PUBLIC "-//W3C//DTD SVG 1.1//EN"
  "http://www.w3.org/Graphics/SVG/1.1/DTD/svg11.dtd">
<!-- Created with matplotlib (https://matplotlib.org/) -->
<svg height="345.6pt" version="1.1" viewBox="0 0 460.8 345.6" width="460.8pt" xmlns="http://www.w3.org/2000/svg" xmlns:xlink="http://www.w3.org/1999/xlink">
 <defs>
  <style type="text/css">
*{stroke-linecap:butt;stroke-linejoin:round;}
  </style>
 </defs>
 <g id="figure_1">
  <g id="patch_1">
   <path d="M 0 345.6 
L 460.8 345.6 
L 460.8 0 
L 0 0 
z
" style="fill:#ffffff;"/>
  </g>
  <g id="axes_1">
   <g id="patch_2">
    <path clip-path="url(#pcc641c628c)" d="M 236.16 307.584 
C 271.446864 307.584 305.293219 293.56438 330.2448 268.6128 
C 355.19638 243.661219 369.216 209.814864 369.216 174.528 
C 369.216 139.241136 355.19638 105.394781 330.2448 80.4432 
C 305.293219 55.49162 271.446864 41.472 236.16 41.472 
C 200.873136 41.472 167.026781 55.49162 142.0752 80.4432 
C 117.12362 105.394781 103.104 139.241136 103.104 174.528 
C 103.104 209.814864 117.12362 243.661219 142.0752 268.6128 
C 167.026781 293.56438 200.873136 307.584 236.16 307.584 
z
" style="fill:#d3d3d3;stroke:#d3d3d3;stroke-linejoin:miter;"/>
   </g>
   <g id="patch_3">
    <path clip-path="url(#pcc641c628c)" d="M 236.16 267.317507 
C 260.768065 267.317507 284.37156 257.540619 301.772089 240.140089 
C 319.172619 222.73956 328.949507 199.136065 328.949507 174.528 
C 328.949507 149.919935 319.172619 126.31644 301.772089 108.915911 
C 284.37156 91.515381 260.768065 81.738493 236.16 81.738493 
C 211.551935 81.738493 187.94844 91.515381 170.547911 108.915911 
C 153.147381 126.31644 143.370493 149.919935 143.370493 174.528 
C 143.370493 199.136065 153.147381 222.73956 170.547911 240.140089 
C 187.94844 257.540619 211.551935 267.317507 236.16 267.317507 
z
" style="fill:#ffffff;stroke:#ffffff;stroke-linejoin:miter;"/>
   </g>
   <g id="patch_4">
    <path clip-path="url(#pcc641c628c)" d="M 236.16 174.528 
C 236.16 174.528 236.16 174.528 236.16 174.528 
C 236.16 174.528 236.16 174.528 236.16 174.528 
C 236.16 174.528 236.16 174.528 236.16 174.528 
C 236.16 174.528 236.16 174.528 236.16 174.528 
C 236.16 174.528 236.16 174.528 236.16 174.528 
C 236.16 174.528 236.16 174.528 236.16 174.528 
C 236.16 174.528 236.16 174.528 236.16 174.528 
C 236.16 174.528 236.16 174.528 236.16 174.528 
z
" style="fill:#d3d3d3;stroke:#d3d3d3;stroke-linejoin:miter;"/>
   </g>
   <g id="patch_5">
    <path clip-path="url(#pcc641c628c)" d="M 236.16 174.528 
C 236.16 174.528 236.16 174.528 236.16 174.528 
C 236.16 174.528 236.16 174.528 236.16 174.528 
C 236.16 174.528 236.16 174.528 236.16 174.528 
C 236.16 174.528 236.16 174.528 236.16 174.528 
C 236.16 174.528 236.16 174.528 236.16 174.528 
C 236.16 174.528 236.16 174.528 236.16 174.528 
C 236.16 174.528 236.16 174.528 236.16 174.528 
C 236.16 174.528 236.16 174.528 236.16 174.528 
z
" style="fill:#ffffff;stroke:#ffffff;stroke-linejoin:miter;"/>
   </g>
   <g id="patch_6">
    <path d="M 236.16 174.528 
C 236.16 174.528 236.16 174.528 236.16 174.528 
C 236.16 174.528 236.16 174.528 236.16 174.528 
C 236.16 174.528 236.16 174.528 236.16 174.528 
C 236.16 174.528 236.16 174.528 236.16 174.528 
C 236.16 174.528 236.16 174.528 236.16 174.528 
C 236.16 174.528 236.16 174.528 236.16 174.528 
C 236.16 174.528 236.16 174.528 236.16 174.528 
C 236.16 174.528 236.16 174.528 236.16 174.528 
z
" style="fill:none;stroke:#000000;stroke-linejoin:miter;"/>
   </g>
   <g id="patch_7">
    <path d="M 236.16 174.528 
C 236.16 174.528 236.16 174.528 236.16 174.528 
C 236.16 174.528 236.16 174.528 236.16 174.528 
C 236.16 174.528 236.16 174.528 236.16 174.528 
C 236.16 174.528 236.16 174.528 236.16 174.528 
C 236.16 174.528 236.16 174.528 236.16 174.528 
C 236.16 174.528 236.16 174.528 236.16 174.528 
C 236.16 174.528 236.16 174.528 236.16 174.528 
C 236.16 174.528 236.16 174.528 236.16 174.528 
z
" style="fill:none;stroke:#000000;stroke-linejoin:miter;"/>
   </g>
   <g id="patch_8">
    <path d="M 236.16 174.528 
C 236.16 174.528 236.16 174.528 236.16 174.528 
C 236.16 174.528 236.16 174.528 236.16 174.528 
C 236.16 174.528 236.16 174.528 236.16 174.528 
C 236.16 174.528 236.16 174.528 236.16 174.528 
C 236.16 174.528 236.16 174.528 236.16 174.528 
C 236.16 174.528 236.16 174.528 236.16 174.528 
C 236.16 174.528 236.16 174.528 236.16 174.528 
C 236.16 174.528 236.16 174.528 236.16 174.528 
z
" style="fill:none;stroke:#000000;stroke-linejoin:miter;"/>
   </g>
   <g id="patch_9">
    <path d="M 236.16 174.528 
C 236.16 174.528 236.16 174.528 236.16 174.528 
C 236.16 174.528 236.16 174.528 236.16 174.528 
C 236.16 174.528 236.16 174.528 236.16 174.528 
C 236.16 174.528 236.16 174.528 236.16 174.528 
C 236.16 174.528 236.16 174.528 236.16 174.528 
C 236.16 174.528 236.16 174.528 236.16 174.528 
C 236.16 174.528 236.16 174.528 236.16 174.528 
C 236.16 174.528 236.16 174.528 236.16 174.528 
z
" style="fill:none;stroke:#000000;stroke-linejoin:miter;"/>
   </g>
   <g id="patch_10">
    <path d="M 236.16 174.528 
C 236.16 174.528 236.16 174.528 236.16 174.528 
C 236.16 174.528 236.16 174.528 236.16 174.528 
C 236.16 174.528 236.16 174.528 236.16 174.528 
C 236.16 174.528 236.16 174.528 236.16 174.528 
C 236.16 174.528 236.16 174.528 236.16 174.528 
C 236.16 174.528 236.16 174.528 236.16 174.528 
C 236.16 174.528 236.16 174.528 236.16 174.528 
C 236.16 174.528 236.16 174.528 236.16 174.528 
z
" style="fill:none;stroke:#000000;stroke-linejoin:miter;"/>
   </g>
   <g id="patch_11">
    <path d="M 236.16 174.528 
C 236.16 174.528 236.16 174.528 236.16 174.528 
C 236.16 174.528 236.16 174.528 236.16 174.528 
C 236.16 174.528 236.16 174.528 236.16 174.528 
C 236.16 174.528 236.16 174.528 236.16 174.528 
C 236.16 174.528 236.16 174.528 236.16 174.528 
C 236.16 174.528 236.16 174.528 236.16 174.528 
C 236.16 174.528 236.16 174.528 236.16 174.528 
C 236.16 174.528 236.16 174.528 236.16 174.528 
z
" style="fill:none;stroke:#000000;stroke-linejoin:miter;"/>
   </g>
   <g id="patch_12">
    <path d="M 236.16 174.528 
C 236.16 174.528 236.16 174.528 236.16 174.528 
C 236.16 174.528 236.16 174.528 236.16 174.528 
C 236.16 174.528 236.16 174.528 236.16 174.528 
C 236.16 174.528 236.16 174.528 236.16 174.528 
C 236.16 174.528 236.16 174.528 236.16 174.528 
C 236.16 174.528 236.16 174.528 236.16 174.528 
C 236.16 174.528 236.16 174.528 236.16 174.528 
C 236.16 174.528 236.16 174.528 236.16 174.528 
z
" style="fill:none;stroke:#000000;stroke-linejoin:miter;"/>
   </g>
   <g id="patch_13">
    <path d="M 236.16 174.528 
C 236.16 174.528 236.16 174.528 236.16 174.528 
C 236.16 174.528 236.16 174.528 236.16 174.528 
C 236.16 174.528 236.16 174.528 236.16 174.528 
C 236.16 174.528 236.16 174.528 236.16 174.528 
C 236.16 174.528 236.16 174.528 236.16 174.528 
C 236.16 174.528 236.16 174.528 236.16 174.528 
C 236.16 174.528 236.16 174.528 236.16 174.528 
C 236.16 174.528 236.16 174.528 236.16 174.528 
z
" style="fill:none;stroke:#000000;stroke-linejoin:miter;"/>
   </g>
   <g id="patch_14">
    <path d="M 236.16 174.528 
C 236.16 174.528 236.16 174.528 236.16 174.528 
C 236.16 174.528 236.16 174.528 236.16 174.528 
C 236.16 174.528 236.16 174.528 236.16 174.528 
C 236.16 174.528 236.16 174.528 236.16 174.528 
C 236.16 174.528 236.16 174.528 236.16 174.528 
C 236.16 174.528 236.16 174.528 236.16 174.528 
C 236.16 174.528 236.16 174.528 236.16 174.528 
C 236.16 174.528 236.16 174.528 236.16 174.528 
z
" style="fill:none;stroke:#000000;stroke-linejoin:miter;"/>
   </g>
   <g id="patch_15">
    <path d="M 236.16 174.528 
C 236.16 174.528 236.16 174.528 236.16 174.528 
C 236.16 174.528 236.16 174.528 236.16 174.528 
C 236.16 174.528 236.16 174.528 236.16 174.528 
C 236.16 174.528 236.16 174.528 236.16 174.528 
C 236.16 174.528 236.16 174.528 236.16 174.528 
C 236.16 174.528 236.16 174.528 236.16 174.528 
C 236.16 174.528 236.16 174.528 236.16 174.528 
C 236.16 174.528 236.16 174.528 236.16 174.528 
z
" style="fill:none;stroke:#000000;stroke-linejoin:miter;"/>
   </g>
   <g id="patch_16">
    <path d="M 236.16 174.528 
C 236.16 174.528 236.16 174.528 236.16 174.528 
C 236.16 174.528 236.16 174.528 236.16 174.528 
C 236.16 174.528 236.16 174.528 236.16 174.528 
C 236.16 174.528 236.16 174.528 236.16 174.528 
C 236.16 174.528 236.16 174.528 236.16 174.528 
C 236.16 174.528 236.16 174.528 236.16 174.528 
C 236.16 174.528 236.16 174.528 236.16 174.528 
C 236.16 174.528 236.16 174.528 236.16 174.528 
z
" style="fill:none;stroke:#000000;stroke-linejoin:miter;"/>
   </g>
   <g id="patch_17">
    <path d="M 236.16 174.528 
C 236.16 174.528 236.16 174.528 236.16 174.528 
C 236.16 174.528 236.16 174.528 236.16 174.528 
C 236.16 174.528 236.16 174.528 236.16 174.528 
C 236.16 174.528 236.16 174.528 236.16 174.528 
C 236.16 174.528 236.16 174.528 236.16 174.528 
C 236.16 174.528 236.16 174.528 236.16 174.528 
C 236.16 174.528 236.16 174.528 236.16 174.528 
C 236.16 174.528 236.16 174.528 236.16 174.528 
z
" style="fill:none;stroke:#000000;stroke-linejoin:miter;"/>
   </g>
   <g id="patch_18">
    <path d="M 236.16 174.528 
C 236.16 174.528 236.16 174.528 236.16 174.528 
C 236.16 174.528 236.16 174.528 236.16 174.528 
C 236.16 174.528 236.16 174.528 236.16 174.528 
C 236.16 174.528 236.16 174.528 236.16 174.528 
C 236.16 174.528 236.16 174.528 236.16 174.528 
C 236.16 174.528 236.16 174.528 236.16 174.528 
C 236.16 174.528 236.16 174.528 236.16 174.528 
C 236.16 174.528 236.16 174.528 236.16 174.528 
z
" style="fill:none;stroke:#000000;stroke-linejoin:miter;"/>
   </g>
   <g id="patch_19">
    <path d="M 236.16 174.528 
C 236.16 174.528 236.16 174.528 236.16 174.528 
C 236.16 174.528 236.16 174.528 236.16 174.528 
C 236.16 174.528 236.16 174.528 236.16 174.528 
C 236.16 174.528 236.16 174.528 236.16 174.528 
C 236.16 174.528 236.16 174.528 236.16 174.528 
C 236.16 174.528 236.16 174.528 236.16 174.528 
C 236.16 174.528 236.16 174.528 236.16 174.528 
C 236.16 174.528 236.16 174.528 236.16 174.528 
z
" style="fill:none;stroke:#000000;stroke-linejoin:miter;"/>
   </g>
   <g id="patch_20">
    <path d="M 236.16 174.528 
C 236.16 174.528 236.16 174.528 236.16 174.528 
C 236.16 174.528 236.16 174.528 236.16 174.528 
C 236.16 174.528 236.16 174.528 236.16 174.528 
C 236.16 174.528 236.16 174.528 236.16 174.528 
C 236.16 174.528 236.16 174.528 236.16 174.528 
C 236.16 174.528 236.16 174.528 236.16 174.528 
C 236.16 174.528 236.16 174.528 236.16 174.528 
C 236.16 174.528 236.16 174.528 236.16 174.528 
z
" style="fill:none;stroke:#000000;stroke-linejoin:miter;"/>
   </g>
   <g id="patch_21">
    <path d="M 236.16 174.528 
C 236.16 174.528 236.16 174.528 236.16 174.528 
C 236.16 174.528 236.16 174.528 236.16 174.528 
C 236.16 174.528 236.16 174.528 236.16 174.528 
C 236.16 174.528 236.16 174.528 236.16 174.528 
C 236.16 174.528 236.16 174.528 236.16 174.528 
C 236.16 174.528 236.16 174.528 236.16 174.528 
C 236.16 174.528 236.16 174.528 236.16 174.528 
C 236.16 174.528 236.16 174.528 236.16 174.528 
z
" style="fill:none;stroke:#000000;stroke-linejoin:miter;"/>
   </g>
   <g id="patch_22">
    <path d="M 236.16 174.528 
C 236.16 174.528 236.16 174.528 236.16 174.528 
C 236.16 174.528 236.16 174.528 236.16 174.528 
C 236.16 174.528 236.16 174.528 236.16 174.528 
C 236.16 174.528 236.16 174.528 236.16 174.528 
C 236.16 174.528 236.16 174.528 236.16 174.528 
C 236.16 174.528 236.16 174.528 236.16 174.528 
C 236.16 174.528 236.16 174.528 236.16 174.528 
C 236.16 174.528 236.16 174.528 236.16 174.528 
z
" style="fill:none;stroke:#000000;stroke-linejoin:miter;"/>
   </g>
   <g id="patch_23">
    <path d="M 236.16 174.528 
C 236.16 174.528 236.16 174.528 236.16 174.528 
C 236.16 174.528 236.16 174.528 236.16 174.528 
C 236.16 174.528 236.16 174.528 236.16 174.528 
C 236.16 174.528 236.16 174.528 236.16 174.528 
C 236.16 174.528 236.16 174.528 236.16 174.528 
C 236.16 174.528 236.16 174.528 236.16 174.528 
C 236.16 174.528 236.16 174.528 236.16 174.528 
C 236.16 174.528 236.16 174.528 236.16 174.528 
z
" style="fill:none;stroke:#000000;stroke-linejoin:miter;"/>
   </g>
   <g id="patch_24">
    <path d="M 236.16 174.528 
C 236.16 174.528 236.16 174.528 236.16 174.528 
C 236.16 174.528 236.16 174.528 236.16 174.528 
C 236.16 174.528 236.16 174.528 236.16 174.528 
C 236.16 174.528 236.16 174.528 236.16 174.528 
C 236.16 174.528 236.16 174.528 236.16 174.528 
C 236.16 174.528 236.16 174.528 236.16 174.528 
C 236.16 174.528 236.16 174.528 236.16 174.528 
C 236.16 174.528 236.16 174.528 236.16 174.528 
z
" style="fill:none;stroke:#000000;stroke-linejoin:miter;"/>
   </g>
   <g id="patch_25">
    <path d="M 236.16 174.528 
C 236.16 174.528 236.16 174.528 236.16 174.528 
C 236.16 174.528 236.16 174.528 236.16 174.528 
C 236.16 174.528 236.16 174.528 236.16 174.528 
C 236.16 174.528 236.16 174.528 236.16 174.528 
C 236.16 174.528 236.16 174.528 236.16 174.528 
C 236.16 174.528 236.16 174.528 236.16 174.528 
C 236.16 174.528 236.16 174.528 236.16 174.528 
C 236.16 174.528 236.16 174.528 236.16 174.528 
z
" style="fill:none;stroke:#000000;stroke-linejoin:miter;"/>
   </g>
   <g id="patch_26">
    <path d="M 236.16 174.528 
C 236.16 174.528 236.16 174.528 236.16 174.528 
C 236.16 174.528 236.16 174.528 236.16 174.528 
C 236.16 174.528 236.16 174.528 236.16 174.528 
C 236.16 174.528 236.16 174.528 236.16 174.528 
C 236.16 174.528 236.16 174.528 236.16 174.528 
C 236.16 174.528 236.16 174.528 236.16 174.528 
C 236.16 174.528 236.16 174.528 236.16 174.528 
C 236.16 174.528 236.16 174.528 236.16 174.528 
z
" style="fill:none;stroke:#000000;stroke-linejoin:miter;"/>
   </g>
   <g id="patch_27">
    <path d="M 236.16 174.528 
C 236.16 174.528 236.16 174.528 236.16 174.528 
C 236.16 174.528 236.16 174.528 236.16 174.528 
C 236.16 174.528 236.16 174.528 236.16 174.528 
C 236.16 174.528 236.16 174.528 236.16 174.528 
C 236.16 174.528 236.16 174.528 236.16 174.528 
C 236.16 174.528 236.16 174.528 236.16 174.528 
C 236.16 174.528 236.16 174.528 236.16 174.528 
C 236.16 174.528 236.16 174.528 236.16 174.528 
z
" style="fill:none;stroke:#000000;stroke-linejoin:miter;"/>
   </g>
   <g id="patch_28">
    <path d="M 236.16 174.528 
C 236.16 174.528 236.16 174.528 236.16 174.528 
C 236.16 174.528 236.16 174.528 236.16 174.528 
C 236.16 174.528 236.16 174.528 236.16 174.528 
C 236.16 174.528 236.16 174.528 236.16 174.528 
C 236.16 174.528 236.16 174.528 236.16 174.528 
C 236.16 174.528 236.16 174.528 236.16 174.528 
C 236.16 174.528 236.16 174.528 236.16 174.528 
C 236.16 174.528 236.16 174.528 236.16 174.528 
z
" style="fill:none;stroke:#000000;stroke-linejoin:miter;"/>
   </g>
   <g id="patch_29">
    <path d="M 236.16 174.528 
C 236.16 174.528 236.16 174.528 236.16 174.528 
C 236.16 174.528 236.16 174.528 236.16 174.528 
C 236.16 174.528 236.16 174.528 236.16 174.528 
C 236.16 174.528 236.16 174.528 236.16 174.528 
C 236.16 174.528 236.16 174.528 236.16 174.528 
C 236.16 174.528 236.16 174.528 236.16 174.528 
C 236.16 174.528 236.16 174.528 236.16 174.528 
C 236.16 174.528 236.16 174.528 236.16 174.528 
z
" style="fill:none;stroke:#000000;stroke-linejoin:miter;"/>
   </g>
   <g id="patch_30">
    <path d="M 236.16 174.528 
C 236.16 174.528 236.16 174.528 236.16 174.528 
C 236.16 174.528 236.16 174.528 236.16 174.528 
C 236.16 174.528 236.16 174.528 236.16 174.528 
C 236.16 174.528 236.16 174.528 236.16 174.528 
C 236.16 174.528 236.16 174.528 236.16 174.528 
C 236.16 174.528 236.16 174.528 236.16 174.528 
C 236.16 174.528 236.16 174.528 236.16 174.528 
C 236.16 174.528 236.16 174.528 236.16 174.528 
z
" style="fill:none;stroke:#000000;stroke-linejoin:miter;"/>
   </g>
   <g id="patch_31">
    <path d="M 236.16 174.528 
C 236.16 174.528 236.16 174.528 236.16 174.528 
C 236.16 174.528 236.16 174.528 236.16 174.528 
C 236.16 174.528 236.16 174.528 236.16 174.528 
C 236.16 174.528 236.16 174.528 236.16 174.528 
C 236.16 174.528 236.16 174.528 236.16 174.528 
C 236.16 174.528 236.16 174.528 236.16 174.528 
C 236.16 174.528 236.16 174.528 236.16 174.528 
C 236.16 174.528 236.16 174.528 236.16 174.528 
z
" style="fill:none;stroke:#000000;stroke-linejoin:miter;"/>
   </g>
   <g id="patch_32">
    <path d="M 236.16 174.528 
C 236.16 174.528 236.16 174.528 236.16 174.528 
C 236.16 174.528 236.16 174.528 236.16 174.528 
C 236.16 174.528 236.16 174.528 236.16 174.528 
C 236.16 174.528 236.16 174.528 236.16 174.528 
C 236.16 174.528 236.16 174.528 236.16 174.528 
C 236.16 174.528 236.16 174.528 236.16 174.528 
C 236.16 174.528 236.16 174.528 236.16 174.528 
C 236.16 174.528 236.16 174.528 236.16 174.528 
z
" style="fill:none;stroke:#000000;stroke-linejoin:miter;"/>
   </g>
   <g id="patch_33">
    <path d="M 236.16 174.528 
C 236.16 174.528 236.16 174.528 236.16 174.528 
C 236.16 174.528 236.16 174.528 236.16 174.528 
C 236.16 174.528 236.16 174.528 236.16 174.528 
C 236.16 174.528 236.16 174.528 236.16 174.528 
C 236.16 174.528 236.16 174.528 236.16 174.528 
C 236.16 174.528 236.16 174.528 236.16 174.528 
C 236.16 174.528 236.16 174.528 236.16 174.528 
C 236.16 174.528 236.16 174.528 236.16 174.528 
z
" style="fill:none;stroke:#000000;stroke-linejoin:miter;"/>
   </g>
   <g id="patch_34">
    <path d="M 236.16 174.528 
C 236.16 174.528 236.16 174.528 236.16 174.528 
C 236.16 174.528 236.16 174.528 236.16 174.528 
C 236.16 174.528 236.16 174.528 236.16 174.528 
C 236.16 174.528 236.16 174.528 236.16 174.528 
C 236.16 174.528 236.16 174.528 236.16 174.528 
C 236.16 174.528 236.16 174.528 236.16 174.528 
C 236.16 174.528 236.16 174.528 236.16 174.528 
C 236.16 174.528 236.16 174.528 236.16 174.528 
z
" style="fill:none;stroke:#000000;stroke-linejoin:miter;"/>
   </g>
   <g id="patch_35">
    <path d="M 236.16 174.528 
C 236.16 174.528 236.16 174.528 236.16 174.528 
C 236.16 174.528 236.16 174.528 236.16 174.528 
C 236.16 174.528 236.16 174.528 236.16 174.528 
C 236.16 174.528 236.16 174.528 236.16 174.528 
C 236.16 174.528 236.16 174.528 236.16 174.528 
C 236.16 174.528 236.16 174.528 236.16 174.528 
C 236.16 174.528 236.16 174.528 236.16 174.528 
C 236.16 174.528 236.16 174.528 236.16 174.528 
z
" style="fill:none;stroke:#000000;stroke-linejoin:miter;"/>
   </g>
   <g id="patch_36">
    <path d="M 236.16 174.528 
C 236.16 174.528 236.16 174.528 236.16 174.528 
C 236.16 174.528 236.16 174.528 236.16 174.528 
C 236.16 174.528 236.16 174.528 236.16 174.528 
C 236.16 174.528 236.16 174.528 236.16 174.528 
C 236.16 174.528 236.16 174.528 236.16 174.528 
C 236.16 174.528 236.16 174.528 236.16 174.528 
C 236.16 174.528 236.16 174.528 236.16 174.528 
C 236.16 174.528 236.16 174.528 236.16 174.528 
z
" style="fill:none;stroke:#000000;stroke-linejoin:miter;"/>
   </g>
   <g id="patch_37">
    <path d="M 236.16 174.528 
C 236.16 174.528 236.16 174.528 236.16 174.528 
C 236.16 174.528 236.16 174.528 236.16 174.528 
C 236.16 174.528 236.16 174.528 236.16 174.528 
C 236.16 174.528 236.16 174.528 236.16 174.528 
C 236.16 174.528 236.16 174.528 236.16 174.528 
C 236.16 174.528 236.16 174.528 236.16 174.528 
C 236.16 174.528 236.16 174.528 236.16 174.528 
C 236.16 174.528 236.16 174.528 236.16 174.528 
z
" style="fill:none;stroke:#000000;stroke-linejoin:miter;"/>
   </g>
   <g id="patch_38">
    <path d="M 236.16 174.528 
C 236.16 174.528 236.16 174.528 236.16 174.528 
C 236.16 174.528 236.16 174.528 236.16 174.528 
C 236.16 174.528 236.16 174.528 236.16 174.528 
C 236.16 174.528 236.16 174.528 236.16 174.528 
C 236.16 174.528 236.16 174.528 236.16 174.528 
C 236.16 174.528 236.16 174.528 236.16 174.528 
C 236.16 174.528 236.16 174.528 236.16 174.528 
C 236.16 174.528 236.16 174.528 236.16 174.528 
z
" style="fill:none;stroke:#000000;stroke-linejoin:miter;"/>
   </g>
   <g id="patch_39">
    <path d="M 236.16 174.528 
C 236.16 174.528 236.16 174.528 236.16 174.528 
C 236.16 174.528 236.16 174.528 236.16 174.528 
C 236.16 174.528 236.16 174.528 236.16 174.528 
C 236.16 174.528 236.16 174.528 236.16 174.528 
C 236.16 174.528 236.16 174.528 236.16 174.528 
C 236.16 174.528 236.16 174.528 236.16 174.528 
C 236.16 174.528 236.16 174.528 236.16 174.528 
C 236.16 174.528 236.16 174.528 236.16 174.528 
z
" style="fill:none;stroke:#000000;stroke-linejoin:miter;"/>
   </g>
   <g id="patch_40">
    <path d="M 236.16 174.528 
C 236.16 174.528 236.16 174.528 236.16 174.528 
C 236.16 174.528 236.16 174.528 236.16 174.528 
C 236.16 174.528 236.16 174.528 236.16 174.528 
C 236.16 174.528 236.16 174.528 236.16 174.528 
C 236.16 174.528 236.16 174.528 236.16 174.528 
C 236.16 174.528 236.16 174.528 236.16 174.528 
C 236.16 174.528 236.16 174.528 236.16 174.528 
C 236.16 174.528 236.16 174.528 236.16 174.528 
z
" style="fill:none;stroke:#000000;stroke-linejoin:miter;"/>
   </g>
   <g id="patch_41">
    <path d="M 236.16 174.528 
C 236.16 174.528 236.16 174.528 236.16 174.528 
C 236.16 174.528 236.16 174.528 236.16 174.528 
C 236.16 174.528 236.16 174.528 236.16 174.528 
C 236.16 174.528 236.16 174.528 236.16 174.528 
C 236.16 174.528 236.16 174.528 236.16 174.528 
C 236.16 174.528 236.16 174.528 236.16 174.528 
C 236.16 174.528 236.16 174.528 236.16 174.528 
C 236.16 174.528 236.16 174.528 236.16 174.528 
z
" style="fill:none;stroke:#000000;stroke-linejoin:miter;"/>
   </g>
   <g id="patch_42">
    <path d="M 236.16 174.528 
C 236.16 174.528 236.16 174.528 236.16 174.528 
C 236.16 174.528 236.16 174.528 236.16 174.528 
C 236.16 174.528 236.16 174.528 236.16 174.528 
C 236.16 174.528 236.16 174.528 236.16 174.528 
C 236.16 174.528 236.16 174.528 236.16 174.528 
C 236.16 174.528 236.16 174.528 236.16 174.528 
C 236.16 174.528 236.16 174.528 236.16 174.528 
C 236.16 174.528 236.16 174.528 236.16 174.528 
z
" style="fill:none;stroke:#000000;stroke-linejoin:miter;"/>
   </g>
   <g id="patch_43">
    <path d="M 236.16 174.528 
C 236.16 174.528 236.16 174.528 236.16 174.528 
C 236.16 174.528 236.16 174.528 236.16 174.528 
C 236.16 174.528 236.16 174.528 236.16 174.528 
C 236.16 174.528 236.16 174.528 236.16 174.528 
C 236.16 174.528 236.16 174.528 236.16 174.528 
C 236.16 174.528 236.16 174.528 236.16 174.528 
C 236.16 174.528 236.16 174.528 236.16 174.528 
C 236.16 174.528 236.16 174.528 236.16 174.528 
z
" style="fill:none;stroke:#000000;stroke-linejoin:miter;"/>
   </g>
   <g id="patch_44">
    <path d="M 236.16 174.528 
C 236.16 174.528 236.16 174.528 236.16 174.528 
C 236.16 174.528 236.16 174.528 236.16 174.528 
C 236.16 174.528 236.16 174.528 236.16 174.528 
C 236.16 174.528 236.16 174.528 236.16 174.528 
C 236.16 174.528 236.16 174.528 236.16 174.528 
C 236.16 174.528 236.16 174.528 236.16 174.528 
C 236.16 174.528 236.16 174.528 236.16 174.528 
C 236.16 174.528 236.16 174.528 236.16 174.528 
z
" style="fill:none;stroke:#000000;stroke-linejoin:miter;"/>
   </g>
   <g id="patch_45">
    <path d="M 236.16 174.528 
C 236.16 174.528 236.16 174.528 236.16 174.528 
C 236.16 174.528 236.16 174.528 236.16 174.528 
C 236.16 174.528 236.16 174.528 236.16 174.528 
C 236.16 174.528 236.16 174.528 236.16 174.528 
C 236.16 174.528 236.16 174.528 236.16 174.528 
C 236.16 174.528 236.16 174.528 236.16 174.528 
C 236.16 174.528 236.16 174.528 236.16 174.528 
C 236.16 174.528 236.16 174.528 236.16 174.528 
z
" style="fill:none;stroke:#000000;stroke-linejoin:miter;"/>
   </g>
   <g id="patch_46">
    <path d="M 236.16 174.528 
C 236.16 174.528 236.16 174.528 236.16 174.528 
C 236.16 174.528 236.16 174.528 236.16 174.528 
C 236.16 174.528 236.16 174.528 236.16 174.528 
C 236.16 174.528 236.16 174.528 236.16 174.528 
C 236.16 174.528 236.16 174.528 236.16 174.528 
C 236.16 174.528 236.16 174.528 236.16 174.528 
C 236.16 174.528 236.16 174.528 236.16 174.528 
C 236.16 174.528 236.16 174.528 236.16 174.528 
z
" style="fill:none;stroke:#000000;stroke-linejoin:miter;"/>
   </g>
   <g id="patch_47">
    <path d="M 236.16 174.528 
C 236.16 174.528 236.16 174.528 236.16 174.528 
C 236.16 174.528 236.16 174.528 236.16 174.528 
C 236.16 174.528 236.16 174.528 236.16 174.528 
C 236.16 174.528 236.16 174.528 236.16 174.528 
C 236.16 174.528 236.16 174.528 236.16 174.528 
C 236.16 174.528 236.16 174.528 236.16 174.528 
C 236.16 174.528 236.16 174.528 236.16 174.528 
C 236.16 174.528 236.16 174.528 236.16 174.528 
z
" style="fill:none;stroke:#000000;stroke-linejoin:miter;"/>
   </g>
   <g id="patch_48">
    <path d="M 236.16 174.528 
C 236.16 174.528 236.16 174.528 236.16 174.528 
C 236.16 174.528 236.16 174.528 236.16 174.528 
C 236.16 174.528 236.16 174.528 236.16 174.528 
C 236.16 174.528 236.16 174.528 236.16 174.528 
C 236.16 174.528 236.16 174.528 236.16 174.528 
C 236.16 174.528 236.16 174.528 236.16 174.528 
C 236.16 174.528 236.16 174.528 236.16 174.528 
C 236.16 174.528 236.16 174.528 236.16 174.528 
z
" style="fill:none;stroke:#000000;stroke-linejoin:miter;"/>
   </g>
   <g id="patch_49">
    <path d="M 236.16 174.528 
C 236.16 174.528 236.16 174.528 236.16 174.528 
C 236.16 174.528 236.16 174.528 236.16 174.528 
C 236.16 174.528 236.16 174.528 236.16 174.528 
C 236.16 174.528 236.16 174.528 236.16 174.528 
C 236.16 174.528 236.16 174.528 236.16 174.528 
C 236.16 174.528 236.16 174.528 236.16 174.528 
C 236.16 174.528 236.16 174.528 236.16 174.528 
C 236.16 174.528 236.16 174.528 236.16 174.528 
z
" style="fill:none;stroke:#000000;stroke-linejoin:miter;"/>
   </g>
   <g id="patch_50">
    <path d="M 236.16 174.528 
C 236.16 174.528 236.16 174.528 236.16 174.528 
C 236.16 174.528 236.16 174.528 236.16 174.528 
C 236.16 174.528 236.16 174.528 236.16 174.528 
C 236.16 174.528 236.16 174.528 236.16 174.528 
C 236.16 174.528 236.16 174.528 236.16 174.528 
C 236.16 174.528 236.16 174.528 236.16 174.528 
C 236.16 174.528 236.16 174.528 236.16 174.528 
C 236.16 174.528 236.16 174.528 236.16 174.528 
z
" style="fill:none;stroke:#000000;stroke-linejoin:miter;"/>
   </g>
   <g id="patch_51">
    <path d="M 236.16 174.528 
C 236.16 174.528 236.16 174.528 236.16 174.528 
C 236.16 174.528 236.16 174.528 236.16 174.528 
C 236.16 174.528 236.16 174.528 236.16 174.528 
C 236.16 174.528 236.16 174.528 236.16 174.528 
C 236.16 174.528 236.16 174.528 236.16 174.528 
C 236.16 174.528 236.16 174.528 236.16 174.528 
C 236.16 174.528 236.16 174.528 236.16 174.528 
C 236.16 174.528 236.16 174.528 236.16 174.528 
z
" style="fill:none;stroke:#000000;stroke-linejoin:miter;"/>
   </g>
   <g id="patch_52">
    <path d="M 236.16 174.528 
C 236.16 174.528 236.16 174.528 236.16 174.528 
C 236.16 174.528 236.16 174.528 236.16 174.528 
C 236.16 174.528 236.16 174.528 236.16 174.528 
C 236.16 174.528 236.16 174.528 236.16 174.528 
C 236.16 174.528 236.16 174.528 236.16 174.528 
C 236.16 174.528 236.16 174.528 236.16 174.528 
C 236.16 174.528 236.16 174.528 236.16 174.528 
C 236.16 174.528 236.16 174.528 236.16 174.528 
z
" style="fill:none;stroke:#000000;stroke-linejoin:miter;"/>
   </g>
   <g id="patch_53">
    <path d="M 236.16 174.528001 
C 236.16 174.528001 236.16 174.528001 236.16 174.528 
C 236.160001 174.528 236.160001 174.528 236.160001 174.528 
C 236.160001 174.528 236.160001 174.528 236.16 174.528 
C 236.16 174.527999 236.16 174.527999 236.16 174.527999 
C 236.16 174.527999 236.16 174.527999 236.16 174.528 
C 236.159999 174.528 236.159999 174.528 236.159999 174.528 
C 236.159999 174.528 236.159999 174.528 236.16 174.528 
C 236.16 174.528001 236.16 174.528001 236.16 174.528001 
z
" style="fill:none;stroke:#000000;stroke-linejoin:miter;"/>
   </g>
   <g id="patch_54">
    <path d="M 236.16 174.528001 
C 236.16 174.528001 236.160001 174.528001 236.160001 174.528001 
C 236.160001 174.528001 236.160001 174.528 236.160001 174.528 
C 236.160001 174.528 236.160001 174.527999 236.160001 174.527999 
C 236.160001 174.527999 236.16 174.527999 236.16 174.527999 
C 236.16 174.527999 236.159999 174.527999 236.159999 174.527999 
C 236.159999 174.527999 236.159999 174.528 236.159999 174.528 
C 236.159999 174.528 236.159999 174.528001 236.159999 174.528001 
C 236.159999 174.528001 236.16 174.528001 236.16 174.528001 
z
" style="fill:none;stroke:#000000;stroke-linejoin:miter;"/>
   </g>
   <g id="patch_55">
    <path d="M 236.16 174.528001 
C 236.16 174.528001 236.160001 174.528001 236.160001 174.528001 
C 236.160001 174.528001 236.160001 174.528 236.160001 174.528 
C 236.160001 174.528 236.160001 174.527999 236.160001 174.527999 
C 236.160001 174.527999 236.16 174.527999 236.16 174.527999 
C 236.16 174.527999 236.159999 174.527999 236.159999 174.527999 
C 236.159999 174.527999 236.159999 174.528 236.159999 174.528 
C 236.159999 174.528 236.159999 174.528001 236.159999 174.528001 
C 236.159999 174.528001 236.16 174.528001 236.16 174.528001 
z
" style="fill:none;stroke:#000000;stroke-linejoin:miter;"/>
   </g>
   <g id="patch_56">
    <path d="M 236.16 174.528002 
C 236.160001 174.528002 236.160001 174.528002 236.160001 174.528001 
C 236.160002 174.528001 236.160002 174.528001 236.160002 174.528 
C 236.160002 174.527999 236.160002 174.527999 236.160001 174.527999 
C 236.160001 174.527998 236.160001 174.527998 236.16 174.527998 
C 236.159999 174.527998 236.159999 174.527998 236.159999 174.527999 
C 236.159998 174.527999 236.159998 174.527999 236.159998 174.528 
C 236.159998 174.528001 236.159998 174.528001 236.159999 174.528001 
C 236.159999 174.528002 236.159999 174.528002 236.16 174.528002 
z
" style="fill:none;stroke:#000000;stroke-linejoin:miter;"/>
   </g>
   <g id="patch_57">
    <path d="M 236.16 174.528003 
C 236.160001 174.528003 236.160001 174.528003 236.160002 174.528002 
C 236.160003 174.528001 236.160003 174.528001 236.160003 174.528 
C 236.160003 174.527999 236.160003 174.527999 236.160002 174.527998 
C 236.160001 174.527997 236.160001 174.527997 236.16 174.527997 
C 236.159999 174.527997 236.159999 174.527997 236.159998 174.527998 
C 236.159997 174.527999 236.159997 174.527999 236.159997 174.528 
C 236.159997 174.528001 236.159997 174.528001 236.159998 174.528002 
C 236.159999 174.528003 236.159999 174.528003 236.16 174.528003 
z
" style="fill:none;stroke:#000000;stroke-linejoin:miter;"/>
   </g>
   <g id="patch_58">
    <path d="M 236.16 174.528004 
C 236.160001 174.528004 236.160002 174.528004 236.160003 174.528003 
C 236.160004 174.528002 236.160004 174.528001 236.160004 174.528 
C 236.160004 174.527999 236.160004 174.527998 236.160003 174.527997 
C 236.160002 174.527996 236.160001 174.527996 236.16 174.527996 
C 236.159999 174.527996 236.159998 174.527996 236.159997 174.527997 
C 236.159996 174.527998 236.159996 174.527999 236.159996 174.528 
C 236.159996 174.528001 236.159996 174.528002 236.159997 174.528003 
C 236.159998 174.528004 236.159999 174.528004 236.16 174.528004 
z
" style="fill:none;stroke:#000000;stroke-linejoin:miter;"/>
   </g>
   <g id="patch_59">
    <path d="M 236.16 174.528006 
C 236.160002 174.528006 236.160003 174.528005 236.160004 174.528004 
C 236.160005 174.528003 236.160006 174.528002 236.160006 174.528 
C 236.160006 174.527998 236.160005 174.527997 236.160004 174.527996 
C 236.160003 174.527995 236.160002 174.527994 236.16 174.527994 
C 236.159998 174.527994 236.159997 174.527995 236.159996 174.527996 
C 236.159995 174.527997 236.159994 174.527998 236.159994 174.528 
C 236.159994 174.528002 236.159995 174.528003 236.159996 174.528004 
C 236.159997 174.528005 236.159998 174.528006 236.16 174.528006 
z
" style="fill:none;stroke:#000000;stroke-linejoin:miter;"/>
   </g>
   <g id="patch_60">
    <path d="M 236.16 174.528008 
C 236.160002 174.528008 236.160004 174.528007 236.160006 174.528006 
C 236.160007 174.528004 236.160008 174.528002 236.160008 174.528 
C 236.160008 174.527998 236.160007 174.527996 236.160006 174.527994 
C 236.160004 174.527993 236.160002 174.527992 236.16 174.527992 
C 236.159998 174.527992 236.159996 174.527993 236.159994 174.527994 
C 236.159993 174.527996 236.159992 174.527998 236.159992 174.528 
C 236.159992 174.528002 236.159993 174.528004 236.159994 174.528006 
C 236.159996 174.528007 236.159998 174.528008 236.16 174.528008 
z
" style="fill:none;stroke:#000000;stroke-linejoin:miter;"/>
   </g>
   <g id="patch_61">
    <path d="M 236.16 174.528012 
C 236.160003 174.528012 236.160006 174.528011 236.160008 174.528008 
C 236.160011 174.528006 236.160012 174.528003 236.160012 174.528 
C 236.160012 174.527997 236.160011 174.527994 236.160008 174.527992 
C 236.160006 174.527989 236.160003 174.527988 236.16 174.527988 
C 236.159997 174.527988 236.159994 174.527989 236.159992 174.527992 
C 236.159989 174.527994 236.159988 174.527997 236.159988 174.528 
C 236.159988 174.528003 236.159989 174.528006 236.159992 174.528008 
C 236.159994 174.528011 236.159997 174.528012 236.16 174.528012 
z
" style="fill:none;stroke:#000000;stroke-linejoin:miter;"/>
   </g>
   <g id="patch_62">
    <path d="M 236.16 174.528017 
C 236.160005 174.528017 236.160009 174.528015 236.160012 174.528012 
C 236.160015 174.528009 236.160017 174.528005 236.160017 174.528 
C 236.160017 174.527995 236.160015 174.527991 236.160012 174.527988 
C 236.160009 174.527985 236.160005 174.527983 236.16 174.527983 
C 236.159995 174.527983 236.159991 174.527985 236.159988 174.527988 
C 236.159985 174.527991 236.159983 174.527995 236.159983 174.528 
C 236.159983 174.528005 236.159985 174.528009 236.159988 174.528012 
C 236.159991 174.528015 236.159995 174.528017 236.16 174.528017 
z
" style="fill:none;stroke:#000000;stroke-linejoin:miter;"/>
   </g>
   <g id="patch_63">
    <path d="M 236.16 174.528025 
C 236.160007 174.528025 236.160013 174.528022 236.160017 174.528017 
C 236.160022 174.528013 236.160025 174.528007 236.160025 174.528 
C 236.160025 174.527993 236.160022 174.527987 236.160017 174.527983 
C 236.160013 174.527978 236.160007 174.527975 236.16 174.527975 
C 236.159993 174.527975 236.159987 174.527978 236.159983 174.527983 
C 236.159978 174.527987 236.159975 174.527993 236.159975 174.528 
C 236.159975 174.528007 236.159978 174.528013 236.159983 174.528017 
C 236.159987 174.528022 236.159993 174.528025 236.16 174.528025 
z
" style="fill:none;stroke:#000000;stroke-linejoin:miter;"/>
   </g>
   <g id="patch_64">
    <path d="M 236.16 174.528035 
C 236.160009 174.528035 236.160018 174.528032 236.160025 174.528025 
C 236.160032 174.528018 236.160035 174.528009 236.160035 174.528 
C 236.160035 174.527991 236.160032 174.527982 236.160025 174.527975 
C 236.160018 174.527968 236.160009 174.527965 236.16 174.527965 
C 236.159991 174.527965 236.159982 174.527968 236.159975 174.527975 
C 236.159968 174.527982 236.159965 174.527991 236.159965 174.528 
C 236.159965 174.528009 236.159968 174.528018 236.159975 174.528025 
C 236.159982 174.528032 236.159991 174.528035 236.16 174.528035 
z
" style="fill:none;stroke:#000000;stroke-linejoin:miter;"/>
   </g>
   <g id="patch_65">
    <path d="M 236.16 174.528051 
C 236.160013 174.528051 236.160026 174.528045 236.160036 174.528036 
C 236.160045 174.528026 236.160051 174.528013 236.160051 174.528 
C 236.160051 174.527987 236.160045 174.527974 236.160036 174.527964 
C 236.160026 174.527955 236.160013 174.527949 236.16 174.527949 
C 236.159987 174.527949 236.159974 174.527955 236.159964 174.527964 
C 236.159955 174.527974 236.159949 174.527987 236.159949 174.528 
C 236.159949 174.528013 236.159955 174.528026 236.159964 174.528036 
C 236.159974 174.528045 236.159987 174.528051 236.16 174.528051 
z
" style="fill:none;stroke:#000000;stroke-linejoin:miter;"/>
   </g>
   <g id="patch_66">
    <path d="M 236.16 174.528073 
C 236.160019 174.528073 236.160038 174.528065 236.160052 174.528052 
C 236.160065 174.528038 236.160073 174.528019 236.160073 174.528 
C 236.160073 174.527981 236.160065 174.527962 236.160052 174.527948 
C 236.160038 174.527935 236.160019 174.527927 236.16 174.527927 
C 236.159981 174.527927 236.159962 174.527935 236.159948 174.527948 
C 236.159935 174.527962 236.159927 174.527981 236.159927 174.528 
C 236.159927 174.528019 236.159935 174.528038 236.159948 174.528052 
C 236.159962 174.528065 236.159981 174.528073 236.16 174.528073 
z
" style="fill:none;stroke:#000000;stroke-linejoin:miter;"/>
   </g>
   <g id="patch_67">
    <path d="M 236.16 174.528105 
C 236.160028 174.528105 236.160054 174.528093 236.160074 174.528074 
C 236.160093 174.528054 236.160105 174.528028 236.160105 174.528 
C 236.160105 174.527972 236.160093 174.527946 236.160074 174.527926 
C 236.160054 174.527907 236.160028 174.527895 236.16 174.527895 
C 236.159972 174.527895 236.159946 174.527907 236.159926 174.527926 
C 236.159907 174.527946 236.159895 174.527972 236.159895 174.528 
C 236.159895 174.528028 236.159907 174.528054 236.159926 174.528074 
C 236.159946 174.528093 236.159972 174.528105 236.16 174.528105 
z
" style="fill:none;stroke:#000000;stroke-linejoin:miter;"/>
   </g>
   <g id="patch_68">
    <path d="M 236.16 174.52815 
C 236.16004 174.52815 236.160078 174.528134 236.160106 174.528106 
C 236.160134 174.528078 236.16015 174.52804 236.16015 174.528 
C 236.16015 174.52796 236.160134 174.527922 236.160106 174.527894 
C 236.160078 174.527866 236.16004 174.52785 236.16 174.52785 
C 236.15996 174.52785 236.159922 174.527866 236.159894 174.527894 
C 236.159866 174.527922 236.15985 174.52796 236.15985 174.528 
C 236.15985 174.52804 236.159866 174.528078 236.159894 174.528106 
C 236.159922 174.528134 236.15996 174.52815 236.16 174.52815 
z
" style="fill:none;stroke:#000000;stroke-linejoin:miter;"/>
   </g>
   <g id="patch_69">
    <path d="M 236.16 174.528215 
C 236.160057 174.528215 236.160112 174.528192 236.160152 174.528152 
C 236.160192 174.528112 236.160215 174.528057 236.160215 174.528 
C 236.160215 174.527943 236.160192 174.527888 236.160152 174.527848 
C 236.160112 174.527808 236.160057 174.527785 236.16 174.527785 
C 236.159943 174.527785 236.159888 174.527808 236.159848 174.527848 
C 236.159808 174.527888 236.159785 174.527943 236.159785 174.528 
C 236.159785 174.528057 236.159808 174.528112 236.159848 174.528152 
C 236.159888 174.528192 236.159943 174.528215 236.16 174.528215 
z
" style="fill:none;stroke:#000000;stroke-linejoin:miter;"/>
   </g>
   <g id="patch_70">
    <path d="M 236.16 174.528308 
C 236.160082 174.528308 236.16016 174.528276 236.160218 174.528218 
C 236.160276 174.52816 236.160308 174.528082 236.160308 174.528 
C 236.160308 174.527918 236.160276 174.52784 236.160218 174.527782 
C 236.16016 174.527724 236.160082 174.527692 236.16 174.527692 
C 236.159918 174.527692 236.15984 174.527724 236.159782 174.527782 
C 236.159724 174.52784 236.159692 174.527918 236.159692 174.528 
C 236.159692 174.528082 236.159724 174.52816 236.159782 174.528218 
C 236.15984 174.528276 236.159918 174.528308 236.16 174.528308 
z
" style="fill:none;stroke:#000000;stroke-linejoin:miter;"/>
   </g>
   <g id="patch_71">
    <path d="M 236.16 174.528442 
C 236.160117 174.528442 236.16023 174.528395 236.160312 174.528312 
C 236.160395 174.52823 236.160442 174.528117 236.160442 174.528 
C 236.160442 174.527883 236.160395 174.52777 236.160312 174.527688 
C 236.16023 174.527605 236.160117 174.527558 236.16 174.527558 
C 236.159883 174.527558 236.15977 174.527605 236.159688 174.527688 
C 236.159605 174.52777 236.159558 174.527883 236.159558 174.528 
C 236.159558 174.528117 236.159605 174.52823 236.159688 174.528312 
C 236.15977 174.528395 236.159883 174.528442 236.16 174.528442 
z
" style="fill:none;stroke:#000000;stroke-linejoin:miter;"/>
   </g>
   <g id="patch_72">
    <path d="M 236.16 174.528634 
C 236.160168 174.528634 236.160329 174.528567 236.160448 174.528448 
C 236.160567 174.528329 236.160634 174.528168 236.160634 174.528 
C 236.160634 174.527832 236.160567 174.527671 236.160448 174.527552 
C 236.160329 174.527433 236.160168 174.527366 236.16 174.527366 
C 236.159832 174.527366 236.159671 174.527433 236.159552 174.527552 
C 236.159433 174.527671 236.159366 174.527832 236.159366 174.528 
C 236.159366 174.528168 236.159433 174.528329 236.159552 174.528448 
C 236.159671 174.528567 236.159832 174.528634 236.16 174.528634 
z
" style="fill:none;stroke:#000000;stroke-linejoin:miter;"/>
   </g>
   <g id="patch_73">
    <path d="M 236.16 174.528909 
C 236.160241 174.528909 236.160472 174.528813 236.160642 174.528642 
C 236.160813 174.528472 236.160909 174.528241 236.160909 174.528 
C 236.160909 174.527759 236.160813 174.527528 236.160642 174.527358 
C 236.160472 174.527187 236.160241 174.527091 236.16 174.527091 
C 236.159759 174.527091 236.159528 174.527187 236.159358 174.527358 
C 236.159187 174.527528 236.159091 174.527759 236.159091 174.528 
C 236.159091 174.528241 236.159187 174.528472 236.159358 174.528642 
C 236.159528 174.528813 236.159759 174.528909 236.16 174.528909 
z
" style="fill:none;stroke:#000000;stroke-linejoin:miter;"/>
   </g>
   <g id="patch_74">
    <path d="M 236.16 174.529303 
C 236.160346 174.529303 236.160677 174.529166 236.160921 174.528921 
C 236.161166 174.528677 236.161303 174.528346 236.161303 174.528 
C 236.161303 174.527654 236.161166 174.527323 236.160921 174.527079 
C 236.160677 174.526834 236.160346 174.526697 236.16 174.526697 
C 236.159654 174.526697 236.159323 174.526834 236.159079 174.527079 
C 236.158834 174.527323 236.158697 174.527654 236.158697 174.528 
C 236.158697 174.528346 236.158834 174.528677 236.159079 174.528921 
C 236.159323 174.529166 236.159654 174.529303 236.16 174.529303 
z
" style="fill:none;stroke:#000000;stroke-linejoin:miter;"/>
   </g>
   <g id="patch_75">
    <path d="M 236.16 174.529868 
C 236.160495 174.529868 236.160971 174.529671 236.161321 174.529321 
C 236.161671 174.528971 236.161868 174.528495 236.161868 174.528 
C 236.161868 174.527505 236.161671 174.527029 236.161321 174.526679 
C 236.160971 174.526329 236.160495 174.526132 236.16 174.526132 
C 236.159505 174.526132 236.159029 174.526329 236.158679 174.526679 
C 236.158329 174.527029 236.158132 174.527505 236.158132 174.528 
C 236.158132 174.528495 236.158329 174.528971 236.158679 174.529321 
C 236.159029 174.529671 236.159505 174.529868 236.16 174.529868 
z
" style="fill:none;stroke:#000000;stroke-linejoin:miter;"/>
   </g>
   <g id="patch_76">
    <path d="M 236.16 174.530679 
C 236.16071 174.530679 236.161392 174.530397 236.161894 174.529894 
C 236.162397 174.529392 236.162679 174.52871 236.162679 174.528 
C 236.162679 174.52729 236.162397 174.526608 236.161894 174.526106 
C 236.161392 174.525603 236.16071 174.525321 236.16 174.525321 
C 236.15929 174.525321 236.158608 174.525603 236.158106 174.526106 
C 236.157603 174.526608 236.157321 174.52729 236.157321 174.528 
C 236.157321 174.52871 236.157603 174.529392 236.158106 174.529894 
C 236.158608 174.530397 236.15929 174.530679 236.16 174.530679 
z
" style="fill:none;stroke:#000000;stroke-linejoin:miter;"/>
   </g>
   <g id="patch_77">
    <path d="M 236.16 174.531842 
C 236.161019 174.531842 236.161996 174.531437 236.162716 174.530716 
C 236.163437 174.529996 236.163842 174.529019 236.163842 174.528 
C 236.163842 174.526981 236.163437 174.526004 236.162716 174.525284 
C 236.161996 174.524563 236.161019 174.524158 236.16 174.524158 
C 236.158981 174.524158 236.158004 174.524563 236.157284 174.525284 
C 236.156563 174.526004 236.156158 174.526981 236.156158 174.528 
C 236.156158 174.529019 236.156563 174.529996 236.157284 174.530716 
C 236.158004 174.531437 236.158981 174.531842 236.16 174.531842 
z
" style="fill:none;stroke:#000000;stroke-linejoin:miter;"/>
   </g>
   <g id="patch_78">
    <path d="M 236.16 174.533509 
C 236.161461 174.533509 236.162862 174.532928 236.163895 174.531895 
C 236.164928 174.530862 236.165509 174.529461 236.165509 174.528 
C 236.165509 174.526539 236.164928 174.525138 236.163895 174.524105 
C 236.162862 174.523072 236.161461 174.522491 236.16 174.522491 
C 236.158539 174.522491 236.157138 174.523072 236.156105 174.524105 
C 236.155072 174.525138 236.154491 174.526539 236.154491 174.528 
C 236.154491 174.529461 236.155072 174.530862 236.156105 174.531895 
C 236.157138 174.532928 236.158539 174.533509 236.16 174.533509 
z
" style="fill:none;stroke:#000000;stroke-linejoin:miter;"/>
   </g>
   <g id="patch_79">
    <path d="M 236.16 174.535899 
C 236.162095 174.535899 236.164104 174.535067 236.165585 174.533585 
C 236.167067 174.532104 236.167899 174.530095 236.167899 174.528 
C 236.167899 174.525905 236.167067 174.523896 236.165585 174.522415 
C 236.164104 174.520933 236.162095 174.520101 236.16 174.520101 
C 236.157905 174.520101 236.155896 174.520933 236.154415 174.522415 
C 236.152933 174.523896 236.152101 174.525905 236.152101 174.528 
C 236.152101 174.530095 236.152933 174.532104 236.154415 174.533585 
C 236.155896 174.535067 236.157905 174.535899 236.16 174.535899 
z
" style="fill:none;stroke:#000000;stroke-linejoin:miter;"/>
   </g>
   <g id="patch_80">
    <path d="M 236.16 174.539327 
C 236.163004 174.539327 236.165885 174.538133 236.168009 174.536009 
C 236.170133 174.533885 236.171327 174.531004 236.171327 174.528 
C 236.171327 174.524996 236.170133 174.522115 236.168009 174.519991 
C 236.165885 174.517867 236.163004 174.516673 236.16 174.516673 
C 236.156996 174.516673 236.154115 174.517867 236.151991 174.519991 
C 236.149867 174.522115 236.148673 174.524996 236.148673 174.528 
C 236.148673 174.531004 236.149867 174.533885 236.151991 174.536009 
C 236.154115 174.538133 236.156996 174.539327 236.16 174.539327 
z
" style="fill:none;stroke:#000000;stroke-linejoin:miter;"/>
   </g>
   <g id="patch_81">
    <path d="M 236.16 174.544242 
C 236.164307 174.544242 236.168439 174.542531 236.171485 174.539485 
C 236.174531 174.536439 236.176242 174.532307 236.176242 174.528 
C 236.176242 174.523693 236.174531 174.519561 236.171485 174.516515 
C 236.168439 174.513469 236.164307 174.511758 236.16 174.511758 
C 236.155693 174.511758 236.151561 174.513469 236.148515 174.516515 
C 236.145469 174.519561 236.143758 174.523693 236.143758 174.528 
C 236.143758 174.532307 236.145469 174.536439 236.148515 174.539485 
C 236.151561 174.542531 236.155693 174.544242 236.16 174.544242 
z
" style="fill:none;stroke:#000000;stroke-linejoin:miter;"/>
   </g>
   <g id="patch_82">
    <path d="M 236.16 174.551291 
C 236.166177 174.551291 236.172101 174.548837 236.176469 174.544469 
C 236.180837 174.540101 236.183291 174.534177 236.183291 174.528 
C 236.183291 174.521823 236.180837 174.515899 236.176469 174.511531 
C 236.172101 174.507163 236.166177 174.504709 236.16 174.504709 
C 236.153823 174.504709 236.147899 174.507163 236.143531 174.511531 
C 236.139163 174.515899 236.136709 174.521823 236.136709 174.528 
C 236.136709 174.534177 236.139163 174.540101 236.143531 174.544469 
C 236.147899 174.548837 236.153823 174.551291 236.16 174.551291 
z
" style="fill:none;stroke:#000000;stroke-linejoin:miter;"/>
   </g>
   <g id="patch_83">
    <path d="M 236.16 174.561398 
C 236.168857 174.561398 236.177353 174.557879 236.183616 174.551616 
C 236.189879 174.545353 236.193398 174.536857 236.193398 174.528 
C 236.193398 174.519143 236.189879 174.510647 236.183616 174.504384 
C 236.177353 174.498121 236.168857 174.494602 236.16 174.494602 
C 236.151143 174.494602 236.142647 174.498121 236.136384 174.504384 
C 236.130121 174.510647 236.126602 174.519143 236.126602 174.528 
C 236.126602 174.536857 236.130121 174.545353 236.136384 174.551616 
C 236.142647 174.557879 236.151143 174.561398 236.16 174.561398 
z
" style="fill:none;stroke:#000000;stroke-linejoin:miter;"/>
   </g>
   <g id="patch_84">
    <path d="M 236.16 174.575891 
C 236.172701 174.575891 236.184883 174.570845 236.193864 174.561864 
C 236.202845 174.552883 236.207891 174.540701 236.207891 174.528 
C 236.207891 174.515299 236.202845 174.503117 236.193864 174.494136 
C 236.184883 174.485155 236.172701 174.480109 236.16 174.480109 
C 236.147299 174.480109 236.135117 174.485155 236.126136 174.494136 
C 236.117155 174.503117 236.112109 174.515299 236.112109 174.528 
C 236.112109 174.540701 236.117155 174.552883 236.126136 174.561864 
C 236.135117 174.570845 236.147299 174.575891 236.16 174.575891 
z
" style="fill:none;stroke:#000000;stroke-linejoin:miter;"/>
   </g>
   <g id="patch_85">
    <path d="M 236.16 174.596673 
C 236.178212 174.596673 236.195681 174.589437 236.208559 174.576559 
C 236.221437 174.563681 236.228673 174.546212 236.228673 174.528 
C 236.228673 174.509788 236.221437 174.492319 236.208559 174.479441 
C 236.195681 174.466563 236.178212 174.459327 236.16 174.459327 
C 236.141788 174.459327 236.124319 174.466563 236.111441 174.479441 
C 236.098563 174.492319 236.091327 174.509788 236.091327 174.528 
C 236.091327 174.546212 236.098563 174.563681 236.111441 174.576559 
C 236.124319 174.589437 236.141788 174.596673 236.16 174.596673 
z
" style="fill:none;stroke:#000000;stroke-linejoin:miter;"/>
   </g>
   <g id="patch_86">
    <path d="M 236.16 174.626474 
C 236.186116 174.626474 236.211165 174.616098 236.229632 174.597632 
C 236.248098 174.579165 236.258474 174.554116 236.258474 174.528 
C 236.258474 174.501884 236.248098 174.476835 236.229632 174.458368 
C 236.211165 174.439902 236.186116 174.429526 236.16 174.429526 
C 236.133884 174.429526 236.108835 174.439902 236.090368 174.458368 
C 236.071902 174.476835 236.061526 174.501884 236.061526 174.528 
C 236.061526 174.554116 236.071902 174.579165 236.090368 174.597632 
C 236.108835 174.616098 236.133884 174.626474 236.16 174.626474 
z
" style="fill:none;stroke:#000000;stroke-linejoin:miter;"/>
   </g>
   <g id="patch_87">
    <path d="M 236.16 174.669208 
C 236.197449 174.669208 236.233369 174.654329 236.259849 174.627849 
C 236.286329 174.601369 236.301208 174.565449 236.301208 174.528 
C 236.301208 174.490551 236.286329 174.454631 236.259849 174.428151 
C 236.233369 174.401671 236.197449 174.386792 236.16 174.386792 
C 236.122551 174.386792 236.086631 174.401671 236.060151 174.428151 
C 236.033671 174.454631 236.018792 174.490551 236.018792 174.528 
C 236.018792 174.565449 236.033671 174.601369 236.060151 174.627849 
C 236.086631 174.654329 236.122551 174.669208 236.16 174.669208 
z
" style="fill:none;stroke:#000000;stroke-linejoin:miter;"/>
   </g>
   <g id="patch_88">
    <path d="M 236.16 174.730485 
C 236.2137 174.730485 236.265207 174.70915 236.303179 174.671179 
C 236.34115 174.633207 236.362485 174.5817 236.362485 174.528 
C 236.362485 174.4743 236.34115 174.422793 236.303179 174.384821 
C 236.265207 174.34685 236.2137 174.325515 236.16 174.325515 
C 236.1063 174.325515 236.054793 174.34685 236.016821 174.384821 
C 235.97885 174.422793 235.957515 174.4743 235.957515 174.528 
C 235.957515 174.5817 235.97885 174.633207 236.016821 174.671179 
C 236.054793 174.70915 236.1063 174.730485 236.16 174.730485 
z
" style="fill:none;stroke:#000000;stroke-linejoin:miter;"/>
   </g>
   <g id="patch_89">
    <path d="M 236.16 174.818355 
C 236.237003 174.818355 236.310863 174.787761 236.365312 174.733312 
C 236.419761 174.678863 236.450355 174.605003 236.450355 174.528 
C 236.450355 174.450997 236.419761 174.377137 236.365312 174.322688 
C 236.310863 174.268239 236.237003 174.237645 236.16 174.237645 
C 236.082997 174.237645 236.009137 174.268239 235.954688 174.322688 
C 235.900239 174.377137 235.869645 174.450997 235.869645 174.528 
C 235.869645 174.605003 235.900239 174.678863 235.954688 174.733312 
C 236.009137 174.787761 236.082997 174.818355 236.16 174.818355 
z
" style="fill:none;stroke:#000000;stroke-linejoin:miter;"/>
   </g>
   <g id="patch_90">
    <path d="M 236.16 174.944356 
C 236.270419 174.944356 236.37633 174.900486 236.454408 174.822408 
C 236.532486 174.74433 236.576356 174.638419 236.576356 174.528 
C 236.576356 174.417581 236.532486 174.31167 236.454408 174.233592 
C 236.37633 174.155514 236.270419 174.111644 236.16 174.111644 
C 236.049581 174.111644 235.94367 174.155514 235.865592 174.233592 
C 235.787514 174.31167 235.743644 174.417581 235.743644 174.528 
C 235.743644 174.638419 235.787514 174.74433 235.865592 174.822408 
C 235.94367 174.900486 236.049581 174.944356 236.16 174.944356 
z
" style="fill:none;stroke:#000000;stroke-linejoin:miter;"/>
   </g>
   <g id="patch_91">
    <path d="M 236.16 175.125036 
C 236.318336 175.125036 236.470208 175.062128 236.582168 174.950168 
C 236.694128 174.838208 236.757036 174.686336 236.757036 174.528 
C 236.757036 174.369664 236.694128 174.217792 236.582168 174.105832 
C 236.470208 173.993872 236.318336 173.930964 236.16 173.930964 
C 236.001664 173.930964 235.849792 173.993872 235.737832 174.105832 
C 235.625872 174.217792 235.562964 174.369664 235.562964 174.528 
C 235.562964 174.686336 235.625872 174.838208 235.737832 174.950168 
C 235.849792 175.062128 236.001664 175.125036 236.16 175.125036 
z
" style="fill:none;stroke:#000000;stroke-linejoin:miter;"/>
   </g>
   <g id="patch_92">
    <path d="M 236.16 175.384123 
C 236.387046 175.384123 236.604824 175.293916 236.76537 175.13337 
C 236.925916 174.972824 237.016123 174.755046 237.016123 174.528 
C 237.016123 174.300954 236.925916 174.083176 236.76537 173.92263 
C 236.604824 173.762084 236.387046 173.671877 236.16 173.671877 
C 235.932954 173.671877 235.715176 173.762084 235.55463 173.92263 
C 235.394084 174.083176 235.303877 174.300954 235.303877 174.528 
C 235.303877 174.755046 235.394084 174.972824 235.55463 175.13337 
C 235.715176 175.293916 235.932954 175.384123 236.16 175.384123 
z
" style="fill:none;stroke:#000000;stroke-linejoin:miter;"/>
   </g>
   <g id="patch_93">
    <path d="M 236.16 175.755642 
C 236.485574 175.755642 236.797858 175.62629 237.028074 175.396074 
C 237.25829 175.165858 237.387642 174.853574 237.387642 174.528 
C 237.387642 174.202426 237.25829 173.890142 237.028074 173.659926 
C 236.797858 173.42971 236.485574 173.300358 236.16 173.300358 
C 235.834426 173.300358 235.522142 173.42971 235.291926 173.659926 
C 235.06171 173.890142 234.932358 174.202426 234.932358 174.528 
C 234.932358 174.853574 235.06171 175.165858 235.291926 175.396074 
C 235.522142 175.62629 235.834426 175.755642 236.16 175.755642 
z
" style="fill:none;stroke:#000000;stroke-linejoin:miter;"/>
   </g>
   <g id="patch_94">
    <path d="M 236.16 176.288384 
C 236.626859 176.288384 237.07466 176.102898 237.404779 175.772779 
C 237.734898 175.44266 237.920384 174.994859 237.920384 174.528 
C 237.920384 174.061141 237.734898 173.61334 237.404779 173.283221 
C 237.07466 172.953102 236.626859 172.767616 236.16 172.767616 
C 235.693141 172.767616 235.24534 172.953102 234.915221 173.283221 
C 234.585102 173.61334 234.399616 174.061141 234.399616 174.528 
C 234.399616 174.994859 234.585102 175.44266 234.915221 175.772779 
C 235.24534 176.102898 235.693141 176.288384 236.16 176.288384 
z
" style="fill:none;stroke:#000000;stroke-linejoin:miter;"/>
   </g>
   <g id="patch_95">
    <path d="M 236.16 177.052311 
C 236.829455 177.052311 237.471581 176.786334 237.944958 176.312958 
C 238.418334 175.839581 238.684311 175.197455 238.684311 174.528 
C 238.684311 173.858545 238.418334 173.216419 237.944958 172.743042 
C 237.471581 172.269666 236.829455 172.003689 236.16 172.003689 
C 235.490545 172.003689 234.848419 172.269666 234.375042 172.743042 
C 233.901666 173.216419 233.635689 173.858545 233.635689 174.528 
C 233.635689 175.197455 233.901666 175.839581 234.375042 176.312958 
C 234.848419 176.786334 235.490545 177.052311 236.16 177.052311 
z
" style="fill:none;stroke:#000000;stroke-linejoin:miter;"/>
   </g>
   <g id="patch_96">
    <path d="M 236.16 178.147749 
C 237.119969 178.147749 238.040749 177.76635 238.719549 177.087549 
C 239.39835 176.408749 239.779749 175.487969 239.779749 174.528 
C 239.779749 173.568031 239.39835 172.647251 238.719549 171.968451 
C 238.040749 171.28965 237.119969 170.908251 236.16 170.908251 
C 235.200031 170.908251 234.279251 171.28965 233.600451 171.968451 
C 232.92165 172.647251 232.540251 173.568031 232.540251 174.528 
C 232.540251 175.487969 232.92165 176.408749 233.600451 177.087549 
C 234.279251 177.76635 235.200031 178.147749 236.16 178.147749 
z
" style="fill:none;stroke:#000000;stroke-linejoin:miter;"/>
   </g>
   <g id="patch_97">
    <path d="M 236.16 179.718558 
C 237.536552 179.718558 238.85691 179.171648 239.830279 178.198279 
C 240.803648 177.22491 241.350558 175.904552 241.350558 174.528 
C 241.350558 173.151448 240.803648 171.83109 239.830279 170.857721 
C 238.85691 169.884352 237.536552 169.337442 236.16 169.337442 
C 234.783448 169.337442 233.46309 169.884352 232.489721 170.857721 
C 231.516352 171.83109 230.969442 173.151448 230.969442 174.528 
C 230.969442 175.904552 231.516352 177.22491 232.489721 178.198279 
C 233.46309 179.171648 234.783448 179.718558 236.16 179.718558 
z
" style="fill:none;stroke:#000000;stroke-linejoin:miter;"/>
   </g>
   <g id="patch_98">
    <path d="M 236.16 181.971028 
C 238.133914 181.971028 240.027248 181.186784 241.423016 179.791016 
C 242.818784 178.395248 243.603028 176.501914 243.603028 174.528 
C 243.603028 172.554086 242.818784 170.660752 241.423016 169.264984 
C 240.027248 167.869216 238.133914 167.084972 236.16 167.084972 
C 234.186086 167.084972 232.292752 167.869216 230.896984 169.264984 
C 229.501216 170.660752 228.716972 172.554086 228.716972 174.528 
C 228.716972 176.501914 229.501216 178.395248 230.896984 179.791016 
C 232.292752 181.186784 234.186086 181.971028 236.16 181.971028 
z
" style="fill:none;stroke:#000000;stroke-linejoin:miter;"/>
   </g>
   <g id="patch_99">
    <path d="M 236.16 185.20097 
C 238.990505 185.20097 241.70546 184.076398 243.706929 182.074929 
C 245.708398 180.07346 246.83297 177.358505 246.83297 174.528 
C 246.83297 171.697495 245.708398 168.98254 243.706929 166.981071 
C 241.70546 164.979602 238.990505 163.85503 236.16 163.85503 
C 233.329495 163.85503 230.61454 164.979602 228.613071 166.981071 
C 226.611602 168.98254 225.48703 171.697495 225.48703 174.528 
C 225.48703 177.358505 226.611602 180.07346 228.613071 182.074929 
C 230.61454 184.076398 233.329495 185.20097 236.16 185.20097 
z
" style="fill:none;stroke:#000000;stroke-linejoin:miter;"/>
   </g>
   <g id="patch_100">
    <path d="M 236.16 189.832561 
C 240.218817 189.832561 244.111942 188.219976 246.981959 185.349959 
C 249.851976 182.479942 251.464561 178.586817 251.464561 174.528 
C 251.464561 170.469183 249.851976 166.576058 246.981959 163.706041 
C 244.111942 160.836024 240.218817 159.223439 236.16 159.223439 
C 232.101183 159.223439 228.208058 160.836024 225.338041 163.706041 
C 222.468024 166.576058 220.855439 170.469183 220.855439 174.528 
C 220.855439 178.586817 222.468024 182.479942 225.338041 185.349959 
C 228.208058 188.219976 232.101183 189.832561 236.16 189.832561 
z
" style="fill:none;stroke:#000000;stroke-linejoin:miter;"/>
   </g>
   <g id="patch_101">
    <path d="M 236.16 196.474056 
C 241.980162 196.474056 247.562729 194.161681 251.678205 190.046205 
C 255.793681 185.930729 258.106056 180.348162 258.106056 174.528 
C 258.106056 168.707838 255.793681 163.125271 251.678205 159.009795 
C 247.562729 154.894319 241.980162 152.581944 236.16 152.581944 
C 230.339838 152.581944 224.757271 154.894319 220.641795 159.009795 
C 216.526319 163.125271 214.213944 168.707838 214.213944 174.528 
C 214.213944 180.348162 216.526319 185.930729 220.641795 190.046205 
C 224.757271 194.161681 230.339838 196.474056 236.16 196.474056 
z
" style="fill:none;stroke:#000000;stroke-linejoin:miter;"/>
   </g>
   <g id="patch_102">
    <path d="M 236.16 205.997662 
C 244.505852 205.997662 252.511003 202.681819 258.412411 196.780411 
C 264.313819 190.879003 267.629662 182.873852 267.629662 174.528 
C 267.629662 166.182148 264.313819 158.176997 258.412411 152.275589 
C 252.511003 146.374181 244.505852 143.058338 236.16 143.058338 
C 227.814148 143.058338 219.808997 146.374181 213.907589 152.275589 
C 208.006181 158.176997 204.690338 166.182148 204.690338 174.528 
C 204.690338 182.873852 208.006181 190.879003 213.907589 196.780411 
C 219.808997 202.681819 227.814148 205.997662 236.16 205.997662 
z
" style="fill:none;stroke:#000000;stroke-linejoin:miter;"/>
   </g>
   <g id="patch_103">
    <path d="M 236.16 219.654086 
C 248.127578 219.654086 259.606606 214.899317 268.068962 206.436962 
C 276.531317 197.974606 281.286086 186.495578 281.286086 174.528 
C 281.286086 162.560422 276.531317 151.081394 268.068962 142.619038 
C 259.606606 134.156683 248.127578 129.401914 236.16 129.401914 
C 224.192422 129.401914 212.713394 134.156683 204.251038 142.619038 
C 195.788683 151.081394 191.033914 162.560422 191.033914 174.528 
C 191.033914 186.495578 195.788683 197.974606 204.251038 206.436962 
C 212.713394 214.899317 224.192422 219.654086 236.16 219.654086 
z
" style="fill:none;stroke:#000000;stroke-linejoin:miter;"/>
   </g>
   <g id="patch_104">
    <path d="M 236.16 239.236788 
C 253.320971 239.236788 269.781384 232.418662 281.916023 220.284023 
C 294.050662 208.149384 300.868788 191.688971 300.868788 174.528 
C 300.868788 157.367029 294.050662 140.906616 281.916023 128.771977 
C 269.781384 116.637338 253.320971 109.819212 236.16 109.819212 
C 218.999029 109.819212 202.538616 116.637338 190.403977 128.771977 
C 178.269338 140.906616 171.451212 157.367029 171.451212 174.528 
C 171.451212 191.688971 178.269338 208.149384 190.403977 220.284023 
C 202.538616 232.418662 218.999029 239.236788 236.16 239.236788 
z
" style="fill:none;stroke:#000000;stroke-linejoin:miter;"/>
   </g>
   <g id="patch_105">
    <path d="M 236.16 267.317507 
C 260.768065 267.317507 284.37156 257.540619 301.772089 240.140089 
C 319.172619 222.73956 328.949507 199.136065 328.949507 174.528 
C 328.949507 149.919935 319.172619 126.31644 301.772089 108.915911 
C 284.37156 91.515381 260.768065 81.738493 236.16 81.738493 
C 211.551935 81.738493 187.94844 91.515381 170.547911 108.915911 
C 153.147381 126.31644 143.370493 149.919935 143.370493 174.528 
C 143.370493 199.136065 153.147381 222.73956 170.547911 240.140089 
C 187.94844 257.540619 211.551935 267.317507 236.16 267.317507 
z
" style="fill:none;stroke:#000000;stroke-linejoin:miter;"/>
   </g>
   <g id="patch_106">
    <path d="M 236.16 307.584 
C 271.446864 307.584 305.293219 293.56438 330.2448 268.6128 
C 355.19638 243.661219 369.216 209.814864 369.216 174.528 
C 369.216 139.241136 355.19638 105.394781 330.2448 80.4432 
C 305.293219 55.49162 271.446864 41.472 236.16 41.472 
C 200.873136 41.472 167.026781 55.49162 142.0752 80.4432 
C 117.12362 105.394781 103.104 139.241136 103.104 174.528 
C 103.104 209.814864 117.12362 243.661219 142.0752 268.6128 
C 167.026781 293.56438 200.873136 307.584 236.16 307.584 
z
" style="fill:none;stroke:#000000;stroke-linejoin:miter;"/>
   </g>
   <g id="text_1">
    <!-- $n$ -->
    <defs>
     <path d="M 55.71875 33.015625 
L 49.3125 0 
L 40.28125 0 
L 46.6875 32.671875 
Q 47.125 34.96875 47.359375 36.71875 
Q 47.609375 38.484375 47.609375 39.5 
Q 47.609375 43.609375 45.015625 45.890625 
Q 42.4375 48.1875 37.796875 48.1875 
Q 30.5625 48.1875 25.34375 43.375 
Q 20.125 38.578125 18.5 30.328125 
L 12.5 0 
L 3.515625 0 
L 14.109375 54.6875 
L 23.09375 54.6875 
L 21.296875 46.09375 
Q 25.046875 50.828125 30.3125 53.40625 
Q 35.59375 56 41.40625 56 
Q 48.640625 56 52.609375 52.09375 
Q 56.59375 48.1875 56.59375 41.109375 
Q 56.59375 39.359375 56.375 37.359375 
Q 56.15625 35.359375 55.71875 33.015625 
z
" id="DejaVuSans-Oblique-110"/>
    </defs>
    <g transform="translate(336.8976 282.864037)scale(0.1 -0.1)">
     <use xlink:href="#DejaVuSans-Oblique-110"/>
    </g>
   </g>
   <g id="patch_107">
    <path d="M 237.575521 173.112479 
Q 283.201736 127.486264 328.037381 82.650619 
" style="fill:none;stroke:#000000;stroke-linecap:round;"/>
    <path d="M 323.794741 84.064832 
L 328.037381 82.650619 
L 326.623168 86.893259 
L 323.794741 84.064832 
z
" style="fill:#1f77b4;stroke:#000000;stroke-linecap:round;"/>
   </g>
   <g id="text_2">
    <!-- stop -->
    <defs>
     <path d="M 44.28125 53.078125 
L 44.28125 44.578125 
Q 40.484375 46.53125 36.375 47.5 
Q 32.28125 48.484375 27.875 48.484375 
Q 21.1875 48.484375 17.84375 46.4375 
Q 14.5 44.390625 14.5 40.28125 
Q 14.5 37.15625 16.890625 35.375 
Q 19.28125 33.59375 26.515625 31.984375 
L 29.59375 31.296875 
Q 39.15625 29.25 43.1875 25.515625 
Q 47.21875 21.78125 47.21875 15.09375 
Q 47.21875 7.46875 41.1875 3.015625 
Q 35.15625 -1.421875 24.609375 -1.421875 
Q 20.21875 -1.421875 15.453125 -0.5625 
Q 10.6875 0.296875 5.421875 2 
L 5.421875 11.28125 
Q 10.40625 8.6875 15.234375 7.390625 
Q 20.0625 6.109375 24.8125 6.109375 
Q 31.15625 6.109375 34.5625 8.28125 
Q 37.984375 10.453125 37.984375 14.40625 
Q 37.984375 18.0625 35.515625 20.015625 
Q 33.0625 21.96875 24.703125 23.78125 
L 21.578125 24.515625 
Q 13.234375 26.265625 9.515625 29.90625 
Q 5.8125 33.546875 5.8125 39.890625 
Q 5.8125 47.609375 11.28125 51.796875 
Q 16.75 56 26.8125 56 
Q 31.78125 56 36.171875 55.265625 
Q 40.578125 54.546875 44.28125 53.078125 
z
" id="DejaVuSans-115"/>
     <path d="M 18.3125 70.21875 
L 18.3125 54.6875 
L 36.8125 54.6875 
L 36.8125 47.703125 
L 18.3125 47.703125 
L 18.3125 18.015625 
Q 18.3125 11.328125 20.140625 9.421875 
Q 21.96875 7.515625 27.59375 7.515625 
L 36.8125 7.515625 
L 36.8125 0 
L 27.59375 0 
Q 17.1875 0 13.234375 3.875 
Q 9.28125 7.765625 9.28125 18.015625 
L 9.28125 47.703125 
L 2.6875 47.703125 
L 2.6875 54.6875 
L 9.28125 54.6875 
L 9.28125 70.21875 
z
" id="DejaVuSans-116"/>
     <path d="M 30.609375 48.390625 
Q 23.390625 48.390625 19.1875 42.75 
Q 14.984375 37.109375 14.984375 27.296875 
Q 14.984375 17.484375 19.15625 11.84375 
Q 23.34375 6.203125 30.609375 6.203125 
Q 37.796875 6.203125 41.984375 11.859375 
Q 46.1875 17.53125 46.1875 27.296875 
Q 46.1875 37.015625 41.984375 42.703125 
Q 37.796875 48.390625 30.609375 48.390625 
z
M 30.609375 56 
Q 42.328125 56 49.015625 48.375 
Q 55.71875 40.765625 55.71875 27.296875 
Q 55.71875 13.875 49.015625 6.21875 
Q 42.328125 -1.421875 30.609375 -1.421875 
Q 18.84375 -1.421875 12.171875 6.21875 
Q 5.515625 13.875 5.515625 27.296875 
Q 5.515625 40.765625 12.171875 48.375 
Q 18.84375 56 30.609375 56 
z
" id="DejaVuSans-111"/>
     <path d="M 18.109375 8.203125 
L 18.109375 -20.796875 
L 9.078125 -20.796875 
L 9.078125 54.6875 
L 18.109375 54.6875 
L 18.109375 46.390625 
Q 20.953125 51.265625 25.265625 53.625 
Q 29.59375 56 35.59375 56 
Q 45.5625 56 51.78125 48.09375 
Q 58.015625 40.1875 58.015625 27.296875 
Q 58.015625 14.40625 51.78125 6.484375 
Q 45.5625 -1.421875 35.59375 -1.421875 
Q 29.59375 -1.421875 25.265625 0.953125 
Q 20.953125 3.328125 18.109375 8.203125 
z
M 48.6875 27.296875 
Q 48.6875 37.203125 44.609375 42.84375 
Q 40.53125 48.484375 33.40625 48.484375 
Q 26.265625 48.484375 22.1875 42.84375 
Q 18.109375 37.203125 18.109375 27.296875 
Q 18.109375 17.390625 22.1875 11.75 
Q 26.265625 6.109375 33.40625 6.109375 
Q 40.53125 6.109375 44.609375 11.75 
Q 48.6875 17.390625 48.6875 27.296875 
z
" id="DejaVuSans-112"/>
    </defs>
    <g transform="translate(336.8976 73.7904)scale(0.1 -0.1)">
     <use xlink:href="#DejaVuSans-115"/>
     <use x="52.099609" xlink:href="#DejaVuSans-116"/>
     <use x="91.308594" xlink:href="#DejaVuSans-111"/>
     <use x="152.490234" xlink:href="#DejaVuSans-112"/>
    </g>
   </g>
  </g>
 </g>
 <defs>
  <clipPath id="pcc641c628c">
   <rect height="266.112" width="266.112" x="103.104" y="41.472"/>
  </clipPath>
 </defs>
</svg>
