<?xml version="1.0" encoding="utf-8" standalone="no"?>
<!DOCTYPE svg PUBLIC "-//W3C//DTD SVG 1.1//EN"
  "http://www.w3.org/Graphics/SVG/1.1/DTD/svg11.dtd">
<!-- Created with matplotlib (https://matplotlib.org/) -->
<svg height="345.6pt" version="1.1" viewBox="0 0 460.8 345.6" width="460.8pt" xmlns="http://www.w3.org/2000/svg" xmlns:xlink="http://www.w3.org/1999/xlink">
 <defs>
  <style type="text/css">
*{stroke-linecap:butt;stroke-linejoin:round;}
  </style>
 </defs>
 <g id="figure_1">
  <g id="patch_1">
   <path d="M 0 345.6 
L 460.8 345.6 
L 460.8 0 
L 0 0 
z
" style="fill:#ffffff;"/>
  </g>
  <g id="axes_1">
   <g id="patch_2">
    <path clip-path="url(#p8552ad1a7b)" d="M 129.7152 280.9728 
L 140.35968 280.9728 
L 140.35968 68.0832 
L 129.7152 68.0832 
z
" style="fill:#d3d3d3;stroke:#d3d3d3;stroke-linejoin:miter;"/>
   </g>
   <g id="patch_3">
    <path clip-path="url(#p8552ad1a7b)" d="M 225.51552 280.9728 
L 236.16 280.9728 
L 236.16 68.0832 
L 225.51552 68.0832 
z
" style="fill:#d3d3d3;stroke:#d3d3d3;stroke-linejoin:miter;"/>
   </g>
   <g id="patch_4">
    <path clip-path="url(#p8552ad1a7b)" d="M 236.16 280.9728 
L 246.80448 280.9728 
L 246.80448 68.0832 
L 236.16 68.0832 
z
" style="fill:#d3d3d3;stroke:#d3d3d3;stroke-linejoin:miter;"/>
   </g>
   <g id="patch_5">
    <path clip-path="url(#p8552ad1a7b)" d="M 331.96032 280.9728 
L 342.6048 280.9728 
L 342.6048 68.0832 
L 331.96032 68.0832 
z
" style="fill:#d3d3d3;stroke:#d3d3d3;stroke-linejoin:miter;"/>
   </g>
   <g id="line2d_1">
    <path clip-path="url(#p8552ad1a7b)" d="M 129.7152 280.9728 
L 129.7152 68.0832 
" style="fill:none;stroke:#000000;stroke-linecap:square;stroke-width:1.5;"/>
   </g>
   <g id="line2d_2">
    <path clip-path="url(#p8552ad1a7b)" d="M 140.35968 280.9728 
L 140.35968 68.0832 
" style="fill:none;stroke:#000000;stroke-linecap:square;stroke-width:1.5;"/>
   </g>
   <g id="line2d_3">
    <path clip-path="url(#p8552ad1a7b)" d="M 151.00416 280.9728 
L 151.00416 68.0832 
" style="fill:none;stroke:#000000;stroke-linecap:square;stroke-width:1.5;"/>
   </g>
   <g id="line2d_4">
    <path clip-path="url(#p8552ad1a7b)" d="M 161.64864 280.9728 
L 161.64864 68.0832 
" style="fill:none;stroke:#000000;stroke-linecap:square;stroke-width:1.5;"/>
   </g>
   <g id="line2d_5">
    <path clip-path="url(#p8552ad1a7b)" d="M 172.29312 280.9728 
L 172.29312 68.0832 
" style="fill:none;stroke:#000000;stroke-linecap:square;stroke-width:1.5;"/>
   </g>
   <g id="line2d_6">
    <path clip-path="url(#p8552ad1a7b)" d="M 182.9376 280.9728 
L 182.9376 68.0832 
" style="fill:none;stroke:#000000;stroke-linecap:square;stroke-width:1.5;"/>
   </g>
   <g id="line2d_7">
    <path clip-path="url(#p8552ad1a7b)" d="M 193.58208 280.9728 
L 193.58208 68.0832 
" style="fill:none;stroke:#000000;stroke-linecap:square;stroke-width:1.5;"/>
   </g>
   <g id="line2d_8">
    <path clip-path="url(#p8552ad1a7b)" d="M 204.22656 280.9728 
L 204.22656 68.0832 
" style="fill:none;stroke:#000000;stroke-linecap:square;stroke-width:1.5;"/>
   </g>
   <g id="line2d_9">
    <path clip-path="url(#p8552ad1a7b)" d="M 214.87104 280.9728 
L 214.87104 68.0832 
" style="fill:none;stroke:#000000;stroke-linecap:square;stroke-width:1.5;"/>
   </g>
   <g id="line2d_10">
    <path clip-path="url(#p8552ad1a7b)" d="M 225.51552 280.9728 
L 225.51552 68.0832 
" style="fill:none;stroke:#000000;stroke-linecap:square;stroke-width:1.5;"/>
   </g>
   <g id="line2d_11">
    <path clip-path="url(#p8552ad1a7b)" d="M 236.16 280.9728 
L 236.16 68.0832 
" style="fill:none;stroke:#000000;stroke-linecap:square;stroke-width:1.5;"/>
   </g>
   <g id="line2d_12">
    <path clip-path="url(#p8552ad1a7b)" d="M 236.16 280.9728 
L 236.16 68.0832 
" style="fill:none;stroke:#000000;stroke-linecap:square;stroke-width:1.5;"/>
   </g>
   <g id="line2d_13">
    <path clip-path="url(#p8552ad1a7b)" d="M 246.80448 280.9728 
L 246.80448 68.0832 
" style="fill:none;stroke:#000000;stroke-linecap:square;stroke-width:1.5;"/>
   </g>
   <g id="line2d_14">
    <path clip-path="url(#p8552ad1a7b)" d="M 257.44896 280.9728 
L 257.44896 68.0832 
" style="fill:none;stroke:#000000;stroke-linecap:square;stroke-width:1.5;"/>
   </g>
   <g id="line2d_15">
    <path clip-path="url(#p8552ad1a7b)" d="M 268.09344 280.9728 
L 268.09344 68.0832 
" style="fill:none;stroke:#000000;stroke-linecap:square;stroke-width:1.5;"/>
   </g>
   <g id="line2d_16">
    <path clip-path="url(#p8552ad1a7b)" d="M 278.73792 280.9728 
L 278.73792 68.0832 
" style="fill:none;stroke:#000000;stroke-linecap:square;stroke-width:1.5;"/>
   </g>
   <g id="line2d_17">
    <path clip-path="url(#p8552ad1a7b)" d="M 289.3824 280.9728 
L 289.3824 68.0832 
" style="fill:none;stroke:#000000;stroke-linecap:square;stroke-width:1.5;"/>
   </g>
   <g id="line2d_18">
    <path clip-path="url(#p8552ad1a7b)" d="M 300.02688 280.9728 
L 300.02688 68.0832 
" style="fill:none;stroke:#000000;stroke-linecap:square;stroke-width:1.5;"/>
   </g>
   <g id="line2d_19">
    <path clip-path="url(#p8552ad1a7b)" d="M 310.67136 280.9728 
L 310.67136 68.0832 
" style="fill:none;stroke:#000000;stroke-linecap:square;stroke-width:1.5;"/>
   </g>
   <g id="line2d_20">
    <path clip-path="url(#p8552ad1a7b)" d="M 321.31584 280.9728 
L 321.31584 68.0832 
" style="fill:none;stroke:#000000;stroke-linecap:square;stroke-width:1.5;"/>
   </g>
   <g id="line2d_21">
    <path clip-path="url(#p8552ad1a7b)" d="M 331.96032 280.9728 
L 331.96032 68.0832 
" style="fill:none;stroke:#000000;stroke-linecap:square;stroke-width:1.5;"/>
   </g>
   <g id="line2d_22">
    <path clip-path="url(#p8552ad1a7b)" d="M 342.6048 280.9728 
L 342.6048 68.0832 
" style="fill:none;stroke:#000000;stroke-linecap:square;stroke-width:1.5;"/>
   </g>
   <g id="patch_6">
    <path d="M 238.157789 287.6256 
Q 289.382023 287.6256 339.488222 287.6256 
" style="fill:none;stroke:#000000;stroke-linecap:round;"/>
    <path d="M 335.488222 285.6256 
L 339.488222 287.6256 
L 335.488222 289.6256 
L 335.488222 285.6256 
z
" style="fill:#1f77b4;stroke:#000000;stroke-linecap:round;"/>
   </g>
   <g id="patch_7">
    <path d="M 234.162211 287.6256 
Q 182.937977 287.6256 132.831778 287.6256 
" style="fill:none;stroke:#000000;stroke-linecap:round;"/>
    <path d="M 136.831778 289.6256 
L 132.831778 287.6256 
L 136.831778 285.6256 
L 136.831778 289.6256 
z
" style="fill:#1f77b4;stroke:#000000;stroke-linecap:round;"/>
   </g>
   <g id="text_1">
    <!-- $center - range$ -->
    <defs>
     <path d="M 53.609375 52.59375 
L 51.8125 43.703125 
Q 48.578125 46.046875 44.9375 47.21875 
Q 41.3125 48.390625 37.40625 48.390625 
Q 33.109375 48.390625 29.21875 46.875 
Q 25.34375 45.359375 22.703125 42.578125 
Q 18.5 38.328125 16.203125 32.609375 
Q 13.921875 26.90625 13.921875 20.796875 
Q 13.921875 13.421875 17.609375 9.8125 
Q 21.296875 6.203125 28.8125 6.203125 
Q 32.515625 6.203125 36.6875 7.328125 
Q 40.875 8.453125 45.40625 10.6875 
L 43.703125 1.8125 
Q 39.796875 0.203125 35.671875 -0.609375 
Q 31.546875 -1.421875 27.203125 -1.421875 
Q 16.3125 -1.421875 10.453125 4.015625 
Q 4.59375 9.46875 4.59375 19.578125 
Q 4.59375 28.078125 7.640625 35.234375 
Q 10.6875 42.390625 16.703125 48.09375 
Q 20.796875 52 26.3125 54 
Q 31.84375 56 38.375 56 
Q 42.1875 56 45.9375 55.140625 
Q 49.703125 54.296875 53.609375 52.59375 
z
" id="DejaVuSans-Oblique-99"/>
     <path d="M 48.09375 32.234375 
Q 48.25 33.015625 48.3125 33.84375 
Q 48.390625 34.671875 48.390625 35.5 
Q 48.390625 41.453125 44.890625 44.921875 
Q 41.40625 48.390625 35.40625 48.390625 
Q 28.71875 48.390625 23.578125 44.15625 
Q 18.453125 39.9375 15.828125 32.171875 
z
M 55.90625 25.203125 
L 14.109375 25.203125 
Q 13.8125 23.34375 13.71875 22.265625 
Q 13.625 21.1875 13.625 20.40625 
Q 13.625 13.625 17.796875 9.90625 
Q 21.96875 6.203125 29.59375 6.203125 
Q 35.453125 6.203125 40.671875 7.515625 
Q 45.90625 8.84375 50.390625 11.375 
L 48.6875 2.484375 
Q 43.84375 0.53125 38.6875 -0.4375 
Q 33.546875 -1.421875 28.21875 -1.421875 
Q 16.84375 -1.421875 10.71875 4.015625 
Q 4.59375 9.46875 4.59375 19.484375 
Q 4.59375 28.03125 7.640625 35.375 
Q 10.6875 42.71875 16.609375 48.484375 
Q 20.40625 52.09375 25.65625 54.046875 
Q 30.90625 56 36.8125 56 
Q 46.09375 56 51.578125 50.4375 
Q 57.078125 44.875 57.078125 35.5 
Q 57.078125 33.25 56.78125 30.6875 
Q 56.5 28.125 55.90625 25.203125 
z
" id="DejaVuSans-Oblique-101"/>
     <path d="M 55.71875 33.015625 
L 49.3125 0 
L 40.28125 0 
L 46.6875 32.671875 
Q 47.125 34.96875 47.359375 36.71875 
Q 47.609375 38.484375 47.609375 39.5 
Q 47.609375 43.609375 45.015625 45.890625 
Q 42.4375 48.1875 37.796875 48.1875 
Q 30.5625 48.1875 25.34375 43.375 
Q 20.125 38.578125 18.5 30.328125 
L 12.5 0 
L 3.515625 0 
L 14.109375 54.6875 
L 23.09375 54.6875 
L 21.296875 46.09375 
Q 25.046875 50.828125 30.3125 53.40625 
Q 35.59375 56 41.40625 56 
Q 48.640625 56 52.609375 52.09375 
Q 56.59375 48.1875 56.59375 41.109375 
Q 56.59375 39.359375 56.375 37.359375 
Q 56.15625 35.359375 55.71875 33.015625 
z
" id="DejaVuSans-Oblique-110"/>
     <path d="M 42.28125 54.6875 
L 40.921875 47.703125 
L 23 47.703125 
L 17.1875 18.015625 
Q 16.890625 16.359375 16.75 15.234375 
Q 16.609375 14.109375 16.609375 13.484375 
Q 16.609375 10.359375 18.484375 8.9375 
Q 20.359375 7.515625 24.515625 7.515625 
L 33.59375 7.515625 
L 32.078125 0 
L 23.484375 0 
Q 15.484375 0 11.546875 3.125 
Q 7.625 6.25 7.625 12.59375 
Q 7.625 13.71875 7.765625 15.0625 
Q 7.90625 16.40625 8.203125 18.015625 
L 14.015625 47.703125 
L 6.390625 47.703125 
L 7.8125 54.6875 
L 15.28125 54.6875 
L 18.3125 70.21875 
L 27.296875 70.21875 
L 24.3125 54.6875 
z
" id="DejaVuSans-Oblique-116"/>
     <path d="M 44.578125 46.390625 
Q 43.21875 47.125 41.453125 47.515625 
Q 39.703125 47.90625 37.703125 47.90625 
Q 30.515625 47.90625 25.140625 42.453125 
Q 19.78125 37.015625 18.015625 27.875 
L 12.5 0 
L 3.515625 0 
L 14.203125 54.6875 
L 23.1875 54.6875 
L 21.484375 46.1875 
Q 25.046875 50.921875 30 53.453125 
Q 34.96875 56 40.578125 56 
Q 42.046875 56 43.453125 55.828125 
Q 44.875 55.671875 46.296875 55.28125 
z
" id="DejaVuSans-Oblique-114"/>
     <path d="M 10.59375 35.5 
L 73.1875 35.5 
L 73.1875 27.203125 
L 10.59375 27.203125 
z
" id="DejaVuSans-8722"/>
     <path d="M 53.71875 31.203125 
L 47.609375 0 
L 38.625 0 
L 40.28125 8.296875 
Q 36.328125 3.421875 31.265625 1 
Q 26.21875 -1.421875 20.015625 -1.421875 
Q 13.03125 -1.421875 8.5625 2.84375 
Q 4.109375 7.125 4.109375 13.8125 
Q 4.109375 23.390625 11.75 28.953125 
Q 19.390625 34.515625 32.8125 34.515625 
L 45.3125 34.515625 
L 45.796875 36.921875 
Q 45.90625 37.3125 45.953125 37.765625 
Q 46 38.234375 46 39.203125 
Q 46 43.5625 42.453125 45.96875 
Q 38.921875 48.390625 32.515625 48.390625 
Q 28.125 48.390625 23.5 47.265625 
Q 18.890625 46.140625 14.015625 43.890625 
L 15.578125 52.203125 
Q 20.65625 54.109375 25.515625 55.046875 
Q 30.375 56 34.90625 56 
Q 44.578125 56 49.625 51.796875 
Q 54.6875 47.609375 54.6875 39.59375 
Q 54.6875 37.984375 54.4375 35.8125 
Q 54.203125 33.640625 53.71875 31.203125 
z
M 44 27.484375 
L 35.015625 27.484375 
Q 23.96875 27.484375 18.671875 24.53125 
Q 13.375 21.578125 13.375 15.375 
Q 13.375 11.078125 16.078125 8.640625 
Q 18.796875 6.203125 23.578125 6.203125 
Q 30.90625 6.203125 36.375 11.453125 
Q 41.84375 16.703125 43.609375 25.484375 
z
" id="DejaVuSans-Oblique-97"/>
     <path d="M 59.625 54.6875 
L 50.296875 6.78125 
Q 47.609375 -7.125 40.015625 -13.953125 
Q 32.421875 -20.796875 19.578125 -20.796875 
Q 14.84375 -20.796875 10.78125 -20.09375 
Q 6.734375 -19.390625 3.21875 -17.921875 
L 4.890625 -9.1875 
Q 8.203125 -11.328125 11.90625 -12.34375 
Q 15.625 -13.375 19.828125 -13.375 
Q 28.375 -13.375 33.859375 -8.703125 
Q 39.359375 -4.046875 41.109375 4.6875 
L 41.890625 8.796875 
Q 38.140625 4.5 33.15625 2.25 
Q 28.171875 0 22.40625 0 
Q 14.109375 0 9.34375 5.484375 
Q 4.59375 10.984375 4.59375 20.609375 
Q 4.59375 28.171875 7.46875 35.421875 
Q 10.359375 42.671875 15.578125 48.296875 
Q 19.046875 52 23.65625 54 
Q 28.265625 56 33.296875 56 
Q 38.8125 56 42.90625 53.4375 
Q 47.015625 50.875 49.03125 46.1875 
L 50.59375 54.6875 
z
M 46.09375 34.625 
Q 46.09375 41.265625 42.96875 44.875 
Q 39.84375 48.484375 34.078125 48.484375 
Q 30.515625 48.484375 27.296875 47.0625 
Q 24.078125 45.65625 21.78125 43.109375 
Q 18.0625 38.921875 15.984375 33.234375 
Q 13.921875 27.546875 13.921875 21.484375 
Q 13.921875 14.75 17.0625 11.125 
Q 20.21875 7.515625 26.125 7.515625 
Q 34.671875 7.515625 40.375 15.25 
Q 46.09375 23 46.09375 34.625 
z
" id="DejaVuSans-Oblique-103"/>
    </defs>
    <g transform="translate(129.7152 301.856525)scale(0.1 -0.1)">
     <use transform="translate(0 0.78125)" xlink:href="#DejaVuSans-Oblique-99"/>
     <use transform="translate(54.980469 0.78125)" xlink:href="#DejaVuSans-Oblique-101"/>
     <use transform="translate(116.503906 0.78125)" xlink:href="#DejaVuSans-Oblique-110"/>
     <use transform="translate(179.882812 0.78125)" xlink:href="#DejaVuSans-Oblique-116"/>
     <use transform="translate(219.091797 0.78125)" xlink:href="#DejaVuSans-Oblique-101"/>
     <use transform="translate(280.615234 0.78125)" xlink:href="#DejaVuSans-Oblique-114"/>
     <use transform="translate(341.210938 0.78125)" xlink:href="#DejaVuSans-8722"/>
     <use transform="translate(444.482422 0.78125)" xlink:href="#DejaVuSans-Oblique-114"/>
     <use transform="translate(485.595703 0.78125)" xlink:href="#DejaVuSans-Oblique-97"/>
     <use transform="translate(546.875 0.78125)" xlink:href="#DejaVuSans-Oblique-110"/>
     <use transform="translate(610.253906 0.78125)" xlink:href="#DejaVuSans-Oblique-103"/>
     <use transform="translate(673.730469 0.78125)" xlink:href="#DejaVuSans-Oblique-101"/>
    </g>
   </g>
   <g id="text_2">
    <!-- $n_{half}$ -->
    <defs>
     <path d="M 55.71875 33.015625 
L 49.3125 0 
L 40.28125 0 
L 46.6875 32.671875 
Q 47.125 34.96875 47.359375 36.71875 
Q 47.609375 38.484375 47.609375 39.5 
Q 47.609375 43.609375 45.015625 45.890625 
Q 42.4375 48.1875 37.796875 48.1875 
Q 30.5625 48.1875 25.265625 43.296875 
Q 19.96875 38.421875 18.40625 30.328125 
L 12.5 0 
L 3.515625 0 
L 18.3125 75.984375 
L 27.296875 75.984375 
L 21.484375 46.09375 
Q 24.90625 50.6875 30.21875 53.34375 
Q 35.546875 56 41.40625 56 
Q 48.640625 56 52.609375 52.09375 
Q 56.59375 48.1875 56.59375 41.109375 
Q 56.59375 39.359375 56.375 37.359375 
Q 56.15625 35.359375 55.71875 33.015625 
z
" id="DejaVuSans-Oblique-104"/>
     <path d="M 18.3125 75.984375 
L 27.296875 75.984375 
L 12.5 0 
L 3.515625 0 
z
" id="DejaVuSans-Oblique-108"/>
     <path d="M 47.796875 75.984375 
L 46.390625 68.5 
L 37.796875 68.5 
Q 32.90625 68.5 30.6875 66.578125 
Q 28.46875 64.65625 27.390625 59.515625 
L 26.421875 54.6875 
L 41.21875 54.6875 
L 39.890625 47.703125 
L 25.09375 47.703125 
L 15.828125 0 
L 6.78125 0 
L 16.109375 47.703125 
L 7.515625 47.703125 
L 8.796875 54.6875 
L 17.390625 54.6875 
L 18.109375 58.5 
Q 19.96875 68.171875 24.625 72.078125 
Q 29.296875 75.984375 39.3125 75.984375 
z
" id="DejaVuSans-Oblique-102"/>
    </defs>
    <g transform="translate(173.0376 315.182437)scale(0.1 -0.1)">
     <use xlink:href="#DejaVuSans-Oblique-110"/>
     <use transform="translate(63.378906 -16.40625)scale(0.7)" xlink:href="#DejaVuSans-Oblique-104"/>
     <use transform="translate(107.744141 -16.40625)scale(0.7)" xlink:href="#DejaVuSans-Oblique-97"/>
     <use transform="translate(150.639648 -16.40625)scale(0.7)" xlink:href="#DejaVuSans-Oblique-108"/>
     <use transform="translate(170.087891 -16.40625)scale(0.7)" xlink:href="#DejaVuSans-Oblique-102"/>
    </g>
   </g>
   <g id="text_3">
    <!-- $center + range$ -->
    <defs>
     <path d="M 46 62.703125 
L 46 35.5 
L 73.1875 35.5 
L 73.1875 27.203125 
L 46 27.203125 
L 46 0 
L 37.796875 0 
L 37.796875 27.203125 
L 10.59375 27.203125 
L 10.59375 35.5 
L 37.796875 35.5 
L 37.796875 62.703125 
z
" id="DejaVuSans-43"/>
    </defs>
    <g transform="translate(269.0048 301.856525)scale(0.1 -0.1)">
     <use transform="translate(0 0.78125)" xlink:href="#DejaVuSans-Oblique-99"/>
     <use transform="translate(54.980469 0.78125)" xlink:href="#DejaVuSans-Oblique-101"/>
     <use transform="translate(116.503906 0.78125)" xlink:href="#DejaVuSans-Oblique-110"/>
     <use transform="translate(179.882812 0.78125)" xlink:href="#DejaVuSans-Oblique-116"/>
     <use transform="translate(219.091797 0.78125)" xlink:href="#DejaVuSans-Oblique-101"/>
     <use transform="translate(280.615234 0.78125)" xlink:href="#DejaVuSans-Oblique-114"/>
     <use transform="translate(341.210938 0.78125)" xlink:href="#DejaVuSans-43"/>
     <use transform="translate(444.482422 0.78125)" xlink:href="#DejaVuSans-Oblique-114"/>
     <use transform="translate(485.595703 0.78125)" xlink:href="#DejaVuSans-Oblique-97"/>
     <use transform="translate(546.875 0.78125)" xlink:href="#DejaVuSans-Oblique-110"/>
     <use transform="translate(610.253906 0.78125)" xlink:href="#DejaVuSans-Oblique-103"/>
     <use transform="translate(673.730469 0.78125)" xlink:href="#DejaVuSans-Oblique-101"/>
    </g>
   </g>
   <g id="text_4">
    <!-- $n_{half}$ -->
    <g transform="translate(279.4824 315.182437)scale(0.1 -0.1)">
     <use xlink:href="#DejaVuSans-Oblique-110"/>
     <use transform="translate(63.378906 -16.40625)scale(0.7)" xlink:href="#DejaVuSans-Oblique-104"/>
     <use transform="translate(107.744141 -16.40625)scale(0.7)" xlink:href="#DejaVuSans-Oblique-97"/>
     <use transform="translate(150.639648 -16.40625)scale(0.7)" xlink:href="#DejaVuSans-Oblique-108"/>
     <use transform="translate(170.087891 -16.40625)scale(0.7)" xlink:href="#DejaVuSans-Oblique-102"/>
    </g>
   </g>
   <g id="text_5">
    <!-- $center$ -->
    <g transform="translate(220.06 301.876837)scale(0.1 -0.1)">
     <use transform="translate(0 0.78125)" xlink:href="#DejaVuSans-Oblique-99"/>
     <use transform="translate(54.980469 0.78125)" xlink:href="#DejaVuSans-Oblique-101"/>
     <use transform="translate(116.503906 0.78125)" xlink:href="#DejaVuSans-Oblique-110"/>
     <use transform="translate(179.882812 0.78125)" xlink:href="#DejaVuSans-Oblique-116"/>
     <use transform="translate(219.091797 0.78125)" xlink:href="#DejaVuSans-Oblique-101"/>
     <use transform="translate(280.615234 0.78125)" xlink:href="#DejaVuSans-Oblique-114"/>
    </g>
   </g>
  </g>
 </g>
 <defs>
  <clipPath id="p8552ad1a7b">
   <rect height="266.112" width="266.112" x="103.104" y="41.472"/>
  </clipPath>
 </defs>
</svg>
