<?xml version="1.0" encoding="utf-8" standalone="no"?>
<!DOCTYPE svg PUBLIC "-//W3C//DTD SVG 1.1//EN"
  "http://www.w3.org/Graphics/SVG/1.1/DTD/svg11.dtd">
<!-- Created with matplotlib (https://matplotlib.org/) -->
<svg height="172.8pt" version="1.1" viewBox="0 0 460.8 172.8" width="460.8pt" xmlns="http://www.w3.org/2000/svg" xmlns:xlink="http://www.w3.org/1999/xlink">
 <defs>
  <style type="text/css">
*{stroke-linecap:butt;stroke-linejoin:round;}
  </style>
 </defs>
 <g id="figure_1">
  <g id="patch_1">
   <path d="M 0 172.8 
L 460.8 172.8 
L 460.8 0 
L 0 0 
z
" style="fill:#ffffff;"/>
  </g>
  <g id="axes_1">
   <g id="patch_2">
    <path clip-path="url(#pc5bc3c5d34)" d="M 85.541236 140.4864 
L 96.185716 140.4864 
L 96.185716 129.84192 
L 85.541236 129.84192 
z
" style="fill:#d3d3d3;stroke:#d3d3d3;stroke-linejoin:miter;"/>
   </g>
   <g id="patch_3">
    <path clip-path="url(#pc5bc3c5d34)" d="M 181.341556 140.4864 
L 191.986036 140.4864 
L 191.986036 129.84192 
L 181.341556 129.84192 
z
" style="fill:#d3d3d3;stroke:#d3d3d3;stroke-linejoin:miter;"/>
   </g>
   <g id="patch_4">
    <path clip-path="url(#pc5bc3c5d34)" d="M 85.541236 44.68608 
L 96.185716 44.68608 
L 96.185716 34.0416 
L 85.541236 34.0416 
z
" style="fill:#d3d3d3;stroke:#d3d3d3;stroke-linejoin:miter;"/>
   </g>
   <g id="line2d_1">
    <path clip-path="url(#pc5bc3c5d34)" d="M 85.541236 140.4864 
L 85.541236 34.0416 
" style="fill:none;stroke:#000000;stroke-linecap:square;stroke-width:1.5;"/>
   </g>
   <g id="line2d_2">
    <path clip-path="url(#pc5bc3c5d34)" d="M 96.185716 140.4864 
L 96.185716 34.0416 
" style="fill:none;stroke:#000000;stroke-linecap:square;stroke-width:1.5;"/>
   </g>
   <g id="line2d_3">
    <path clip-path="url(#pc5bc3c5d34)" d="M 106.830196 140.4864 
L 106.830196 34.0416 
" style="fill:none;stroke:#000000;stroke-linecap:square;stroke-width:1.5;"/>
   </g>
   <g id="line2d_4">
    <path clip-path="url(#pc5bc3c5d34)" d="M 117.474676 140.4864 
L 117.474676 34.0416 
" style="fill:none;stroke:#000000;stroke-linecap:square;stroke-width:1.5;"/>
   </g>
   <g id="line2d_5">
    <path clip-path="url(#pc5bc3c5d34)" d="M 128.119156 140.4864 
L 128.119156 34.0416 
" style="fill:none;stroke:#000000;stroke-linecap:square;stroke-width:1.5;"/>
   </g>
   <g id="line2d_6">
    <path clip-path="url(#pc5bc3c5d34)" d="M 138.763636 140.4864 
L 138.763636 34.0416 
" style="fill:none;stroke:#000000;stroke-linecap:square;stroke-width:1.5;"/>
   </g>
   <g id="line2d_7">
    <path clip-path="url(#pc5bc3c5d34)" d="M 149.408116 140.4864 
L 149.408116 34.0416 
" style="fill:none;stroke:#000000;stroke-linecap:square;stroke-width:1.5;"/>
   </g>
   <g id="line2d_8">
    <path clip-path="url(#pc5bc3c5d34)" d="M 160.052596 140.4864 
L 160.052596 34.0416 
" style="fill:none;stroke:#000000;stroke-linecap:square;stroke-width:1.5;"/>
   </g>
   <g id="line2d_9">
    <path clip-path="url(#pc5bc3c5d34)" d="M 170.697076 140.4864 
L 170.697076 34.0416 
" style="fill:none;stroke:#000000;stroke-linecap:square;stroke-width:1.5;"/>
   </g>
   <g id="line2d_10">
    <path clip-path="url(#pc5bc3c5d34)" d="M 181.341556 140.4864 
L 181.341556 34.0416 
" style="fill:none;stroke:#000000;stroke-linecap:square;stroke-width:1.5;"/>
   </g>
   <g id="line2d_11">
    <path clip-path="url(#pc5bc3c5d34)" d="M 191.986036 140.4864 
L 191.986036 34.0416 
" style="fill:none;stroke:#000000;stroke-linecap:square;stroke-width:1.5;"/>
   </g>
   <g id="line2d_12">
    <path clip-path="url(#pc5bc3c5d34)" d="M 85.541236 140.4864 
L 191.986036 140.4864 
" style="fill:none;stroke:#000000;stroke-linecap:square;stroke-width:1.5;"/>
   </g>
   <g id="line2d_13">
    <path clip-path="url(#pc5bc3c5d34)" d="M 85.541236 129.84192 
L 191.986036 129.84192 
" style="fill:none;stroke:#000000;stroke-linecap:square;stroke-width:1.5;"/>
   </g>
   <g id="line2d_14">
    <path clip-path="url(#pc5bc3c5d34)" d="M 85.541236 119.19744 
L 191.986036 119.19744 
" style="fill:none;stroke:#000000;stroke-linecap:square;stroke-width:1.5;"/>
   </g>
   <g id="line2d_15">
    <path clip-path="url(#pc5bc3c5d34)" d="M 85.541236 108.55296 
L 191.986036 108.55296 
" style="fill:none;stroke:#000000;stroke-linecap:square;stroke-width:1.5;"/>
   </g>
   <g id="line2d_16">
    <path clip-path="url(#pc5bc3c5d34)" d="M 85.541236 97.90848 
L 191.986036 97.90848 
" style="fill:none;stroke:#000000;stroke-linecap:square;stroke-width:1.5;"/>
   </g>
   <g id="line2d_17">
    <path clip-path="url(#pc5bc3c5d34)" d="M 85.541236 87.264 
L 191.986036 87.264 
" style="fill:none;stroke:#000000;stroke-linecap:square;stroke-width:1.5;"/>
   </g>
   <g id="line2d_18">
    <path clip-path="url(#pc5bc3c5d34)" d="M 85.541236 76.61952 
L 191.986036 76.61952 
" style="fill:none;stroke:#000000;stroke-linecap:square;stroke-width:1.5;"/>
   </g>
   <g id="line2d_19">
    <path clip-path="url(#pc5bc3c5d34)" d="M 85.541236 65.97504 
L 191.986036 65.97504 
" style="fill:none;stroke:#000000;stroke-linecap:square;stroke-width:1.5;"/>
   </g>
   <g id="line2d_20">
    <path clip-path="url(#pc5bc3c5d34)" d="M 85.541236 55.33056 
L 191.986036 55.33056 
" style="fill:none;stroke:#000000;stroke-linecap:square;stroke-width:1.5;"/>
   </g>
   <g id="line2d_21">
    <path clip-path="url(#pc5bc3c5d34)" d="M 85.541236 44.68608 
L 191.986036 44.68608 
" style="fill:none;stroke:#000000;stroke-linecap:square;stroke-width:1.5;"/>
   </g>
   <g id="line2d_22">
    <path clip-path="url(#pc5bc3c5d34)" d="M 85.541236 34.0416 
L 191.986036 34.0416 
" style="fill:none;stroke:#000000;stroke-linecap:square;stroke-width:1.5;"/>
   </g>
   <g id="patch_5">
    <path d="M 87.539025 143.8128 
Q 138.763259 143.8128 188.869459 143.8128 
" style="fill:none;stroke:#000000;stroke-linecap:round;"/>
    <path d="M 184.869459 141.8128 
L 188.869459 143.8128 
L 184.869459 145.8128 
L 184.869459 141.8128 
z
" style="fill:#1f77b4;stroke:#000000;stroke-linecap:round;"/>
   </g>
   <g id="text_1">
    <!-- $start_r$ -->
    <defs>
     <path d="M 50 53.078125 
L 48.296875 44.578125 
Q 44.734375 46.53125 40.765625 47.5 
Q 36.8125 48.484375 32.625 48.484375 
Q 25.53125 48.484375 21.453125 46.0625 
Q 17.390625 43.65625 17.390625 39.5 
Q 17.390625 34.671875 26.859375 32.078125 
Q 27.59375 31.890625 27.9375 31.78125 
L 30.8125 30.90625 
Q 39.796875 28.421875 42.796875 25.6875 
Q 45.796875 22.953125 45.796875 18.21875 
Q 45.796875 9.515625 38.890625 4.046875 
Q 31.984375 -1.421875 20.796875 -1.421875 
Q 16.453125 -1.421875 11.671875 -0.578125 
Q 6.890625 0.25 1.125 2 
L 2.875 11.28125 
Q 7.8125 8.734375 12.59375 7.421875 
Q 17.390625 6.109375 21.78125 6.109375 
Q 28.375 6.109375 32.5 8.9375 
Q 36.625 11.765625 36.625 16.109375 
Q 36.625 20.796875 25.78125 23.6875 
L 24.859375 23.921875 
L 21.78125 24.703125 
Q 14.9375 26.515625 11.765625 29.46875 
Q 8.59375 32.421875 8.59375 37.015625 
Q 8.59375 45.75 15.15625 50.875 
Q 21.734375 56 33.015625 56 
Q 37.453125 56 41.671875 55.265625 
Q 45.90625 54.546875 50 53.078125 
z
" id="DejaVuSans-Oblique-115"/>
     <path d="M 42.28125 54.6875 
L 40.921875 47.703125 
L 23 47.703125 
L 17.1875 18.015625 
Q 16.890625 16.359375 16.75 15.234375 
Q 16.609375 14.109375 16.609375 13.484375 
Q 16.609375 10.359375 18.484375 8.9375 
Q 20.359375 7.515625 24.515625 7.515625 
L 33.59375 7.515625 
L 32.078125 0 
L 23.484375 0 
Q 15.484375 0 11.546875 3.125 
Q 7.625 6.25 7.625 12.59375 
Q 7.625 13.71875 7.765625 15.0625 
Q 7.90625 16.40625 8.203125 18.015625 
L 14.015625 47.703125 
L 6.390625 47.703125 
L 7.8125 54.6875 
L 15.28125 54.6875 
L 18.3125 70.21875 
L 27.296875 70.21875 
L 24.3125 54.6875 
z
" id="DejaVuSans-Oblique-116"/>
     <path d="M 53.71875 31.203125 
L 47.609375 0 
L 38.625 0 
L 40.28125 8.296875 
Q 36.328125 3.421875 31.265625 1 
Q 26.21875 -1.421875 20.015625 -1.421875 
Q 13.03125 -1.421875 8.5625 2.84375 
Q 4.109375 7.125 4.109375 13.8125 
Q 4.109375 23.390625 11.75 28.953125 
Q 19.390625 34.515625 32.8125 34.515625 
L 45.3125 34.515625 
L 45.796875 36.921875 
Q 45.90625 37.3125 45.953125 37.765625 
Q 46 38.234375 46 39.203125 
Q 46 43.5625 42.453125 45.96875 
Q 38.921875 48.390625 32.515625 48.390625 
Q 28.125 48.390625 23.5 47.265625 
Q 18.890625 46.140625 14.015625 43.890625 
L 15.578125 52.203125 
Q 20.65625 54.109375 25.515625 55.046875 
Q 30.375 56 34.90625 56 
Q 44.578125 56 49.625 51.796875 
Q 54.6875 47.609375 54.6875 39.59375 
Q 54.6875 37.984375 54.4375 35.8125 
Q 54.203125 33.640625 53.71875 31.203125 
z
M 44 27.484375 
L 35.015625 27.484375 
Q 23.96875 27.484375 18.671875 24.53125 
Q 13.375 21.578125 13.375 15.375 
Q 13.375 11.078125 16.078125 8.640625 
Q 18.796875 6.203125 23.578125 6.203125 
Q 30.90625 6.203125 36.375 11.453125 
Q 41.84375 16.703125 43.609375 25.484375 
z
" id="DejaVuSans-Oblique-97"/>
     <path d="M 44.578125 46.390625 
Q 43.21875 47.125 41.453125 47.515625 
Q 39.703125 47.90625 37.703125 47.90625 
Q 30.515625 47.90625 25.140625 42.453125 
Q 19.78125 37.015625 18.015625 27.875 
L 12.5 0 
L 3.515625 0 
L 14.203125 54.6875 
L 23.1875 54.6875 
L 21.484375 46.1875 
Q 25.046875 50.921875 30 53.453125 
Q 34.96875 56 40.578125 56 
Q 42.046875 56 43.453125 55.828125 
Q 44.875 55.671875 46.296875 55.28125 
z
" id="DejaVuSans-Oblique-114"/>
    </defs>
    <g transform="translate(85.541236 154.737638)scale(0.1 -0.1)">
     <use transform="translate(0 0.78125)" xlink:href="#DejaVuSans-Oblique-115"/>
     <use transform="translate(52.099609 0.78125)" xlink:href="#DejaVuSans-Oblique-116"/>
     <use transform="translate(91.308594 0.78125)" xlink:href="#DejaVuSans-Oblique-97"/>
     <use transform="translate(152.587891 0.78125)" xlink:href="#DejaVuSans-Oblique-114"/>
     <use transform="translate(193.701172 0.78125)" xlink:href="#DejaVuSans-Oblique-116"/>
     <use transform="translate(232.910156 -15.625)scale(0.7)" xlink:href="#DejaVuSans-Oblique-114"/>
    </g>
   </g>
   <g id="text_2">
    <!-- $stop_r$ -->
    <defs>
     <path d="M 25.390625 -1.421875 
Q 15.765625 -1.421875 10.171875 4.515625 
Q 4.59375 10.453125 4.59375 20.703125 
Q 4.59375 26.65625 6.515625 32.828125 
Q 8.453125 39.015625 11.53125 43.21875 
Q 16.359375 49.75 22.3125 52.875 
Q 28.265625 56 35.796875 56 
Q 45.125 56 50.859375 50.1875 
Q 56.59375 44.390625 56.59375 35.015625 
Q 56.59375 28.515625 54.6875 22.0625 
Q 52.78125 15.625 49.703125 11.375 
Q 44.921875 4.828125 38.96875 1.703125 
Q 33.015625 -1.421875 25.390625 -1.421875 
z
M 13.921875 21 
Q 13.921875 13.578125 17.015625 9.890625 
Q 20.125 6.203125 26.421875 6.203125 
Q 35.453125 6.203125 41.375 14.078125 
Q 47.3125 21.96875 47.3125 34.078125 
Q 47.3125 41.15625 44.140625 44.765625 
Q 40.96875 48.390625 34.8125 48.390625 
Q 29.734375 48.390625 25.78125 46.015625 
Q 21.828125 43.65625 18.703125 38.8125 
Q 16.40625 35.203125 15.15625 30.5625 
Q 13.921875 25.921875 13.921875 21 
z
" id="DejaVuSans-Oblique-111"/>
     <path d="M 49.609375 33.6875 
Q 49.609375 40.875 46.484375 44.671875 
Q 43.359375 48.484375 37.5 48.484375 
Q 33.5 48.484375 29.859375 46.4375 
Q 26.21875 44.390625 23.390625 40.484375 
Q 20.609375 36.625 18.9375 31.15625 
Q 17.28125 25.6875 17.28125 20.3125 
Q 17.28125 13.484375 20.40625 9.796875 
Q 23.53125 6.109375 29.296875 6.109375 
Q 33.546875 6.109375 37.1875 8.109375 
Q 40.828125 10.109375 43.40625 13.921875 
Q 46.1875 17.921875 47.890625 23.34375 
Q 49.609375 28.765625 49.609375 33.6875 
z
M 21.78125 46.390625 
Q 25.390625 51.125 30.296875 53.5625 
Q 35.203125 56 41.21875 56 
Q 49.609375 56 54.25 50.5 
Q 58.890625 45.015625 58.890625 35.109375 
Q 58.890625 27 56 19.65625 
Q 53.125 12.3125 47.703125 6.5 
Q 44.09375 2.640625 39.546875 0.609375 
Q 35.015625 -1.421875 29.984375 -1.421875 
Q 24.171875 -1.421875 20.21875 1 
Q 16.265625 3.421875 14.3125 8.203125 
L 8.6875 -20.796875 
L -0.296875 -20.796875 
L 14.40625 54.6875 
L 23.390625 54.6875 
z
" id="DejaVuSans-Oblique-112"/>
    </defs>
    <g transform="translate(167.186036 154.717325)scale(0.1 -0.1)">
     <use transform="translate(0 0.78125)" xlink:href="#DejaVuSans-Oblique-115"/>
     <use transform="translate(52.099609 0.78125)" xlink:href="#DejaVuSans-Oblique-116"/>
     <use transform="translate(91.308594 0.78125)" xlink:href="#DejaVuSans-Oblique-111"/>
     <use transform="translate(152.490234 0.78125)" xlink:href="#DejaVuSans-Oblique-112"/>
     <use transform="translate(215.966797 -15.625)scale(0.7)" xlink:href="#DejaVuSans-Oblique-114"/>
    </g>
   </g>
   <g id="text_3">
    <!-- $n_r$ -->
    <defs>
     <path d="M 55.71875 33.015625 
L 49.3125 0 
L 40.28125 0 
L 46.6875 32.671875 
Q 47.125 34.96875 47.359375 36.71875 
Q 47.609375 38.484375 47.609375 39.5 
Q 47.609375 43.609375 45.015625 45.890625 
Q 42.4375 48.1875 37.796875 48.1875 
Q 30.5625 48.1875 25.34375 43.375 
Q 20.125 38.578125 18.5 30.328125 
L 12.5 0 
L 3.515625 0 
L 14.109375 54.6875 
L 23.09375 54.6875 
L 21.296875 46.09375 
Q 25.046875 50.828125 30.3125 53.40625 
Q 35.59375 56 41.40625 56 
Q 48.640625 56 52.609375 52.09375 
Q 56.59375 48.1875 56.59375 41.109375 
Q 56.59375 39.359375 56.375 37.359375 
Q 56.15625 35.359375 55.71875 33.015625 
z
" id="DejaVuSans-Oblique-110"/>
    </defs>
    <g transform="translate(134.013636 154.737638)scale(0.1 -0.1)">
     <use xlink:href="#DejaVuSans-Oblique-110"/>
     <use transform="translate(63.378906 -16.40625)scale(0.7)" xlink:href="#DejaVuSans-Oblique-114"/>
    </g>
   </g>
   <g id="patch_6">
    <path d="M 82.214836 36.039389 
Q 82.214836 87.263623 82.214836 137.369822 
" style="fill:none;stroke:#000000;stroke-linecap:round;"/>
    <path d="M 84.214836 133.369822 
L 82.214836 137.369822 
L 80.214836 133.369822 
L 84.214836 133.369822 
z
" style="fill:#1f77b4;stroke:#000000;stroke-linecap:round;"/>
   </g>
   <g id="text_4">
    <!-- $start_z$ -->
    <defs>
     <path d="M 11.625 54.6875 
L 54.296875 54.6875 
L 52.6875 46.484375 
L 11.53125 7.171875 
L 45.515625 7.171875 
L 44.09375 0 
L -0.296875 0 
L 1.3125 8.203125 
L 42.484375 47.515625 
L 10.203125 47.515625 
z
" id="DejaVuSans-Oblique-122"/>
    </defs>
    <g transform="translate(51.588436 41.640037)scale(0.1 -0.1)">
     <use transform="translate(0 0.78125)" xlink:href="#DejaVuSans-Oblique-115"/>
     <use transform="translate(52.099609 0.78125)" xlink:href="#DejaVuSans-Oblique-116"/>
     <use transform="translate(91.308594 0.78125)" xlink:href="#DejaVuSans-Oblique-97"/>
     <use transform="translate(152.587891 0.78125)" xlink:href="#DejaVuSans-Oblique-114"/>
     <use transform="translate(193.701172 0.78125)" xlink:href="#DejaVuSans-Oblique-116"/>
     <use transform="translate(232.910156 -15.625)scale(0.7)" xlink:href="#DejaVuSans-Oblique-122"/>
    </g>
   </g>
   <g id="text_5">
    <!-- $stop_z$ -->
    <g transform="translate(53.288436 138.3864)scale(0.1 -0.1)">
     <use transform="translate(0 0.78125)" xlink:href="#DejaVuSans-Oblique-115"/>
     <use transform="translate(52.099609 0.78125)" xlink:href="#DejaVuSans-Oblique-116"/>
     <use transform="translate(91.308594 0.78125)" xlink:href="#DejaVuSans-Oblique-111"/>
     <use transform="translate(152.490234 0.78125)" xlink:href="#DejaVuSans-Oblique-112"/>
     <use transform="translate(215.966797 -15.625)scale(0.7)" xlink:href="#DejaVuSans-Oblique-122"/>
    </g>
   </g>
   <g id="text_6">
    <!-- $n_z$ -->
    <g transform="translate(68.588436 90.023375)scale(0.1 -0.1)">
     <use xlink:href="#DejaVuSans-Oblique-110"/>
     <use transform="translate(63.378906 -16.40625)scale(0.7)" xlink:href="#DejaVuSans-Oblique-122"/>
    </g>
   </g>
  </g>
 </g>
 <defs>
  <clipPath id="pc5bc3c5d34">
   <rect height="133.056" width="133.056" x="72.235636" y="20.736"/>
  </clipPath>
 </defs>
</svg>
