<?xml version="1.0" encoding="utf-8" standalone="no"?>
<!DOCTYPE svg PUBLIC "-//W3C//DTD SVG 1.1//EN"
  "http://www.w3.org/Graphics/SVG/1.1/DTD/svg11.dtd">
<!-- Created with matplotlib (https://matplotlib.org/) -->
<svg height="345.6pt" version="1.1" viewBox="0 0 691.2 345.6" width="691.2pt" xmlns="http://www.w3.org/2000/svg" xmlns:xlink="http://www.w3.org/1999/xlink">
 <defs>
  <style type="text/css">
*{stroke-linecap:butt;stroke-linejoin:round;}
  </style>
 </defs>
 <g id="figure_1">
  <g id="patch_1">
   <path d="M 0 345.6 
L 691.2 345.6 
L 691.2 0 
L 0 0 
z
" style="fill:#ffffff;"/>
  </g>
  <g id="axes_1">
   <g id="patch_2">
    <path clip-path="url(#p77e4a97636)" d="M 110.749091 271.924364 
L 130.228364 271.924364 
L 130.228364 252.445091 
L 110.749091 252.445091 
z
" style="fill:#d3d3d3;stroke:#d3d3d3;stroke-linejoin:miter;"/>
   </g>
   <g id="patch_3">
    <path clip-path="url(#p77e4a97636)" d="M 286.062545 271.924364 
L 305.541818 271.924364 
L 305.541818 252.445091 
L 286.062545 252.445091 
z
" style="fill:#d3d3d3;stroke:#d3d3d3;stroke-linejoin:miter;"/>
   </g>
   <g id="patch_4">
    <path clip-path="url(#p77e4a97636)" d="M 110.749091 96.610909 
L 130.228364 96.610909 
L 130.228364 77.131636 
L 110.749091 77.131636 
z
" style="fill:#d3d3d3;stroke:#d3d3d3;stroke-linejoin:miter;"/>
   </g>
   <g id="line2d_1">
    <path clip-path="url(#p77e4a97636)" d="M 110.749091 271.924364 
L 110.749091 77.131636 
" style="fill:none;stroke:#000000;stroke-linecap:square;stroke-width:1.5;"/>
   </g>
   <g id="line2d_2">
    <path clip-path="url(#p77e4a97636)" d="M 130.228364 271.924364 
L 130.228364 77.131636 
" style="fill:none;stroke:#000000;stroke-linecap:square;stroke-width:1.5;"/>
   </g>
   <g id="line2d_3">
    <path clip-path="url(#p77e4a97636)" d="M 149.707636 271.924364 
L 149.707636 77.131636 
" style="fill:none;stroke:#000000;stroke-linecap:square;stroke-width:1.5;"/>
   </g>
   <g id="line2d_4">
    <path clip-path="url(#p77e4a97636)" d="M 169.186909 271.924364 
L 169.186909 77.131636 
" style="fill:none;stroke:#000000;stroke-linecap:square;stroke-width:1.5;"/>
   </g>
   <g id="line2d_5">
    <path clip-path="url(#p77e4a97636)" d="M 188.666182 271.924364 
L 188.666182 77.131636 
" style="fill:none;stroke:#000000;stroke-linecap:square;stroke-width:1.5;"/>
   </g>
   <g id="line2d_6">
    <path clip-path="url(#p77e4a97636)" d="M 208.145455 271.924364 
L 208.145455 77.131636 
" style="fill:none;stroke:#000000;stroke-linecap:square;stroke-width:1.5;"/>
   </g>
   <g id="line2d_7">
    <path clip-path="url(#p77e4a97636)" d="M 227.624727 271.924364 
L 227.624727 77.131636 
" style="fill:none;stroke:#000000;stroke-linecap:square;stroke-width:1.5;"/>
   </g>
   <g id="line2d_8">
    <path clip-path="url(#p77e4a97636)" d="M 247.104 271.924364 
L 247.104 77.131636 
" style="fill:none;stroke:#000000;stroke-linecap:square;stroke-width:1.5;"/>
   </g>
   <g id="line2d_9">
    <path clip-path="url(#p77e4a97636)" d="M 266.583273 271.924364 
L 266.583273 77.131636 
" style="fill:none;stroke:#000000;stroke-linecap:square;stroke-width:1.5;"/>
   </g>
   <g id="line2d_10">
    <path clip-path="url(#p77e4a97636)" d="M 286.062545 271.924364 
L 286.062545 77.131636 
" style="fill:none;stroke:#000000;stroke-linecap:square;stroke-width:1.5;"/>
   </g>
   <g id="line2d_11">
    <path clip-path="url(#p77e4a97636)" d="M 305.541818 271.924364 
L 305.541818 77.131636 
" style="fill:none;stroke:#000000;stroke-linecap:square;stroke-width:1.5;"/>
   </g>
   <g id="line2d_12">
    <path clip-path="url(#p77e4a97636)" d="M 110.749091 271.924364 
L 305.541818 271.924364 
" style="fill:none;stroke:#000000;stroke-linecap:square;stroke-width:1.5;"/>
   </g>
   <g id="line2d_13">
    <path clip-path="url(#p77e4a97636)" d="M 110.749091 252.445091 
L 305.541818 252.445091 
" style="fill:none;stroke:#000000;stroke-linecap:square;stroke-width:1.5;"/>
   </g>
   <g id="line2d_14">
    <path clip-path="url(#p77e4a97636)" d="M 110.749091 232.965818 
L 305.541818 232.965818 
" style="fill:none;stroke:#000000;stroke-linecap:square;stroke-width:1.5;"/>
   </g>
   <g id="line2d_15">
    <path clip-path="url(#p77e4a97636)" d="M 110.749091 213.486545 
L 305.541818 213.486545 
" style="fill:none;stroke:#000000;stroke-linecap:square;stroke-width:1.5;"/>
   </g>
   <g id="line2d_16">
    <path clip-path="url(#p77e4a97636)" d="M 110.749091 194.007273 
L 305.541818 194.007273 
" style="fill:none;stroke:#000000;stroke-linecap:square;stroke-width:1.5;"/>
   </g>
   <g id="line2d_17">
    <path clip-path="url(#p77e4a97636)" d="M 110.749091 174.528 
L 305.541818 174.528 
" style="fill:none;stroke:#000000;stroke-linecap:square;stroke-width:1.5;"/>
   </g>
   <g id="line2d_18">
    <path clip-path="url(#p77e4a97636)" d="M 110.749091 155.048727 
L 305.541818 155.048727 
" style="fill:none;stroke:#000000;stroke-linecap:square;stroke-width:1.5;"/>
   </g>
   <g id="line2d_19">
    <path clip-path="url(#p77e4a97636)" d="M 110.749091 135.569455 
L 305.541818 135.569455 
" style="fill:none;stroke:#000000;stroke-linecap:square;stroke-width:1.5;"/>
   </g>
   <g id="line2d_20">
    <path clip-path="url(#p77e4a97636)" d="M 110.749091 116.090182 
L 305.541818 116.090182 
" style="fill:none;stroke:#000000;stroke-linecap:square;stroke-width:1.5;"/>
   </g>
   <g id="line2d_21">
    <path clip-path="url(#p77e4a97636)" d="M 110.749091 96.610909 
L 305.541818 96.610909 
" style="fill:none;stroke:#000000;stroke-linecap:square;stroke-width:1.5;"/>
   </g>
   <g id="line2d_22">
    <path clip-path="url(#p77e4a97636)" d="M 110.749091 77.131636 
L 305.541818 77.131636 
" style="fill:none;stroke:#000000;stroke-linecap:square;stroke-width:1.5;"/>
   </g>
   <g id="patch_5">
    <path d="M 112.74945 278.011636 
Q 208.1469 278.011636 302.426317 278.011636 
" style="fill:none;stroke:#000000;stroke-linecap:round;"/>
    <path d="M 298.426317 276.011636 
L 302.426317 278.011636 
L 298.426317 280.011636 
L 298.426317 276.011636 
z
" style="fill:#1f77b4;stroke:#000000;stroke-linecap:round;"/>
   </g>
   <g id="text_1">
    <!-- $start_r$ -->
    <defs>
     <path d="M 50 53.078125 
L 48.296875 44.578125 
Q 44.734375 46.53125 40.765625 47.5 
Q 36.8125 48.484375 32.625 48.484375 
Q 25.53125 48.484375 21.453125 46.0625 
Q 17.390625 43.65625 17.390625 39.5 
Q 17.390625 34.671875 26.859375 32.078125 
Q 27.59375 31.890625 27.9375 31.78125 
L 30.8125 30.90625 
Q 39.796875 28.421875 42.796875 25.6875 
Q 45.796875 22.953125 45.796875 18.21875 
Q 45.796875 9.515625 38.890625 4.046875 
Q 31.984375 -1.421875 20.796875 -1.421875 
Q 16.453125 -1.421875 11.671875 -0.578125 
Q 6.890625 0.25 1.125 2 
L 2.875 11.28125 
Q 7.8125 8.734375 12.59375 7.421875 
Q 17.390625 6.109375 21.78125 6.109375 
Q 28.375 6.109375 32.5 8.9375 
Q 36.625 11.765625 36.625 16.109375 
Q 36.625 20.796875 25.78125 23.6875 
L 24.859375 23.921875 
L 21.78125 24.703125 
Q 14.9375 26.515625 11.765625 29.46875 
Q 8.59375 32.421875 8.59375 37.015625 
Q 8.59375 45.75 15.15625 50.875 
Q 21.734375 56 33.015625 56 
Q 37.453125 56 41.671875 55.265625 
Q 45.90625 54.546875 50 53.078125 
z
" id="DejaVuSans-Oblique-115"/>
     <path d="M 42.28125 54.6875 
L 40.921875 47.703125 
L 23 47.703125 
L 17.1875 18.015625 
Q 16.890625 16.359375 16.75 15.234375 
Q 16.609375 14.109375 16.609375 13.484375 
Q 16.609375 10.359375 18.484375 8.9375 
Q 20.359375 7.515625 24.515625 7.515625 
L 33.59375 7.515625 
L 32.078125 0 
L 23.484375 0 
Q 15.484375 0 11.546875 3.125 
Q 7.625 6.25 7.625 12.59375 
Q 7.625 13.71875 7.765625 15.0625 
Q 7.90625 16.40625 8.203125 18.015625 
L 14.015625 47.703125 
L 6.390625 47.703125 
L 7.8125 54.6875 
L 15.28125 54.6875 
L 18.3125 70.21875 
L 27.296875 70.21875 
L 24.3125 54.6875 
z
" id="DejaVuSans-Oblique-116"/>
     <path d="M 53.71875 31.203125 
L 47.609375 0 
L 38.625 0 
L 40.28125 8.296875 
Q 36.328125 3.421875 31.265625 1 
Q 26.21875 -1.421875 20.015625 -1.421875 
Q 13.03125 -1.421875 8.5625 2.84375 
Q 4.109375 7.125 4.109375 13.8125 
Q 4.109375 23.390625 11.75 28.953125 
Q 19.390625 34.515625 32.8125 34.515625 
L 45.3125 34.515625 
L 45.796875 36.921875 
Q 45.90625 37.3125 45.953125 37.765625 
Q 46 38.234375 46 39.203125 
Q 46 43.5625 42.453125 45.96875 
Q 38.921875 48.390625 32.515625 48.390625 
Q 28.125 48.390625 23.5 47.265625 
Q 18.890625 46.140625 14.015625 43.890625 
L 15.578125 52.203125 
Q 20.65625 54.109375 25.515625 55.046875 
Q 30.375 56 34.90625 56 
Q 44.578125 56 49.625 51.796875 
Q 54.6875 47.609375 54.6875 39.59375 
Q 54.6875 37.984375 54.4375 35.8125 
Q 54.203125 33.640625 53.71875 31.203125 
z
M 44 27.484375 
L 35.015625 27.484375 
Q 23.96875 27.484375 18.671875 24.53125 
Q 13.375 21.578125 13.375 15.375 
Q 13.375 11.078125 16.078125 8.640625 
Q 18.796875 6.203125 23.578125 6.203125 
Q 30.90625 6.203125 36.375 11.453125 
Q 41.84375 16.703125 43.609375 25.484375 
z
" id="DejaVuSans-Oblique-97"/>
     <path d="M 44.578125 46.390625 
Q 43.21875 47.125 41.453125 47.515625 
Q 39.703125 47.90625 37.703125 47.90625 
Q 30.515625 47.90625 25.140625 42.453125 
Q 19.78125 37.015625 18.015625 27.875 
L 12.5 0 
L 3.515625 0 
L 14.203125 54.6875 
L 23.1875 54.6875 
L 21.484375 46.1875 
Q 25.046875 50.921875 30 53.453125 
Q 34.96875 56 40.578125 56 
Q 42.046875 56 43.453125 55.828125 
Q 44.875 55.671875 46.296875 55.28125 
z
" id="DejaVuSans-Oblique-114"/>
    </defs>
    <g transform="translate(110.749091 291.697347)scale(0.1 -0.1)">
     <use transform="translate(0 0.78125)" xlink:href="#DejaVuSans-Oblique-115"/>
     <use transform="translate(52.099609 0.78125)" xlink:href="#DejaVuSans-Oblique-116"/>
     <use transform="translate(91.308594 0.78125)" xlink:href="#DejaVuSans-Oblique-97"/>
     <use transform="translate(152.587891 0.78125)" xlink:href="#DejaVuSans-Oblique-114"/>
     <use transform="translate(193.701172 0.78125)" xlink:href="#DejaVuSans-Oblique-116"/>
     <use transform="translate(232.910156 -15.625)scale(0.7)" xlink:href="#DejaVuSans-Oblique-114"/>
    </g>
   </g>
   <g id="text_2">
    <!-- $stop_r$ -->
    <defs>
     <path d="M 25.390625 -1.421875 
Q 15.765625 -1.421875 10.171875 4.515625 
Q 4.59375 10.453125 4.59375 20.703125 
Q 4.59375 26.65625 6.515625 32.828125 
Q 8.453125 39.015625 11.53125 43.21875 
Q 16.359375 49.75 22.3125 52.875 
Q 28.265625 56 35.796875 56 
Q 45.125 56 50.859375 50.1875 
Q 56.59375 44.390625 56.59375 35.015625 
Q 56.59375 28.515625 54.6875 22.0625 
Q 52.78125 15.625 49.703125 11.375 
Q 44.921875 4.828125 38.96875 1.703125 
Q 33.015625 -1.421875 25.390625 -1.421875 
z
M 13.921875 21 
Q 13.921875 13.578125 17.015625 9.890625 
Q 20.125 6.203125 26.421875 6.203125 
Q 35.453125 6.203125 41.375 14.078125 
Q 47.3125 21.96875 47.3125 34.078125 
Q 47.3125 41.15625 44.140625 44.765625 
Q 40.96875 48.390625 34.8125 48.390625 
Q 29.734375 48.390625 25.78125 46.015625 
Q 21.828125 43.65625 18.703125 38.8125 
Q 16.40625 35.203125 15.15625 30.5625 
Q 13.921875 25.921875 13.921875 21 
z
" id="DejaVuSans-Oblique-111"/>
     <path d="M 49.609375 33.6875 
Q 49.609375 40.875 46.484375 44.671875 
Q 43.359375 48.484375 37.5 48.484375 
Q 33.5 48.484375 29.859375 46.4375 
Q 26.21875 44.390625 23.390625 40.484375 
Q 20.609375 36.625 18.9375 31.15625 
Q 17.28125 25.6875 17.28125 20.3125 
Q 17.28125 13.484375 20.40625 9.796875 
Q 23.53125 6.109375 29.296875 6.109375 
Q 33.546875 6.109375 37.1875 8.109375 
Q 40.828125 10.109375 43.40625 13.921875 
Q 46.1875 17.921875 47.890625 23.34375 
Q 49.609375 28.765625 49.609375 33.6875 
z
M 21.78125 46.390625 
Q 25.390625 51.125 30.296875 53.5625 
Q 35.203125 56 41.21875 56 
Q 49.609375 56 54.25 50.5 
Q 58.890625 45.015625 58.890625 35.109375 
Q 58.890625 27 56 19.65625 
Q 53.125 12.3125 47.703125 6.5 
Q 44.09375 2.640625 39.546875 0.609375 
Q 35.015625 -1.421875 29.984375 -1.421875 
Q 24.171875 -1.421875 20.21875 1 
Q 16.265625 3.421875 14.3125 8.203125 
L 8.6875 -20.796875 
L -0.296875 -20.796875 
L 14.40625 54.6875 
L 23.390625 54.6875 
z
" id="DejaVuSans-Oblique-112"/>
    </defs>
    <g transform="translate(280.741818 291.677034)scale(0.1 -0.1)">
     <use transform="translate(0 0.78125)" xlink:href="#DejaVuSans-Oblique-115"/>
     <use transform="translate(52.099609 0.78125)" xlink:href="#DejaVuSans-Oblique-116"/>
     <use transform="translate(91.308594 0.78125)" xlink:href="#DejaVuSans-Oblique-111"/>
     <use transform="translate(152.490234 0.78125)" xlink:href="#DejaVuSans-Oblique-112"/>
     <use transform="translate(215.966797 -15.625)scale(0.7)" xlink:href="#DejaVuSans-Oblique-114"/>
    </g>
   </g>
   <g id="text_3">
    <!-- $n_r$ -->
    <defs>
     <path d="M 55.71875 33.015625 
L 49.3125 0 
L 40.28125 0 
L 46.6875 32.671875 
Q 47.125 34.96875 47.359375 36.71875 
Q 47.609375 38.484375 47.609375 39.5 
Q 47.609375 43.609375 45.015625 45.890625 
Q 42.4375 48.1875 37.796875 48.1875 
Q 30.5625 48.1875 25.34375 43.375 
Q 20.125 38.578125 18.5 30.328125 
L 12.5 0 
L 3.515625 0 
L 14.109375 54.6875 
L 23.09375 54.6875 
L 21.296875 46.09375 
Q 25.046875 50.828125 30.3125 53.40625 
Q 35.59375 56 41.40625 56 
Q 48.640625 56 52.609375 52.09375 
Q 56.59375 48.1875 56.59375 41.109375 
Q 56.59375 39.359375 56.375 37.359375 
Q 56.15625 35.359375 55.71875 33.015625 
z
" id="DejaVuSans-Oblique-110"/>
    </defs>
    <g transform="translate(203.395455 291.697347)scale(0.1 -0.1)">
     <use xlink:href="#DejaVuSans-Oblique-110"/>
     <use transform="translate(63.378906 -16.40625)scale(0.7)" xlink:href="#DejaVuSans-Oblique-114"/>
    </g>
   </g>
   <g id="patch_6">
    <path d="M 104.661818 79.131995 
Q 104.661818 174.529446 104.661818 268.808862 
" style="fill:none;stroke:#000000;stroke-linecap:round;"/>
    <path d="M 106.661818 264.808862 
L 104.661818 268.808862 
L 102.661818 264.808862 
L 106.661818 264.808862 
z
" style="fill:#1f77b4;stroke:#000000;stroke-linecap:round;"/>
   </g>
   <g id="text_4">
    <!-- $start_z$ -->
    <defs>
     <path d="M 11.625 54.6875 
L 54.296875 54.6875 
L 52.6875 46.484375 
L 11.53125 7.171875 
L 45.515625 7.171875 
L 44.09375 0 
L -0.296875 0 
L 1.3125 8.203125 
L 42.484375 47.515625 
L 10.203125 47.515625 
z
" id="DejaVuSans-Oblique-122"/>
    </defs>
    <g transform="translate(71.274545 84.730074)scale(0.1 -0.1)">
     <use transform="translate(0 0.78125)" xlink:href="#DejaVuSans-Oblique-115"/>
     <use transform="translate(52.099609 0.78125)" xlink:href="#DejaVuSans-Oblique-116"/>
     <use transform="translate(91.308594 0.78125)" xlink:href="#DejaVuSans-Oblique-97"/>
     <use transform="translate(152.587891 0.78125)" xlink:href="#DejaVuSans-Oblique-114"/>
     <use transform="translate(193.701172 0.78125)" xlink:href="#DejaVuSans-Oblique-116"/>
     <use transform="translate(232.910156 -15.625)scale(0.7)" xlink:href="#DejaVuSans-Oblique-122"/>
    </g>
   </g>
   <g id="text_5">
    <!-- $stop_z$ -->
    <g transform="translate(72.974545 269.824364)scale(0.1 -0.1)">
     <use transform="translate(0 0.78125)" xlink:href="#DejaVuSans-Oblique-115"/>
     <use transform="translate(52.099609 0.78125)" xlink:href="#DejaVuSans-Oblique-116"/>
     <use transform="translate(91.308594 0.78125)" xlink:href="#DejaVuSans-Oblique-111"/>
     <use transform="translate(152.490234 0.78125)" xlink:href="#DejaVuSans-Oblique-112"/>
     <use transform="translate(215.966797 -15.625)scale(0.7)" xlink:href="#DejaVuSans-Oblique-122"/>
    </g>
   </g>
   <g id="text_6">
    <!-- $n_z$ -->
    <g transform="translate(88.274545 177.287375)scale(0.1 -0.1)">
     <use xlink:href="#DejaVuSans-Oblique-110"/>
     <use transform="translate(63.378906 -16.40625)scale(0.7)" xlink:href="#DejaVuSans-Oblique-122"/>
    </g>
   </g>
  </g>
  <g id="patch_7">
   <path d="M 378.589091 307.584 
L 622.08 307.584 
L 622.08 41.472 
L 378.589091 41.472 
z
" style="fill:#ffffff;"/>
  </g>
  <g id="axes_2">
   <g id="patch_8">
    <path clip-path="url(#p8e8bb1c3dd)" d="M 470.304278 265.544175 
C 485.504615 270.954612 503.803047 272.4319 520.948908 269.614463 
C 537.991416 266.814009 552.21084 260.045902 560.426421 250.930906 
C 568.480735 241.994831 570.040007 231.599271 564.969826 222.059704 
C 560.007046 212.722211 549.064454 204.914789 534.5936 200.243148 
C 520.278308 195.621727 503.461794 194.377746 487.659418 196.756804 
C 471.768746 199.149154 457.944847 205.047686 449.173454 213.262998 
C 440.233774 221.635929 437.195033 231.799012 440.9238 241.551679 
C 444.735065 251.520123 455.279683 260.196291 470.304278 265.544175 
z
" style="fill:none;stroke:#000000;stroke-linejoin:miter;"/>
   </g>
   <g id="patch_9">
    <path clip-path="url(#p8e8bb1c3dd)" d="M 470.134707 253.346493 
C 485.411858 258.712923 503.80396 260.17825 521.03746 257.383644 
C 538.16655 254.60597 552.456619 247.893269 560.710897 238.853682 
C 568.802346 229.992416 570.365535 219.684979 565.267268 210.227315 
C 560.277515 200.970952 549.280471 193.232095 534.740024 188.601798 
C 520.356622 184.021511 503.461028 182.788642 487.584239 185.146463 
C 471.618318 187.517521 457.727653 193.363819 448.912083 201.507014 
C 439.926558 209.807201 436.869359 219.883015 440.613026 229.552996 
C 444.439937 239.437997 455.03508 248.042422 470.134707 253.346493 
z
" style="fill:none;stroke:#000000;stroke-dasharray:1,1.65;stroke-dashoffset:0;stroke-linejoin:miter;"/>
   </g>
   <g id="patch_10">
    <path clip-path="url(#p8e8bb1c3dd)" d="M 503.624963 107.048385 
C 503.624963 107.048385 503.624963 107.048385 503.624963 107.048385 
C 503.624963 107.048385 503.624963 107.048385 503.624963 107.048385 
C 503.624963 107.048385 503.624963 107.048385 503.624963 107.048385 
C 503.624963 107.048385 503.624963 107.048385 503.624963 107.048385 
C 503.624963 107.048385 503.624963 107.048385 503.624963 107.048385 
C 503.624963 107.048385 503.624963 107.048385 503.624963 107.048385 
C 503.624963 107.048385 503.624963 107.048385 503.624963 107.048385 
C 503.624963 107.048385 503.624963 107.048385 503.624963 107.048385 
z
" style="fill:none;stroke:#000000;stroke-linejoin:miter;"/>
   </g>
   <g id="patch_11">
    <path clip-path="url(#p8e8bb1c3dd)" d="M 500.237146 110.008238 
C 501.79224 110.463455 503.642949 110.586924 505.379408 110.351143 
C 507.114804 110.115507 508.591356 109.540704 509.483275 108.754473 
C 510.373372 107.969847 510.607758 107.039354 510.137066 106.168221 
C 509.667444 105.299066 508.533953 104.559477 506.98682 104.111212 
C 505.441502 103.663472 503.607142 103.542214 501.885507 103.773841 
C 500.162826 104.00561 498.690654 104.572166 497.792611 105.349857 
C 496.892738 106.129132 496.642004 107.057416 497.097872 107.930574 
C 497.554779 108.805724 498.683889 109.553559 500.237146 110.008238 
z
" style="fill:none;stroke:#000000;stroke-linejoin:miter;"/>
   </g>
   <g id="patch_12">
    <path clip-path="url(#p8e8bb1c3dd)" d="M 469.963401 241.024026 
C 485.318146 246.345259 503.804882 247.7983 521.126923 245.027146 
C 538.343478 242.272867 552.704898 235.617059 560.998238 226.654877 
C 569.127163 217.87037 570.694269 207.653317 565.567609 198.279624 
C 560.550593 189.106405 549.498551 181.437792 534.887839 176.849841 
C 520.435676 172.311678 503.460254 171.090186 487.508348 173.426262 
C 471.466463 175.775515 457.508383 181.568315 448.648191 189.637626 
C 439.61635 197.863263 436.540477 207.849606 440.299157 217.43478 
C 444.141836 227.234161 454.78799 235.764943 469.963401 241.024026 
z
" style="fill:none;stroke:#000000;stroke-dasharray:1,1.65;stroke-dashoffset:0;stroke-linejoin:miter;"/>
   </g>
   <g id="patch_13">
    <path clip-path="url(#p8e8bb1c3dd)" d="M 496.823066 112.991037 
C 499.943115 113.909089 503.661102 114.158282 507.149035 113.682484 
C 510.632682 113.207271 513.590148 112.049282 515.367721 110.468172 
C 517.138024 108.893528 517.590388 107.030324 516.634233 105.290077 
C 515.68241 103.557713 513.411171 102.086679 510.323014 101.19646 
C 507.242069 100.30832 503.589482 100.067968 500.160847 100.527154 
C 496.728064 100.986894 493.788119 102.111893 491.986047 103.658839 
C 490.17664 105.212081 489.658881 107.066447 490.555741 108.814796 
C 491.456702 110.571138 493.710415 112.07516 496.823066 112.991037 
z
" style="fill:none;stroke:#000000;stroke-linejoin:miter;"/>
   </g>
   <g id="patch_14">
    <path clip-path="url(#p8e8bb1c3dd)" d="M 469.790334 228.574851 
C 485.223464 233.849666 503.805814 235.290088 521.217309 232.543021 
C 538.522229 229.812769 552.955714 223.215377 561.288486 214.332647 
C 569.455234 205.626897 571.026257 195.502544 565.87089 186.214937 
C 560.826315 177.126925 549.718725 169.530274 535.037065 164.985694 
C 520.515481 160.490665 503.459474 159.280823 487.431735 161.594634 
C 471.31316 163.921558 457.287009 169.659567 448.38174 177.653186 
C 439.303107 185.802422 436.208338 195.69704 439.982145 205.195235 
C 443.840716 214.906768 454.538374 223.361957 469.790334 228.574851 
z
" style="fill:none;stroke:#000000;stroke-dasharray:1,1.65;stroke-dashoffset:0;stroke-linejoin:miter;"/>
   </g>
   <g id="patch_15">
    <path clip-path="url(#p8e8bb1c3dd)" d="M 493.382418 115.997047 
C 498.077367 117.385699 503.679424 117.762916 508.934044 117.042779 
C 514.178936 116.323974 518.621655 114.574279 521.278476 112.189533 
C 523.918978 109.819434 524.572853 107.021293 523.116515 104.413944 
C 521.67005 101.824271 518.256923 99.629834 513.633838 98.303874 
C 509.026874 96.982538 503.571983 96.625215 498.450797 97.307967 
C 493.320354 97.991954 488.917053 99.667412 486.2051 101.975281 
C 483.47661 104.297224 482.675592 107.075478 483.998518 109.701058 
C 485.330537 112.344683 488.704222 114.613351 493.382418 115.997047 
z
" style="fill:none;stroke:#000000;stroke-linejoin:miter;"/>
   </g>
   <g id="patch_16">
    <path clip-path="url(#p8e8bb1c3dd)" d="M 469.615478 215.997002 
C 485.127798 221.224148 503.806756 222.651609 521.308634 219.929282 
C 538.702829 217.223704 553.209107 210.68629 561.581686 201.885107 
C 569.786607 193.260163 571.361549 183.230881 566.177156 174.031527 
C 561.104721 165.030834 549.941023 157.507903 535.187723 153.007742 
C 520.596047 148.556882 503.458685 147.358969 487.354391 149.649982 
C 471.158388 151.954041 457.063498 157.635935 448.112694 165.552012 
C 438.986782 173.622955 435.872893 183.42354 439.661944 192.83253 
C 443.536533 202.45393 454.286193 210.831532 469.615478 215.997002 
z
" style="fill:none;stroke:#000000;stroke-dasharray:1,1.65;stroke-dashoffset:0;stroke-linejoin:miter;"/>
   </g>
   <g id="patch_17">
    <path clip-path="url(#p8e8bb1c3dd)" d="M 489.914889 119.026542 
C 496.19477 120.893703 503.697918 121.401295 510.734634 120.432407 
C 517.753912 119.46592 523.686201 117.115855 527.215716 113.918607 
C 530.716292 110.747575 531.555154 107.012263 529.583963 103.539816 
C 527.630549 100.098686 523.071514 97.188788 516.91958 95.433202 
C 510.796124 93.685742 503.554642 93.213527 496.75517 94.115935 
C 489.939376 95.020508 484.077152 97.238571 480.449601 100.299135 
C 476.79259 103.384554 475.69214 107.084509 477.426151 110.589366 
C 479.176091 114.126416 483.664985 117.168295 489.914889 119.026542 
z
" style="fill:none;stroke:#000000;stroke-linejoin:miter;"/>
   </g>
   <g id="patch_18">
    <path clip-path="url(#p8e8bb1c3dd)" d="M 469.438805 203.288473 
C 485.031132 208.466669 503.807708 209.880817 521.400912 207.183899 
C 538.885308 204.503659 553.465117 198.027825 561.877882 189.310337 
C 570.121334 180.768297 571.700193 170.836515 566.486451 161.727633 
C 561.385851 152.816421 550.165475 145.369008 535.339832 140.91434 
C 520.677385 136.508708 503.45789 135.323007 487.276304 137.590678 
C 471.002126 139.871325 456.837822 145.49575 447.841015 153.332392 
C 438.66733 161.323103 435.534094 171.02729 439.338504 180.344797 
C 443.229238 189.873724 454.031408 198.171693 469.438805 203.288473 
z
" style="fill:none;stroke:#000000;stroke-dasharray:1,1.65;stroke-dashoffset:0;stroke-linejoin:miter;"/>
   </g>
   <g id="patch_19">
    <path clip-path="url(#p8e8bb1c3dd)" d="M 486.420165 122.079798 
C 494.295096 124.433529 503.716585 125.073895 512.551012 123.851755 
C 521.35796 122.633416 528.784111 119.674175 533.179621 115.655446 
C 537.530026 111.677957 538.537291 107.003233 536.036627 102.667686 
C 533.564091 98.380905 527.855242 94.763389 520.180524 92.584194 
C 512.550022 90.417555 503.537457 89.832487 495.073786 90.950713 
C 486.584819 92.072282 479.26812 94.825221 474.719383 98.630351 
C 470.124524 102.474061 468.708523 107.093541 470.838588 111.479729 
C 472.993167 115.916394 478.592377 119.740158 486.420165 122.079798 
z
" style="fill:none;stroke:#000000;stroke-linejoin:miter;"/>
   </g>
   <g id="patch_20">
    <path clip-path="url(#p8e8bb1c3dd)" d="M 469.260288 190.447219 
C 484.933451 195.575148 503.808669 196.975625 521.494158 194.3048 
C 539.069696 191.65058 553.723784 185.237966 562.177122 176.606377 
C 570.459464 168.14939 572.04224 158.317598 566.798819 149.30146 
C 561.669744 140.48194 550.392113 133.111888 535.493415 128.703811 
C 520.759507 124.34449 503.457086 123.171293 487.197464 125.415065 
C 470.844353 127.671739 456.609946 133.237307 447.566663 140.992576 
C 438.344705 148.901071 435.191889 158.506441 439.011776 167.730129 
C 442.918784 177.164184 453.773977 185.380424 469.260288 190.447219 
z
" style="fill:none;stroke:#000000;stroke-dasharray:1,1.65;stroke-dashoffset:0;stroke-linejoin:miter;"/>
   </g>
   <g id="patch_21">
    <path clip-path="url(#p8e8bb1c3dd)" d="M 482.897923 125.157095 
C 492.378111 128.005612 503.735429 128.7812 514.383385 127.301214 
C 524.991435 125.826775 533.915717 122.249404 539.17037 117.400104 
C 544.360239 112.61059 545.519263 106.994204 542.474559 101.797547 
C 539.47086 96.670876 532.608405 92.353488 523.416949 89.756608 
C 514.288765 87.177605 503.520425 86.481682 493.406466 87.811967 
C 483.256373 89.147005 474.489662 92.427214 469.014278 96.96888 
C 463.472355 101.56574 461.724741 107.102573 464.235775 112.372152 
C 466.781567 117.714673 473.486064 122.32911 482.897923 125.157095 
z
" style="fill:none;stroke:#000000;stroke-linejoin:miter;"/>
   </g>
   <g id="patch_22">
    <path clip-path="url(#p8e8bb1c3dd)" d="M 469.079896 177.471149 
C 484.834738 182.547463 503.809641 183.9339 521.588388 181.289872 
C 539.256022 178.662368 553.985149 172.314658 562.479451 163.771225 
C 570.801051 155.401493 572.387741 145.672241 567.114308 136.751174 
C 561.956442 128.025613 550.620969 120.734807 535.648493 116.374444 
C 520.842423 112.062543 503.456275 110.902147 487.11786 113.121452 
C 470.685047 115.353578 456.379841 120.858872 447.2896 128.530783 
C 438.01886 136.355031 434.846228 145.859104 438.68171 154.986581 
C 442.605122 164.323308 453.51386 172.455669 469.079896 177.471149 
z
" style="fill:none;stroke:#000000;stroke-dasharray:1,1.65;stroke-dashoffset:0;stroke-linejoin:miter;"/>
   </g>
   <g id="patch_23">
    <path clip-path="url(#p8e8bb1c3dd)" d="M 479.347837 128.258719 
C 490.443578 131.610395 503.754452 132.523705 516.231966 130.781185 
C 528.654701 129.046316 539.081354 124.841712 545.188146 119.152632 
C 551.206992 113.545481 552.50107 106.985174 548.897809 100.929393 
C 545.351035 94.968545 537.331293 89.958936 526.629132 86.950203 
C 516.012549 83.965528 503.503545 83.16071 491.753033 84.699365 
C 479.953735 86.244409 469.741486 90.044404 463.334123 95.314676 
C 456.836025 100.659581 454.740795 107.111605 457.61766 113.266644 
C 460.541091 119.521312 468.34571 124.935321 479.347837 128.258719 
z
" style="fill:none;stroke:#000000;stroke-linejoin:miter;"/>
   </g>
   <g id="patch_24">
    <path clip-path="url(#p8e8bb1c3dd)" d="M 468.8976 164.358127 
C 484.734976 169.381444 503.810623 170.753462 521.683616 168.136952 
C 539.444318 165.536882 554.249257 159.2558 562.784919 150.802838 
C 571.146147 142.522621 572.73675 132.89852 567.432963 124.074908 
C 562.245986 115.445626 550.852077 108.235995 535.805087 103.924497 
C 520.926146 99.66115 503.455456 98.513861 487.037481 100.708113 
C 470.524184 102.915105 456.147471 108.358673 447.009784 115.945196 
C 437.689745 123.683115 434.497056 133.083352 438.348255 142.112169 
C 442.288202 151.349047 453.251015 159.395326 468.8976 164.358127 
z
" style="fill:none;stroke:#000000;stroke-dasharray:1,1.65;stroke-dashoffset:0;stroke-linejoin:miter;"/>
   </g>
   <g id="patch_25">
    <path clip-path="url(#p8e8bb1c3dd)" d="M 475.769575 131.384959 
C 488.491253 135.24833 503.773656 136.301913 518.09697 134.292074 
C 532.348123 132.292361 544.281362 127.451267 551.23313 120.913083 
C 558.070344 114.482639 559.482713 106.976145 555.306427 100.063217 
C 551.204796 93.273861 542.024195 87.579587 529.817343 84.16474 
C 517.721568 80.780967 503.486814 79.869173 490.113316 81.612582 
C 476.676605 83.364232 465.023307 87.676648 457.678755 93.66769 
C 450.215478 99.755577 447.756684 107.120638 450.984189 114.163211 
C 454.271538 121.336369 463.170974 127.558965 475.769575 131.384959 
z
" style="fill:none;stroke:#000000;stroke-linejoin:miter;"/>
   </g>
   <g id="patch_26">
    <path clip-path="url(#p8e8bb1c3dd)" d="M 468.71337 151.105976 
C 484.63415 156.074876 503.811616 157.432088 521.77986 154.843836 
C 539.634614 152.271932 554.516149 146.05925 563.093575 137.699131 
C 571.494808 129.510742 573.08932 119.994471 567.754833 111.270755 
C 562.538419 102.740127 551.085468 95.613647 535.963221 91.352191 
C 521.010687 87.138561 503.454629 86.004689 486.956315 88.173293 
C 470.361743 90.35455 455.912805 95.734906 446.727174 103.23396 
C 437.357311 110.883421 434.144321 120.177221 438.011358 129.104865 
C 441.967973 138.239313 452.985397 146.197251 468.71337 151.105976 
z
" style="fill:none;stroke:#000000;stroke-dasharray:1,1.65;stroke-dashoffset:0;stroke-linejoin:miter;"/>
   </g>
   <g id="patch_27">
    <path clip-path="url(#p8e8bb1c3dd)" d="M 472.162802 134.536109 
C 486.520892 138.919874 503.793044 140.116338 519.978619 137.834295 
C 536.072078 135.565239 549.516084 130.078244 557.305508 122.681513 
C 564.950355 115.422071 566.464192 106.967116 561.700463 99.199011 
C 557.03232 91.586773 546.687396 85.215297 532.98185 81.399988 
C 519.416009 77.623569 503.470231 76.606682 488.487144 78.551299 
C 473.42469 80.506216 460.334841 85.323802 452.04801 92.027875 
C 443.610658 98.853721 440.772408 107.12967 444.335309 115.061861 
C 447.972704 123.159903 457.961509 130.200216 472.162802 134.536109 
z
" style="fill:none;stroke:#000000;stroke-linejoin:miter;"/>
   </g>
   <g id="patch_28">
    <path clip-path="url(#p8e8bb1c3dd)" d="M 468.527174 137.712468 
C 484.532241 142.625497 503.812619 143.967504 521.877135 141.408269 
C 539.826944 138.865285 554.78587 132.722817 563.405468 124.457975 
C 571.847088 116.363787 573.445506 106.958088 568.079967 98.336769 
C 562.833783 89.90723 551.321177 82.865924 536.122916 78.655715 
C 521.096058 74.492988 503.453794 73.372854 486.874351 75.515199 
C 470.1977 77.670105 455.675807 82.985727 446.441729 90.395185 
C 437.021509 97.954004 433.787968 107.138703 437.670965 115.962601 
C 441.644382 124.991974 452.716963 132.859253 468.527174 137.712468 
z
" style="fill:none;stroke:#000000;stroke-linejoin:miter;"/>
   </g>
  </g>
 </g>
 <defs>
  <clipPath id="p77e4a97636">
   <rect height="243.490909" width="243.490909" x="86.4" y="52.782545"/>
  </clipPath>
  <clipPath id="p8e8bb1c3dd">
   <rect height="266.112" width="243.490909" x="378.589091" y="41.472"/>
  </clipPath>
 </defs>
</svg>
