<?xml version="1.0" encoding="utf-8" standalone="no"?>
<!DOCTYPE svg PUBLIC "-//W3C//DTD SVG 1.1//EN"
  "http://www.w3.org/Graphics/SVG/1.1/DTD/svg11.dtd">
<!-- Created with matplotlib (https://matplotlib.org/) -->
<svg height="345.6pt" version="1.1" viewBox="0 0 460.8 345.6" width="460.8pt" xmlns="http://www.w3.org/2000/svg" xmlns:xlink="http://www.w3.org/1999/xlink">
 <defs>
  <style type="text/css">
*{stroke-linecap:butt;stroke-linejoin:round;}
  </style>
 </defs>
 <g id="figure_1">
  <g id="patch_1">
   <path d="M 0 345.6 
L 460.8 345.6 
L 460.8 0 
L 0 0 
z
" style="fill:#ffffff;"/>
  </g>
  <g id="axes_1">
   <g id="patch_2">
    <path d="M 57.6 307.584 
L 414.72 307.584 
L 414.72 41.472 
L 57.6 41.472 
z
" style="fill:#ffffff;"/>
   </g>
   <g id="matplotlib.axis_1">
    <g id="xtick_1">
     <g id="line2d_1">
      <defs>
       <path d="M 0 0 
L 0 3.5 
" id="m394f6d194d" style="stroke:#000000;stroke-width:0.8;"/>
      </defs>
      <g>
       <use style="stroke:#000000;stroke-width:0.8;" x="73.832727" xlink:href="#m394f6d194d" y="307.584"/>
      </g>
     </g>
     <g id="text_1">
      <!-- 0 -->
      <defs>
       <path d="M 31.78125 66.40625 
Q 24.171875 66.40625 20.328125 58.90625 
Q 16.5 51.421875 16.5 36.375 
Q 16.5 21.390625 20.328125 13.890625 
Q 24.171875 6.390625 31.78125 6.390625 
Q 39.453125 6.390625 43.28125 13.890625 
Q 47.125 21.390625 47.125 36.375 
Q 47.125 51.421875 43.28125 58.90625 
Q 39.453125 66.40625 31.78125 66.40625 
z
M 31.78125 74.21875 
Q 44.046875 74.21875 50.515625 64.515625 
Q 56.984375 54.828125 56.984375 36.375 
Q 56.984375 17.96875 50.515625 8.265625 
Q 44.046875 -1.421875 31.78125 -1.421875 
Q 19.53125 -1.421875 13.0625 8.265625 
Q 6.59375 17.96875 6.59375 36.375 
Q 6.59375 54.828125 13.0625 64.515625 
Q 19.53125 74.21875 31.78125 74.21875 
z
" id="DejaVuSans-48"/>
      </defs>
      <g transform="translate(70.651477 322.182437)scale(0.1 -0.1)">
       <use xlink:href="#DejaVuSans-48"/>
      </g>
     </g>
    </g>
    <g id="xtick_2">
     <g id="line2d_2">
      <g>
       <use style="stroke:#000000;stroke-width:0.8;" x="118.923636" xlink:href="#m394f6d194d" y="307.584"/>
      </g>
     </g>
     <g id="text_2">
      <!-- 25 -->
      <defs>
       <path d="M 19.1875 8.296875 
L 53.609375 8.296875 
L 53.609375 0 
L 7.328125 0 
L 7.328125 8.296875 
Q 12.9375 14.109375 22.625 23.890625 
Q 32.328125 33.6875 34.8125 36.53125 
Q 39.546875 41.84375 41.421875 45.53125 
Q 43.3125 49.21875 43.3125 52.78125 
Q 43.3125 58.59375 39.234375 62.25 
Q 35.15625 65.921875 28.609375 65.921875 
Q 23.96875 65.921875 18.8125 64.3125 
Q 13.671875 62.703125 7.8125 59.421875 
L 7.8125 69.390625 
Q 13.765625 71.78125 18.9375 73 
Q 24.125 74.21875 28.421875 74.21875 
Q 39.75 74.21875 46.484375 68.546875 
Q 53.21875 62.890625 53.21875 53.421875 
Q 53.21875 48.921875 51.53125 44.890625 
Q 49.859375 40.875 45.40625 35.40625 
Q 44.1875 33.984375 37.640625 27.21875 
Q 31.109375 20.453125 19.1875 8.296875 
z
" id="DejaVuSans-50"/>
       <path d="M 10.796875 72.90625 
L 49.515625 72.90625 
L 49.515625 64.59375 
L 19.828125 64.59375 
L 19.828125 46.734375 
Q 21.96875 47.46875 24.109375 47.828125 
Q 26.265625 48.1875 28.421875 48.1875 
Q 40.625 48.1875 47.75 41.5 
Q 54.890625 34.8125 54.890625 23.390625 
Q 54.890625 11.625 47.5625 5.09375 
Q 40.234375 -1.421875 26.90625 -1.421875 
Q 22.3125 -1.421875 17.546875 -0.640625 
Q 12.796875 0.140625 7.71875 1.703125 
L 7.71875 11.625 
Q 12.109375 9.234375 16.796875 8.0625 
Q 21.484375 6.890625 26.703125 6.890625 
Q 35.15625 6.890625 40.078125 11.328125 
Q 45.015625 15.765625 45.015625 23.390625 
Q 45.015625 31 40.078125 35.4375 
Q 35.15625 39.890625 26.703125 39.890625 
Q 22.75 39.890625 18.8125 39.015625 
Q 14.890625 38.140625 10.796875 36.28125 
z
" id="DejaVuSans-53"/>
      </defs>
      <g transform="translate(112.561136 322.182437)scale(0.1 -0.1)">
       <use xlink:href="#DejaVuSans-50"/>
       <use x="63.623047" xlink:href="#DejaVuSans-53"/>
      </g>
     </g>
    </g>
    <g id="xtick_3">
     <g id="line2d_3">
      <g>
       <use style="stroke:#000000;stroke-width:0.8;" x="164.014545" xlink:href="#m394f6d194d" y="307.584"/>
      </g>
     </g>
     <g id="text_3">
      <!-- 50 -->
      <g transform="translate(157.652045 322.182437)scale(0.1 -0.1)">
       <use xlink:href="#DejaVuSans-53"/>
       <use x="63.623047" xlink:href="#DejaVuSans-48"/>
      </g>
     </g>
    </g>
    <g id="xtick_4">
     <g id="line2d_4">
      <g>
       <use style="stroke:#000000;stroke-width:0.8;" x="209.105455" xlink:href="#m394f6d194d" y="307.584"/>
      </g>
     </g>
     <g id="text_4">
      <!-- 75 -->
      <defs>
       <path d="M 8.203125 72.90625 
L 55.078125 72.90625 
L 55.078125 68.703125 
L 28.609375 0 
L 18.3125 0 
L 43.21875 64.59375 
L 8.203125 64.59375 
z
" id="DejaVuSans-55"/>
      </defs>
      <g transform="translate(202.742955 322.182437)scale(0.1 -0.1)">
       <use xlink:href="#DejaVuSans-55"/>
       <use x="63.623047" xlink:href="#DejaVuSans-53"/>
      </g>
     </g>
    </g>
    <g id="xtick_5">
     <g id="line2d_5">
      <g>
       <use style="stroke:#000000;stroke-width:0.8;" x="254.196364" xlink:href="#m394f6d194d" y="307.584"/>
      </g>
     </g>
     <g id="text_5">
      <!-- 100 -->
      <defs>
       <path d="M 12.40625 8.296875 
L 28.515625 8.296875 
L 28.515625 63.921875 
L 10.984375 60.40625 
L 10.984375 69.390625 
L 28.421875 72.90625 
L 38.28125 72.90625 
L 38.28125 8.296875 
L 54.390625 8.296875 
L 54.390625 0 
L 12.40625 0 
z
" id="DejaVuSans-49"/>
      </defs>
      <g transform="translate(244.652614 322.182437)scale(0.1 -0.1)">
       <use xlink:href="#DejaVuSans-49"/>
       <use x="63.623047" xlink:href="#DejaVuSans-48"/>
       <use x="127.246094" xlink:href="#DejaVuSans-48"/>
      </g>
     </g>
    </g>
    <g id="xtick_6">
     <g id="line2d_6">
      <g>
       <use style="stroke:#000000;stroke-width:0.8;" x="299.287273" xlink:href="#m394f6d194d" y="307.584"/>
      </g>
     </g>
     <g id="text_6">
      <!-- 125 -->
      <g transform="translate(289.743523 322.182437)scale(0.1 -0.1)">
       <use xlink:href="#DejaVuSans-49"/>
       <use x="63.623047" xlink:href="#DejaVuSans-50"/>
       <use x="127.246094" xlink:href="#DejaVuSans-53"/>
      </g>
     </g>
    </g>
    <g id="xtick_7">
     <g id="line2d_7">
      <g>
       <use style="stroke:#000000;stroke-width:0.8;" x="344.378182" xlink:href="#m394f6d194d" y="307.584"/>
      </g>
     </g>
     <g id="text_7">
      <!-- 150 -->
      <g transform="translate(334.834432 322.182437)scale(0.1 -0.1)">
       <use xlink:href="#DejaVuSans-49"/>
       <use x="63.623047" xlink:href="#DejaVuSans-53"/>
       <use x="127.246094" xlink:href="#DejaVuSans-48"/>
      </g>
     </g>
    </g>
    <g id="xtick_8">
     <g id="line2d_8">
      <g>
       <use style="stroke:#000000;stroke-width:0.8;" x="389.469091" xlink:href="#m394f6d194d" y="307.584"/>
      </g>
     </g>
     <g id="text_8">
      <!-- 175 -->
      <g transform="translate(379.925341 322.182437)scale(0.1 -0.1)">
       <use xlink:href="#DejaVuSans-49"/>
       <use x="63.623047" xlink:href="#DejaVuSans-55"/>
       <use x="127.246094" xlink:href="#DejaVuSans-53"/>
      </g>
     </g>
    </g>
    <g id="text_9">
     <!-- Scattering angle $\Theta$ (°) -->
     <defs>
      <path d="M 53.515625 70.515625 
L 53.515625 60.890625 
Q 47.90625 63.578125 42.921875 64.890625 
Q 37.9375 66.21875 33.296875 66.21875 
Q 25.25 66.21875 20.875 63.09375 
Q 16.5 59.96875 16.5 54.203125 
Q 16.5 49.359375 19.40625 46.890625 
Q 22.3125 44.4375 30.421875 42.921875 
L 36.375 41.703125 
Q 47.40625 39.59375 52.65625 34.296875 
Q 57.90625 29 57.90625 20.125 
Q 57.90625 9.515625 50.796875 4.046875 
Q 43.703125 -1.421875 29.984375 -1.421875 
Q 24.8125 -1.421875 18.96875 -0.25 
Q 13.140625 0.921875 6.890625 3.21875 
L 6.890625 13.375 
Q 12.890625 10.015625 18.65625 8.296875 
Q 24.421875 6.59375 29.984375 6.59375 
Q 38.421875 6.59375 43.015625 9.90625 
Q 47.609375 13.234375 47.609375 19.390625 
Q 47.609375 24.75 44.3125 27.78125 
Q 41.015625 30.8125 33.5 32.328125 
L 27.484375 33.5 
Q 16.453125 35.6875 11.515625 40.375 
Q 6.59375 45.0625 6.59375 53.421875 
Q 6.59375 63.09375 13.40625 68.65625 
Q 20.21875 74.21875 32.171875 74.21875 
Q 37.3125 74.21875 42.625 73.28125 
Q 47.953125 72.359375 53.515625 70.515625 
z
" id="DejaVuSans-83"/>
      <path d="M 48.78125 52.59375 
L 48.78125 44.1875 
Q 44.96875 46.296875 41.140625 47.34375 
Q 37.3125 48.390625 33.40625 48.390625 
Q 24.65625 48.390625 19.8125 42.84375 
Q 14.984375 37.3125 14.984375 27.296875 
Q 14.984375 17.28125 19.8125 11.734375 
Q 24.65625 6.203125 33.40625 6.203125 
Q 37.3125 6.203125 41.140625 7.25 
Q 44.96875 8.296875 48.78125 10.40625 
L 48.78125 2.09375 
Q 45.015625 0.34375 40.984375 -0.53125 
Q 36.96875 -1.421875 32.421875 -1.421875 
Q 20.0625 -1.421875 12.78125 6.34375 
Q 5.515625 14.109375 5.515625 27.296875 
Q 5.515625 40.671875 12.859375 48.328125 
Q 20.21875 56 33.015625 56 
Q 37.15625 56 41.109375 55.140625 
Q 45.0625 54.296875 48.78125 52.59375 
z
" id="DejaVuSans-99"/>
      <path d="M 34.28125 27.484375 
Q 23.390625 27.484375 19.1875 25 
Q 14.984375 22.515625 14.984375 16.5 
Q 14.984375 11.71875 18.140625 8.90625 
Q 21.296875 6.109375 26.703125 6.109375 
Q 34.1875 6.109375 38.703125 11.40625 
Q 43.21875 16.703125 43.21875 25.484375 
L 43.21875 27.484375 
z
M 52.203125 31.203125 
L 52.203125 0 
L 43.21875 0 
L 43.21875 8.296875 
Q 40.140625 3.328125 35.546875 0.953125 
Q 30.953125 -1.421875 24.3125 -1.421875 
Q 15.921875 -1.421875 10.953125 3.296875 
Q 6 8.015625 6 15.921875 
Q 6 25.140625 12.171875 29.828125 
Q 18.359375 34.515625 30.609375 34.515625 
L 43.21875 34.515625 
L 43.21875 35.40625 
Q 43.21875 41.609375 39.140625 45 
Q 35.0625 48.390625 27.6875 48.390625 
Q 23 48.390625 18.546875 47.265625 
Q 14.109375 46.140625 10.015625 43.890625 
L 10.015625 52.203125 
Q 14.9375 54.109375 19.578125 55.046875 
Q 24.21875 56 28.609375 56 
Q 40.484375 56 46.34375 49.84375 
Q 52.203125 43.703125 52.203125 31.203125 
z
" id="DejaVuSans-97"/>
      <path d="M 18.3125 70.21875 
L 18.3125 54.6875 
L 36.8125 54.6875 
L 36.8125 47.703125 
L 18.3125 47.703125 
L 18.3125 18.015625 
Q 18.3125 11.328125 20.140625 9.421875 
Q 21.96875 7.515625 27.59375 7.515625 
L 36.8125 7.515625 
L 36.8125 0 
L 27.59375 0 
Q 17.1875 0 13.234375 3.875 
Q 9.28125 7.765625 9.28125 18.015625 
L 9.28125 47.703125 
L 2.6875 47.703125 
L 2.6875 54.6875 
L 9.28125 54.6875 
L 9.28125 70.21875 
z
" id="DejaVuSans-116"/>
      <path d="M 56.203125 29.59375 
L 56.203125 25.203125 
L 14.890625 25.203125 
Q 15.484375 15.921875 20.484375 11.0625 
Q 25.484375 6.203125 34.421875 6.203125 
Q 39.59375 6.203125 44.453125 7.46875 
Q 49.3125 8.734375 54.109375 11.28125 
L 54.109375 2.78125 
Q 49.265625 0.734375 44.1875 -0.34375 
Q 39.109375 -1.421875 33.890625 -1.421875 
Q 20.796875 -1.421875 13.15625 6.1875 
Q 5.515625 13.8125 5.515625 26.8125 
Q 5.515625 40.234375 12.765625 48.109375 
Q 20.015625 56 32.328125 56 
Q 43.359375 56 49.78125 48.890625 
Q 56.203125 41.796875 56.203125 29.59375 
z
M 47.21875 32.234375 
Q 47.125 39.59375 43.09375 43.984375 
Q 39.0625 48.390625 32.421875 48.390625 
Q 24.90625 48.390625 20.390625 44.140625 
Q 15.875 39.890625 15.1875 32.171875 
z
" id="DejaVuSans-101"/>
      <path d="M 41.109375 46.296875 
Q 39.59375 47.171875 37.8125 47.578125 
Q 36.03125 48 33.890625 48 
Q 26.265625 48 22.1875 43.046875 
Q 18.109375 38.09375 18.109375 28.8125 
L 18.109375 0 
L 9.078125 0 
L 9.078125 54.6875 
L 18.109375 54.6875 
L 18.109375 46.1875 
Q 20.953125 51.171875 25.484375 53.578125 
Q 30.03125 56 36.53125 56 
Q 37.453125 56 38.578125 55.875 
Q 39.703125 55.765625 41.0625 55.515625 
z
" id="DejaVuSans-114"/>
      <path d="M 9.421875 54.6875 
L 18.40625 54.6875 
L 18.40625 0 
L 9.421875 0 
z
M 9.421875 75.984375 
L 18.40625 75.984375 
L 18.40625 64.59375 
L 9.421875 64.59375 
z
" id="DejaVuSans-105"/>
      <path d="M 54.890625 33.015625 
L 54.890625 0 
L 45.90625 0 
L 45.90625 32.71875 
Q 45.90625 40.484375 42.875 44.328125 
Q 39.84375 48.1875 33.796875 48.1875 
Q 26.515625 48.1875 22.3125 43.546875 
Q 18.109375 38.921875 18.109375 30.90625 
L 18.109375 0 
L 9.078125 0 
L 9.078125 54.6875 
L 18.109375 54.6875 
L 18.109375 46.1875 
Q 21.34375 51.125 25.703125 53.5625 
Q 30.078125 56 35.796875 56 
Q 45.21875 56 50.046875 50.171875 
Q 54.890625 44.34375 54.890625 33.015625 
z
" id="DejaVuSans-110"/>
      <path d="M 45.40625 27.984375 
Q 45.40625 37.75 41.375 43.109375 
Q 37.359375 48.484375 30.078125 48.484375 
Q 22.859375 48.484375 18.828125 43.109375 
Q 14.796875 37.75 14.796875 27.984375 
Q 14.796875 18.265625 18.828125 12.890625 
Q 22.859375 7.515625 30.078125 7.515625 
Q 37.359375 7.515625 41.375 12.890625 
Q 45.40625 18.265625 45.40625 27.984375 
z
M 54.390625 6.78125 
Q 54.390625 -7.171875 48.1875 -13.984375 
Q 42 -20.796875 29.203125 -20.796875 
Q 24.46875 -20.796875 20.265625 -20.09375 
Q 16.0625 -19.390625 12.109375 -17.921875 
L 12.109375 -9.1875 
Q 16.0625 -11.328125 19.921875 -12.34375 
Q 23.78125 -13.375 27.78125 -13.375 
Q 36.625 -13.375 41.015625 -8.765625 
Q 45.40625 -4.15625 45.40625 5.171875 
L 45.40625 9.625 
Q 42.625 4.78125 38.28125 2.390625 
Q 33.9375 0 27.875 0 
Q 17.828125 0 11.671875 7.65625 
Q 5.515625 15.328125 5.515625 27.984375 
Q 5.515625 40.671875 11.671875 48.328125 
Q 17.828125 56 27.875 56 
Q 33.9375 56 38.28125 53.609375 
Q 42.625 51.21875 45.40625 46.390625 
L 45.40625 54.6875 
L 54.390625 54.6875 
z
" id="DejaVuSans-103"/>
      <path id="DejaVuSans-32"/>
      <path d="M 9.421875 75.984375 
L 18.40625 75.984375 
L 18.40625 0 
L 9.421875 0 
z
" id="DejaVuSans-108"/>
      <path d="M 22.125 42.96875 
L 56.59375 42.96875 
L 56.59375 34.671875 
L 22.125 34.671875 
z
M 39.40625 66.21875 
Q 28.65625 66.21875 22.359375 58.203125 
Q 16.015625 50.203125 16.015625 36.375 
Q 16.015625 22.609375 22.328125 14.59375 
Q 28.65625 6.59375 39.40625 6.59375 
Q 50.140625 6.59375 56.453125 14.59375 
Q 62.703125 22.609375 62.703125 36.375 
Q 62.703125 50.203125 56.453125 58.203125 
Q 50.140625 66.21875 39.40625 66.21875 
z
M 39.40625 74.21875 
Q 54.734375 74.21875 63.90625 63.9375 
Q 73.09375 53.65625 73.09375 36.375 
Q 73.09375 19.140625 63.921875 8.890625 
Q 54.734375 -1.421875 39.40625 -1.421875 
Q 24.03125 -1.421875 14.84375 8.84375 
Q 5.609375 19.09375 5.609375 36.375 
Q 5.609375 53.65625 14.84375 63.96875 
Q 24.03125 74.21875 39.40625 74.21875 
z
" id="DejaVuSans-920"/>
      <path d="M 31 75.875 
Q 24.46875 64.65625 21.28125 53.65625 
Q 18.109375 42.671875 18.109375 31.390625 
Q 18.109375 20.125 21.3125 9.0625 
Q 24.515625 -2 31 -13.1875 
L 23.1875 -13.1875 
Q 15.875 -1.703125 12.234375 9.375 
Q 8.59375 20.453125 8.59375 31.390625 
Q 8.59375 42.28125 12.203125 53.3125 
Q 15.828125 64.359375 23.1875 75.875 
z
" id="DejaVuSans-40"/>
      <path d="M 25 67.921875 
Q 21.09375 67.921875 18.40625 65.203125 
Q 15.71875 62.5 15.71875 58.59375 
Q 15.71875 54.734375 18.40625 52.078125 
Q 21.09375 49.421875 25 49.421875 
Q 28.90625 49.421875 31.59375 52.078125 
Q 34.28125 54.734375 34.28125 58.59375 
Q 34.28125 62.453125 31.5625 65.1875 
Q 28.859375 67.921875 25 67.921875 
z
M 25 74.21875 
Q 28.125 74.21875 31 73.015625 
Q 33.890625 71.828125 35.984375 69.578125 
Q 38.234375 67.390625 39.359375 64.59375 
Q 40.484375 61.8125 40.484375 58.59375 
Q 40.484375 52.15625 35.96875 47.6875 
Q 31.453125 43.21875 24.90625 43.21875 
Q 18.3125 43.21875 13.90625 47.609375 
Q 9.515625 52 9.515625 58.59375 
Q 9.515625 65.140625 14 69.671875 
Q 18.5 74.21875 25 74.21875 
z
" id="DejaVuSans-176"/>
      <path d="M 8.015625 75.875 
L 15.828125 75.875 
Q 23.140625 64.359375 26.78125 53.3125 
Q 30.421875 42.28125 30.421875 31.390625 
Q 30.421875 20.453125 26.78125 9.375 
Q 23.140625 -1.703125 15.828125 -13.1875 
L 8.015625 -13.1875 
Q 14.5 -2 17.703125 9.0625 
Q 20.90625 20.125 20.90625 31.390625 
Q 20.90625 42.671875 17.703125 53.65625 
Q 14.5 64.65625 8.015625 75.875 
z
" id="DejaVuSans-41"/>
     </defs>
     <g transform="translate(181.41 335.862125)scale(0.1 -0.1)">
      <use transform="translate(0 0.015625)" xlink:href="#DejaVuSans-83"/>
      <use transform="translate(63.476562 0.015625)" xlink:href="#DejaVuSans-99"/>
      <use transform="translate(118.457031 0.015625)" xlink:href="#DejaVuSans-97"/>
      <use transform="translate(179.736328 0.015625)" xlink:href="#DejaVuSans-116"/>
      <use transform="translate(218.945312 0.015625)" xlink:href="#DejaVuSans-116"/>
      <use transform="translate(258.154297 0.015625)" xlink:href="#DejaVuSans-101"/>
      <use transform="translate(319.677734 0.015625)" xlink:href="#DejaVuSans-114"/>
      <use transform="translate(360.791016 0.015625)" xlink:href="#DejaVuSans-105"/>
      <use transform="translate(388.574219 0.015625)" xlink:href="#DejaVuSans-110"/>
      <use transform="translate(451.953125 0.015625)" xlink:href="#DejaVuSans-103"/>
      <use transform="translate(515.429688 0.015625)" xlink:href="#DejaVuSans-32"/>
      <use transform="translate(547.216797 0.015625)" xlink:href="#DejaVuSans-97"/>
      <use transform="translate(608.496094 0.015625)" xlink:href="#DejaVuSans-110"/>
      <use transform="translate(671.875 0.015625)" xlink:href="#DejaVuSans-103"/>
      <use transform="translate(735.351562 0.015625)" xlink:href="#DejaVuSans-108"/>
      <use transform="translate(763.134766 0.015625)" xlink:href="#DejaVuSans-101"/>
      <use transform="translate(824.658203 0.015625)" xlink:href="#DejaVuSans-32"/>
      <use transform="translate(856.445312 0.015625)" xlink:href="#DejaVuSans-920"/>
      <use transform="translate(935.15625 0.015625)" xlink:href="#DejaVuSans-32"/>
      <use transform="translate(966.943359 0.015625)" xlink:href="#DejaVuSans-40"/>
      <use transform="translate(1005.957031 0.015625)" xlink:href="#DejaVuSans-176"/>
      <use transform="translate(1055.957031 0.015625)" xlink:href="#DejaVuSans-41"/>
     </g>
    </g>
   </g>
   <g id="matplotlib.axis_2">
    <g id="ytick_1">
     <g id="line2d_9">
      <defs>
       <path d="M 0 0 
L -3.5 0 
" id="m4f82695f10" style="stroke:#000000;stroke-width:0.8;"/>
      </defs>
      <g>
       <use style="stroke:#000000;stroke-width:0.8;" x="57.6" xlink:href="#m4f82695f10" y="295.255877"/>
      </g>
     </g>
     <g id="text_10">
      <!-- $\mathdefault{10^{-3}}$ -->
      <defs>
       <path d="M 10.59375 35.5 
L 73.1875 35.5 
L 73.1875 27.203125 
L 10.59375 27.203125 
z
" id="DejaVuSans-8722"/>
       <path d="M 40.578125 39.3125 
Q 47.65625 37.796875 51.625 33 
Q 55.609375 28.21875 55.609375 21.1875 
Q 55.609375 10.40625 48.1875 4.484375 
Q 40.765625 -1.421875 27.09375 -1.421875 
Q 22.515625 -1.421875 17.65625 -0.515625 
Q 12.796875 0.390625 7.625 2.203125 
L 7.625 11.71875 
Q 11.71875 9.328125 16.59375 8.109375 
Q 21.484375 6.890625 26.8125 6.890625 
Q 36.078125 6.890625 40.9375 10.546875 
Q 45.796875 14.203125 45.796875 21.1875 
Q 45.796875 27.640625 41.28125 31.265625 
Q 36.765625 34.90625 28.71875 34.90625 
L 20.21875 34.90625 
L 20.21875 43.015625 
L 29.109375 43.015625 
Q 36.375 43.015625 40.234375 45.921875 
Q 44.09375 48.828125 44.09375 54.296875 
Q 44.09375 59.90625 40.109375 62.90625 
Q 36.140625 65.921875 28.71875 65.921875 
Q 24.65625 65.921875 20.015625 65.03125 
Q 15.375 64.15625 9.8125 62.3125 
L 9.8125 71.09375 
Q 15.4375 72.65625 20.34375 73.4375 
Q 25.25 74.21875 29.59375 74.21875 
Q 40.828125 74.21875 47.359375 69.109375 
Q 53.90625 64.015625 53.90625 55.328125 
Q 53.90625 49.265625 50.4375 45.09375 
Q 46.96875 40.921875 40.578125 39.3125 
z
" id="DejaVuSans-51"/>
      </defs>
      <g transform="translate(27.1 299.055096)scale(0.1 -0.1)">
       <use transform="translate(0 0.765625)" xlink:href="#DejaVuSans-49"/>
       <use transform="translate(63.623047 0.765625)" xlink:href="#DejaVuSans-48"/>
       <use transform="translate(128.203125 39.046875)scale(0.7)" xlink:href="#DejaVuSans-8722"/>
       <use transform="translate(186.855469 39.046875)scale(0.7)" xlink:href="#DejaVuSans-51"/>
      </g>
     </g>
    </g>
    <g id="ytick_2">
     <g id="line2d_10">
      <g>
       <use style="stroke:#000000;stroke-width:0.8;" x="57.6" xlink:href="#m4f82695f10" y="250.805088"/>
      </g>
     </g>
     <g id="text_11">
      <!-- $\mathdefault{10^{-2}}$ -->
      <g transform="translate(27.1 254.604307)scale(0.1 -0.1)">
       <use transform="translate(0 0.765625)" xlink:href="#DejaVuSans-49"/>
       <use transform="translate(63.623047 0.765625)" xlink:href="#DejaVuSans-48"/>
       <use transform="translate(128.203125 39.046875)scale(0.7)" xlink:href="#DejaVuSans-8722"/>
       <use transform="translate(186.855469 39.046875)scale(0.7)" xlink:href="#DejaVuSans-50"/>
      </g>
     </g>
    </g>
    <g id="ytick_3">
     <g id="line2d_11">
      <g>
       <use style="stroke:#000000;stroke-width:0.8;" x="57.6" xlink:href="#m4f82695f10" y="206.354298"/>
      </g>
     </g>
     <g id="text_12">
      <!-- $\mathdefault{10^{-1}}$ -->
      <g transform="translate(27.1 210.153517)scale(0.1 -0.1)">
       <use transform="translate(0 0.684375)" xlink:href="#DejaVuSans-49"/>
       <use transform="translate(63.623047 0.684375)" xlink:href="#DejaVuSans-48"/>
       <use transform="translate(128.203125 38.965625)scale(0.7)" xlink:href="#DejaVuSans-8722"/>
       <use transform="translate(186.855469 38.965625)scale(0.7)" xlink:href="#DejaVuSans-49"/>
      </g>
     </g>
    </g>
    <g id="ytick_4">
     <g id="line2d_12">
      <g>
       <use style="stroke:#000000;stroke-width:0.8;" x="57.6" xlink:href="#m4f82695f10" y="161.903509"/>
      </g>
     </g>
     <g id="text_13">
      <!-- $\mathdefault{10^{0}}$ -->
      <g transform="translate(33 165.702728)scale(0.1 -0.1)">
       <use transform="translate(0 0.765625)" xlink:href="#DejaVuSans-49"/>
       <use transform="translate(63.623047 0.765625)" xlink:href="#DejaVuSans-48"/>
       <use transform="translate(128.203125 39.046875)scale(0.7)" xlink:href="#DejaVuSans-48"/>
      </g>
     </g>
    </g>
    <g id="ytick_5">
     <g id="line2d_13">
      <g>
       <use style="stroke:#000000;stroke-width:0.8;" x="57.6" xlink:href="#m4f82695f10" y="117.45272"/>
      </g>
     </g>
     <g id="text_14">
      <!-- $\mathdefault{10^{1}}$ -->
      <g transform="translate(33 121.251939)scale(0.1 -0.1)">
       <use transform="translate(0 0.684375)" xlink:href="#DejaVuSans-49"/>
       <use transform="translate(63.623047 0.684375)" xlink:href="#DejaVuSans-48"/>
       <use transform="translate(128.203125 38.965625)scale(0.7)" xlink:href="#DejaVuSans-49"/>
      </g>
     </g>
    </g>
    <g id="ytick_6">
     <g id="line2d_14">
      <g>
       <use style="stroke:#000000;stroke-width:0.8;" x="57.6" xlink:href="#m4f82695f10" y="73.001931"/>
      </g>
     </g>
     <g id="text_15">
      <!-- $\mathdefault{10^{2}}$ -->
      <g transform="translate(33 76.801149)scale(0.1 -0.1)">
       <use transform="translate(0 0.765625)" xlink:href="#DejaVuSans-49"/>
       <use transform="translate(63.623047 0.765625)" xlink:href="#DejaVuSans-48"/>
       <use transform="translate(128.203125 39.046875)scale(0.7)" xlink:href="#DejaVuSans-50"/>
      </g>
     </g>
    </g>
    <g id="ytick_7">
     <g id="line2d_15">
      <defs>
       <path d="M 0 0 
L -2 0 
" id="m7ebf52eeac" style="stroke:#000000;stroke-width:0.6;"/>
      </defs>
      <g>
       <use style="stroke:#000000;stroke-width:0.6;" x="57.6" xlink:href="#m7ebf52eeac" y="305.117229"/>
      </g>
     </g>
    </g>
    <g id="ytick_8">
     <g id="line2d_16">
      <g>
       <use style="stroke:#000000;stroke-width:0.6;" x="57.6" xlink:href="#m7ebf52eeac" y="302.141392"/>
      </g>
     </g>
    </g>
    <g id="ytick_9">
     <g id="line2d_17">
      <g>
       <use style="stroke:#000000;stroke-width:0.6;" x="57.6" xlink:href="#m7ebf52eeac" y="299.563604"/>
      </g>
     </g>
    </g>
    <g id="ytick_10">
     <g id="line2d_18">
      <g>
       <use style="stroke:#000000;stroke-width:0.6;" x="57.6" xlink:href="#m7ebf52eeac" y="297.289834"/>
      </g>
     </g>
    </g>
    <g id="ytick_11">
     <g id="line2d_19">
      <g>
       <use style="stroke:#000000;stroke-width:0.6;" x="57.6" xlink:href="#m7ebf52eeac" y="281.874856"/>
      </g>
     </g>
    </g>
    <g id="ytick_12">
     <g id="line2d_20">
      <g>
       <use style="stroke:#000000;stroke-width:0.6;" x="57.6" xlink:href="#m7ebf52eeac" y="274.047461"/>
      </g>
     </g>
    </g>
    <g id="ytick_13">
     <g id="line2d_21">
      <g>
       <use style="stroke:#000000;stroke-width:0.6;" x="57.6" xlink:href="#m7ebf52eeac" y="268.493835"/>
      </g>
     </g>
    </g>
    <g id="ytick_14">
     <g id="line2d_22">
      <g>
       <use style="stroke:#000000;stroke-width:0.6;" x="57.6" xlink:href="#m7ebf52eeac" y="264.186109"/>
      </g>
     </g>
    </g>
    <g id="ytick_15">
     <g id="line2d_23">
      <g>
       <use style="stroke:#000000;stroke-width:0.6;" x="57.6" xlink:href="#m7ebf52eeac" y="260.66644"/>
      </g>
     </g>
    </g>
    <g id="ytick_16">
     <g id="line2d_24">
      <g>
       <use style="stroke:#000000;stroke-width:0.6;" x="57.6" xlink:href="#m7ebf52eeac" y="257.690602"/>
      </g>
     </g>
    </g>
    <g id="ytick_17">
     <g id="line2d_25">
      <g>
       <use style="stroke:#000000;stroke-width:0.6;" x="57.6" xlink:href="#m7ebf52eeac" y="255.112814"/>
      </g>
     </g>
    </g>
    <g id="ytick_18">
     <g id="line2d_26">
      <g>
       <use style="stroke:#000000;stroke-width:0.6;" x="57.6" xlink:href="#m7ebf52eeac" y="252.839044"/>
      </g>
     </g>
    </g>
    <g id="ytick_19">
     <g id="line2d_27">
      <g>
       <use style="stroke:#000000;stroke-width:0.6;" x="57.6" xlink:href="#m7ebf52eeac" y="237.424067"/>
      </g>
     </g>
    </g>
    <g id="ytick_20">
     <g id="line2d_28">
      <g>
       <use style="stroke:#000000;stroke-width:0.6;" x="57.6" xlink:href="#m7ebf52eeac" y="229.596671"/>
      </g>
     </g>
    </g>
    <g id="ytick_21">
     <g id="line2d_29">
      <g>
       <use style="stroke:#000000;stroke-width:0.6;" x="57.6" xlink:href="#m7ebf52eeac" y="224.043046"/>
      </g>
     </g>
    </g>
    <g id="ytick_22">
     <g id="line2d_30">
      <g>
       <use style="stroke:#000000;stroke-width:0.6;" x="57.6" xlink:href="#m7ebf52eeac" y="219.735319"/>
      </g>
     </g>
    </g>
    <g id="ytick_23">
     <g id="line2d_31">
      <g>
       <use style="stroke:#000000;stroke-width:0.6;" x="57.6" xlink:href="#m7ebf52eeac" y="216.215651"/>
      </g>
     </g>
    </g>
    <g id="ytick_24">
     <g id="line2d_32">
      <g>
       <use style="stroke:#000000;stroke-width:0.6;" x="57.6" xlink:href="#m7ebf52eeac" y="213.239813"/>
      </g>
     </g>
    </g>
    <g id="ytick_25">
     <g id="line2d_33">
      <g>
       <use style="stroke:#000000;stroke-width:0.6;" x="57.6" xlink:href="#m7ebf52eeac" y="210.662025"/>
      </g>
     </g>
    </g>
    <g id="ytick_26">
     <g id="line2d_34">
      <g>
       <use style="stroke:#000000;stroke-width:0.6;" x="57.6" xlink:href="#m7ebf52eeac" y="208.388255"/>
      </g>
     </g>
    </g>
    <g id="ytick_27">
     <g id="line2d_35">
      <g>
       <use style="stroke:#000000;stroke-width:0.6;" x="57.6" xlink:href="#m7ebf52eeac" y="192.973278"/>
      </g>
     </g>
    </g>
    <g id="ytick_28">
     <g id="line2d_36">
      <g>
       <use style="stroke:#000000;stroke-width:0.6;" x="57.6" xlink:href="#m7ebf52eeac" y="185.145882"/>
      </g>
     </g>
    </g>
    <g id="ytick_29">
     <g id="line2d_37">
      <g>
       <use style="stroke:#000000;stroke-width:0.6;" x="57.6" xlink:href="#m7ebf52eeac" y="179.592257"/>
      </g>
     </g>
    </g>
    <g id="ytick_30">
     <g id="line2d_38">
      <g>
       <use style="stroke:#000000;stroke-width:0.6;" x="57.6" xlink:href="#m7ebf52eeac" y="175.28453"/>
      </g>
     </g>
    </g>
    <g id="ytick_31">
     <g id="line2d_39">
      <g>
       <use style="stroke:#000000;stroke-width:0.6;" x="57.6" xlink:href="#m7ebf52eeac" y="171.764861"/>
      </g>
     </g>
    </g>
    <g id="ytick_32">
     <g id="line2d_40">
      <g>
       <use style="stroke:#000000;stroke-width:0.6;" x="57.6" xlink:href="#m7ebf52eeac" y="168.789024"/>
      </g>
     </g>
    </g>
    <g id="ytick_33">
     <g id="line2d_41">
      <g>
       <use style="stroke:#000000;stroke-width:0.6;" x="57.6" xlink:href="#m7ebf52eeac" y="166.211236"/>
      </g>
     </g>
    </g>
    <g id="ytick_34">
     <g id="line2d_42">
      <g>
       <use style="stroke:#000000;stroke-width:0.6;" x="57.6" xlink:href="#m7ebf52eeac" y="163.937466"/>
      </g>
     </g>
    </g>
    <g id="ytick_35">
     <g id="line2d_43">
      <g>
       <use style="stroke:#000000;stroke-width:0.6;" x="57.6" xlink:href="#m7ebf52eeac" y="148.522488"/>
      </g>
     </g>
    </g>
    <g id="ytick_36">
     <g id="line2d_44">
      <g>
       <use style="stroke:#000000;stroke-width:0.6;" x="57.6" xlink:href="#m7ebf52eeac" y="140.695093"/>
      </g>
     </g>
    </g>
    <g id="ytick_37">
     <g id="line2d_45">
      <g>
       <use style="stroke:#000000;stroke-width:0.6;" x="57.6" xlink:href="#m7ebf52eeac" y="135.141467"/>
      </g>
     </g>
    </g>
    <g id="ytick_38">
     <g id="line2d_46">
      <g>
       <use style="stroke:#000000;stroke-width:0.6;" x="57.6" xlink:href="#m7ebf52eeac" y="130.833741"/>
      </g>
     </g>
    </g>
    <g id="ytick_39">
     <g id="line2d_47">
      <g>
       <use style="stroke:#000000;stroke-width:0.6;" x="57.6" xlink:href="#m7ebf52eeac" y="127.314072"/>
      </g>
     </g>
    </g>
    <g id="ytick_40">
     <g id="line2d_48">
      <g>
       <use style="stroke:#000000;stroke-width:0.6;" x="57.6" xlink:href="#m7ebf52eeac" y="124.338234"/>
      </g>
     </g>
    </g>
    <g id="ytick_41">
     <g id="line2d_49">
      <g>
       <use style="stroke:#000000;stroke-width:0.6;" x="57.6" xlink:href="#m7ebf52eeac" y="121.760446"/>
      </g>
     </g>
    </g>
    <g id="ytick_42">
     <g id="line2d_50">
      <g>
       <use style="stroke:#000000;stroke-width:0.6;" x="57.6" xlink:href="#m7ebf52eeac" y="119.486676"/>
      </g>
     </g>
    </g>
    <g id="ytick_43">
     <g id="line2d_51">
      <g>
       <use style="stroke:#000000;stroke-width:0.6;" x="57.6" xlink:href="#m7ebf52eeac" y="104.071699"/>
      </g>
     </g>
    </g>
    <g id="ytick_44">
     <g id="line2d_52">
      <g>
       <use style="stroke:#000000;stroke-width:0.6;" x="57.6" xlink:href="#m7ebf52eeac" y="96.244303"/>
      </g>
     </g>
    </g>
    <g id="ytick_45">
     <g id="line2d_53">
      <g>
       <use style="stroke:#000000;stroke-width:0.6;" x="57.6" xlink:href="#m7ebf52eeac" y="90.690678"/>
      </g>
     </g>
    </g>
    <g id="ytick_46">
     <g id="line2d_54">
      <g>
       <use style="stroke:#000000;stroke-width:0.6;" x="57.6" xlink:href="#m7ebf52eeac" y="86.382951"/>
      </g>
     </g>
    </g>
    <g id="ytick_47">
     <g id="line2d_55">
      <g>
       <use style="stroke:#000000;stroke-width:0.6;" x="57.6" xlink:href="#m7ebf52eeac" y="82.863283"/>
      </g>
     </g>
    </g>
    <g id="ytick_48">
     <g id="line2d_56">
      <g>
       <use style="stroke:#000000;stroke-width:0.6;" x="57.6" xlink:href="#m7ebf52eeac" y="79.887445"/>
      </g>
     </g>
    </g>
    <g id="ytick_49">
     <g id="line2d_57">
      <g>
       <use style="stroke:#000000;stroke-width:0.6;" x="57.6" xlink:href="#m7ebf52eeac" y="77.309657"/>
      </g>
     </g>
    </g>
    <g id="ytick_50">
     <g id="line2d_58">
      <g>
       <use style="stroke:#000000;stroke-width:0.6;" x="57.6" xlink:href="#m7ebf52eeac" y="75.035887"/>
      </g>
     </g>
    </g>
    <g id="ytick_51">
     <g id="line2d_59">
      <g>
       <use style="stroke:#000000;stroke-width:0.6;" x="57.6" xlink:href="#m7ebf52eeac" y="59.62091"/>
      </g>
     </g>
    </g>
    <g id="ytick_52">
     <g id="line2d_60">
      <g>
       <use style="stroke:#000000;stroke-width:0.6;" x="57.6" xlink:href="#m7ebf52eeac" y="51.793514"/>
      </g>
     </g>
    </g>
    <g id="ytick_53">
     <g id="line2d_61">
      <g>
       <use style="stroke:#000000;stroke-width:0.6;" x="57.6" xlink:href="#m7ebf52eeac" y="46.239889"/>
      </g>
     </g>
    </g>
    <g id="ytick_54">
     <g id="line2d_62">
      <g>
       <use style="stroke:#000000;stroke-width:0.6;" x="57.6" xlink:href="#m7ebf52eeac" y="41.932162"/>
      </g>
     </g>
    </g>
   </g>
   <g id="line2d_63">
    <path clip-path="url(#pd82ad93976)" d="M 73.832727 141.007733 
L 80.657297 141.122201 
L 87.481867 141.465447 
L 94.306437 142.036992 
L 101.131007 142.836022 
L 107.955577 143.861373 
L 114.780147 145.111499 
L 121.604717 146.584441 
L 128.429287 148.277782 
L 135.578837 150.284967 
L 142.728387 152.526837 
L 149.877936 154.998677 
L 157.352465 157.822808 
L 164.826994 160.885141 
L 172.626503 164.325874 
L 180.426011 168.007216 
L 188.5505 172.086452 
L 196.999967 176.58102 
L 205.774414 181.508116 
L 214.548862 186.690674 
L 223.323309 192.1267 
L 232.097756 197.825486 
L 240.547224 203.584873 
L 248.346732 209.172779 
L 255.496282 214.565497 
L 261.995872 219.734845 
L 268.170483 224.923612 
L 274.020115 230.129032 
L 279.544767 235.337207 
L 285.069419 240.850414 
L 290.91905 247.012338 
L 300.018477 256.998704 
L 304.89317 262.173213 
L 308.142965 265.301057 
L 310.742801 267.481931 
L 313.017658 269.072565 
L 314.967535 270.151858 
L 316.592432 270.828017 
L 318.21733 271.28969 
L 319.842228 271.533464 
L 321.467125 271.563407 
L 323.092023 271.390639 
L 325.0419 270.940013 
L 326.991777 270.259338 
L 329.266634 269.229836 
L 332.19145 267.634627 
L 336.091204 265.229905 
L 347.790467 257.867828 
L 352.34018 255.329354 
L 356.889894 253.052848 
L 361.114627 251.18065 
L 365.339361 249.538085 
L 369.889075 248.017662 
L 374.438788 246.744473 
L 378.988501 245.708012 
L 383.538215 244.899001 
L 388.087928 244.309876 
L 392.637641 243.934998 
L 397.187355 243.770737 
L 398.487273 243.762216 
L 398.487273 243.762216 
" style="fill:none;stroke:#1f77b4;stroke-linecap:square;stroke-width:1.5;"/>
   </g>
   <g id="line2d_64">
    <path clip-path="url(#pd82ad93976)" d="M 73.832727 118.622809 
L 77.732482 118.742053 
L 81.632236 119.10019 
L 85.53199 119.698452 
L 89.431744 120.538925 
L 93.331499 121.624601 
L 97.231253 122.959455 
L 101.131007 124.548551 
L 105.030762 126.398175 
L 108.930516 128.516014 
L 112.505291 130.700908 
L 116.080066 133.127554 
L 119.65484 135.806101 
L 123.229615 138.748554 
L 126.80439 141.969122 
L 130.379165 145.484629 
L 133.953939 149.315004 
L 137.528714 153.483836 
L 141.103489 158.018926 
L 144.353284 162.486768 
L 147.603079 167.311702 
L 150.852875 172.523645 
L 154.10267 178.152129 
L 157.352465 184.219651 
L 160.92724 191.399791 
L 165.151974 200.446802 
L 170.351646 211.603787 
L 172.301523 215.342105 
L 173.926421 218.045388 
L 175.226339 219.84865 
L 176.526257 221.276052 
L 177.501196 222.080602 
L 178.476134 222.652928 
L 179.451073 222.998966 
L 180.426011 223.132949 
L 181.40095 223.075788 
L 182.700868 222.746542 
L 184.000786 222.18842 
L 185.950663 221.061449 
L 189.525438 218.619202 
L 193.100213 216.276723 
L 195.700049 214.838889 
L 197.974906 213.813595 
L 200.249762 213.017943 
L 202.524619 212.452521 
L 204.799476 212.112476 
L 207.074333 211.990513 
L 209.349189 212.078585 
L 211.624046 212.36883 
L 214.223882 212.938924 
L 216.823718 213.754489 
L 219.423554 214.808014 
L 222.023391 216.093706 
L 224.623227 217.60737 
L 227.548043 219.579274 
L 230.472858 221.833699 
L 233.397674 224.368931 
L 236.32249 227.182531 
L 239.572285 230.628228 
L 242.82208 234.391969 
L 246.721835 239.267603 
L 256.7962 252.126939 
L 258.746077 254.169458 
L 260.370975 255.605922 
L 261.995872 256.745733 
L 263.29579 257.416591 
L 264.595708 257.859305 
L 265.895627 258.070366 
L 267.195545 258.055536 
L 268.495463 257.829116 
L 270.12036 257.281249 
L 271.745258 256.486974 
L 273.695135 255.285967 
L 276.294971 253.411618 
L 287.669255 244.860204 
L 290.91905 242.82593 
L 294.168845 241.045724 
L 297.41864 239.516693 
L 300.668436 238.226634 
L 303.918231 237.158665 
L 307.493006 236.217551 
L 311.39276 235.43937 
L 315.292514 234.885696 
L 319.842228 234.47506 
L 325.0419 234.244614 
L 331.86647 234.187875 
L 348.765405 234.154073 
L 355.589975 233.859397 
L 362.739525 233.326997 
L 373.788829 232.243096 
L 384.188174 231.297597 
L 391.012744 230.891818 
L 397.187355 230.735735 
L 398.487273 230.730797 
L 398.487273 230.730797 
" style="fill:none;stroke:#ff7f0e;stroke-linecap:square;stroke-width:1.5;"/>
   </g>
   <g id="line2d_65">
    <path clip-path="url(#pd82ad93976)" d="M 73.832727 93.67405 
L 75.782604 93.793596 
L 77.732482 94.152808 
L 79.682359 94.753422 
L 81.632236 95.598375 
L 83.582113 96.691868 
L 85.53199 98.039461 
L 87.481867 99.648198 
L 89.431744 101.526769 
L 91.381622 103.685705 
L 93.331499 106.137615 
L 95.606355 109.388564 
L 97.881212 113.087078 
L 100.156069 117.266911 
L 102.430925 121.967402 
L 104.705782 127.232456 
L 106.980639 133.106448 
L 109.255495 139.622525 
L 111.855332 147.841434 
L 118.679902 170.237786 
L 119.65484 172.604929 
L 120.629779 174.467899 
L 121.604717 175.767045 
L 122.254676 176.315196 
L 122.904636 176.622581 
L 123.554595 176.712079 
L 124.204554 176.613573 
L 125.179492 176.18729 
L 126.47941 175.275933 
L 131.029124 171.703356 
L 132.329042 171.027275 
L 133.62896 170.592418 
L 134.928878 170.414038 
L 136.228796 170.498788 
L 137.528714 170.848727 
L 138.828632 171.463775 
L 140.12855 172.343183 
L 141.428468 173.486371 
L 142.728387 174.893356 
L 144.353284 177.024265 
L 145.978182 179.571287 
L 147.603079 182.537104 
L 149.227977 185.921217 
L 151.177854 190.519247 
L 153.452711 196.541744 
L 158.977363 211.62416 
L 159.952301 213.622365 
L 160.92724 215.16367 
L 161.577199 215.900772 
L 162.227158 216.393601 
L 162.877117 216.644516 
L 163.527076 216.666846 
L 164.177035 216.483148 
L 165.151974 215.885947 
L 166.126912 215.001287 
L 167.75181 213.175143 
L 170.676626 209.809865 
L 172.301523 208.274883 
L 173.601441 207.307596 
L 174.90136 206.595117 
L 176.201278 206.14641 
L 177.501196 205.964072 
L 178.801114 206.047361 
L 180.101032 206.39402 
L 181.40095 207.001317 
L 182.700868 207.866572 
L 184.000786 208.987317 
L 185.300704 210.361162 
L 186.925602 212.430093 
L 188.5505 214.881777 
L 190.500377 218.30601 
L 192.450254 222.200542 
L 195.37507 228.630529 
L 197.974906 234.243057 
L 199.274824 236.638742 
L 200.249762 238.108297 
L 201.224701 239.22022 
L 202.19964 239.92713 
L 202.849599 240.163934 
L 203.499558 240.216652 
L 204.149517 240.095762 
L 205.124455 239.62506 
L 206.099394 238.86985 
L 207.399312 237.553365 
L 209.999148 234.474329 
L 212.274005 231.898791 
L 213.898903 230.338345 
L 215.5238 229.082072 
L 216.823718 228.316029 
L 218.123636 227.769921 
L 219.423554 227.446191 
L 220.723473 227.344935 
L 222.023391 227.465002 
L 223.323309 227.804643 
L 224.623227 228.361833 
L 225.923145 229.134344 
L 227.548043 230.398774 
L 229.17294 231.988668 
L 230.797838 233.893013 
L 232.747715 236.565732 
L 235.022572 240.136792 
L 240.872203 249.759037 
L 242.172121 251.361874 
L 243.14706 252.26581 
L 244.121998 252.864768 
L 245.096937 253.132321 
L 246.071876 253.06386 
L 247.046814 252.67743 
L 248.021753 252.010362 
L 249.321671 250.772244 
L 250.946568 248.850326 
L 256.7962 241.512236 
L 258.746077 239.572654 
L 260.370975 238.26053 
L 261.995872 237.243413 
L 263.62077 236.529698 
L 264.920688 236.179972 
L 266.220606 236.028149 
L 267.520524 236.075033 
L 268.820442 236.321423 
L 270.12036 236.768252 
L 271.420278 237.416599 
L 273.045176 238.512096 
L 274.670074 239.925706 
L 276.294971 241.656718 
L 277.919869 243.699335 
L 279.869746 246.538507 
L 282.144603 250.300204 
L 287.019296 258.655753 
L 288.319214 260.394916 
L 289.294152 261.382314 
L 290.269091 262.031369 
L 290.91905 262.255116 
L 291.569009 262.304413 
L 292.218968 262.17962 
L 292.868927 261.886979 
L 293.843866 261.159684 
L 294.818804 260.136909 
L 296.118722 258.428985 
L 298.0686 255.447772 
L 301.968354 249.409788 
L 303.918231 246.799102 
L 305.868108 244.590464 
L 307.493006 243.079736 
L 309.117903 241.873579 
L 310.742801 240.969412 
L 312.367699 240.36103 
L 313.992596 240.040079 
L 315.617494 239.996623 
L 317.242391 240.219059 
L 318.867289 240.693525 
L 320.492187 241.402831 
L 322.442064 242.532502 
L 324.716921 244.167547 
L 327.966716 246.861061 
L 331.216511 249.499908 
L 333.166388 250.778243 
L 334.791286 251.539227 
L 336.091204 251.904091 
L 337.391122 252.035462 
L 338.69104 251.935876 
L 339.990958 251.624448 
L 341.615856 250.988025 
L 343.565733 249.972183 
L 349.740344 246.533075 
L 351.690221 245.779842 
L 353.315119 245.368171 
L 354.940016 245.180294 
L 356.564914 245.235361 
L 358.189812 245.5481 
L 359.814709 246.130067 
L 361.439607 246.990429 
L 363.064505 248.136257 
L 364.689402 249.572279 
L 366.3143 251.299957 
L 368.264177 253.752473 
L 370.214054 256.596299 
L 372.488911 260.334609 
L 378.663522 270.866481 
L 379.96344 272.549359 
L 380.938378 273.539577 
L 381.913317 274.259949 
L 382.888256 274.694114 
L 383.863194 274.844352 
L 384.838133 274.731323 
L 385.813071 274.390751 
L 387.112989 273.662074 
L 389.062867 272.217742 
L 392.637641 269.48591 
L 394.262539 268.520097 
L 395.887437 267.833766 
L 397.187355 267.512085 
L 398.487273 267.403805 
L 398.487273 267.403805 
" style="fill:none;stroke:#2ca02c;stroke-linecap:square;stroke-width:1.5;"/>
   </g>
   <g id="line2d_66">
    <path clip-path="url(#pd82ad93976)" d="M 73.832727 77.743092 
L 74.482686 77.824275 
L 75.132645 78.068272 
L 76.107584 78.742781 
L 77.082523 79.79555 
L 78.057461 81.240542 
L 79.0324 83.097905 
L 80.007338 85.395295 
L 80.982277 88.169863 
L 81.957215 91.471203 
L 83.257133 96.810487 
L 84.557052 103.434341 
L 85.53199 109.449745 
L 86.506929 116.599981 
L 87.481867 125.193321 
L 88.456806 135.624956 
L 89.756724 152.575229 
L 90.406683 160.876524 
L 90.731663 163.909964 
L 91.056642 165.53727 
L 91.381622 165.47626 
L 91.706601 163.854747 
L 92.35656 157.784192 
L 93.656478 144.246962 
L 94.631417 136.29335 
L 95.606355 130.26214 
L 96.581294 125.763593 
L 97.556233 122.486156 
L 98.531171 120.211257 
L 99.18113 119.175223 
L 99.831089 118.484585 
L 100.481048 118.114051 
L 101.131007 118.043873 
L 101.780966 118.258673 
L 102.430925 118.746502 
L 103.080885 119.498063 
L 104.055823 121.104145 
L 105.030762 123.266703 
L 106.0057 125.964204 
L 107.305618 130.332844 
L 108.930516 136.77155 
L 111.205373 145.860631 
L 112.180311 148.669539 
L 112.83027 149.839733 
L 113.480229 150.372482 
L 113.805209 150.405174 
L 114.130188 150.295176 
L 114.780147 149.709334 
L 115.430106 148.758854 
L 117.055004 145.729662 
L 118.354922 143.497432 
L 119.329861 142.248317 
L 119.97982 141.670738 
L 120.629779 141.313764 
L 121.279738 141.184974 
L 121.929697 141.288465 
L 122.579656 141.626198 
L 123.229615 142.198813 
L 123.879574 143.006058 
L 124.854513 144.654291 
L 125.829451 146.819474 
L 126.80439 149.482844 
L 128.104308 153.735622 
L 130.054185 161.103773 
L 131.679083 166.91475 
L 132.654021 169.432926 
L 133.30398 170.462505 
L 133.953939 170.912219 
L 134.278919 170.925726 
L 134.928878 170.579397 
L 135.578837 169.834711 
L 136.553776 168.265703 
L 138.503653 164.910861 
L 139.478591 163.622949 
L 140.45353 162.765497 
L 141.103489 162.461852 
L 141.753448 162.383576 
L 142.403407 162.535835 
L 143.053366 162.921477 
L 143.703325 163.541799 
L 144.678264 164.912245 
L 145.653202 166.805846 
L 146.628141 169.208197 
L 147.928059 173.142353 
L 149.552957 178.94996 
L 151.502834 185.955016 
L 152.477772 188.605899 
L 153.127731 189.766551 
L 153.77769 190.352735 
L 154.10267 190.427602 
L 154.427649 190.364815 
L 155.077609 189.873334 
L 155.727568 188.997221 
L 157.027486 186.629774 
L 158.652383 183.639815 
L 159.627322 182.237939 
L 160.60226 181.269276 
L 161.252219 180.890774 
L 161.902179 180.735903 
L 162.552138 180.809029 
L 163.202097 181.112294 
L 163.852056 181.646333 
L 164.502015 182.410599 
L 165.476953 183.984467 
L 166.451892 186.058949 
L 167.42683 188.606182 
L 168.726749 192.635932 
L 171.976544 203.404772 
L 172.626503 204.92381 
L 173.276462 205.960878 
L 173.926421 206.450693 
L 174.2514 206.487432 
L 174.57638 206.392368 
L 175.226339 205.849651 
L 175.876298 204.931939 
L 177.176216 202.476438 
L 179.126093 198.770847 
L 180.101032 197.365475 
L 181.075971 196.394081 
L 181.72593 196.010523 
L 182.375889 195.847087 
L 183.025848 195.908132 
L 183.675807 196.196235 
L 184.325766 196.712766 
L 184.975725 197.45811 
L 185.950663 199.003245 
L 186.925602 201.051747 
L 187.900541 203.578504 
L 189.200459 207.588677 
L 192.125274 217.254251 
L 192.775233 218.820411 
L 193.425192 219.884929 
L 193.750172 220.197909 
L 194.075152 220.356321 
L 194.400131 220.360152 
L 194.725111 220.21451 
L 195.37507 219.517688 
L 196.025029 218.383339 
L 196.999967 216.175516 
L 199.274824 210.752252 
L 200.249762 208.909582 
L 201.224701 207.527371 
L 201.87466 206.886213 
L 202.524619 206.478905 
L 203.174578 206.31047 
L 203.824537 206.384405 
L 204.474496 206.703381 
L 205.124455 207.269602 
L 205.774414 208.084834 
L 206.749353 209.776523 
L 207.724292 212.02687 
L 208.69923 214.813404 
L 209.999148 219.242396 
L 212.598984 228.476451 
L 213.248943 230.040261 
L 213.898903 230.939837 
L 214.223882 231.102339 
L 214.548862 231.066622 
L 214.873841 230.837525 
L 215.5238 229.854341 
L 216.173759 228.313128 
L 217.473677 224.341372 
L 219.423554 218.4045 
L 220.398493 216.039267 
L 221.373432 214.220764 
L 222.34837 212.984819 
L 222.998329 212.491591 
L 223.648288 212.264988 
L 224.298247 212.305959 
L 224.948206 212.615311 
L 225.598165 213.193845 
L 226.248124 214.042152 
L 227.223063 215.81955 
L 228.198002 218.19259 
L 229.17294 221.124037 
L 230.797838 226.940377 
L 232.422735 232.692288 
L 233.072695 234.387497 
L 233.722654 235.421241 
L 234.047633 235.640291 
L 234.372613 235.648236 
L 234.697592 235.446651 
L 235.022572 235.045891 
L 235.672531 233.724147 
L 236.647469 230.831396 
L 239.572285 221.246119 
L 240.547224 218.835587 
L 241.522162 217.008229 
L 242.172121 216.125789 
L 242.82208 215.514067 
L 243.472039 215.172635 
L 244.121998 215.100175 
L 244.771957 215.294906 
L 245.421916 215.754613 
L 246.071876 216.476298 
L 247.046814 218.039389 
L 248.021753 220.151748 
L 249.321671 223.707642 
L 252.246486 232.45874 
L 252.896446 233.72727 
L 253.546405 234.422001 
L 253.871384 234.523583 
L 254.196364 234.455786 
L 254.521343 234.22215 
L 255.171302 233.299805 
L 255.821261 231.882936 
L 257.121179 228.21265 
L 259.071057 222.592314 
L 260.045995 220.292355 
L 261.020934 218.479474 
L 261.995872 217.189511 
L 262.645831 216.624557 
L 263.29579 216.2938 
L 263.945749 216.193035 
L 264.595708 216.316016 
L 265.245667 216.654299 
L 265.895627 217.196721 
L 266.870565 218.3596 
L 267.845504 219.876002 
L 269.795381 223.490539 
L 271.095299 225.734712 
L 272.070238 226.934174 
L 272.720197 227.38362 
L 273.370156 227.509698 
L 274.020115 227.309239 
L 274.670074 226.810389 
L 275.645012 225.623596 
L 277.26991 223.05786 
L 278.894808 220.599901 
L 279.869746 219.450695 
L 280.844685 218.637879 
L 281.819623 218.19253 
L 282.469582 218.10168 
L 283.119541 218.169354 
L 284.09448 218.541901 
L 285.069419 219.182236 
L 288.644193 221.949115 
L 289.294152 222.129645 
L 289.944111 222.106718 
L 290.59407 221.86302 
L 291.244029 221.400509 
L 292.218968 220.346693 
L 293.518886 218.486905 
L 295.793743 215.085513 
L 296.768681 213.942435 
L 297.74362 213.136826 
L 298.393579 212.822429 
L 299.043538 212.705686 
L 299.693497 212.800491 
L 300.343456 213.11893 
L 300.993415 213.671689 
L 301.643374 214.468203 
L 302.618313 216.136961 
L 303.593251 218.388299 
L 304.56819 221.214304 
L 305.868108 225.755268 
L 308.142965 233.977053 
L 308.792924 235.519076 
L 309.117903 236.002858 
L 309.442883 236.262175 
L 309.767862 236.282883 
L 310.092842 236.061715 
L 310.417821 235.606732 
L 311.067781 234.07658 
L 312.042719 230.682754 
L 314.967535 219.283305 
L 315.942473 216.324996 
L 316.917412 213.989435 
L 317.892351 212.295415 
L 318.54231 211.523768 
L 319.192269 211.037871 
L 319.842228 210.837801 
L 320.492187 210.924652 
L 321.142146 211.300856 
L 321.792105 211.970328 
L 322.442064 212.938442 
L 323.417002 214.965257 
L 324.391941 217.703192 
L 325.36688 221.168634 
L 326.666798 226.878468 
L 329.591613 240.919934 
L 330.241572 242.590616 
L 330.566552 242.97324 
L 330.891532 243.028634 
L 331.216511 242.761923 
L 331.541491 242.197232 
L 332.19145 240.339332 
L 333.166388 236.471987 
L 335.116265 228.537396 
L 336.091204 225.449665 
L 337.066143 223.159045 
L 337.716102 222.092356 
L 338.366061 221.398114 
L 339.01602 221.079132 
L 339.665979 221.140034 
L 340.315938 221.588641 
L 340.965897 222.436956 
L 341.615856 223.701945 
L 342.265815 225.406128 
L 343.240753 228.849173 
L 344.215692 233.458325 
L 345.190631 239.327988 
L 346.490549 248.859406 
L 347.465487 255.797994 
L 347.790467 257.476899 
L 348.115446 258.561356 
L 348.440426 258.914928 
L 348.765405 258.480394 
L 349.090385 257.301024 
L 349.740344 253.259691 
L 352.66516 231.197937 
L 353.640098 225.932723 
L 354.615037 221.830549 
L 355.589975 218.777338 
L 356.239934 217.278486 
L 356.889894 216.185565 
L 357.539853 215.485418 
L 358.189812 215.170712 
L 358.839771 215.239737 
L 359.48973 215.696317 
L 360.139689 216.549833 
L 360.789648 217.81529 
L 361.439607 219.513244 
L 362.414545 222.927731 
L 363.389484 227.465243 
L 364.364423 233.161854 
L 366.639279 247.618887 
L 366.964259 248.664476 
L 367.289238 249.068964 
L 367.614218 248.760958 
L 367.939197 247.750555 
L 368.589156 244.023845 
L 369.889075 233.572358 
L 371.188993 223.559524 
L 372.488911 215.439983 
L 373.463849 210.579443 
L 374.438788 206.649996 
L 375.413726 203.547247 
L 376.388665 201.187406 
L 377.363604 199.506936 
L 378.013563 198.74054 
L 378.663522 198.245013 
L 379.313481 198.012571 
L 379.96344 198.037506 
L 380.613399 198.315894 
L 381.263358 198.845327 
L 381.913317 199.624619 
L 382.888256 201.261503 
L 383.863194 203.46006 
L 384.838133 206.216756 
L 386.138051 210.726687 
L 387.762948 217.471098 
L 390.037805 227.089332 
L 390.687764 229.171264 
L 391.337723 230.65914 
L 391.987682 231.462363 
L 392.312662 231.606183 
L 392.637641 231.590823 
L 393.2876 231.15224 
L 393.937559 230.314845 
L 396.862375 225.856193 
L 397.512334 225.311755 
L 398.162293 225.033186 
L 398.487273 224.998079 
L 398.487273 224.998079 
" style="fill:none;stroke:#d62728;stroke-linecap:square;stroke-width:1.5;"/>
   </g>
   <g id="line2d_67">
    <path clip-path="url(#pd82ad93976)" d="M 73.832727 53.568 
L 74.157707 53.635962 
L 74.482686 53.840156 
L 75.132645 54.661635 
L 75.782604 56.047916 
L 76.432563 58.026385 
L 77.082523 60.639047 
L 77.732482 63.947166 
L 78.70742 70.416896 
L 79.682359 79.152416 
L 80.332318 86.670002 
L 80.982277 96.10822 
L 81.632236 108.430431 
L 82.282195 125.780583 
L 82.607174 137.922545 
L 82.932154 154.451395 
L 83.257133 178.156721 
L 83.582113 189.325177 
L 84.232072 148.836287 
L 84.882031 128.277931 
L 85.53199 116.486424 
L 86.181949 108.974194 
L 86.831908 104.082802 
L 87.481867 101.037386 
L 88.131826 99.424325 
L 88.456806 99.076432 
L 88.781785 99.006494 
L 89.106765 99.199674 
L 89.431744 99.644741 
L 90.081704 101.259482 
L 90.731663 103.808548 
L 91.381622 107.269498 
L 92.35656 114.102298 
L 94.956396 134.745422 
L 95.281376 135.632432 
L 95.606355 135.768153 
L 95.931335 135.223579 
L 96.581294 132.719177 
L 98.206192 125.013657 
L 98.856151 122.923384 
L 99.50611 121.66023 
L 99.831089 121.345769 
L 100.156069 121.24251 
L 100.481048 121.349643 
L 100.806028 121.666497 
L 101.455987 122.929071 
L 102.105946 125.036104 
L 102.755905 128.00304 
L 103.405864 131.847276 
L 104.380803 139.229312 
L 106.33068 155.958624 
L 106.655659 157.574917 
L 106.980639 158.378018 
L 107.305618 158.318438 
L 107.630598 157.479887 
L 108.280557 154.22851 
L 109.905455 144.839246 
L 110.555414 142.273595 
L 111.205373 140.638142 
L 111.530352 140.174246 
L 111.855332 139.945944 
L 112.180311 139.952911 
L 112.505291 140.195343 
L 112.83027 140.6742 
L 113.480229 142.349344 
L 114.130188 145.001709 
L 114.780147 148.65632 
L 115.755086 155.970597 
L 117.379984 169.770223 
L 117.704963 171.409534 
L 118.029943 172.154034 
L 118.354922 171.925056 
L 118.679902 170.814295 
L 119.329861 166.866073 
L 120.629779 157.93535 
L 121.279738 154.605947 
L 121.929697 152.334513 
L 122.579656 151.143151 
L 122.904636 150.950563 
L 123.229615 151.025752 
L 123.554595 151.369004 
L 123.879574 151.981631 
L 124.529533 154.024942 
L 125.179492 157.179344 
L 125.829451 161.450485 
L 126.80439 169.671287 
L 127.779328 178.073685 
L 128.104308 179.979317 
L 128.429287 180.989311 
L 128.754267 180.961976 
L 129.079247 179.948823 
L 129.729206 175.909807 
L 131.029124 166.46191 
L 131.679083 162.956231 
L 132.329042 160.595834 
L 132.654021 159.852814 
L 132.979001 159.399796 
L 133.30398 159.235346 
L 133.62896 159.358756 
L 133.953939 159.770431 
L 134.278919 160.472024 
L 134.928878 162.757064 
L 135.578837 166.241379 
L 136.228796 170.924698 
L 137.528714 182.877519 
L 138.178673 188.027462 
L 138.503653 189.450308 
L 138.828632 189.77278 
L 139.153612 188.980343 
L 139.803571 184.980378 
L 141.103489 175.026549 
L 141.753448 171.320695 
L 142.403407 168.839861 
L 142.728387 168.065102 
L 143.053366 167.59818 
L 143.378346 167.436984 
L 143.703325 167.58037 
L 144.028305 168.028567 
L 144.353284 168.783308 
L 145.003243 171.225838 
L 145.653202 174.938463 
L 146.303161 179.916829 
L 148.253038 197.229461 
L 148.578018 198.234174 
L 148.902998 198.0196 
L 149.227977 196.686242 
L 149.877936 191.939767 
L 151.177854 181.832929 
L 151.827813 178.350737 
L 152.477772 176.166281 
L 152.802752 175.558086 
L 153.127731 175.268492 
L 153.452711 175.295414 
L 153.77769 175.638314 
L 154.10267 176.298448 
L 154.752629 178.584081 
L 155.402588 182.190246 
L 156.052547 187.139029 
L 157.027486 196.701399 
L 157.677445 203.198664 
L 158.002424 205.652075 
L 158.327404 207.050717 
L 158.652383 207.143143 
L 158.977363 205.969317 
L 159.627322 201.149753 
L 160.92724 190.458892 
L 161.577199 186.743055 
L 162.227158 184.377476 
L 162.552138 183.693569 
L 162.877117 183.335464 
L 163.202097 183.299138 
L 163.527076 183.582159 
L 163.852056 184.183873 
L 164.502015 186.348872 
L 165.151974 189.81346 
L 165.801933 194.576226 
L 166.776871 203.731375 
L 167.75181 212.32952 
L 168.07679 213.783354 
L 168.401769 214.067269 
L 168.726749 213.186945 
L 169.376708 209.00958 
L 170.676626 199.118678 
L 171.326585 195.614108 
L 171.976544 193.399097 
L 172.301523 192.774534 
L 172.626503 192.46652 
L 172.951482 192.470947 
L 173.276462 192.784477 
L 173.601441 193.404669 
L 174.2514 195.558033 
L 174.90136 198.91043 
L 175.551319 203.386237 
L 177.501196 218.311731 
L 177.826175 219.289123 
L 178.151155 219.363215 
L 178.476134 218.58245 
L 179.126093 215.249863 
L 180.426011 207.317348 
L 181.075971 204.490215 
L 181.72593 202.767772 
L 182.050909 202.330459 
L 182.375889 202.17318 
L 182.700868 202.292013 
L 183.025848 202.682154 
L 183.350827 203.337937 
L 184.000786 205.416667 
L 184.650745 208.439571 
L 185.625684 214.305614 
L 186.600622 220.34379 
L 187.250581 223.086139 
L 187.575561 223.75502 
L 187.900541 223.903465 
L 188.22552 223.569864 
L 188.5505 222.84413 
L 189.200459 220.687546 
L 190.175397 217.235225 
L 190.825356 215.526523 
L 191.475315 214.533837 
L 191.800295 214.320707 
L 192.125274 214.292676 
L 192.450254 214.441914 
L 193.100213 215.224676 
L 193.750172 216.544649 
L 194.725111 219.154132 
L 196.350008 223.511543 
L 197.324947 225.399046 
L 201.549681 231.98733 
L 201.87466 232.195824 
L 202.19964 232.228941 
L 202.524619 232.069426 
L 202.849599 231.715591 
L 203.499558 230.50042 
L 205.449435 225.829289 
L 206.099394 225.09244 
L 206.424373 225.027148 
L 206.749353 225.195812 
L 207.074333 225.62004 
L 207.399312 226.320692 
L 208.049271 228.635206 
L 208.69923 232.312855 
L 209.349189 237.52035 
L 210.324128 248.141167 
L 210.974087 255.588043 
L 211.299066 258.161989 
L 211.624046 259.106702 
L 211.949025 258.119799 
L 212.274005 255.493905 
L 214.223882 234.372367 
L 214.873841 230.065025 
L 215.5238 227.416921 
L 215.84878 226.690581 
L 216.173759 226.356033 
L 216.498739 226.414049 
L 216.823718 226.870832 
L 217.148698 227.738782 
L 217.473677 229.03753 
L 218.123636 233.051431 
L 218.773595 239.28587 
L 219.423554 248.39577 
L 220.073514 261.35447 
L 221.048452 282.899989 
L 221.373432 281.723363 
L 222.023391 266.888336 
L 222.67335 252.830556 
L 223.323309 242.883148 
L 223.973268 236.117104 
L 224.623227 231.766847 
L 225.273186 229.387687 
L 225.598165 228.857657 
L 225.923145 228.743777 
L 226.248124 229.037503 
L 226.573104 229.736427 
L 226.898084 230.843564 
L 227.548043 234.316987 
L 228.198002 239.549375 
L 228.847961 246.559259 
L 230.147879 261.7777 
L 230.472858 263.208664 
L 230.797838 262.632474 
L 231.122817 260.294701 
L 233.072695 240.15204 
L 233.722654 236.22731 
L 234.372613 233.957134 
L 234.697592 233.400082 
L 235.022572 233.208563 
L 235.347551 233.369702 
L 235.672531 233.871337 
L 235.99751 234.700657 
L 236.647469 237.274752 
L 237.622408 242.923127 
L 238.597346 248.750651 
L 238.922326 250.042802 
L 239.247305 250.739065 
L 239.572285 250.763734 
L 239.897265 250.145724 
L 240.547224 247.523379 
L 241.847142 241.273401 
L 242.497101 239.295862 
L 242.82208 238.752677 
L 243.14706 238.530473 
L 243.472039 238.639955 
L 243.797019 239.08843 
L 244.121998 239.880451 
L 244.771957 242.495368 
L 245.421916 246.409474 
L 247.046814 257.85729 
L 247.371794 258.843733 
L 247.696773 258.843027 
L 248.021753 257.854477 
L 248.671712 253.775217 
L 249.97163 244.34227 
L 250.621589 241.180217 
L 250.946568 240.149537 
L 251.271548 239.505713 
L 251.596527 239.260047 
L 251.921507 239.424894 
L 252.246486 240.015885 
L 252.571466 241.05375 
L 253.221425 244.588917 
L 253.871384 250.364704 
L 254.521343 258.886317 
L 255.496282 277.05104 
L 255.821261 282.631769 
L 256.146241 284.98398 
L 256.47122 282.659225 
L 258.421097 249.991416 
L 259.071057 244.127238 
L 259.721016 240.572264 
L 260.045995 239.557491 
L 260.370975 239.016487 
L 260.695954 238.932843 
L 261.020934 239.295607 
L 261.345913 240.097036 
L 261.995872 242.980006 
L 262.645831 247.402163 
L 263.62077 255.054245 
L 263.945749 256.759886 
L 264.270729 257.351185 
L 264.595708 256.578783 
L 264.920688 254.52729 
L 265.570647 248.118115 
L 266.545586 238.006645 
L 267.195545 232.792963 
L 267.845504 229.138795 
L 268.495463 227.057799 
L 268.820442 226.604725 
L 269.145422 226.545891 
L 269.470401 226.887212 
L 269.795381 227.638035 
L 270.12036 228.810805 
L 270.770319 232.478746 
L 271.420278 237.950649 
L 272.720197 251.133254 
L 273.045176 252.536294 
L 273.370156 251.959525 
L 273.695135 249.430402 
L 274.670074 236.509142 
L 275.645012 224.7261 
L 276.294971 218.998975 
L 276.94493 214.915352 
L 277.594889 212.34494 
L 277.919869 211.597475 
L 278.244848 211.199585 
L 278.569828 211.149018 
L 278.894808 211.446994 
L 279.219787 212.09808 
L 279.544767 213.109964 
L 280.194726 216.259041 
L 280.844685 220.981334 
L 281.819623 230.826129 
L 282.469582 237.772858 
L 282.794562 240.215569 
L 283.119541 241.184246 
L 283.444521 240.359845 
L 283.7695 237.941465 
L 286.044357 214.09299 
L 286.694316 210.074081 
L 287.344275 207.486517 
L 287.669255 206.694358 
L 287.994234 206.220947 
L 288.319214 206.056608 
L 288.644193 206.192884 
L 288.969173 206.621866 
L 289.294152 207.335224 
L 289.944111 209.570625 
L 290.59407 212.753656 
L 292.218968 221.823898 
L 292.543948 222.89476 
L 292.868927 223.39218 
L 293.193907 223.258699 
L 293.518886 222.526209 
L 294.168845 219.747016 
L 295.793743 211.588067 
L 296.443702 209.562915 
L 296.768681 208.943898 
L 297.093661 208.600153 
L 297.41864 208.536375 
L 297.74362 208.75466 
L 298.0686 209.254817 
L 298.718559 211.085508 
L 299.368518 213.946337 
L 301.318395 224.444347 
L 301.643374 225.180696 
L 301.968354 225.243218 
L 302.293333 224.615084 
L 302.618313 223.382049 
L 303.268272 219.751906 
L 304.56819 212.065849 
L 305.218149 209.362443 
L 305.868108 207.747716 
L 306.193088 207.373152 
L 306.518067 207.294428 
L 306.843047 207.515912 
L 307.168026 208.041896 
L 307.493006 208.876767 
L 308.142965 211.489126 
L 308.792924 215.364179 
L 309.767862 223.26035 
L 310.742801 231.533274 
L 311.067781 233.370978 
L 311.39276 234.279297 
L 311.71774 234.129595 
L 312.042719 233.00549 
L 312.692678 228.903266 
L 313.667617 222.049725 
L 314.317576 218.653946 
L 314.967535 216.621454 
L 315.292514 216.147752 
L 315.617494 216.04381 
L 315.942473 216.315245 
L 316.267453 216.968847 
L 316.592432 218.012981 
L 317.242391 221.310976 
L 317.892351 226.260827 
L 318.867289 236.23737 
L 319.517248 242.425095 
L 319.842228 244.039874 
L 320.167207 244.040211 
L 320.492187 242.412432 
L 321.142146 236.107607 
L 322.117084 225.826174 
L 322.767043 220.667242 
L 323.417002 217.184912 
L 323.741982 216.064026 
L 324.066962 215.348358 
L 324.391941 215.034346 
L 324.716921 215.121916 
L 325.0419 215.614986 
L 325.36688 216.521667 
L 326.016839 219.628056 
L 326.666798 224.566512 
L 327.316757 231.378532 
L 328.291695 243.17725 
L 328.616675 245.801702 
L 328.941654 246.537542 
L 329.266634 245.086792 
L 329.916593 237.793378 
L 330.891532 225.526108 
L 331.541491 219.38048 
L 332.19145 215.125726 
L 332.841409 212.65693 
L 333.166388 212.066205 
L 333.491368 211.901097 
L 333.816347 212.167253 
L 334.141327 212.878174 
L 334.466306 214.056753 
L 335.116265 217.970758 
L 335.766224 224.408736 
L 336.416183 234.411029 
L 337.066143 250.400139 
L 337.391122 262.382987 
L 338.041081 295.488 
L 338.366061 287.757638 
L 339.01602 255.249495 
L 339.665979 236.70049 
L 340.315938 225.172187 
L 340.965897 217.608383 
L 341.615856 212.748373 
L 342.265815 209.997269 
L 342.590794 209.315555 
L 342.915774 209.069648 
L 343.240753 209.251063 
L 343.565733 209.859222 
L 343.890713 210.900942 
L 344.540672 214.348181 
L 345.190631 219.785875 
L 345.84059 227.457693 
L 347.140508 246.585962 
L 347.465487 248.703258 
L 347.790467 247.816754 
L 348.115446 244.348981 
L 349.740344 221.857069 
L 350.390303 216.257094 
L 351.040262 212.714821 
L 351.365242 211.64504 
L 351.690221 211.016984 
L 352.015201 210.818959 
L 352.34018 211.044879 
L 352.66516 211.69359 
L 352.990139 212.767894 
L 353.640098 216.213391 
L 354.290057 221.377932 
L 355.914955 236.152193 
L 356.239934 236.511014 
L 356.564914 235.133375 
L 357.214873 228.733644 
L 358.514791 214.331214 
L 359.16475 209.254942 
L 359.814709 205.840376 
L 360.139689 204.737246 
L 360.464668 204.028605 
L 360.789648 203.712719 
L 361.114627 203.792601 
L 361.439607 204.276827 
L 361.764586 205.180505 
L 362.089566 206.526575 
L 362.739525 210.688606 
L 363.389484 217.195423 
L 364.039443 226.834881 
L 364.689402 240.90937 
L 365.339361 259.028673 
L 365.664341 264.221252 
L 365.98932 260.889574 
L 367.289238 228.591908 
L 367.939197 218.713185 
L 368.589156 212.152105 
L 369.239115 208.094091 
L 369.564095 206.860823 
L 369.889075 206.115288 
L 370.214054 205.840759 
L 370.539034 206.030768 
L 370.864013 206.688329 
L 371.188993 207.82574 
L 371.838952 211.637032 
L 372.488911 217.753779 
L 373.13887 226.52917 
L 374.113808 242.545445 
L 374.438788 245.285582 
L 374.763767 244.291268 
L 375.088747 239.975073 
L 376.388665 217.444176 
L 377.038624 209.547819 
L 377.688583 204.022735 
L 378.338542 200.517858 
L 378.663522 199.450448 
L 378.988501 198.818392 
L 379.313481 198.615703 
L 379.63846 198.844207 
L 379.96344 199.513827 
L 380.288419 200.643321 
L 380.938378 204.409367 
L 381.588337 210.531826 
L 382.238296 219.656347 
L 383.538215 244.747726 
L 383.863194 245.284604 
L 384.188174 240.325484 
L 385.488092 211.982633 
L 386.138051 202.337394 
L 386.78801 195.320838 
L 387.437969 190.325981 
L 388.087928 186.967429 
L 388.737887 185.003387 
L 389.062867 184.49346 
L 389.387846 184.278325 
L 389.712826 184.345724 
L 390.037805 184.684366 
L 390.362785 185.282822 
L 391.012744 187.204313 
L 391.662703 189.954512 
L 393.2876 197.922942 
L 393.61258 199.002576 
L 393.937559 199.667195 
L 394.262539 199.857335 
L 394.587518 199.569029 
L 394.912498 198.854966 
L 395.562457 196.547189 
L 396.862375 191.324259 
L 397.512334 189.513822 
L 397.837314 188.926955 
L 398.162293 188.570557 
L 398.487273 188.451078 
L 398.487273 188.451078 
" style="fill:none;stroke:#9467bd;stroke-linecap:square;stroke-width:1.5;"/>
   </g>
   <g id="patch_3">
    <path d="M 57.6 307.584 
L 57.6 41.472 
" style="fill:none;stroke:#000000;stroke-linecap:square;stroke-linejoin:miter;stroke-width:0.8;"/>
   </g>
   <g id="patch_4">
    <path d="M 414.72 307.584 
L 414.72 41.472 
" style="fill:none;stroke:#000000;stroke-linecap:square;stroke-linejoin:miter;stroke-width:0.8;"/>
   </g>
   <g id="patch_5">
    <path d="M 57.6 307.584 
L 414.72 307.584 
" style="fill:none;stroke:#000000;stroke-linecap:square;stroke-linejoin:miter;stroke-width:0.8;"/>
   </g>
   <g id="patch_6">
    <path d="M 57.6 41.472 
L 414.72 41.472 
" style="fill:none;stroke:#000000;stroke-linecap:square;stroke-linejoin:miter;stroke-width:0.8;"/>
   </g>
   <g id="legend_1">
    <g id="patch_7">
     <path d="M 276.52 122.972 
L 407.72 122.972 
Q 409.72 122.972 409.72 120.972 
L 409.72 48.472 
Q 409.72 46.472 407.72 46.472 
L 276.52 46.472 
Q 274.52 46.472 274.52 48.472 
L 274.52 120.972 
Q 274.52 122.972 276.52 122.972 
z
" style="fill:#ffffff;opacity:0.8;stroke:#cccccc;stroke-linejoin:miter;"/>
    </g>
    <g id="line2d_68">
     <path d="M 278.52 54.572 
L 298.52 54.572 
" style="fill:none;stroke:#1f77b4;stroke-linecap:square;stroke-width:1.5;"/>
    </g>
    <g id="line2d_69"/>
    <g id="text_16">
     <!-- $diameter=$0.25 μm -->
     <defs>
      <path d="M 41.796875 8.203125 
Q 38.1875 3.46875 33.25 1.015625 
Q 28.328125 -1.421875 22.3125 -1.421875 
Q 14.109375 -1.421875 9.34375 4.171875 
Q 4.59375 9.765625 4.59375 19.484375 
Q 4.59375 27.59375 7.46875 34.9375 
Q 10.359375 42.28125 15.828125 48.09375 
Q 19.4375 51.953125 23.96875 53.96875 
Q 28.515625 56 33.5 56 
Q 38.765625 56 42.796875 53.453125 
Q 46.828125 50.921875 49.03125 46.1875 
L 54.890625 75.984375 
L 63.921875 75.984375 
L 49.125 0 
L 40.09375 0 
z
M 13.921875 21.09375 
Q 13.921875 14.015625 17.109375 10.0625 
Q 20.3125 6.109375 25.984375 6.109375 
Q 30.171875 6.109375 33.765625 8.125 
Q 37.359375 10.15625 40.09375 14.109375 
Q 42.96875 18.21875 44.625 23.578125 
Q 46.296875 28.953125 46.296875 34.1875 
Q 46.296875 40.96875 43.09375 44.765625 
Q 39.890625 48.578125 34.28125 48.578125 
Q 30.03125 48.578125 26.359375 46.578125 
Q 22.703125 44.578125 20.125 40.828125 
Q 17.28125 36.765625 15.59375 31.390625 
Q 13.921875 26.03125 13.921875 21.09375 
z
" id="DejaVuSans-Oblique-100"/>
      <path d="M 18.3125 75.984375 
L 27.296875 75.984375 
L 25.09375 64.59375 
L 16.109375 64.59375 
z
M 14.203125 54.6875 
L 23.1875 54.6875 
L 12.5 0 
L 3.515625 0 
z
" id="DejaVuSans-Oblique-105"/>
      <path d="M 53.71875 31.203125 
L 47.609375 0 
L 38.625 0 
L 40.28125 8.296875 
Q 36.328125 3.421875 31.265625 1 
Q 26.21875 -1.421875 20.015625 -1.421875 
Q 13.03125 -1.421875 8.5625 2.84375 
Q 4.109375 7.125 4.109375 13.8125 
Q 4.109375 23.390625 11.75 28.953125 
Q 19.390625 34.515625 32.8125 34.515625 
L 45.3125 34.515625 
L 45.796875 36.921875 
Q 45.90625 37.3125 45.953125 37.765625 
Q 46 38.234375 46 39.203125 
Q 46 43.5625 42.453125 45.96875 
Q 38.921875 48.390625 32.515625 48.390625 
Q 28.125 48.390625 23.5 47.265625 
Q 18.890625 46.140625 14.015625 43.890625 
L 15.578125 52.203125 
Q 20.65625 54.109375 25.515625 55.046875 
Q 30.375 56 34.90625 56 
Q 44.578125 56 49.625 51.796875 
Q 54.6875 47.609375 54.6875 39.59375 
Q 54.6875 37.984375 54.4375 35.8125 
Q 54.203125 33.640625 53.71875 31.203125 
z
M 44 27.484375 
L 35.015625 27.484375 
Q 23.96875 27.484375 18.671875 24.53125 
Q 13.375 21.578125 13.375 15.375 
Q 13.375 11.078125 16.078125 8.640625 
Q 18.796875 6.203125 23.578125 6.203125 
Q 30.90625 6.203125 36.375 11.453125 
Q 41.84375 16.703125 43.609375 25.484375 
z
" id="DejaVuSans-Oblique-97"/>
      <path d="M 89.796875 33.015625 
L 83.40625 0 
L 74.421875 0 
L 80.71875 32.71875 
Q 81.109375 34.8125 81.296875 36.328125 
Q 81.5 37.84375 81.5 38.921875 
Q 81.5 43.3125 79.046875 45.75 
Q 76.609375 48.1875 72.21875 48.1875 
Q 65.671875 48.1875 60.546875 43.28125 
Q 55.421875 38.375 53.90625 30.515625 
L 47.90625 0 
L 38.921875 0 
L 45.3125 32.71875 
Q 45.703125 34.515625 45.890625 36.046875 
Q 46.09375 37.59375 46.09375 38.8125 
Q 46.09375 43.265625 43.65625 45.71875 
Q 41.21875 48.1875 36.921875 48.1875 
Q 30.28125 48.1875 25.140625 43.28125 
Q 20.015625 38.375 18.5 30.515625 
L 12.5 0 
L 3.515625 0 
L 14.203125 54.6875 
L 23.1875 54.6875 
L 21.484375 46.1875 
Q 25.140625 50.984375 30.046875 53.484375 
Q 34.96875 56 40.578125 56 
Q 46.53125 56 50.359375 52.875 
Q 54.203125 49.75 54.984375 44.1875 
Q 59.078125 49.953125 64.46875 52.96875 
Q 69.875 56 75.875 56 
Q 82.90625 56 86.734375 51.953125 
Q 90.578125 47.90625 90.578125 40.484375 
Q 90.578125 38.875 90.375 36.9375 
Q 90.1875 35.015625 89.796875 33.015625 
z
" id="DejaVuSans-Oblique-109"/>
      <path d="M 48.09375 32.234375 
Q 48.25 33.015625 48.3125 33.84375 
Q 48.390625 34.671875 48.390625 35.5 
Q 48.390625 41.453125 44.890625 44.921875 
Q 41.40625 48.390625 35.40625 48.390625 
Q 28.71875 48.390625 23.578125 44.15625 
Q 18.453125 39.9375 15.828125 32.171875 
z
M 55.90625 25.203125 
L 14.109375 25.203125 
Q 13.8125 23.34375 13.71875 22.265625 
Q 13.625 21.1875 13.625 20.40625 
Q 13.625 13.625 17.796875 9.90625 
Q 21.96875 6.203125 29.59375 6.203125 
Q 35.453125 6.203125 40.671875 7.515625 
Q 45.90625 8.84375 50.390625 11.375 
L 48.6875 2.484375 
Q 43.84375 0.53125 38.6875 -0.4375 
Q 33.546875 -1.421875 28.21875 -1.421875 
Q 16.84375 -1.421875 10.71875 4.015625 
Q 4.59375 9.46875 4.59375 19.484375 
Q 4.59375 28.03125 7.640625 35.375 
Q 10.6875 42.71875 16.609375 48.484375 
Q 20.40625 52.09375 25.65625 54.046875 
Q 30.90625 56 36.8125 56 
Q 46.09375 56 51.578125 50.4375 
Q 57.078125 44.875 57.078125 35.5 
Q 57.078125 33.25 56.78125 30.6875 
Q 56.5 28.125 55.90625 25.203125 
z
" id="DejaVuSans-Oblique-101"/>
      <path d="M 42.28125 54.6875 
L 40.921875 47.703125 
L 23 47.703125 
L 17.1875 18.015625 
Q 16.890625 16.359375 16.75 15.234375 
Q 16.609375 14.109375 16.609375 13.484375 
Q 16.609375 10.359375 18.484375 8.9375 
Q 20.359375 7.515625 24.515625 7.515625 
L 33.59375 7.515625 
L 32.078125 0 
L 23.484375 0 
Q 15.484375 0 11.546875 3.125 
Q 7.625 6.25 7.625 12.59375 
Q 7.625 13.71875 7.765625 15.0625 
Q 7.90625 16.40625 8.203125 18.015625 
L 14.015625 47.703125 
L 6.390625 47.703125 
L 7.8125 54.6875 
L 15.28125 54.6875 
L 18.3125 70.21875 
L 27.296875 70.21875 
L 24.3125 54.6875 
z
" id="DejaVuSans-Oblique-116"/>
      <path d="M 44.578125 46.390625 
Q 43.21875 47.125 41.453125 47.515625 
Q 39.703125 47.90625 37.703125 47.90625 
Q 30.515625 47.90625 25.140625 42.453125 
Q 19.78125 37.015625 18.015625 27.875 
L 12.5 0 
L 3.515625 0 
L 14.203125 54.6875 
L 23.1875 54.6875 
L 21.484375 46.1875 
Q 25.046875 50.921875 30 53.453125 
Q 34.96875 56 40.578125 56 
Q 42.046875 56 43.453125 55.828125 
Q 44.875 55.671875 46.296875 55.28125 
z
" id="DejaVuSans-Oblique-114"/>
      <path d="M 10.59375 45.40625 
L 73.1875 45.40625 
L 73.1875 37.203125 
L 10.59375 37.203125 
z
M 10.59375 25.484375 
L 73.1875 25.484375 
L 73.1875 17.1875 
L 10.59375 17.1875 
z
" id="DejaVuSans-61"/>
      <path d="M 10.6875 12.40625 
L 21 12.40625 
L 21 0 
L 10.6875 0 
z
" id="DejaVuSans-46"/>
      <path d="M 8.5 -20.796875 
L 8.5 54.6875 
L 17.484375 54.6875 
L 17.484375 20.703125 
Q 17.484375 13.625 20.84375 10 
Q 24.21875 6.390625 30.8125 6.390625 
Q 38.03125 6.390625 41.671875 10.484375 
Q 45.3125 14.59375 45.3125 22.796875 
L 45.3125 54.6875 
L 54.296875 54.6875 
L 54.296875 12.59375 
Q 54.296875 9.671875 55.140625 8.28125 
Q 56 6.890625 57.8125 6.890625 
Q 58.25 6.890625 59.03125 7.15625 
Q 59.8125 7.421875 61.1875 8.015625 
L 61.1875 0.78125 
Q 59.1875 -0.34375 57.390625 -0.875 
Q 55.609375 -1.421875 53.90625 -1.421875 
Q 50.53125 -1.421875 48.53125 0.484375 
Q 46.53125 2.390625 45.796875 6.296875 
Q 43.359375 2.4375 39.8125 0.5 
Q 36.28125 -1.421875 31.5 -1.421875 
Q 26.515625 -1.421875 23.015625 0.484375 
Q 19.53125 2.390625 17.484375 6.203125 
L 17.484375 -20.796875 
z
" id="DejaVuSans-956"/>
      <path d="M 52 44.1875 
Q 55.375 50.25 60.0625 53.125 
Q 64.75 56 71.09375 56 
Q 79.640625 56 84.28125 50.015625 
Q 88.921875 44.046875 88.921875 33.015625 
L 88.921875 0 
L 79.890625 0 
L 79.890625 32.71875 
Q 79.890625 40.578125 77.09375 44.375 
Q 74.3125 48.1875 68.609375 48.1875 
Q 61.625 48.1875 57.5625 43.546875 
Q 53.515625 38.921875 53.515625 30.90625 
L 53.515625 0 
L 44.484375 0 
L 44.484375 32.71875 
Q 44.484375 40.625 41.703125 44.40625 
Q 38.921875 48.1875 33.109375 48.1875 
Q 26.21875 48.1875 22.15625 43.53125 
Q 18.109375 38.875 18.109375 30.90625 
L 18.109375 0 
L 9.078125 0 
L 9.078125 54.6875 
L 18.109375 54.6875 
L 18.109375 46.1875 
Q 21.1875 51.21875 25.484375 53.609375 
Q 29.78125 56 35.6875 56 
Q 41.65625 56 45.828125 52.96875 
Q 50 49.953125 52 44.1875 
z
" id="DejaVuSans-109"/>
     </defs>
     <g transform="translate(306.52 58.072)scale(0.1 -0.1)">
      <use transform="translate(0 0.015625)" xlink:href="#DejaVuSans-Oblique-100"/>
      <use transform="translate(63.476562 0.015625)" xlink:href="#DejaVuSans-Oblique-105"/>
      <use transform="translate(91.259766 0.015625)" xlink:href="#DejaVuSans-Oblique-97"/>
      <use transform="translate(152.539062 0.015625)" xlink:href="#DejaVuSans-Oblique-109"/>
      <use transform="translate(249.951172 0.015625)" xlink:href="#DejaVuSans-Oblique-101"/>
      <use transform="translate(311.474609 0.015625)" xlink:href="#DejaVuSans-Oblique-116"/>
      <use transform="translate(350.683594 0.015625)" xlink:href="#DejaVuSans-Oblique-101"/>
      <use transform="translate(412.207031 0.015625)" xlink:href="#DejaVuSans-Oblique-114"/>
      <use transform="translate(472.802734 0.015625)" xlink:href="#DejaVuSans-61"/>
      <use transform="translate(576.074219 0.015625)" xlink:href="#DejaVuSans-48"/>
      <use transform="translate(639.697266 0.015625)" xlink:href="#DejaVuSans-46"/>
      <use transform="translate(665.984375 0.015625)" xlink:href="#DejaVuSans-50"/>
      <use transform="translate(729.607422 0.015625)" xlink:href="#DejaVuSans-53"/>
      <use transform="translate(793.230469 0.015625)" xlink:href="#DejaVuSans-32"/>
      <use transform="translate(825.017578 0.015625)" xlink:href="#DejaVuSans-956"/>
      <use transform="translate(888.640625 0.015625)" xlink:href="#DejaVuSans-109"/>
     </g>
    </g>
    <g id="line2d_70">
     <path d="M 278.52 69.272 
L 298.52 69.272 
" style="fill:none;stroke:#ff7f0e;stroke-linecap:square;stroke-width:1.5;"/>
    </g>
    <g id="line2d_71"/>
    <g id="text_17">
     <!-- $diameter=$0.50 μm -->
     <g transform="translate(306.52 72.772)scale(0.1 -0.1)">
      <use transform="translate(0 0.015625)" xlink:href="#DejaVuSans-Oblique-100"/>
      <use transform="translate(63.476562 0.015625)" xlink:href="#DejaVuSans-Oblique-105"/>
      <use transform="translate(91.259766 0.015625)" xlink:href="#DejaVuSans-Oblique-97"/>
      <use transform="translate(152.539062 0.015625)" xlink:href="#DejaVuSans-Oblique-109"/>
      <use transform="translate(249.951172 0.015625)" xlink:href="#DejaVuSans-Oblique-101"/>
      <use transform="translate(311.474609 0.015625)" xlink:href="#DejaVuSans-Oblique-116"/>
      <use transform="translate(350.683594 0.015625)" xlink:href="#DejaVuSans-Oblique-101"/>
      <use transform="translate(412.207031 0.015625)" xlink:href="#DejaVuSans-Oblique-114"/>
      <use transform="translate(472.802734 0.015625)" xlink:href="#DejaVuSans-61"/>
      <use transform="translate(576.074219 0.015625)" xlink:href="#DejaVuSans-48"/>
      <use transform="translate(639.697266 0.015625)" xlink:href="#DejaVuSans-46"/>
      <use transform="translate(671.484375 0.015625)" xlink:href="#DejaVuSans-53"/>
      <use transform="translate(735.107422 0.015625)" xlink:href="#DejaVuSans-48"/>
      <use transform="translate(798.730469 0.015625)" xlink:href="#DejaVuSans-32"/>
      <use transform="translate(830.517578 0.015625)" xlink:href="#DejaVuSans-956"/>
      <use transform="translate(894.140625 0.015625)" xlink:href="#DejaVuSans-109"/>
     </g>
    </g>
    <g id="line2d_72">
     <path d="M 278.52 83.972 
L 298.52 83.972 
" style="fill:none;stroke:#2ca02c;stroke-linecap:square;stroke-width:1.5;"/>
    </g>
    <g id="line2d_73"/>
    <g id="text_18">
     <!-- $diameter=$1.00 μm -->
     <g transform="translate(306.52 87.472)scale(0.1 -0.1)">
      <use transform="translate(0 0.015625)" xlink:href="#DejaVuSans-Oblique-100"/>
      <use transform="translate(63.476562 0.015625)" xlink:href="#DejaVuSans-Oblique-105"/>
      <use transform="translate(91.259766 0.015625)" xlink:href="#DejaVuSans-Oblique-97"/>
      <use transform="translate(152.539062 0.015625)" xlink:href="#DejaVuSans-Oblique-109"/>
      <use transform="translate(249.951172 0.015625)" xlink:href="#DejaVuSans-Oblique-101"/>
      <use transform="translate(311.474609 0.015625)" xlink:href="#DejaVuSans-Oblique-116"/>
      <use transform="translate(350.683594 0.015625)" xlink:href="#DejaVuSans-Oblique-101"/>
      <use transform="translate(412.207031 0.015625)" xlink:href="#DejaVuSans-Oblique-114"/>
      <use transform="translate(472.802734 0.015625)" xlink:href="#DejaVuSans-61"/>
      <use transform="translate(576.074219 0.015625)" xlink:href="#DejaVuSans-49"/>
      <use transform="translate(639.697266 0.015625)" xlink:href="#DejaVuSans-46"/>
      <use transform="translate(671.484375 0.015625)" xlink:href="#DejaVuSans-48"/>
      <use transform="translate(735.107422 0.015625)" xlink:href="#DejaVuSans-48"/>
      <use transform="translate(798.730469 0.015625)" xlink:href="#DejaVuSans-32"/>
      <use transform="translate(830.517578 0.015625)" xlink:href="#DejaVuSans-956"/>
      <use transform="translate(894.140625 0.015625)" xlink:href="#DejaVuSans-109"/>
     </g>
    </g>
    <g id="line2d_74">
     <path d="M 278.52 98.672 
L 298.52 98.672 
" style="fill:none;stroke:#d62728;stroke-linecap:square;stroke-width:1.5;"/>
    </g>
    <g id="line2d_75"/>
    <g id="text_19">
     <!-- $diameter=$2.00 μm -->
     <g transform="translate(306.52 102.172)scale(0.1 -0.1)">
      <use transform="translate(0 0.015625)" xlink:href="#DejaVuSans-Oblique-100"/>
      <use transform="translate(63.476562 0.015625)" xlink:href="#DejaVuSans-Oblique-105"/>
      <use transform="translate(91.259766 0.015625)" xlink:href="#DejaVuSans-Oblique-97"/>
      <use transform="translate(152.539062 0.015625)" xlink:href="#DejaVuSans-Oblique-109"/>
      <use transform="translate(249.951172 0.015625)" xlink:href="#DejaVuSans-Oblique-101"/>
      <use transform="translate(311.474609 0.015625)" xlink:href="#DejaVuSans-Oblique-116"/>
      <use transform="translate(350.683594 0.015625)" xlink:href="#DejaVuSans-Oblique-101"/>
      <use transform="translate(412.207031 0.015625)" xlink:href="#DejaVuSans-Oblique-114"/>
      <use transform="translate(472.802734 0.015625)" xlink:href="#DejaVuSans-61"/>
      <use transform="translate(576.074219 0.015625)" xlink:href="#DejaVuSans-50"/>
      <use transform="translate(639.697266 0.015625)" xlink:href="#DejaVuSans-46"/>
      <use transform="translate(671.484375 0.015625)" xlink:href="#DejaVuSans-48"/>
      <use transform="translate(735.107422 0.015625)" xlink:href="#DejaVuSans-48"/>
      <use transform="translate(798.730469 0.015625)" xlink:href="#DejaVuSans-32"/>
      <use transform="translate(830.517578 0.015625)" xlink:href="#DejaVuSans-956"/>
      <use transform="translate(894.140625 0.015625)" xlink:href="#DejaVuSans-109"/>
     </g>
    </g>
    <g id="line2d_76">
     <path d="M 278.52 113.372 
L 298.52 113.372 
" style="fill:none;stroke:#9467bd;stroke-linecap:square;stroke-width:1.5;"/>
    </g>
    <g id="line2d_77"/>
    <g id="text_20">
     <!-- $diameter=$4.00 μm -->
     <defs>
      <path d="M 37.796875 64.3125 
L 12.890625 25.390625 
L 37.796875 25.390625 
z
M 35.203125 72.90625 
L 47.609375 72.90625 
L 47.609375 25.390625 
L 58.015625 25.390625 
L 58.015625 17.1875 
L 47.609375 17.1875 
L 47.609375 0 
L 37.796875 0 
L 37.796875 17.1875 
L 4.890625 17.1875 
L 4.890625 26.703125 
z
" id="DejaVuSans-52"/>
     </defs>
     <g transform="translate(306.52 116.872)scale(0.1 -0.1)">
      <use transform="translate(0 0.015625)" xlink:href="#DejaVuSans-Oblique-100"/>
      <use transform="translate(63.476562 0.015625)" xlink:href="#DejaVuSans-Oblique-105"/>
      <use transform="translate(91.259766 0.015625)" xlink:href="#DejaVuSans-Oblique-97"/>
      <use transform="translate(152.539062 0.015625)" xlink:href="#DejaVuSans-Oblique-109"/>
      <use transform="translate(249.951172 0.015625)" xlink:href="#DejaVuSans-Oblique-101"/>
      <use transform="translate(311.474609 0.015625)" xlink:href="#DejaVuSans-Oblique-116"/>
      <use transform="translate(350.683594 0.015625)" xlink:href="#DejaVuSans-Oblique-101"/>
      <use transform="translate(412.207031 0.015625)" xlink:href="#DejaVuSans-Oblique-114"/>
      <use transform="translate(472.802734 0.015625)" xlink:href="#DejaVuSans-61"/>
      <use transform="translate(576.074219 0.015625)" xlink:href="#DejaVuSans-52"/>
      <use transform="translate(639.697266 0.015625)" xlink:href="#DejaVuSans-46"/>
      <use transform="translate(671.484375 0.015625)" xlink:href="#DejaVuSans-48"/>
      <use transform="translate(735.107422 0.015625)" xlink:href="#DejaVuSans-48"/>
      <use transform="translate(798.730469 0.015625)" xlink:href="#DejaVuSans-32"/>
      <use transform="translate(830.517578 0.015625)" xlink:href="#DejaVuSans-956"/>
      <use transform="translate(894.140625 0.015625)" xlink:href="#DejaVuSans-109"/>
     </g>
    </g>
   </g>
  </g>
 </g>
 <defs>
  <clipPath id="pd82ad93976">
   <rect height="266.112" width="357.12" x="57.6" y="41.472"/>
  </clipPath>
 </defs>
</svg>
