<?xml version="1.0" encoding="utf-8" standalone="no"?>
<!DOCTYPE svg PUBLIC "-//W3C//DTD SVG 1.1//EN"
  "http://www.w3.org/Graphics/SVG/1.1/DTD/svg11.dtd">
<!-- Created with matplotlib (https://matplotlib.org/) -->
<svg height="345.6pt" version="1.1" viewBox="0 0 460.8 345.6" width="460.8pt" xmlns="http://www.w3.org/2000/svg" xmlns:xlink="http://www.w3.org/1999/xlink">
 <defs>
  <style type="text/css">
*{stroke-linecap:butt;stroke-linejoin:round;}
  </style>
 </defs>
 <g id="figure_1">
  <g id="patch_1">
   <path d="M 0 345.6 
L 460.8 345.6 
L 460.8 0 
L 0 0 
z
" style="fill:#ffffff;"/>
  </g>
  <g id="axes_1">
   <g id="patch_2">
    <path d="M 57.6 307.584 
L 414.72 307.584 
L 414.72 41.472 
L 57.6 41.472 
z
" style="fill:#ffffff;"/>
   </g>
   <g id="matplotlib.axis_1">
    <g id="xtick_1">
     <g id="line2d_1">
      <defs>
       <path d="M 0 0 
L 0 3.5 
" id="m284b93d0a0" style="stroke:#000000;stroke-width:0.8;"/>
      </defs>
      <g>
       <use style="stroke:#000000;stroke-width:0.8;" x="73.832727" xlink:href="#m284b93d0a0" y="307.584"/>
      </g>
     </g>
     <g id="text_1">
      <!-- 0 -->
      <defs>
       <path d="M 31.78125 66.40625 
Q 24.171875 66.40625 20.328125 58.90625 
Q 16.5 51.421875 16.5 36.375 
Q 16.5 21.390625 20.328125 13.890625 
Q 24.171875 6.390625 31.78125 6.390625 
Q 39.453125 6.390625 43.28125 13.890625 
Q 47.125 21.390625 47.125 36.375 
Q 47.125 51.421875 43.28125 58.90625 
Q 39.453125 66.40625 31.78125 66.40625 
z
M 31.78125 74.21875 
Q 44.046875 74.21875 50.515625 64.515625 
Q 56.984375 54.828125 56.984375 36.375 
Q 56.984375 17.96875 50.515625 8.265625 
Q 44.046875 -1.421875 31.78125 -1.421875 
Q 19.53125 -1.421875 13.0625 8.265625 
Q 6.59375 17.96875 6.59375 36.375 
Q 6.59375 54.828125 13.0625 64.515625 
Q 19.53125 74.21875 31.78125 74.21875 
z
" id="DejaVuSans-48"/>
      </defs>
      <g transform="translate(70.651477 322.182437)scale(0.1 -0.1)">
       <use xlink:href="#DejaVuSans-48"/>
      </g>
     </g>
    </g>
    <g id="xtick_2">
     <g id="line2d_2">
      <g>
       <use style="stroke:#000000;stroke-width:0.8;" x="118.923636" xlink:href="#m284b93d0a0" y="307.584"/>
      </g>
     </g>
     <g id="text_2">
      <!-- 25 -->
      <defs>
       <path d="M 19.1875 8.296875 
L 53.609375 8.296875 
L 53.609375 0 
L 7.328125 0 
L 7.328125 8.296875 
Q 12.9375 14.109375 22.625 23.890625 
Q 32.328125 33.6875 34.8125 36.53125 
Q 39.546875 41.84375 41.421875 45.53125 
Q 43.3125 49.21875 43.3125 52.78125 
Q 43.3125 58.59375 39.234375 62.25 
Q 35.15625 65.921875 28.609375 65.921875 
Q 23.96875 65.921875 18.8125 64.3125 
Q 13.671875 62.703125 7.8125 59.421875 
L 7.8125 69.390625 
Q 13.765625 71.78125 18.9375 73 
Q 24.125 74.21875 28.421875 74.21875 
Q 39.75 74.21875 46.484375 68.546875 
Q 53.21875 62.890625 53.21875 53.421875 
Q 53.21875 48.921875 51.53125 44.890625 
Q 49.859375 40.875 45.40625 35.40625 
Q 44.1875 33.984375 37.640625 27.21875 
Q 31.109375 20.453125 19.1875 8.296875 
z
" id="DejaVuSans-50"/>
       <path d="M 10.796875 72.90625 
L 49.515625 72.90625 
L 49.515625 64.59375 
L 19.828125 64.59375 
L 19.828125 46.734375 
Q 21.96875 47.46875 24.109375 47.828125 
Q 26.265625 48.1875 28.421875 48.1875 
Q 40.625 48.1875 47.75 41.5 
Q 54.890625 34.8125 54.890625 23.390625 
Q 54.890625 11.625 47.5625 5.09375 
Q 40.234375 -1.421875 26.90625 -1.421875 
Q 22.3125 -1.421875 17.546875 -0.640625 
Q 12.796875 0.140625 7.71875 1.703125 
L 7.71875 11.625 
Q 12.109375 9.234375 16.796875 8.0625 
Q 21.484375 6.890625 26.703125 6.890625 
Q 35.15625 6.890625 40.078125 11.328125 
Q 45.015625 15.765625 45.015625 23.390625 
Q 45.015625 31 40.078125 35.4375 
Q 35.15625 39.890625 26.703125 39.890625 
Q 22.75 39.890625 18.8125 39.015625 
Q 14.890625 38.140625 10.796875 36.28125 
z
" id="DejaVuSans-53"/>
      </defs>
      <g transform="translate(112.561136 322.182437)scale(0.1 -0.1)">
       <use xlink:href="#DejaVuSans-50"/>
       <use x="63.623047" xlink:href="#DejaVuSans-53"/>
      </g>
     </g>
    </g>
    <g id="xtick_3">
     <g id="line2d_3">
      <g>
       <use style="stroke:#000000;stroke-width:0.8;" x="164.014545" xlink:href="#m284b93d0a0" y="307.584"/>
      </g>
     </g>
     <g id="text_3">
      <!-- 50 -->
      <g transform="translate(157.652045 322.182437)scale(0.1 -0.1)">
       <use xlink:href="#DejaVuSans-53"/>
       <use x="63.623047" xlink:href="#DejaVuSans-48"/>
      </g>
     </g>
    </g>
    <g id="xtick_4">
     <g id="line2d_4">
      <g>
       <use style="stroke:#000000;stroke-width:0.8;" x="209.105455" xlink:href="#m284b93d0a0" y="307.584"/>
      </g>
     </g>
     <g id="text_4">
      <!-- 75 -->
      <defs>
       <path d="M 8.203125 72.90625 
L 55.078125 72.90625 
L 55.078125 68.703125 
L 28.609375 0 
L 18.3125 0 
L 43.21875 64.59375 
L 8.203125 64.59375 
z
" id="DejaVuSans-55"/>
      </defs>
      <g transform="translate(202.742955 322.182437)scale(0.1 -0.1)">
       <use xlink:href="#DejaVuSans-55"/>
       <use x="63.623047" xlink:href="#DejaVuSans-53"/>
      </g>
     </g>
    </g>
    <g id="xtick_5">
     <g id="line2d_5">
      <g>
       <use style="stroke:#000000;stroke-width:0.8;" x="254.196364" xlink:href="#m284b93d0a0" y="307.584"/>
      </g>
     </g>
     <g id="text_5">
      <!-- 100 -->
      <defs>
       <path d="M 12.40625 8.296875 
L 28.515625 8.296875 
L 28.515625 63.921875 
L 10.984375 60.40625 
L 10.984375 69.390625 
L 28.421875 72.90625 
L 38.28125 72.90625 
L 38.28125 8.296875 
L 54.390625 8.296875 
L 54.390625 0 
L 12.40625 0 
z
" id="DejaVuSans-49"/>
      </defs>
      <g transform="translate(244.652614 322.182437)scale(0.1 -0.1)">
       <use xlink:href="#DejaVuSans-49"/>
       <use x="63.623047" xlink:href="#DejaVuSans-48"/>
       <use x="127.246094" xlink:href="#DejaVuSans-48"/>
      </g>
     </g>
    </g>
    <g id="xtick_6">
     <g id="line2d_6">
      <g>
       <use style="stroke:#000000;stroke-width:0.8;" x="299.287273" xlink:href="#m284b93d0a0" y="307.584"/>
      </g>
     </g>
     <g id="text_6">
      <!-- 125 -->
      <g transform="translate(289.743523 322.182437)scale(0.1 -0.1)">
       <use xlink:href="#DejaVuSans-49"/>
       <use x="63.623047" xlink:href="#DejaVuSans-50"/>
       <use x="127.246094" xlink:href="#DejaVuSans-53"/>
      </g>
     </g>
    </g>
    <g id="xtick_7">
     <g id="line2d_7">
      <g>
       <use style="stroke:#000000;stroke-width:0.8;" x="344.378182" xlink:href="#m284b93d0a0" y="307.584"/>
      </g>
     </g>
     <g id="text_7">
      <!-- 150 -->
      <g transform="translate(334.834432 322.182437)scale(0.1 -0.1)">
       <use xlink:href="#DejaVuSans-49"/>
       <use x="63.623047" xlink:href="#DejaVuSans-53"/>
       <use x="127.246094" xlink:href="#DejaVuSans-48"/>
      </g>
     </g>
    </g>
    <g id="xtick_8">
     <g id="line2d_8">
      <g>
       <use style="stroke:#000000;stroke-width:0.8;" x="389.469091" xlink:href="#m284b93d0a0" y="307.584"/>
      </g>
     </g>
     <g id="text_8">
      <!-- 175 -->
      <g transform="translate(379.925341 322.182437)scale(0.1 -0.1)">
       <use xlink:href="#DejaVuSans-49"/>
       <use x="63.623047" xlink:href="#DejaVuSans-55"/>
       <use x="127.246094" xlink:href="#DejaVuSans-53"/>
      </g>
     </g>
    </g>
    <g id="text_9">
     <!-- Scattering angle $\Theta$ (°) -->
     <defs>
      <path d="M 53.515625 70.515625 
L 53.515625 60.890625 
Q 47.90625 63.578125 42.921875 64.890625 
Q 37.9375 66.21875 33.296875 66.21875 
Q 25.25 66.21875 20.875 63.09375 
Q 16.5 59.96875 16.5 54.203125 
Q 16.5 49.359375 19.40625 46.890625 
Q 22.3125 44.4375 30.421875 42.921875 
L 36.375 41.703125 
Q 47.40625 39.59375 52.65625 34.296875 
Q 57.90625 29 57.90625 20.125 
Q 57.90625 9.515625 50.796875 4.046875 
Q 43.703125 -1.421875 29.984375 -1.421875 
Q 24.8125 -1.421875 18.96875 -0.25 
Q 13.140625 0.921875 6.890625 3.21875 
L 6.890625 13.375 
Q 12.890625 10.015625 18.65625 8.296875 
Q 24.421875 6.59375 29.984375 6.59375 
Q 38.421875 6.59375 43.015625 9.90625 
Q 47.609375 13.234375 47.609375 19.390625 
Q 47.609375 24.75 44.3125 27.78125 
Q 41.015625 30.8125 33.5 32.328125 
L 27.484375 33.5 
Q 16.453125 35.6875 11.515625 40.375 
Q 6.59375 45.0625 6.59375 53.421875 
Q 6.59375 63.09375 13.40625 68.65625 
Q 20.21875 74.21875 32.171875 74.21875 
Q 37.3125 74.21875 42.625 73.28125 
Q 47.953125 72.359375 53.515625 70.515625 
z
" id="DejaVuSans-83"/>
      <path d="M 48.78125 52.59375 
L 48.78125 44.1875 
Q 44.96875 46.296875 41.140625 47.34375 
Q 37.3125 48.390625 33.40625 48.390625 
Q 24.65625 48.390625 19.8125 42.84375 
Q 14.984375 37.3125 14.984375 27.296875 
Q 14.984375 17.28125 19.8125 11.734375 
Q 24.65625 6.203125 33.40625 6.203125 
Q 37.3125 6.203125 41.140625 7.25 
Q 44.96875 8.296875 48.78125 10.40625 
L 48.78125 2.09375 
Q 45.015625 0.34375 40.984375 -0.53125 
Q 36.96875 -1.421875 32.421875 -1.421875 
Q 20.0625 -1.421875 12.78125 6.34375 
Q 5.515625 14.109375 5.515625 27.296875 
Q 5.515625 40.671875 12.859375 48.328125 
Q 20.21875 56 33.015625 56 
Q 37.15625 56 41.109375 55.140625 
Q 45.0625 54.296875 48.78125 52.59375 
z
" id="DejaVuSans-99"/>
      <path d="M 34.28125 27.484375 
Q 23.390625 27.484375 19.1875 25 
Q 14.984375 22.515625 14.984375 16.5 
Q 14.984375 11.71875 18.140625 8.90625 
Q 21.296875 6.109375 26.703125 6.109375 
Q 34.1875 6.109375 38.703125 11.40625 
Q 43.21875 16.703125 43.21875 25.484375 
L 43.21875 27.484375 
z
M 52.203125 31.203125 
L 52.203125 0 
L 43.21875 0 
L 43.21875 8.296875 
Q 40.140625 3.328125 35.546875 0.953125 
Q 30.953125 -1.421875 24.3125 -1.421875 
Q 15.921875 -1.421875 10.953125 3.296875 
Q 6 8.015625 6 15.921875 
Q 6 25.140625 12.171875 29.828125 
Q 18.359375 34.515625 30.609375 34.515625 
L 43.21875 34.515625 
L 43.21875 35.40625 
Q 43.21875 41.609375 39.140625 45 
Q 35.0625 48.390625 27.6875 48.390625 
Q 23 48.390625 18.546875 47.265625 
Q 14.109375 46.140625 10.015625 43.890625 
L 10.015625 52.203125 
Q 14.9375 54.109375 19.578125 55.046875 
Q 24.21875 56 28.609375 56 
Q 40.484375 56 46.34375 49.84375 
Q 52.203125 43.703125 52.203125 31.203125 
z
" id="DejaVuSans-97"/>
      <path d="M 18.3125 70.21875 
L 18.3125 54.6875 
L 36.8125 54.6875 
L 36.8125 47.703125 
L 18.3125 47.703125 
L 18.3125 18.015625 
Q 18.3125 11.328125 20.140625 9.421875 
Q 21.96875 7.515625 27.59375 7.515625 
L 36.8125 7.515625 
L 36.8125 0 
L 27.59375 0 
Q 17.1875 0 13.234375 3.875 
Q 9.28125 7.765625 9.28125 18.015625 
L 9.28125 47.703125 
L 2.6875 47.703125 
L 2.6875 54.6875 
L 9.28125 54.6875 
L 9.28125 70.21875 
z
" id="DejaVuSans-116"/>
      <path d="M 56.203125 29.59375 
L 56.203125 25.203125 
L 14.890625 25.203125 
Q 15.484375 15.921875 20.484375 11.0625 
Q 25.484375 6.203125 34.421875 6.203125 
Q 39.59375 6.203125 44.453125 7.46875 
Q 49.3125 8.734375 54.109375 11.28125 
L 54.109375 2.78125 
Q 49.265625 0.734375 44.1875 -0.34375 
Q 39.109375 -1.421875 33.890625 -1.421875 
Q 20.796875 -1.421875 13.15625 6.1875 
Q 5.515625 13.8125 5.515625 26.8125 
Q 5.515625 40.234375 12.765625 48.109375 
Q 20.015625 56 32.328125 56 
Q 43.359375 56 49.78125 48.890625 
Q 56.203125 41.796875 56.203125 29.59375 
z
M 47.21875 32.234375 
Q 47.125 39.59375 43.09375 43.984375 
Q 39.0625 48.390625 32.421875 48.390625 
Q 24.90625 48.390625 20.390625 44.140625 
Q 15.875 39.890625 15.1875 32.171875 
z
" id="DejaVuSans-101"/>
      <path d="M 41.109375 46.296875 
Q 39.59375 47.171875 37.8125 47.578125 
Q 36.03125 48 33.890625 48 
Q 26.265625 48 22.1875 43.046875 
Q 18.109375 38.09375 18.109375 28.8125 
L 18.109375 0 
L 9.078125 0 
L 9.078125 54.6875 
L 18.109375 54.6875 
L 18.109375 46.1875 
Q 20.953125 51.171875 25.484375 53.578125 
Q 30.03125 56 36.53125 56 
Q 37.453125 56 38.578125 55.875 
Q 39.703125 55.765625 41.0625 55.515625 
z
" id="DejaVuSans-114"/>
      <path d="M 9.421875 54.6875 
L 18.40625 54.6875 
L 18.40625 0 
L 9.421875 0 
z
M 9.421875 75.984375 
L 18.40625 75.984375 
L 18.40625 64.59375 
L 9.421875 64.59375 
z
" id="DejaVuSans-105"/>
      <path d="M 54.890625 33.015625 
L 54.890625 0 
L 45.90625 0 
L 45.90625 32.71875 
Q 45.90625 40.484375 42.875 44.328125 
Q 39.84375 48.1875 33.796875 48.1875 
Q 26.515625 48.1875 22.3125 43.546875 
Q 18.109375 38.921875 18.109375 30.90625 
L 18.109375 0 
L 9.078125 0 
L 9.078125 54.6875 
L 18.109375 54.6875 
L 18.109375 46.1875 
Q 21.34375 51.125 25.703125 53.5625 
Q 30.078125 56 35.796875 56 
Q 45.21875 56 50.046875 50.171875 
Q 54.890625 44.34375 54.890625 33.015625 
z
" id="DejaVuSans-110"/>
      <path d="M 45.40625 27.984375 
Q 45.40625 37.75 41.375 43.109375 
Q 37.359375 48.484375 30.078125 48.484375 
Q 22.859375 48.484375 18.828125 43.109375 
Q 14.796875 37.75 14.796875 27.984375 
Q 14.796875 18.265625 18.828125 12.890625 
Q 22.859375 7.515625 30.078125 7.515625 
Q 37.359375 7.515625 41.375 12.890625 
Q 45.40625 18.265625 45.40625 27.984375 
z
M 54.390625 6.78125 
Q 54.390625 -7.171875 48.1875 -13.984375 
Q 42 -20.796875 29.203125 -20.796875 
Q 24.46875 -20.796875 20.265625 -20.09375 
Q 16.0625 -19.390625 12.109375 -17.921875 
L 12.109375 -9.1875 
Q 16.0625 -11.328125 19.921875 -12.34375 
Q 23.78125 -13.375 27.78125 -13.375 
Q 36.625 -13.375 41.015625 -8.765625 
Q 45.40625 -4.15625 45.40625 5.171875 
L 45.40625 9.625 
Q 42.625 4.78125 38.28125 2.390625 
Q 33.9375 0 27.875 0 
Q 17.828125 0 11.671875 7.65625 
Q 5.515625 15.328125 5.515625 27.984375 
Q 5.515625 40.671875 11.671875 48.328125 
Q 17.828125 56 27.875 56 
Q 33.9375 56 38.28125 53.609375 
Q 42.625 51.21875 45.40625 46.390625 
L 45.40625 54.6875 
L 54.390625 54.6875 
z
" id="DejaVuSans-103"/>
      <path id="DejaVuSans-32"/>
      <path d="M 9.421875 75.984375 
L 18.40625 75.984375 
L 18.40625 0 
L 9.421875 0 
z
" id="DejaVuSans-108"/>
      <path d="M 22.125 42.96875 
L 56.59375 42.96875 
L 56.59375 34.671875 
L 22.125 34.671875 
z
M 39.40625 66.21875 
Q 28.65625 66.21875 22.359375 58.203125 
Q 16.015625 50.203125 16.015625 36.375 
Q 16.015625 22.609375 22.328125 14.59375 
Q 28.65625 6.59375 39.40625 6.59375 
Q 50.140625 6.59375 56.453125 14.59375 
Q 62.703125 22.609375 62.703125 36.375 
Q 62.703125 50.203125 56.453125 58.203125 
Q 50.140625 66.21875 39.40625 66.21875 
z
M 39.40625 74.21875 
Q 54.734375 74.21875 63.90625 63.9375 
Q 73.09375 53.65625 73.09375 36.375 
Q 73.09375 19.140625 63.921875 8.890625 
Q 54.734375 -1.421875 39.40625 -1.421875 
Q 24.03125 -1.421875 14.84375 8.84375 
Q 5.609375 19.09375 5.609375 36.375 
Q 5.609375 53.65625 14.84375 63.96875 
Q 24.03125 74.21875 39.40625 74.21875 
z
" id="DejaVuSans-920"/>
      <path d="M 31 75.875 
Q 24.46875 64.65625 21.28125 53.65625 
Q 18.109375 42.671875 18.109375 31.390625 
Q 18.109375 20.125 21.3125 9.0625 
Q 24.515625 -2 31 -13.1875 
L 23.1875 -13.1875 
Q 15.875 -1.703125 12.234375 9.375 
Q 8.59375 20.453125 8.59375 31.390625 
Q 8.59375 42.28125 12.203125 53.3125 
Q 15.828125 64.359375 23.1875 75.875 
z
" id="DejaVuSans-40"/>
      <path d="M 25 67.921875 
Q 21.09375 67.921875 18.40625 65.203125 
Q 15.71875 62.5 15.71875 58.59375 
Q 15.71875 54.734375 18.40625 52.078125 
Q 21.09375 49.421875 25 49.421875 
Q 28.90625 49.421875 31.59375 52.078125 
Q 34.28125 54.734375 34.28125 58.59375 
Q 34.28125 62.453125 31.5625 65.1875 
Q 28.859375 67.921875 25 67.921875 
z
M 25 74.21875 
Q 28.125 74.21875 31 73.015625 
Q 33.890625 71.828125 35.984375 69.578125 
Q 38.234375 67.390625 39.359375 64.59375 
Q 40.484375 61.8125 40.484375 58.59375 
Q 40.484375 52.15625 35.96875 47.6875 
Q 31.453125 43.21875 24.90625 43.21875 
Q 18.3125 43.21875 13.90625 47.609375 
Q 9.515625 52 9.515625 58.59375 
Q 9.515625 65.140625 14 69.671875 
Q 18.5 74.21875 25 74.21875 
z
" id="DejaVuSans-176"/>
      <path d="M 8.015625 75.875 
L 15.828125 75.875 
Q 23.140625 64.359375 26.78125 53.3125 
Q 30.421875 42.28125 30.421875 31.390625 
Q 30.421875 20.453125 26.78125 9.375 
Q 23.140625 -1.703125 15.828125 -13.1875 
L 8.015625 -13.1875 
Q 14.5 -2 17.703125 9.0625 
Q 20.90625 20.125 20.90625 31.390625 
Q 20.90625 42.671875 17.703125 53.65625 
Q 14.5 64.65625 8.015625 75.875 
z
" id="DejaVuSans-41"/>
     </defs>
     <g transform="translate(181.41 335.862125)scale(0.1 -0.1)">
      <use transform="translate(0 0.015625)" xlink:href="#DejaVuSans-83"/>
      <use transform="translate(63.476562 0.015625)" xlink:href="#DejaVuSans-99"/>
      <use transform="translate(118.457031 0.015625)" xlink:href="#DejaVuSans-97"/>
      <use transform="translate(179.736328 0.015625)" xlink:href="#DejaVuSans-116"/>
      <use transform="translate(218.945312 0.015625)" xlink:href="#DejaVuSans-116"/>
      <use transform="translate(258.154297 0.015625)" xlink:href="#DejaVuSans-101"/>
      <use transform="translate(319.677734 0.015625)" xlink:href="#DejaVuSans-114"/>
      <use transform="translate(360.791016 0.015625)" xlink:href="#DejaVuSans-105"/>
      <use transform="translate(388.574219 0.015625)" xlink:href="#DejaVuSans-110"/>
      <use transform="translate(451.953125 0.015625)" xlink:href="#DejaVuSans-103"/>
      <use transform="translate(515.429688 0.015625)" xlink:href="#DejaVuSans-32"/>
      <use transform="translate(547.216797 0.015625)" xlink:href="#DejaVuSans-97"/>
      <use transform="translate(608.496094 0.015625)" xlink:href="#DejaVuSans-110"/>
      <use transform="translate(671.875 0.015625)" xlink:href="#DejaVuSans-103"/>
      <use transform="translate(735.351562 0.015625)" xlink:href="#DejaVuSans-108"/>
      <use transform="translate(763.134766 0.015625)" xlink:href="#DejaVuSans-101"/>
      <use transform="translate(824.658203 0.015625)" xlink:href="#DejaVuSans-32"/>
      <use transform="translate(856.445312 0.015625)" xlink:href="#DejaVuSans-920"/>
      <use transform="translate(935.15625 0.015625)" xlink:href="#DejaVuSans-32"/>
      <use transform="translate(966.943359 0.015625)" xlink:href="#DejaVuSans-40"/>
      <use transform="translate(1005.957031 0.015625)" xlink:href="#DejaVuSans-176"/>
      <use transform="translate(1055.957031 0.015625)" xlink:href="#DejaVuSans-41"/>
     </g>
    </g>
   </g>
   <g id="matplotlib.axis_2">
    <g id="ytick_1">
     <g id="line2d_9">
      <defs>
       <path d="M 0 0 
L -3.5 0 
" id="m1fc5561c5c" style="stroke:#000000;stroke-width:0.8;"/>
      </defs>
      <g>
       <use style="stroke:#000000;stroke-width:0.8;" x="57.6" xlink:href="#m1fc5561c5c" y="281.420527"/>
      </g>
     </g>
     <g id="text_10">
      <!-- $\mathdefault{10^{-5}}$ -->
      <defs>
       <path d="M 10.59375 35.5 
L 73.1875 35.5 
L 73.1875 27.203125 
L 10.59375 27.203125 
z
" id="DejaVuSans-8722"/>
      </defs>
      <g transform="translate(27.1 285.219745)scale(0.1 -0.1)">
       <use transform="translate(0 0.684375)" xlink:href="#DejaVuSans-49"/>
       <use transform="translate(63.623047 0.684375)" xlink:href="#DejaVuSans-48"/>
       <use transform="translate(128.203125 38.965625)scale(0.7)" xlink:href="#DejaVuSans-8722"/>
       <use transform="translate(186.855469 38.965625)scale(0.7)" xlink:href="#DejaVuSans-53"/>
      </g>
     </g>
    </g>
    <g id="ytick_2">
     <g id="line2d_10">
      <g>
       <use style="stroke:#000000;stroke-width:0.8;" x="57.6" xlink:href="#m1fc5561c5c" y="248.766249"/>
      </g>
     </g>
     <g id="text_11">
      <!-- $\mathdefault{10^{-4}}$ -->
      <defs>
       <path d="M 37.796875 64.3125 
L 12.890625 25.390625 
L 37.796875 25.390625 
z
M 35.203125 72.90625 
L 47.609375 72.90625 
L 47.609375 25.390625 
L 58.015625 25.390625 
L 58.015625 17.1875 
L 47.609375 17.1875 
L 47.609375 0 
L 37.796875 0 
L 37.796875 17.1875 
L 4.890625 17.1875 
L 4.890625 26.703125 
z
" id="DejaVuSans-52"/>
      </defs>
      <g transform="translate(27.1 252.565467)scale(0.1 -0.1)">
       <use transform="translate(0 0.684375)" xlink:href="#DejaVuSans-49"/>
       <use transform="translate(63.623047 0.684375)" xlink:href="#DejaVuSans-48"/>
       <use transform="translate(128.203125 38.965625)scale(0.7)" xlink:href="#DejaVuSans-8722"/>
       <use transform="translate(186.855469 38.965625)scale(0.7)" xlink:href="#DejaVuSans-52"/>
      </g>
     </g>
    </g>
    <g id="ytick_3">
     <g id="line2d_11">
      <g>
       <use style="stroke:#000000;stroke-width:0.8;" x="57.6" xlink:href="#m1fc5561c5c" y="216.111971"/>
      </g>
     </g>
     <g id="text_12">
      <!-- $\mathdefault{10^{-3}}$ -->
      <defs>
       <path d="M 40.578125 39.3125 
Q 47.65625 37.796875 51.625 33 
Q 55.609375 28.21875 55.609375 21.1875 
Q 55.609375 10.40625 48.1875 4.484375 
Q 40.765625 -1.421875 27.09375 -1.421875 
Q 22.515625 -1.421875 17.65625 -0.515625 
Q 12.796875 0.390625 7.625 2.203125 
L 7.625 11.71875 
Q 11.71875 9.328125 16.59375 8.109375 
Q 21.484375 6.890625 26.8125 6.890625 
Q 36.078125 6.890625 40.9375 10.546875 
Q 45.796875 14.203125 45.796875 21.1875 
Q 45.796875 27.640625 41.28125 31.265625 
Q 36.765625 34.90625 28.71875 34.90625 
L 20.21875 34.90625 
L 20.21875 43.015625 
L 29.109375 43.015625 
Q 36.375 43.015625 40.234375 45.921875 
Q 44.09375 48.828125 44.09375 54.296875 
Q 44.09375 59.90625 40.109375 62.90625 
Q 36.140625 65.921875 28.71875 65.921875 
Q 24.65625 65.921875 20.015625 65.03125 
Q 15.375 64.15625 9.8125 62.3125 
L 9.8125 71.09375 
Q 15.4375 72.65625 20.34375 73.4375 
Q 25.25 74.21875 29.59375 74.21875 
Q 40.828125 74.21875 47.359375 69.109375 
Q 53.90625 64.015625 53.90625 55.328125 
Q 53.90625 49.265625 50.4375 45.09375 
Q 46.96875 40.921875 40.578125 39.3125 
z
" id="DejaVuSans-51"/>
      </defs>
      <g transform="translate(27.1 219.911189)scale(0.1 -0.1)">
       <use transform="translate(0 0.765625)" xlink:href="#DejaVuSans-49"/>
       <use transform="translate(63.623047 0.765625)" xlink:href="#DejaVuSans-48"/>
       <use transform="translate(128.203125 39.046875)scale(0.7)" xlink:href="#DejaVuSans-8722"/>
       <use transform="translate(186.855469 39.046875)scale(0.7)" xlink:href="#DejaVuSans-51"/>
      </g>
     </g>
    </g>
    <g id="ytick_4">
     <g id="line2d_12">
      <g>
       <use style="stroke:#000000;stroke-width:0.8;" x="57.6" xlink:href="#m1fc5561c5c" y="183.457692"/>
      </g>
     </g>
     <g id="text_13">
      <!-- $\mathdefault{10^{-2}}$ -->
      <g transform="translate(27.1 187.256911)scale(0.1 -0.1)">
       <use transform="translate(0 0.765625)" xlink:href="#DejaVuSans-49"/>
       <use transform="translate(63.623047 0.765625)" xlink:href="#DejaVuSans-48"/>
       <use transform="translate(128.203125 39.046875)scale(0.7)" xlink:href="#DejaVuSans-8722"/>
       <use transform="translate(186.855469 39.046875)scale(0.7)" xlink:href="#DejaVuSans-50"/>
      </g>
     </g>
    </g>
    <g id="ytick_5">
     <g id="line2d_13">
      <g>
       <use style="stroke:#000000;stroke-width:0.8;" x="57.6" xlink:href="#m1fc5561c5c" y="150.803414"/>
      </g>
     </g>
     <g id="text_14">
      <!-- $\mathdefault{10^{-1}}$ -->
      <g transform="translate(27.1 154.602633)scale(0.1 -0.1)">
       <use transform="translate(0 0.684375)" xlink:href="#DejaVuSans-49"/>
       <use transform="translate(63.623047 0.684375)" xlink:href="#DejaVuSans-48"/>
       <use transform="translate(128.203125 38.965625)scale(0.7)" xlink:href="#DejaVuSans-8722"/>
       <use transform="translate(186.855469 38.965625)scale(0.7)" xlink:href="#DejaVuSans-49"/>
      </g>
     </g>
    </g>
    <g id="ytick_6">
     <g id="line2d_14">
      <g>
       <use style="stroke:#000000;stroke-width:0.8;" x="57.6" xlink:href="#m1fc5561c5c" y="118.149136"/>
      </g>
     </g>
     <g id="text_15">
      <!-- $\mathdefault{10^{0}}$ -->
      <g transform="translate(33 121.948355)scale(0.1 -0.1)">
       <use transform="translate(0 0.765625)" xlink:href="#DejaVuSans-49"/>
       <use transform="translate(63.623047 0.765625)" xlink:href="#DejaVuSans-48"/>
       <use transform="translate(128.203125 39.046875)scale(0.7)" xlink:href="#DejaVuSans-48"/>
      </g>
     </g>
    </g>
    <g id="ytick_7">
     <g id="line2d_15">
      <g>
       <use style="stroke:#000000;stroke-width:0.8;" x="57.6" xlink:href="#m1fc5561c5c" y="85.494858"/>
      </g>
     </g>
     <g id="text_16">
      <!-- $\mathdefault{10^{1}}$ -->
      <g transform="translate(33 89.294077)scale(0.1 -0.1)">
       <use transform="translate(0 0.684375)" xlink:href="#DejaVuSans-49"/>
       <use transform="translate(63.623047 0.684375)" xlink:href="#DejaVuSans-48"/>
       <use transform="translate(128.203125 38.965625)scale(0.7)" xlink:href="#DejaVuSans-49"/>
      </g>
     </g>
    </g>
    <g id="ytick_8">
     <g id="line2d_16">
      <g>
       <use style="stroke:#000000;stroke-width:0.8;" x="57.6" xlink:href="#m1fc5561c5c" y="52.84058"/>
      </g>
     </g>
     <g id="text_17">
      <!-- $\mathdefault{10^{2}}$ -->
      <g transform="translate(33 56.639799)scale(0.1 -0.1)">
       <use transform="translate(0 0.765625)" xlink:href="#DejaVuSans-49"/>
       <use transform="translate(63.623047 0.765625)" xlink:href="#DejaVuSans-48"/>
       <use transform="translate(128.203125 39.046875)scale(0.7)" xlink:href="#DejaVuSans-50"/>
      </g>
     </g>
    </g>
    <g id="ytick_9">
     <g id="line2d_17">
      <defs>
       <path d="M 0 0 
L -2 0 
" id="mef8237b620" style="stroke:#000000;stroke-width:0.6;"/>
      </defs>
      <g>
       <use style="stroke:#000000;stroke-width:0.6;" x="57.6" xlink:href="#mef8237b620" y="304.244887"/>
      </g>
     </g>
    </g>
    <g id="ytick_10">
     <g id="line2d_18">
      <g>
       <use style="stroke:#000000;stroke-width:0.6;" x="57.6" xlink:href="#mef8237b620" y="298.494754"/>
      </g>
     </g>
    </g>
    <g id="ytick_11">
     <g id="line2d_19">
      <g>
       <use style="stroke:#000000;stroke-width:0.6;" x="57.6" xlink:href="#mef8237b620" y="294.41497"/>
      </g>
     </g>
    </g>
    <g id="ytick_12">
     <g id="line2d_20">
      <g>
       <use style="stroke:#000000;stroke-width:0.6;" x="57.6" xlink:href="#mef8237b620" y="291.250444"/>
      </g>
     </g>
    </g>
    <g id="ytick_13">
     <g id="line2d_21">
      <g>
       <use style="stroke:#000000;stroke-width:0.6;" x="57.6" xlink:href="#mef8237b620" y="288.664837"/>
      </g>
     </g>
    </g>
    <g id="ytick_14">
     <g id="line2d_22">
      <g>
       <use style="stroke:#000000;stroke-width:0.6;" x="57.6" xlink:href="#mef8237b620" y="286.478738"/>
      </g>
     </g>
    </g>
    <g id="ytick_15">
     <g id="line2d_23">
      <g>
       <use style="stroke:#000000;stroke-width:0.6;" x="57.6" xlink:href="#mef8237b620" y="284.585053"/>
      </g>
     </g>
    </g>
    <g id="ytick_16">
     <g id="line2d_24">
      <g>
       <use style="stroke:#000000;stroke-width:0.6;" x="57.6" xlink:href="#mef8237b620" y="282.914704"/>
      </g>
     </g>
    </g>
    <g id="ytick_17">
     <g id="line2d_25">
      <g>
       <use style="stroke:#000000;stroke-width:0.6;" x="57.6" xlink:href="#mef8237b620" y="271.590609"/>
      </g>
     </g>
    </g>
    <g id="ytick_18">
     <g id="line2d_26">
      <g>
       <use style="stroke:#000000;stroke-width:0.6;" x="57.6" xlink:href="#mef8237b620" y="265.840476"/>
      </g>
     </g>
    </g>
    <g id="ytick_19">
     <g id="line2d_27">
      <g>
       <use style="stroke:#000000;stroke-width:0.6;" x="57.6" xlink:href="#mef8237b620" y="261.760692"/>
      </g>
     </g>
    </g>
    <g id="ytick_20">
     <g id="line2d_28">
      <g>
       <use style="stroke:#000000;stroke-width:0.6;" x="57.6" xlink:href="#mef8237b620" y="258.596166"/>
      </g>
     </g>
    </g>
    <g id="ytick_21">
     <g id="line2d_29">
      <g>
       <use style="stroke:#000000;stroke-width:0.6;" x="57.6" xlink:href="#mef8237b620" y="256.010559"/>
      </g>
     </g>
    </g>
    <g id="ytick_22">
     <g id="line2d_30">
      <g>
       <use style="stroke:#000000;stroke-width:0.6;" x="57.6" xlink:href="#mef8237b620" y="253.82446"/>
      </g>
     </g>
    </g>
    <g id="ytick_23">
     <g id="line2d_31">
      <g>
       <use style="stroke:#000000;stroke-width:0.6;" x="57.6" xlink:href="#mef8237b620" y="251.930775"/>
      </g>
     </g>
    </g>
    <g id="ytick_24">
     <g id="line2d_32">
      <g>
       <use style="stroke:#000000;stroke-width:0.6;" x="57.6" xlink:href="#mef8237b620" y="250.260426"/>
      </g>
     </g>
    </g>
    <g id="ytick_25">
     <g id="line2d_33">
      <g>
       <use style="stroke:#000000;stroke-width:0.6;" x="57.6" xlink:href="#mef8237b620" y="238.936331"/>
      </g>
     </g>
    </g>
    <g id="ytick_26">
     <g id="line2d_34">
      <g>
       <use style="stroke:#000000;stroke-width:0.6;" x="57.6" xlink:href="#mef8237b620" y="233.186198"/>
      </g>
     </g>
    </g>
    <g id="ytick_27">
     <g id="line2d_35">
      <g>
       <use style="stroke:#000000;stroke-width:0.6;" x="57.6" xlink:href="#mef8237b620" y="229.106414"/>
      </g>
     </g>
    </g>
    <g id="ytick_28">
     <g id="line2d_36">
      <g>
       <use style="stroke:#000000;stroke-width:0.6;" x="57.6" xlink:href="#mef8237b620" y="225.941888"/>
      </g>
     </g>
    </g>
    <g id="ytick_29">
     <g id="line2d_37">
      <g>
       <use style="stroke:#000000;stroke-width:0.6;" x="57.6" xlink:href="#mef8237b620" y="223.356281"/>
      </g>
     </g>
    </g>
    <g id="ytick_30">
     <g id="line2d_38">
      <g>
       <use style="stroke:#000000;stroke-width:0.6;" x="57.6" xlink:href="#mef8237b620" y="221.170182"/>
      </g>
     </g>
    </g>
    <g id="ytick_31">
     <g id="line2d_39">
      <g>
       <use style="stroke:#000000;stroke-width:0.6;" x="57.6" xlink:href="#mef8237b620" y="219.276497"/>
      </g>
     </g>
    </g>
    <g id="ytick_32">
     <g id="line2d_40">
      <g>
       <use style="stroke:#000000;stroke-width:0.6;" x="57.6" xlink:href="#mef8237b620" y="217.606148"/>
      </g>
     </g>
    </g>
    <g id="ytick_33">
     <g id="line2d_41">
      <g>
       <use style="stroke:#000000;stroke-width:0.6;" x="57.6" xlink:href="#mef8237b620" y="206.282053"/>
      </g>
     </g>
    </g>
    <g id="ytick_34">
     <g id="line2d_42">
      <g>
       <use style="stroke:#000000;stroke-width:0.6;" x="57.6" xlink:href="#mef8237b620" y="200.53192"/>
      </g>
     </g>
    </g>
    <g id="ytick_35">
     <g id="line2d_43">
      <g>
       <use style="stroke:#000000;stroke-width:0.6;" x="57.6" xlink:href="#mef8237b620" y="196.452136"/>
      </g>
     </g>
    </g>
    <g id="ytick_36">
     <g id="line2d_44">
      <g>
       <use style="stroke:#000000;stroke-width:0.6;" x="57.6" xlink:href="#mef8237b620" y="193.28761"/>
      </g>
     </g>
    </g>
    <g id="ytick_37">
     <g id="line2d_45">
      <g>
       <use style="stroke:#000000;stroke-width:0.6;" x="57.6" xlink:href="#mef8237b620" y="190.702003"/>
      </g>
     </g>
    </g>
    <g id="ytick_38">
     <g id="line2d_46">
      <g>
       <use style="stroke:#000000;stroke-width:0.6;" x="57.6" xlink:href="#mef8237b620" y="188.515904"/>
      </g>
     </g>
    </g>
    <g id="ytick_39">
     <g id="line2d_47">
      <g>
       <use style="stroke:#000000;stroke-width:0.6;" x="57.6" xlink:href="#mef8237b620" y="186.622219"/>
      </g>
     </g>
    </g>
    <g id="ytick_40">
     <g id="line2d_48">
      <g>
       <use style="stroke:#000000;stroke-width:0.6;" x="57.6" xlink:href="#mef8237b620" y="184.95187"/>
      </g>
     </g>
    </g>
    <g id="ytick_41">
     <g id="line2d_49">
      <g>
       <use style="stroke:#000000;stroke-width:0.6;" x="57.6" xlink:href="#mef8237b620" y="173.627775"/>
      </g>
     </g>
    </g>
    <g id="ytick_42">
     <g id="line2d_50">
      <g>
       <use style="stroke:#000000;stroke-width:0.6;" x="57.6" xlink:href="#mef8237b620" y="167.877642"/>
      </g>
     </g>
    </g>
    <g id="ytick_43">
     <g id="line2d_51">
      <g>
       <use style="stroke:#000000;stroke-width:0.6;" x="57.6" xlink:href="#mef8237b620" y="163.797858"/>
      </g>
     </g>
    </g>
    <g id="ytick_44">
     <g id="line2d_52">
      <g>
       <use style="stroke:#000000;stroke-width:0.6;" x="57.6" xlink:href="#mef8237b620" y="160.633332"/>
      </g>
     </g>
    </g>
    <g id="ytick_45">
     <g id="line2d_53">
      <g>
       <use style="stroke:#000000;stroke-width:0.6;" x="57.6" xlink:href="#mef8237b620" y="158.047725"/>
      </g>
     </g>
    </g>
    <g id="ytick_46">
     <g id="line2d_54">
      <g>
       <use style="stroke:#000000;stroke-width:0.6;" x="57.6" xlink:href="#mef8237b620" y="155.861626"/>
      </g>
     </g>
    </g>
    <g id="ytick_47">
     <g id="line2d_55">
      <g>
       <use style="stroke:#000000;stroke-width:0.6;" x="57.6" xlink:href="#mef8237b620" y="153.967941"/>
      </g>
     </g>
    </g>
    <g id="ytick_48">
     <g id="line2d_56">
      <g>
       <use style="stroke:#000000;stroke-width:0.6;" x="57.6" xlink:href="#mef8237b620" y="152.297592"/>
      </g>
     </g>
    </g>
    <g id="ytick_49">
     <g id="line2d_57">
      <g>
       <use style="stroke:#000000;stroke-width:0.6;" x="57.6" xlink:href="#mef8237b620" y="140.973497"/>
      </g>
     </g>
    </g>
    <g id="ytick_50">
     <g id="line2d_58">
      <g>
       <use style="stroke:#000000;stroke-width:0.6;" x="57.6" xlink:href="#mef8237b620" y="135.223364"/>
      </g>
     </g>
    </g>
    <g id="ytick_51">
     <g id="line2d_59">
      <g>
       <use style="stroke:#000000;stroke-width:0.6;" x="57.6" xlink:href="#mef8237b620" y="131.14358"/>
      </g>
     </g>
    </g>
    <g id="ytick_52">
     <g id="line2d_60">
      <g>
       <use style="stroke:#000000;stroke-width:0.6;" x="57.6" xlink:href="#mef8237b620" y="127.979054"/>
      </g>
     </g>
    </g>
    <g id="ytick_53">
     <g id="line2d_61">
      <g>
       <use style="stroke:#000000;stroke-width:0.6;" x="57.6" xlink:href="#mef8237b620" y="125.393447"/>
      </g>
     </g>
    </g>
    <g id="ytick_54">
     <g id="line2d_62">
      <g>
       <use style="stroke:#000000;stroke-width:0.6;" x="57.6" xlink:href="#mef8237b620" y="123.207348"/>
      </g>
     </g>
    </g>
    <g id="ytick_55">
     <g id="line2d_63">
      <g>
       <use style="stroke:#000000;stroke-width:0.6;" x="57.6" xlink:href="#mef8237b620" y="121.313663"/>
      </g>
     </g>
    </g>
    <g id="ytick_56">
     <g id="line2d_64">
      <g>
       <use style="stroke:#000000;stroke-width:0.6;" x="57.6" xlink:href="#mef8237b620" y="119.643314"/>
      </g>
     </g>
    </g>
    <g id="ytick_57">
     <g id="line2d_65">
      <g>
       <use style="stroke:#000000;stroke-width:0.6;" x="57.6" xlink:href="#mef8237b620" y="108.319219"/>
      </g>
     </g>
    </g>
    <g id="ytick_58">
     <g id="line2d_66">
      <g>
       <use style="stroke:#000000;stroke-width:0.6;" x="57.6" xlink:href="#mef8237b620" y="102.569086"/>
      </g>
     </g>
    </g>
    <g id="ytick_59">
     <g id="line2d_67">
      <g>
       <use style="stroke:#000000;stroke-width:0.6;" x="57.6" xlink:href="#mef8237b620" y="98.489302"/>
      </g>
     </g>
    </g>
    <g id="ytick_60">
     <g id="line2d_68">
      <g>
       <use style="stroke:#000000;stroke-width:0.6;" x="57.6" xlink:href="#mef8237b620" y="95.324776"/>
      </g>
     </g>
    </g>
    <g id="ytick_61">
     <g id="line2d_69">
      <g>
       <use style="stroke:#000000;stroke-width:0.6;" x="57.6" xlink:href="#mef8237b620" y="92.739169"/>
      </g>
     </g>
    </g>
    <g id="ytick_62">
     <g id="line2d_70">
      <g>
       <use style="stroke:#000000;stroke-width:0.6;" x="57.6" xlink:href="#mef8237b620" y="90.55307"/>
      </g>
     </g>
    </g>
    <g id="ytick_63">
     <g id="line2d_71">
      <g>
       <use style="stroke:#000000;stroke-width:0.6;" x="57.6" xlink:href="#mef8237b620" y="88.659385"/>
      </g>
     </g>
    </g>
    <g id="ytick_64">
     <g id="line2d_72">
      <g>
       <use style="stroke:#000000;stroke-width:0.6;" x="57.6" xlink:href="#mef8237b620" y="86.989036"/>
      </g>
     </g>
    </g>
    <g id="ytick_65">
     <g id="line2d_73">
      <g>
       <use style="stroke:#000000;stroke-width:0.6;" x="57.6" xlink:href="#mef8237b620" y="75.664941"/>
      </g>
     </g>
    </g>
    <g id="ytick_66">
     <g id="line2d_74">
      <g>
       <use style="stroke:#000000;stroke-width:0.6;" x="57.6" xlink:href="#mef8237b620" y="69.914808"/>
      </g>
     </g>
    </g>
    <g id="ytick_67">
     <g id="line2d_75">
      <g>
       <use style="stroke:#000000;stroke-width:0.6;" x="57.6" xlink:href="#mef8237b620" y="65.835024"/>
      </g>
     </g>
    </g>
    <g id="ytick_68">
     <g id="line2d_76">
      <g>
       <use style="stroke:#000000;stroke-width:0.6;" x="57.6" xlink:href="#mef8237b620" y="62.670498"/>
      </g>
     </g>
    </g>
    <g id="ytick_69">
     <g id="line2d_77">
      <g>
       <use style="stroke:#000000;stroke-width:0.6;" x="57.6" xlink:href="#mef8237b620" y="60.084891"/>
      </g>
     </g>
    </g>
    <g id="ytick_70">
     <g id="line2d_78">
      <g>
       <use style="stroke:#000000;stroke-width:0.6;" x="57.6" xlink:href="#mef8237b620" y="57.898792"/>
      </g>
     </g>
    </g>
    <g id="ytick_71">
     <g id="line2d_79">
      <g>
       <use style="stroke:#000000;stroke-width:0.6;" x="57.6" xlink:href="#mef8237b620" y="56.005107"/>
      </g>
     </g>
    </g>
    <g id="ytick_72">
     <g id="line2d_80">
      <g>
       <use style="stroke:#000000;stroke-width:0.6;" x="57.6" xlink:href="#mef8237b620" y="54.334758"/>
      </g>
     </g>
    </g>
    <g id="ytick_73">
     <g id="line2d_81">
      <g>
       <use style="stroke:#000000;stroke-width:0.6;" x="57.6" xlink:href="#mef8237b620" y="43.010663"/>
      </g>
     </g>
    </g>
   </g>
   <g id="line2d_82">
    <path clip-path="url(#pcb9745baa6)" d="M 73.832727 112.399004 
L 82.932154 112.509099 
L 92.031581 112.84111 
L 101.131007 113.400313 
L 109.905455 114.163261 
L 118.354922 115.117001 
L 126.47941 116.25082 
L 134.278919 117.555847 
L 141.753448 119.024748 
L 148.902998 120.651472 
L 155.727568 122.431035 
L 162.227158 124.359328 
L 168.07679 126.317332 
L 173.601441 128.38929 
L 178.801114 130.568091 
L 183.675807 132.845571 
L 188.22552 135.211956 
L 192.450254 137.655177 
L 196.350008 140.160031 
L 199.924783 142.707184 
L 203.174578 145.27202 
L 206.424373 148.123054 
L 209.349189 150.986216 
L 211.949025 153.820276 
L 214.548862 156.989342 
L 216.823718 160.10271 
L 219.098575 163.616003 
L 221.048452 167.030364 
L 222.998329 170.924309 
L 224.623227 174.643919 
L 226.248124 178.934176 
L 227.548043 182.910858 
L 228.847961 187.542737 
L 230.147879 193.087 
L 231.122817 198.100542 
L 232.097756 204.19785 
L 233.072695 211.978656 
L 233.722654 218.681796 
L 234.372613 227.47755 
L 235.022572 240.296428 
L 235.347551 249.839559 
L 235.672531 264.327993 
L 235.99751 295.488 
L 236.32249 295.488 
L 236.647469 264.327993 
L 237.297428 240.296428 
L 237.947387 227.47755 
L 238.597346 218.681796 
L 239.572285 209.14091 
L 240.547224 202.016208 
L 241.522162 196.328764 
L 242.82208 190.179052 
L 244.121998 185.13179 
L 245.421916 180.852319 
L 247.046814 176.282163 
L 248.671712 172.353331 
L 250.621589 168.268777 
L 252.571466 164.707975 
L 254.846323 161.06152 
L 257.121179 157.843177 
L 259.721016 154.578316 
L 262.320852 151.666972 
L 265.245667 148.732875 
L 268.495463 145.81756 
L 271.745258 143.199727 
L 275.320033 140.60398 
L 279.219787 138.054839 
L 283.444521 135.571382 
L 287.994234 133.168476 
L 292.868927 130.857817 
L 298.0686 128.648807 
L 303.593251 126.549249 
L 309.442883 124.565917 
L 315.617494 122.70501 
L 322.117084 120.972521 
L 329.266634 119.303681 
L 336.741163 117.795361 
L 344.540672 116.453086 
L 352.66516 115.283714 
L 361.114627 114.295667 
L 369.889075 113.499228 
L 378.663522 112.924094 
L 387.762948 112.552007 
L 396.862375 112.40251 
L 398.487273 112.399004 
L 398.487273 112.399004 
" style="fill:none;stroke:#1f77b4;stroke-linecap:square;stroke-width:1.5;"/>
   </g>
   <g id="line2d_83">
    <path clip-path="url(#pcb9745baa6)" d="M 73.832727 115.903136 
L 83.907093 116.012535 
L 93.981458 116.341695 
L 104.055823 116.893489 
L 114.130188 117.672663 
L 123.879574 118.649294 
L 133.62896 119.85211 
L 143.053366 121.237249 
L 152.477772 122.847918 
L 161.902179 124.688751 
L 171.326585 126.75882 
L 181.075971 129.12781 
L 192.450254 132.12884 
L 213.898903 137.850899 
L 220.398493 139.303978 
L 225.598165 140.247888 
L 230.472858 140.901307 
L 235.022572 141.273382 
L 239.247305 141.394371 
L 243.472039 141.293377 
L 247.696773 140.976651 
L 252.246486 140.413926 
L 257.121179 139.59134 
L 262.970811 138.368692 
L 270.44534 136.556082 
L 284.419459 132.874956 
L 297.41864 129.550277 
L 307.493006 127.202584 
L 316.917412 125.232823 
L 326.341818 123.494522 
L 335.766224 121.988409 
L 345.190631 120.709983 
L 354.615037 119.652785 
L 364.364423 118.784855 
L 374.113808 118.140009 
L 383.863194 117.713071 
L 393.937559 117.497078 
L 398.487273 117.473968 
L 398.487273 117.473968 
" style="fill:none;stroke:#ff7f0e;stroke-linecap:square;stroke-width:1.5;"/>
   </g>
   <g id="line2d_84">
    <path clip-path="url(#pcb9745baa6)" d="M 73.832727 123.63905 
L 95.281376 123.751479 
L 117.379984 124.093644 
L 141.103489 124.686924 
L 168.726749 125.608183 
L 207.399312 127.143321 
L 273.370156 129.76795 
L 305.543129 130.804425 
L 334.141327 131.506216 
L 361.114627 131.947869 
L 387.437969 132.156439 
L 398.487273 132.176528 
L 398.487273 132.176528 
" style="fill:none;stroke:#2ca02c;stroke-linecap:square;stroke-width:1.5;"/>
   </g>
   <g id="line2d_85">
    <path clip-path="url(#pcb9745baa6)" d="M 73.832727 112.399004 
L 82.932154 112.509099 
L 92.031581 112.84111 
L 101.131007 113.400313 
L 109.905455 114.163261 
L 118.354922 115.117001 
L 126.47941 116.25082 
L 134.278919 117.555847 
L 141.753448 119.024748 
L 148.902998 120.651472 
L 155.727568 122.431035 
L 162.227158 124.359328 
L 168.07679 126.317332 
L 173.601441 128.38929 
L 178.801114 130.568091 
L 183.675807 132.845571 
L 188.22552 135.211956 
L 192.450254 137.655177 
L 196.350008 140.160031 
L 199.924783 142.707184 
L 203.174578 145.27202 
L 206.424373 148.123054 
L 209.349189 150.986216 
L 211.949025 153.820276 
L 214.548862 156.989342 
L 216.823718 160.10271 
L 219.098575 163.616003 
L 221.048452 167.030364 
L 222.998329 170.924309 
L 224.623227 174.643919 
L 226.248124 178.934176 
L 227.548043 182.910858 
L 228.847961 187.542737 
L 230.147879 193.087 
L 231.122817 198.100542 
L 232.097756 204.19785 
L 233.072695 211.978656 
L 233.722654 218.681796 
L 234.372613 227.47755 
L 235.022572 240.296428 
L 235.347551 249.839559 
L 235.672531 264.327993 
L 235.99751 295.488 
L 236.32249 295.488 
L 236.647469 264.327993 
L 237.297428 240.296428 
L 237.947387 227.47755 
L 238.597346 218.681796 
L 239.572285 209.14091 
L 240.547224 202.016208 
L 241.522162 196.328764 
L 242.82208 190.179052 
L 244.121998 185.13179 
L 245.421916 180.852319 
L 247.046814 176.282163 
L 248.671712 172.353331 
L 250.621589 168.268777 
L 252.571466 164.707975 
L 254.846323 161.06152 
L 257.121179 157.843177 
L 259.721016 154.578316 
L 262.320852 151.666972 
L 265.245667 148.732875 
L 268.495463 145.81756 
L 271.745258 143.199727 
L 275.320033 140.60398 
L 279.219787 138.054839 
L 283.444521 135.571382 
L 287.994234 133.168476 
L 292.868927 130.857817 
L 298.0686 128.648807 
L 303.593251 126.549249 
L 309.442883 124.565917 
L 315.617494 122.70501 
L 322.117084 120.972521 
L 329.266634 119.303681 
L 336.741163 117.795361 
L 344.540672 116.453086 
L 352.66516 115.283714 
L 361.114627 114.295667 
L 369.889075 113.499228 
L 378.663522 112.924094 
L 387.762948 112.552007 
L 396.862375 112.40251 
L 398.487273 112.399004 
L 398.487273 112.399004 
" style="fill:none;stroke:#d62728;stroke-linecap:square;stroke-width:1.5;"/>
   </g>
   <g id="line2d_86">
    <path clip-path="url(#pcb9745baa6)" d="M 73.832727 107.627298 
L 80.007338 107.73538 
L 86.506929 108.0773 
L 93.331499 108.670845 
L 100.481048 109.52115 
L 108.280557 110.67448 
L 117.055004 112.201761 
L 126.80439 114.130244 
L 137.203735 116.418129 
L 147.603079 118.936688 
L 157.352465 121.524436 
L 166.451892 124.164928 
L 174.90136 126.83895 
L 183.025848 129.63505 
L 191.150336 132.667011 
L 199.599803 136.067119 
L 209.999148 140.515936 
L 221.048452 145.208342 
L 226.248124 147.16836 
L 230.147879 148.417359 
L 233.722654 149.330768 
L 236.972449 149.926026 
L 239.897265 150.245318 
L 242.82208 150.346658 
L 245.746896 150.228074 
L 248.671712 149.898135 
L 251.921507 149.305599 
L 255.496282 148.418921 
L 259.721016 147.123632 
L 264.920688 145.281988 
L 274.020115 141.772869 
L 285.394398 137.447643 
L 293.193907 134.718366 
L 300.668436 132.33307 
L 308.142965 130.180024 
L 315.617494 128.253185 
L 323.417002 126.471616 
L 331.541491 124.849303 
L 339.665979 123.449784 
L 348.115446 122.215552 
L 356.889894 121.158425 
L 365.98932 120.290857 
L 375.088747 119.645602 
L 384.513153 119.203342 
L 393.937559 118.985503 
L 398.487273 118.959733 
L 398.487273 118.959733 
" style="fill:none;stroke:#9467bd;stroke-linecap:square;stroke-width:1.5;"/>
   </g>
   <g id="line2d_87">
    <path clip-path="url(#pcb9745baa6)" d="M 73.832727 102.569086 
L 79.0324 102.676502 
L 84.557052 103.022006 
L 90.081704 103.593696 
L 95.931335 104.42392 
L 102.430925 105.582654 
L 109.580475 107.092554 
L 118.029943 109.114474 
L 129.079247 112.002964 
L 173.601441 123.884281 
L 186.925602 127.081927 
L 199.924783 129.970717 
L 212.923964 132.626426 
L 225.923145 135.052292 
L 239.247305 137.307983 
L 252.571466 139.33976 
L 266.220606 141.199665 
L 280.194726 142.882719 
L 294.493825 144.384159 
L 309.117903 145.699035 
L 324.066962 146.821896 
L 339.340999 147.746516 
L 354.940016 148.465653 
L 370.539034 148.962778 
L 386.46303 149.245213 
L 398.487273 149.309237 
L 398.487273 149.309237 
" style="fill:none;stroke:#8c564b;stroke-linecap:square;stroke-width:1.5;"/>
   </g>
   <g id="line2d_88">
    <path clip-path="url(#pcb9745baa6)" d="M 73.832727 112.399004 
L 82.932154 112.509099 
L 92.031581 112.84111 
L 101.131007 113.400313 
L 109.905455 114.163261 
L 118.354922 115.117001 
L 126.47941 116.25082 
L 134.278919 117.555847 
L 141.753448 119.024748 
L 148.902998 120.651472 
L 155.727568 122.431035 
L 162.227158 124.359328 
L 168.07679 126.317332 
L 173.601441 128.38929 
L 178.801114 130.568091 
L 183.675807 132.845571 
L 188.22552 135.211956 
L 192.450254 137.655177 
L 196.350008 140.160031 
L 199.924783 142.707184 
L 203.174578 145.27202 
L 206.424373 148.123054 
L 209.349189 150.986216 
L 211.949025 153.820276 
L 214.548862 156.989342 
L 216.823718 160.10271 
L 219.098575 163.616003 
L 221.048452 167.030364 
L 222.998329 170.924309 
L 224.623227 174.643919 
L 226.248124 178.934176 
L 227.548043 182.910858 
L 228.847961 187.542737 
L 230.147879 193.087 
L 231.122817 198.100542 
L 232.097756 204.19785 
L 233.072695 211.978656 
L 233.722654 218.681796 
L 234.372613 227.47755 
L 235.022572 240.296428 
L 235.347551 249.839559 
L 235.672531 264.327993 
L 235.99751 295.488 
L 236.32249 295.488 
L 236.647469 264.327993 
L 237.297428 240.296428 
L 237.947387 227.47755 
L 238.597346 218.681796 
L 239.572285 209.14091 
L 240.547224 202.016208 
L 241.522162 196.328764 
L 242.82208 190.179052 
L 244.121998 185.13179 
L 245.421916 180.852319 
L 247.046814 176.282163 
L 248.671712 172.353331 
L 250.621589 168.268777 
L 252.571466 164.707975 
L 254.846323 161.06152 
L 257.121179 157.843177 
L 259.721016 154.578316 
L 262.320852 151.666972 
L 265.245667 148.732875 
L 268.495463 145.81756 
L 271.745258 143.199727 
L 275.320033 140.60398 
L 279.219787 138.054839 
L 283.444521 135.571382 
L 287.994234 133.168476 
L 292.868927 130.857817 
L 298.0686 128.648807 
L 303.593251 126.549249 
L 309.442883 124.565917 
L 315.617494 122.70501 
L 322.117084 120.972521 
L 329.266634 119.303681 
L 336.741163 117.795361 
L 344.540672 116.453086 
L 352.66516 115.283714 
L 361.114627 114.295667 
L 369.889075 113.499228 
L 378.663522 112.924094 
L 387.762948 112.552007 
L 396.862375 112.40251 
L 398.487273 112.399004 
L 398.487273 112.399004 
" style="fill:none;stroke:#e377c2;stroke-linecap:square;stroke-width:1.5;"/>
   </g>
   <g id="line2d_89">
    <path clip-path="url(#pcb9745baa6)" d="M 73.832727 66.23048 
L 74.807666 66.39628 
L 75.782604 66.885605 
L 76.757543 67.675449 
L 77.732482 68.731158 
L 79.0324 70.479464 
L 80.657297 73.064637 
L 83.257133 77.692925 
L 88.131826 86.444904 
L 91.056642 91.189727 
L 93.656478 94.970646 
L 96.256314 98.335209 
L 98.856151 101.305922 
L 101.455987 103.917738 
L 104.055823 106.210598 
L 106.655659 108.225248 
L 109.580475 110.207804 
L 112.83027 112.117757 
L 116.405045 113.933423 
L 120.304799 115.651632 
L 124.854513 117.403309 
L 130.379165 119.284667 
L 138.178673 121.688101 
L 159.302342 128.089823 
L 166.776871 130.636781 
L 173.276462 133.071759 
L 179.451073 135.624818 
L 184.975725 138.149798 
L 190.175397 140.774316 
L 195.05009 143.492864 
L 199.599803 146.294404 
L 203.824537 149.161264 
L 207.724292 152.067592 
L 211.624046 155.254684 
L 215.5238 158.747337 
L 219.423554 162.548725 
L 224.298247 167.636638 
L 228.847961 172.336442 
L 231.122817 174.393517 
L 232.747715 175.613099 
L 234.372613 176.541292 
L 235.672531 177.028656 
L 236.972449 177.261353 
L 238.272367 177.226933 
L 239.572285 176.927798 
L 240.872203 176.380773 
L 242.172121 175.6142 
L 243.797019 174.401597 
L 245.746896 172.670786 
L 248.671712 169.748685 
L 257.446159 160.78473 
L 261.345913 157.196902 
L 265.245667 153.922688 
L 269.145422 150.945125 
L 273.045176 148.235864 
L 277.26991 145.569128 
L 281.819623 142.97059 
L 286.694316 140.459686 
L 291.569009 138.194162 
L 296.768681 136.012931 
L 302.293333 133.927965 
L 308.142965 131.949265 
L 314.642555 129.993279 
L 321.467125 128.181867 
L 328.616675 126.520405 
L 336.091204 125.014696 
L 343.890713 123.671285 
L 352.015201 122.497746 
L 360.464668 121.502984 
L 369.239115 120.697575 
L 378.013563 120.111771 
L 387.112989 119.726976 
L 396.212416 119.563099 
L 398.487273 119.556284 
L 398.487273 119.556284 
" style="fill:none;stroke:#7f7f7f;stroke-linecap:square;stroke-width:1.5;"/>
   </g>
   <g id="line2d_90">
    <path clip-path="url(#pcb9745baa6)" d="M 73.832727 53.568 
L 74.482686 53.643599 
L 75.457625 54.036134 
L 76.432563 54.746418 
L 77.407502 55.743563 
L 78.70742 57.450357 
L 80.332318 60.0447 
L 82.607174 64.200706 
L 91.381622 80.752193 
L 94.631417 86.18439 
L 97.881212 91.151374 
L 101.131007 95.690122 
L 104.380803 99.847797 
L 107.955577 104.036132 
L 111.530352 107.87405 
L 115.430106 111.715982 
L 119.329861 115.247003 
L 123.554595 118.769482 
L 128.104308 122.258758 
L 132.654021 125.475199 
L 137.528714 128.658851 
L 142.728387 131.794334 
L 148.253038 134.8694 
L 154.10267 137.874363 
L 160.277281 140.8016 
L 166.776871 143.645111 
L 173.926421 146.525944 
L 181.40095 149.294614 
L 189.200459 151.950301 
L 197.649926 154.589649 
L 206.424373 157.09851 
L 215.84878 159.559064 
L 225.598165 161.876435 
L 235.99751 164.119007 
L 247.046814 166.26802 
L 258.421097 168.252399 
L 270.44534 170.121213 
L 282.794562 171.815832 
L 295.793743 173.372488 
L 309.117903 174.743068 
L 322.767043 175.925547 
L 336.741163 176.91639 
L 351.040262 177.710494 
L 365.664341 178.301071 
L 380.613399 178.679478 
L 395.562457 178.834078 
L 398.487273 178.838327 
L 398.487273 178.838327 
" style="fill:none;stroke:#bcbd22;stroke-linecap:square;stroke-width:1.5;"/>
   </g>
   <g id="patch_3">
    <path d="M 57.6 307.584 
L 57.6 41.472 
" style="fill:none;stroke:#000000;stroke-linecap:square;stroke-linejoin:miter;stroke-width:0.8;"/>
   </g>
   <g id="patch_4">
    <path d="M 414.72 307.584 
L 414.72 41.472 
" style="fill:none;stroke:#000000;stroke-linecap:square;stroke-linejoin:miter;stroke-width:0.8;"/>
   </g>
   <g id="patch_5">
    <path d="M 57.6 307.584 
L 414.72 307.584 
" style="fill:none;stroke:#000000;stroke-linecap:square;stroke-linejoin:miter;stroke-width:0.8;"/>
   </g>
   <g id="patch_6">
    <path d="M 57.6 41.472 
L 414.72 41.472 
" style="fill:none;stroke:#000000;stroke-linecap:square;stroke-linejoin:miter;stroke-width:0.8;"/>
   </g>
   <g id="legend_1">
    <g id="patch_7">
     <path d="M 64.6 302.584 
L 172.1 302.584 
Q 174.1 302.584 174.1 300.584 
L 174.1 168.384 
Q 174.1 166.384 172.1 166.384 
L 64.6 166.384 
Q 62.6 166.384 62.6 168.384 
L 62.6 300.584 
Q 62.6 302.584 64.6 302.584 
z
" style="fill:#ffffff;opacity:0.8;stroke:#cccccc;stroke-linejoin:miter;"/>
    </g>
    <g id="line2d_91">
     <path d="M 66.6 174.584 
L 86.6 174.584 
" style="fill:none;stroke:#1f77b4;stroke-linecap:square;stroke-width:1.5;"/>
    </g>
    <g id="line2d_92"/>
    <g id="text_18">
     <!-- $g=$0.1, $\beta=$0.0 -->
     <defs>
      <path d="M 59.625 54.6875 
L 50.296875 6.78125 
Q 47.609375 -7.125 40.015625 -13.953125 
Q 32.421875 -20.796875 19.578125 -20.796875 
Q 14.84375 -20.796875 10.78125 -20.09375 
Q 6.734375 -19.390625 3.21875 -17.921875 
L 4.890625 -9.1875 
Q 8.203125 -11.328125 11.90625 -12.34375 
Q 15.625 -13.375 19.828125 -13.375 
Q 28.375 -13.375 33.859375 -8.703125 
Q 39.359375 -4.046875 41.109375 4.6875 
L 41.890625 8.796875 
Q 38.140625 4.5 33.15625 2.25 
Q 28.171875 0 22.40625 0 
Q 14.109375 0 9.34375 5.484375 
Q 4.59375 10.984375 4.59375 20.609375 
Q 4.59375 28.171875 7.46875 35.421875 
Q 10.359375 42.671875 15.578125 48.296875 
Q 19.046875 52 23.65625 54 
Q 28.265625 56 33.296875 56 
Q 38.8125 56 42.90625 53.4375 
Q 47.015625 50.875 49.03125 46.1875 
L 50.59375 54.6875 
z
M 46.09375 34.625 
Q 46.09375 41.265625 42.96875 44.875 
Q 39.84375 48.484375 34.078125 48.484375 
Q 30.515625 48.484375 27.296875 47.0625 
Q 24.078125 45.65625 21.78125 43.109375 
Q 18.0625 38.921875 15.984375 33.234375 
Q 13.921875 27.546875 13.921875 21.484375 
Q 13.921875 14.75 17.0625 11.125 
Q 20.21875 7.515625 26.125 7.515625 
Q 34.671875 7.515625 40.375 15.25 
Q 46.09375 23 46.09375 34.625 
z
" id="DejaVuSans-Oblique-103"/>
      <path d="M 10.59375 45.40625 
L 73.1875 45.40625 
L 73.1875 37.203125 
L 10.59375 37.203125 
z
M 10.59375 25.484375 
L 73.1875 25.484375 
L 73.1875 17.1875 
L 10.59375 17.1875 
z
" id="DejaVuSans-61"/>
      <path d="M 10.6875 12.40625 
L 21 12.40625 
L 21 0 
L 10.6875 0 
z
" id="DejaVuSans-46"/>
      <path d="M 11.71875 12.40625 
L 22.015625 12.40625 
L 22.015625 4 
L 14.015625 -11.625 
L 7.71875 -11.625 
L 11.71875 4 
z
" id="DejaVuSans-44"/>
      <path d="M 13.625 3.375 
L 8.9375 -20.796875 
L -0.09375 -20.796875 
L 14.5 54.34375 
Q 18.84375 76.609375 39.65625 76.609375 
Q 60.75 76.609375 57.171875 57.8125 
Q 54.734375 44.4375 45.21875 39.546875 
Q 58.015625 35.15625 55.515625 22.125 
Q 51.125 -1.078125 27.484375 -1.03125 
Q 17.140625 -0.984375 13.625 3.375 
z
M 15.921875 15.09375 
Q 19.671875 6.59375 29.296875 6.640625 
Q 43.359375 6.640625 46.34375 21.96875 
Q 49.03125 35.75 26.171875 34.671875 
L 27.78125 42.96875 
Q 45.453125 42.671875 48.53125 58.59375 
Q 50.640625 69.34375 39.203125 69.28125 
Q 26.421875 69.28125 23.484375 54.046875 
z
" id="DejaVuSans-Oblique-946"/>
     </defs>
     <g transform="translate(94.6 178.084)scale(0.1 -0.1)">
      <use transform="translate(0 0.390625)" xlink:href="#DejaVuSans-Oblique-103"/>
      <use transform="translate(82.958984 0.390625)" xlink:href="#DejaVuSans-61"/>
      <use transform="translate(186.230469 0.390625)" xlink:href="#DejaVuSans-48"/>
      <use transform="translate(249.853516 0.390625)" xlink:href="#DejaVuSans-46"/>
      <use transform="translate(281.640625 0.390625)" xlink:href="#DejaVuSans-49"/>
      <use transform="translate(345.263672 0.390625)" xlink:href="#DejaVuSans-44"/>
      <use transform="translate(377.050781 0.390625)" xlink:href="#DejaVuSans-32"/>
      <use transform="translate(408.837891 0.390625)" xlink:href="#DejaVuSans-Oblique-946"/>
      <use transform="translate(492.138672 0.390625)" xlink:href="#DejaVuSans-61"/>
      <use transform="translate(595.410156 0.390625)" xlink:href="#DejaVuSans-48"/>
      <use transform="translate(659.033203 0.390625)" xlink:href="#DejaVuSans-46"/>
      <use transform="translate(690.820312 0.390625)" xlink:href="#DejaVuSans-48"/>
     </g>
    </g>
    <g id="line2d_93">
     <path d="M 66.6 189.384 
L 86.6 189.384 
" style="fill:none;stroke:#ff7f0e;stroke-linecap:square;stroke-width:1.5;"/>
    </g>
    <g id="line2d_94"/>
    <g id="text_19">
     <!-- $g=$0.1, $\beta=$0.4 -->
     <g transform="translate(94.6 192.884)scale(0.1 -0.1)">
      <use transform="translate(0 0.390625)" xlink:href="#DejaVuSans-Oblique-103"/>
      <use transform="translate(82.958984 0.390625)" xlink:href="#DejaVuSans-61"/>
      <use transform="translate(186.230469 0.390625)" xlink:href="#DejaVuSans-48"/>
      <use transform="translate(249.853516 0.390625)" xlink:href="#DejaVuSans-46"/>
      <use transform="translate(281.640625 0.390625)" xlink:href="#DejaVuSans-49"/>
      <use transform="translate(345.263672 0.390625)" xlink:href="#DejaVuSans-44"/>
      <use transform="translate(377.050781 0.390625)" xlink:href="#DejaVuSans-32"/>
      <use transform="translate(408.837891 0.390625)" xlink:href="#DejaVuSans-Oblique-946"/>
      <use transform="translate(492.138672 0.390625)" xlink:href="#DejaVuSans-61"/>
      <use transform="translate(595.410156 0.390625)" xlink:href="#DejaVuSans-48"/>
      <use transform="translate(659.033203 0.390625)" xlink:href="#DejaVuSans-46"/>
      <use transform="translate(690.820312 0.390625)" xlink:href="#DejaVuSans-52"/>
     </g>
    </g>
    <g id="line2d_95">
     <path d="M 66.6 204.184 
L 86.6 204.184 
" style="fill:none;stroke:#2ca02c;stroke-linecap:square;stroke-width:1.5;"/>
    </g>
    <g id="line2d_96"/>
    <g id="text_20">
     <!-- $g=$0.1, $\beta=$1.0 -->
     <g transform="translate(94.6 207.684)scale(0.1 -0.1)">
      <use transform="translate(0 0.390625)" xlink:href="#DejaVuSans-Oblique-103"/>
      <use transform="translate(82.958984 0.390625)" xlink:href="#DejaVuSans-61"/>
      <use transform="translate(186.230469 0.390625)" xlink:href="#DejaVuSans-48"/>
      <use transform="translate(249.853516 0.390625)" xlink:href="#DejaVuSans-46"/>
      <use transform="translate(281.640625 0.390625)" xlink:href="#DejaVuSans-49"/>
      <use transform="translate(345.263672 0.390625)" xlink:href="#DejaVuSans-44"/>
      <use transform="translate(377.050781 0.390625)" xlink:href="#DejaVuSans-32"/>
      <use transform="translate(408.837891 0.390625)" xlink:href="#DejaVuSans-Oblique-946"/>
      <use transform="translate(492.138672 0.390625)" xlink:href="#DejaVuSans-61"/>
      <use transform="translate(595.410156 0.390625)" xlink:href="#DejaVuSans-49"/>
      <use transform="translate(659.033203 0.390625)" xlink:href="#DejaVuSans-46"/>
      <use transform="translate(690.820312 0.390625)" xlink:href="#DejaVuSans-48"/>
     </g>
    </g>
    <g id="line2d_97">
     <path d="M 66.6 218.984 
L 86.6 218.984 
" style="fill:none;stroke:#d62728;stroke-linecap:square;stroke-width:1.5;"/>
    </g>
    <g id="line2d_98"/>
    <g id="text_21">
     <!-- $g=$0.5, $\beta=$0.0 -->
     <g transform="translate(94.6 222.484)scale(0.1 -0.1)">
      <use transform="translate(0 0.390625)" xlink:href="#DejaVuSans-Oblique-103"/>
      <use transform="translate(82.958984 0.390625)" xlink:href="#DejaVuSans-61"/>
      <use transform="translate(186.230469 0.390625)" xlink:href="#DejaVuSans-48"/>
      <use transform="translate(249.853516 0.390625)" xlink:href="#DejaVuSans-46"/>
      <use transform="translate(281.640625 0.390625)" xlink:href="#DejaVuSans-53"/>
      <use transform="translate(345.263672 0.390625)" xlink:href="#DejaVuSans-44"/>
      <use transform="translate(377.050781 0.390625)" xlink:href="#DejaVuSans-32"/>
      <use transform="translate(408.837891 0.390625)" xlink:href="#DejaVuSans-Oblique-946"/>
      <use transform="translate(492.138672 0.390625)" xlink:href="#DejaVuSans-61"/>
      <use transform="translate(595.410156 0.390625)" xlink:href="#DejaVuSans-48"/>
      <use transform="translate(659.033203 0.390625)" xlink:href="#DejaVuSans-46"/>
      <use transform="translate(690.820312 0.390625)" xlink:href="#DejaVuSans-48"/>
     </g>
    </g>
    <g id="line2d_99">
     <path d="M 66.6 233.784 
L 86.6 233.784 
" style="fill:none;stroke:#9467bd;stroke-linecap:square;stroke-width:1.5;"/>
    </g>
    <g id="line2d_100"/>
    <g id="text_22">
     <!-- $g=$0.5, $\beta=$0.4 -->
     <g transform="translate(94.6 237.284)scale(0.1 -0.1)">
      <use transform="translate(0 0.390625)" xlink:href="#DejaVuSans-Oblique-103"/>
      <use transform="translate(82.958984 0.390625)" xlink:href="#DejaVuSans-61"/>
      <use transform="translate(186.230469 0.390625)" xlink:href="#DejaVuSans-48"/>
      <use transform="translate(249.853516 0.390625)" xlink:href="#DejaVuSans-46"/>
      <use transform="translate(281.640625 0.390625)" xlink:href="#DejaVuSans-53"/>
      <use transform="translate(345.263672 0.390625)" xlink:href="#DejaVuSans-44"/>
      <use transform="translate(377.050781 0.390625)" xlink:href="#DejaVuSans-32"/>
      <use transform="translate(408.837891 0.390625)" xlink:href="#DejaVuSans-Oblique-946"/>
      <use transform="translate(492.138672 0.390625)" xlink:href="#DejaVuSans-61"/>
      <use transform="translate(595.410156 0.390625)" xlink:href="#DejaVuSans-48"/>
      <use transform="translate(659.033203 0.390625)" xlink:href="#DejaVuSans-46"/>
      <use transform="translate(690.820312 0.390625)" xlink:href="#DejaVuSans-52"/>
     </g>
    </g>
    <g id="line2d_101">
     <path d="M 66.6 248.584 
L 86.6 248.584 
" style="fill:none;stroke:#8c564b;stroke-linecap:square;stroke-width:1.5;"/>
    </g>
    <g id="line2d_102"/>
    <g id="text_23">
     <!-- $g=$0.5, $\beta=$1.0 -->
     <g transform="translate(94.6 252.084)scale(0.1 -0.1)">
      <use transform="translate(0 0.390625)" xlink:href="#DejaVuSans-Oblique-103"/>
      <use transform="translate(82.958984 0.390625)" xlink:href="#DejaVuSans-61"/>
      <use transform="translate(186.230469 0.390625)" xlink:href="#DejaVuSans-48"/>
      <use transform="translate(249.853516 0.390625)" xlink:href="#DejaVuSans-46"/>
      <use transform="translate(281.640625 0.390625)" xlink:href="#DejaVuSans-53"/>
      <use transform="translate(345.263672 0.390625)" xlink:href="#DejaVuSans-44"/>
      <use transform="translate(377.050781 0.390625)" xlink:href="#DejaVuSans-32"/>
      <use transform="translate(408.837891 0.390625)" xlink:href="#DejaVuSans-Oblique-946"/>
      <use transform="translate(492.138672 0.390625)" xlink:href="#DejaVuSans-61"/>
      <use transform="translate(595.410156 0.390625)" xlink:href="#DejaVuSans-49"/>
      <use transform="translate(659.033203 0.390625)" xlink:href="#DejaVuSans-46"/>
      <use transform="translate(690.820312 0.390625)" xlink:href="#DejaVuSans-48"/>
     </g>
    </g>
    <g id="line2d_103">
     <path d="M 66.6 263.384 
L 86.6 263.384 
" style="fill:none;stroke:#e377c2;stroke-linecap:square;stroke-width:1.5;"/>
    </g>
    <g id="line2d_104"/>
    <g id="text_24">
     <!-- $g=$0.9, $\beta=$0.0 -->
     <defs>
      <path d="M 10.984375 1.515625 
L 10.984375 10.5 
Q 14.703125 8.734375 18.5 7.8125 
Q 22.3125 6.890625 25.984375 6.890625 
Q 35.75 6.890625 40.890625 13.453125 
Q 46.046875 20.015625 46.78125 33.40625 
Q 43.953125 29.203125 39.59375 26.953125 
Q 35.25 24.703125 29.984375 24.703125 
Q 19.046875 24.703125 12.671875 31.3125 
Q 6.296875 37.9375 6.296875 49.421875 
Q 6.296875 60.640625 12.9375 67.421875 
Q 19.578125 74.21875 30.609375 74.21875 
Q 43.265625 74.21875 49.921875 64.515625 
Q 56.59375 54.828125 56.59375 36.375 
Q 56.59375 19.140625 48.40625 8.859375 
Q 40.234375 -1.421875 26.421875 -1.421875 
Q 22.703125 -1.421875 18.890625 -0.6875 
Q 15.09375 0.046875 10.984375 1.515625 
z
M 30.609375 32.421875 
Q 37.25 32.421875 41.125 36.953125 
Q 45.015625 41.5 45.015625 49.421875 
Q 45.015625 57.28125 41.125 61.84375 
Q 37.25 66.40625 30.609375 66.40625 
Q 23.96875 66.40625 20.09375 61.84375 
Q 16.21875 57.28125 16.21875 49.421875 
Q 16.21875 41.5 20.09375 36.953125 
Q 23.96875 32.421875 30.609375 32.421875 
z
" id="DejaVuSans-57"/>
     </defs>
     <g transform="translate(94.6 266.884)scale(0.1 -0.1)">
      <use transform="translate(0 0.390625)" xlink:href="#DejaVuSans-Oblique-103"/>
      <use transform="translate(82.958984 0.390625)" xlink:href="#DejaVuSans-61"/>
      <use transform="translate(186.230469 0.390625)" xlink:href="#DejaVuSans-48"/>
      <use transform="translate(249.853516 0.390625)" xlink:href="#DejaVuSans-46"/>
      <use transform="translate(281.640625 0.390625)" xlink:href="#DejaVuSans-57"/>
      <use transform="translate(345.263672 0.390625)" xlink:href="#DejaVuSans-44"/>
      <use transform="translate(377.050781 0.390625)" xlink:href="#DejaVuSans-32"/>
      <use transform="translate(408.837891 0.390625)" xlink:href="#DejaVuSans-Oblique-946"/>
      <use transform="translate(492.138672 0.390625)" xlink:href="#DejaVuSans-61"/>
      <use transform="translate(595.410156 0.390625)" xlink:href="#DejaVuSans-48"/>
      <use transform="translate(659.033203 0.390625)" xlink:href="#DejaVuSans-46"/>
      <use transform="translate(690.820312 0.390625)" xlink:href="#DejaVuSans-48"/>
     </g>
    </g>
    <g id="line2d_105">
     <path d="M 66.6 278.184 
L 86.6 278.184 
" style="fill:none;stroke:#7f7f7f;stroke-linecap:square;stroke-width:1.5;"/>
    </g>
    <g id="line2d_106"/>
    <g id="text_25">
     <!-- $g=$0.9, $\beta=$0.4 -->
     <g transform="translate(94.6 281.684)scale(0.1 -0.1)">
      <use transform="translate(0 0.390625)" xlink:href="#DejaVuSans-Oblique-103"/>
      <use transform="translate(82.958984 0.390625)" xlink:href="#DejaVuSans-61"/>
      <use transform="translate(186.230469 0.390625)" xlink:href="#DejaVuSans-48"/>
      <use transform="translate(249.853516 0.390625)" xlink:href="#DejaVuSans-46"/>
      <use transform="translate(281.640625 0.390625)" xlink:href="#DejaVuSans-57"/>
      <use transform="translate(345.263672 0.390625)" xlink:href="#DejaVuSans-44"/>
      <use transform="translate(377.050781 0.390625)" xlink:href="#DejaVuSans-32"/>
      <use transform="translate(408.837891 0.390625)" xlink:href="#DejaVuSans-Oblique-946"/>
      <use transform="translate(492.138672 0.390625)" xlink:href="#DejaVuSans-61"/>
      <use transform="translate(595.410156 0.390625)" xlink:href="#DejaVuSans-48"/>
      <use transform="translate(659.033203 0.390625)" xlink:href="#DejaVuSans-46"/>
      <use transform="translate(690.820312 0.390625)" xlink:href="#DejaVuSans-52"/>
     </g>
    </g>
    <g id="line2d_107">
     <path d="M 66.6 292.984 
L 86.6 292.984 
" style="fill:none;stroke:#bcbd22;stroke-linecap:square;stroke-width:1.5;"/>
    </g>
    <g id="line2d_108"/>
    <g id="text_26">
     <!-- $g=$0.9, $\beta=$1.0 -->
     <g transform="translate(94.6 296.484)scale(0.1 -0.1)">
      <use transform="translate(0 0.390625)" xlink:href="#DejaVuSans-Oblique-103"/>
      <use transform="translate(82.958984 0.390625)" xlink:href="#DejaVuSans-61"/>
      <use transform="translate(186.230469 0.390625)" xlink:href="#DejaVuSans-48"/>
      <use transform="translate(249.853516 0.390625)" xlink:href="#DejaVuSans-46"/>
      <use transform="translate(281.640625 0.390625)" xlink:href="#DejaVuSans-57"/>
      <use transform="translate(345.263672 0.390625)" xlink:href="#DejaVuSans-44"/>
      <use transform="translate(377.050781 0.390625)" xlink:href="#DejaVuSans-32"/>
      <use transform="translate(408.837891 0.390625)" xlink:href="#DejaVuSans-Oblique-946"/>
      <use transform="translate(492.138672 0.390625)" xlink:href="#DejaVuSans-61"/>
      <use transform="translate(595.410156 0.390625)" xlink:href="#DejaVuSans-49"/>
      <use transform="translate(659.033203 0.390625)" xlink:href="#DejaVuSans-46"/>
      <use transform="translate(690.820312 0.390625)" xlink:href="#DejaVuSans-48"/>
     </g>
    </g>
   </g>
  </g>
 </g>
 <defs>
  <clipPath id="pcb9745baa6">
   <rect height="266.112" width="357.12" x="57.6" y="41.472"/>
  </clipPath>
 </defs>
</svg>
