<?xml version="1.0" encoding="utf-8" standalone="no"?>
<!DOCTYPE svg PUBLIC "-//W3C//DTD SVG 1.1//EN"
  "http://www.w3.org/Graphics/SVG/1.1/DTD/svg11.dtd">
<!-- Created with matplotlib (https://matplotlib.org/) -->
<svg height="345.6pt" version="1.1" viewBox="0 0 460.8 345.6" width="460.8pt" xmlns="http://www.w3.org/2000/svg" xmlns:xlink="http://www.w3.org/1999/xlink">
 <defs>
  <style type="text/css">
*{stroke-linecap:butt;stroke-linejoin:round;}
  </style>
 </defs>
 <g id="figure_1">
  <g id="patch_1">
   <path d="M 0 345.6 
L 460.8 345.6 
L 460.8 0 
L 0 0 
z
" style="fill:#ffffff;"/>
  </g>
  <g id="axes_1">
   <g id="patch_2">
    <path d="M 57.6 307.584 
L 414.72 307.584 
L 414.72 41.472 
L 57.6 41.472 
z
" style="fill:#ffffff;"/>
   </g>
   <g id="matplotlib.axis_1">
    <g id="xtick_1">
     <g id="line2d_1">
      <defs>
       <path d="M 0 0 
L 0 3.5 
" id="mea8c282101" style="stroke:#000000;stroke-width:0.8;"/>
      </defs>
      <g>
       <use style="stroke:#000000;stroke-width:0.8;" x="73.832727" xlink:href="#mea8c282101" y="307.584"/>
      </g>
     </g>
     <g id="text_1">
      <!-- 0 -->
      <defs>
       <path d="M 31.78125 66.40625 
Q 24.171875 66.40625 20.328125 58.90625 
Q 16.5 51.421875 16.5 36.375 
Q 16.5 21.390625 20.328125 13.890625 
Q 24.171875 6.390625 31.78125 6.390625 
Q 39.453125 6.390625 43.28125 13.890625 
Q 47.125 21.390625 47.125 36.375 
Q 47.125 51.421875 43.28125 58.90625 
Q 39.453125 66.40625 31.78125 66.40625 
z
M 31.78125 74.21875 
Q 44.046875 74.21875 50.515625 64.515625 
Q 56.984375 54.828125 56.984375 36.375 
Q 56.984375 17.96875 50.515625 8.265625 
Q 44.046875 -1.421875 31.78125 -1.421875 
Q 19.53125 -1.421875 13.0625 8.265625 
Q 6.59375 17.96875 6.59375 36.375 
Q 6.59375 54.828125 13.0625 64.515625 
Q 19.53125 74.21875 31.78125 74.21875 
z
" id="DejaVuSans-48"/>
      </defs>
      <g transform="translate(70.651477 322.182437)scale(0.1 -0.1)">
       <use xlink:href="#DejaVuSans-48"/>
      </g>
     </g>
    </g>
    <g id="xtick_2">
     <g id="line2d_2">
      <g>
       <use style="stroke:#000000;stroke-width:0.8;" x="118.923636" xlink:href="#mea8c282101" y="307.584"/>
      </g>
     </g>
     <g id="text_2">
      <!-- 25 -->
      <defs>
       <path d="M 19.1875 8.296875 
L 53.609375 8.296875 
L 53.609375 0 
L 7.328125 0 
L 7.328125 8.296875 
Q 12.9375 14.109375 22.625 23.890625 
Q 32.328125 33.6875 34.8125 36.53125 
Q 39.546875 41.84375 41.421875 45.53125 
Q 43.3125 49.21875 43.3125 52.78125 
Q 43.3125 58.59375 39.234375 62.25 
Q 35.15625 65.921875 28.609375 65.921875 
Q 23.96875 65.921875 18.8125 64.3125 
Q 13.671875 62.703125 7.8125 59.421875 
L 7.8125 69.390625 
Q 13.765625 71.78125 18.9375 73 
Q 24.125 74.21875 28.421875 74.21875 
Q 39.75 74.21875 46.484375 68.546875 
Q 53.21875 62.890625 53.21875 53.421875 
Q 53.21875 48.921875 51.53125 44.890625 
Q 49.859375 40.875 45.40625 35.40625 
Q 44.1875 33.984375 37.640625 27.21875 
Q 31.109375 20.453125 19.1875 8.296875 
z
" id="DejaVuSans-50"/>
       <path d="M 10.796875 72.90625 
L 49.515625 72.90625 
L 49.515625 64.59375 
L 19.828125 64.59375 
L 19.828125 46.734375 
Q 21.96875 47.46875 24.109375 47.828125 
Q 26.265625 48.1875 28.421875 48.1875 
Q 40.625 48.1875 47.75 41.5 
Q 54.890625 34.8125 54.890625 23.390625 
Q 54.890625 11.625 47.5625 5.09375 
Q 40.234375 -1.421875 26.90625 -1.421875 
Q 22.3125 -1.421875 17.546875 -0.640625 
Q 12.796875 0.140625 7.71875 1.703125 
L 7.71875 11.625 
Q 12.109375 9.234375 16.796875 8.0625 
Q 21.484375 6.890625 26.703125 6.890625 
Q 35.15625 6.890625 40.078125 11.328125 
Q 45.015625 15.765625 45.015625 23.390625 
Q 45.015625 31 40.078125 35.4375 
Q 35.15625 39.890625 26.703125 39.890625 
Q 22.75 39.890625 18.8125 39.015625 
Q 14.890625 38.140625 10.796875 36.28125 
z
" id="DejaVuSans-53"/>
      </defs>
      <g transform="translate(112.561136 322.182437)scale(0.1 -0.1)">
       <use xlink:href="#DejaVuSans-50"/>
       <use x="63.623047" xlink:href="#DejaVuSans-53"/>
      </g>
     </g>
    </g>
    <g id="xtick_3">
     <g id="line2d_3">
      <g>
       <use style="stroke:#000000;stroke-width:0.8;" x="164.014545" xlink:href="#mea8c282101" y="307.584"/>
      </g>
     </g>
     <g id="text_3">
      <!-- 50 -->
      <g transform="translate(157.652045 322.182437)scale(0.1 -0.1)">
       <use xlink:href="#DejaVuSans-53"/>
       <use x="63.623047" xlink:href="#DejaVuSans-48"/>
      </g>
     </g>
    </g>
    <g id="xtick_4">
     <g id="line2d_4">
      <g>
       <use style="stroke:#000000;stroke-width:0.8;" x="209.105455" xlink:href="#mea8c282101" y="307.584"/>
      </g>
     </g>
     <g id="text_4">
      <!-- 75 -->
      <defs>
       <path d="M 8.203125 72.90625 
L 55.078125 72.90625 
L 55.078125 68.703125 
L 28.609375 0 
L 18.3125 0 
L 43.21875 64.59375 
L 8.203125 64.59375 
z
" id="DejaVuSans-55"/>
      </defs>
      <g transform="translate(202.742955 322.182437)scale(0.1 -0.1)">
       <use xlink:href="#DejaVuSans-55"/>
       <use x="63.623047" xlink:href="#DejaVuSans-53"/>
      </g>
     </g>
    </g>
    <g id="xtick_5">
     <g id="line2d_5">
      <g>
       <use style="stroke:#000000;stroke-width:0.8;" x="254.196364" xlink:href="#mea8c282101" y="307.584"/>
      </g>
     </g>
     <g id="text_5">
      <!-- 100 -->
      <defs>
       <path d="M 12.40625 8.296875 
L 28.515625 8.296875 
L 28.515625 63.921875 
L 10.984375 60.40625 
L 10.984375 69.390625 
L 28.421875 72.90625 
L 38.28125 72.90625 
L 38.28125 8.296875 
L 54.390625 8.296875 
L 54.390625 0 
L 12.40625 0 
z
" id="DejaVuSans-49"/>
      </defs>
      <g transform="translate(244.652614 322.182437)scale(0.1 -0.1)">
       <use xlink:href="#DejaVuSans-49"/>
       <use x="63.623047" xlink:href="#DejaVuSans-48"/>
       <use x="127.246094" xlink:href="#DejaVuSans-48"/>
      </g>
     </g>
    </g>
    <g id="xtick_6">
     <g id="line2d_6">
      <g>
       <use style="stroke:#000000;stroke-width:0.8;" x="299.287273" xlink:href="#mea8c282101" y="307.584"/>
      </g>
     </g>
     <g id="text_6">
      <!-- 125 -->
      <g transform="translate(289.743523 322.182437)scale(0.1 -0.1)">
       <use xlink:href="#DejaVuSans-49"/>
       <use x="63.623047" xlink:href="#DejaVuSans-50"/>
       <use x="127.246094" xlink:href="#DejaVuSans-53"/>
      </g>
     </g>
    </g>
    <g id="xtick_7">
     <g id="line2d_7">
      <g>
       <use style="stroke:#000000;stroke-width:0.8;" x="344.378182" xlink:href="#mea8c282101" y="307.584"/>
      </g>
     </g>
     <g id="text_7">
      <!-- 150 -->
      <g transform="translate(334.834432 322.182437)scale(0.1 -0.1)">
       <use xlink:href="#DejaVuSans-49"/>
       <use x="63.623047" xlink:href="#DejaVuSans-53"/>
       <use x="127.246094" xlink:href="#DejaVuSans-48"/>
      </g>
     </g>
    </g>
    <g id="xtick_8">
     <g id="line2d_8">
      <g>
       <use style="stroke:#000000;stroke-width:0.8;" x="389.469091" xlink:href="#mea8c282101" y="307.584"/>
      </g>
     </g>
     <g id="text_8">
      <!-- 175 -->
      <g transform="translate(379.925341 322.182437)scale(0.1 -0.1)">
       <use xlink:href="#DejaVuSans-49"/>
       <use x="63.623047" xlink:href="#DejaVuSans-55"/>
       <use x="127.246094" xlink:href="#DejaVuSans-53"/>
      </g>
     </g>
    </g>
    <g id="text_9">
     <!-- Scattering angle $\Theta$ (°) -->
     <defs>
      <path d="M 53.515625 70.515625 
L 53.515625 60.890625 
Q 47.90625 63.578125 42.921875 64.890625 
Q 37.9375 66.21875 33.296875 66.21875 
Q 25.25 66.21875 20.875 63.09375 
Q 16.5 59.96875 16.5 54.203125 
Q 16.5 49.359375 19.40625 46.890625 
Q 22.3125 44.4375 30.421875 42.921875 
L 36.375 41.703125 
Q 47.40625 39.59375 52.65625 34.296875 
Q 57.90625 29 57.90625 20.125 
Q 57.90625 9.515625 50.796875 4.046875 
Q 43.703125 -1.421875 29.984375 -1.421875 
Q 24.8125 -1.421875 18.96875 -0.25 
Q 13.140625 0.921875 6.890625 3.21875 
L 6.890625 13.375 
Q 12.890625 10.015625 18.65625 8.296875 
Q 24.421875 6.59375 29.984375 6.59375 
Q 38.421875 6.59375 43.015625 9.90625 
Q 47.609375 13.234375 47.609375 19.390625 
Q 47.609375 24.75 44.3125 27.78125 
Q 41.015625 30.8125 33.5 32.328125 
L 27.484375 33.5 
Q 16.453125 35.6875 11.515625 40.375 
Q 6.59375 45.0625 6.59375 53.421875 
Q 6.59375 63.09375 13.40625 68.65625 
Q 20.21875 74.21875 32.171875 74.21875 
Q 37.3125 74.21875 42.625 73.28125 
Q 47.953125 72.359375 53.515625 70.515625 
z
" id="DejaVuSans-83"/>
      <path d="M 48.78125 52.59375 
L 48.78125 44.1875 
Q 44.96875 46.296875 41.140625 47.34375 
Q 37.3125 48.390625 33.40625 48.390625 
Q 24.65625 48.390625 19.8125 42.84375 
Q 14.984375 37.3125 14.984375 27.296875 
Q 14.984375 17.28125 19.8125 11.734375 
Q 24.65625 6.203125 33.40625 6.203125 
Q 37.3125 6.203125 41.140625 7.25 
Q 44.96875 8.296875 48.78125 10.40625 
L 48.78125 2.09375 
Q 45.015625 0.34375 40.984375 -0.53125 
Q 36.96875 -1.421875 32.421875 -1.421875 
Q 20.0625 -1.421875 12.78125 6.34375 
Q 5.515625 14.109375 5.515625 27.296875 
Q 5.515625 40.671875 12.859375 48.328125 
Q 20.21875 56 33.015625 56 
Q 37.15625 56 41.109375 55.140625 
Q 45.0625 54.296875 48.78125 52.59375 
z
" id="DejaVuSans-99"/>
      <path d="M 34.28125 27.484375 
Q 23.390625 27.484375 19.1875 25 
Q 14.984375 22.515625 14.984375 16.5 
Q 14.984375 11.71875 18.140625 8.90625 
Q 21.296875 6.109375 26.703125 6.109375 
Q 34.1875 6.109375 38.703125 11.40625 
Q 43.21875 16.703125 43.21875 25.484375 
L 43.21875 27.484375 
z
M 52.203125 31.203125 
L 52.203125 0 
L 43.21875 0 
L 43.21875 8.296875 
Q 40.140625 3.328125 35.546875 0.953125 
Q 30.953125 -1.421875 24.3125 -1.421875 
Q 15.921875 -1.421875 10.953125 3.296875 
Q 6 8.015625 6 15.921875 
Q 6 25.140625 12.171875 29.828125 
Q 18.359375 34.515625 30.609375 34.515625 
L 43.21875 34.515625 
L 43.21875 35.40625 
Q 43.21875 41.609375 39.140625 45 
Q 35.0625 48.390625 27.6875 48.390625 
Q 23 48.390625 18.546875 47.265625 
Q 14.109375 46.140625 10.015625 43.890625 
L 10.015625 52.203125 
Q 14.9375 54.109375 19.578125 55.046875 
Q 24.21875 56 28.609375 56 
Q 40.484375 56 46.34375 49.84375 
Q 52.203125 43.703125 52.203125 31.203125 
z
" id="DejaVuSans-97"/>
      <path d="M 18.3125 70.21875 
L 18.3125 54.6875 
L 36.8125 54.6875 
L 36.8125 47.703125 
L 18.3125 47.703125 
L 18.3125 18.015625 
Q 18.3125 11.328125 20.140625 9.421875 
Q 21.96875 7.515625 27.59375 7.515625 
L 36.8125 7.515625 
L 36.8125 0 
L 27.59375 0 
Q 17.1875 0 13.234375 3.875 
Q 9.28125 7.765625 9.28125 18.015625 
L 9.28125 47.703125 
L 2.6875 47.703125 
L 2.6875 54.6875 
L 9.28125 54.6875 
L 9.28125 70.21875 
z
" id="DejaVuSans-116"/>
      <path d="M 56.203125 29.59375 
L 56.203125 25.203125 
L 14.890625 25.203125 
Q 15.484375 15.921875 20.484375 11.0625 
Q 25.484375 6.203125 34.421875 6.203125 
Q 39.59375 6.203125 44.453125 7.46875 
Q 49.3125 8.734375 54.109375 11.28125 
L 54.109375 2.78125 
Q 49.265625 0.734375 44.1875 -0.34375 
Q 39.109375 -1.421875 33.890625 -1.421875 
Q 20.796875 -1.421875 13.15625 6.1875 
Q 5.515625 13.8125 5.515625 26.8125 
Q 5.515625 40.234375 12.765625 48.109375 
Q 20.015625 56 32.328125 56 
Q 43.359375 56 49.78125 48.890625 
Q 56.203125 41.796875 56.203125 29.59375 
z
M 47.21875 32.234375 
Q 47.125 39.59375 43.09375 43.984375 
Q 39.0625 48.390625 32.421875 48.390625 
Q 24.90625 48.390625 20.390625 44.140625 
Q 15.875 39.890625 15.1875 32.171875 
z
" id="DejaVuSans-101"/>
      <path d="M 41.109375 46.296875 
Q 39.59375 47.171875 37.8125 47.578125 
Q 36.03125 48 33.890625 48 
Q 26.265625 48 22.1875 43.046875 
Q 18.109375 38.09375 18.109375 28.8125 
L 18.109375 0 
L 9.078125 0 
L 9.078125 54.6875 
L 18.109375 54.6875 
L 18.109375 46.1875 
Q 20.953125 51.171875 25.484375 53.578125 
Q 30.03125 56 36.53125 56 
Q 37.453125 56 38.578125 55.875 
Q 39.703125 55.765625 41.0625 55.515625 
z
" id="DejaVuSans-114"/>
      <path d="M 9.421875 54.6875 
L 18.40625 54.6875 
L 18.40625 0 
L 9.421875 0 
z
M 9.421875 75.984375 
L 18.40625 75.984375 
L 18.40625 64.59375 
L 9.421875 64.59375 
z
" id="DejaVuSans-105"/>
      <path d="M 54.890625 33.015625 
L 54.890625 0 
L 45.90625 0 
L 45.90625 32.71875 
Q 45.90625 40.484375 42.875 44.328125 
Q 39.84375 48.1875 33.796875 48.1875 
Q 26.515625 48.1875 22.3125 43.546875 
Q 18.109375 38.921875 18.109375 30.90625 
L 18.109375 0 
L 9.078125 0 
L 9.078125 54.6875 
L 18.109375 54.6875 
L 18.109375 46.1875 
Q 21.34375 51.125 25.703125 53.5625 
Q 30.078125 56 35.796875 56 
Q 45.21875 56 50.046875 50.171875 
Q 54.890625 44.34375 54.890625 33.015625 
z
" id="DejaVuSans-110"/>
      <path d="M 45.40625 27.984375 
Q 45.40625 37.75 41.375 43.109375 
Q 37.359375 48.484375 30.078125 48.484375 
Q 22.859375 48.484375 18.828125 43.109375 
Q 14.796875 37.75 14.796875 27.984375 
Q 14.796875 18.265625 18.828125 12.890625 
Q 22.859375 7.515625 30.078125 7.515625 
Q 37.359375 7.515625 41.375 12.890625 
Q 45.40625 18.265625 45.40625 27.984375 
z
M 54.390625 6.78125 
Q 54.390625 -7.171875 48.1875 -13.984375 
Q 42 -20.796875 29.203125 -20.796875 
Q 24.46875 -20.796875 20.265625 -20.09375 
Q 16.0625 -19.390625 12.109375 -17.921875 
L 12.109375 -9.1875 
Q 16.0625 -11.328125 19.921875 -12.34375 
Q 23.78125 -13.375 27.78125 -13.375 
Q 36.625 -13.375 41.015625 -8.765625 
Q 45.40625 -4.15625 45.40625 5.171875 
L 45.40625 9.625 
Q 42.625 4.78125 38.28125 2.390625 
Q 33.9375 0 27.875 0 
Q 17.828125 0 11.671875 7.65625 
Q 5.515625 15.328125 5.515625 27.984375 
Q 5.515625 40.671875 11.671875 48.328125 
Q 17.828125 56 27.875 56 
Q 33.9375 56 38.28125 53.609375 
Q 42.625 51.21875 45.40625 46.390625 
L 45.40625 54.6875 
L 54.390625 54.6875 
z
" id="DejaVuSans-103"/>
      <path id="DejaVuSans-32"/>
      <path d="M 9.421875 75.984375 
L 18.40625 75.984375 
L 18.40625 0 
L 9.421875 0 
z
" id="DejaVuSans-108"/>
      <path d="M 22.125 42.96875 
L 56.59375 42.96875 
L 56.59375 34.671875 
L 22.125 34.671875 
z
M 39.40625 66.21875 
Q 28.65625 66.21875 22.359375 58.203125 
Q 16.015625 50.203125 16.015625 36.375 
Q 16.015625 22.609375 22.328125 14.59375 
Q 28.65625 6.59375 39.40625 6.59375 
Q 50.140625 6.59375 56.453125 14.59375 
Q 62.703125 22.609375 62.703125 36.375 
Q 62.703125 50.203125 56.453125 58.203125 
Q 50.140625 66.21875 39.40625 66.21875 
z
M 39.40625 74.21875 
Q 54.734375 74.21875 63.90625 63.9375 
Q 73.09375 53.65625 73.09375 36.375 
Q 73.09375 19.140625 63.921875 8.890625 
Q 54.734375 -1.421875 39.40625 -1.421875 
Q 24.03125 -1.421875 14.84375 8.84375 
Q 5.609375 19.09375 5.609375 36.375 
Q 5.609375 53.65625 14.84375 63.96875 
Q 24.03125 74.21875 39.40625 74.21875 
z
" id="DejaVuSans-920"/>
      <path d="M 31 75.875 
Q 24.46875 64.65625 21.28125 53.65625 
Q 18.109375 42.671875 18.109375 31.390625 
Q 18.109375 20.125 21.3125 9.0625 
Q 24.515625 -2 31 -13.1875 
L 23.1875 -13.1875 
Q 15.875 -1.703125 12.234375 9.375 
Q 8.59375 20.453125 8.59375 31.390625 
Q 8.59375 42.28125 12.203125 53.3125 
Q 15.828125 64.359375 23.1875 75.875 
z
" id="DejaVuSans-40"/>
      <path d="M 25 67.921875 
Q 21.09375 67.921875 18.40625 65.203125 
Q 15.71875 62.5 15.71875 58.59375 
Q 15.71875 54.734375 18.40625 52.078125 
Q 21.09375 49.421875 25 49.421875 
Q 28.90625 49.421875 31.59375 52.078125 
Q 34.28125 54.734375 34.28125 58.59375 
Q 34.28125 62.453125 31.5625 65.1875 
Q 28.859375 67.921875 25 67.921875 
z
M 25 74.21875 
Q 28.125 74.21875 31 73.015625 
Q 33.890625 71.828125 35.984375 69.578125 
Q 38.234375 67.390625 39.359375 64.59375 
Q 40.484375 61.8125 40.484375 58.59375 
Q 40.484375 52.15625 35.96875 47.6875 
Q 31.453125 43.21875 24.90625 43.21875 
Q 18.3125 43.21875 13.90625 47.609375 
Q 9.515625 52 9.515625 58.59375 
Q 9.515625 65.140625 14 69.671875 
Q 18.5 74.21875 25 74.21875 
z
" id="DejaVuSans-176"/>
      <path d="M 8.015625 75.875 
L 15.828125 75.875 
Q 23.140625 64.359375 26.78125 53.3125 
Q 30.421875 42.28125 30.421875 31.390625 
Q 30.421875 20.453125 26.78125 9.375 
Q 23.140625 -1.703125 15.828125 -13.1875 
L 8.015625 -13.1875 
Q 14.5 -2 17.703125 9.0625 
Q 20.90625 20.125 20.90625 31.390625 
Q 20.90625 42.671875 17.703125 53.65625 
Q 14.5 64.65625 8.015625 75.875 
z
" id="DejaVuSans-41"/>
     </defs>
     <g transform="translate(181.41 335.862125)scale(0.1 -0.1)">
      <use transform="translate(0 0.015625)" xlink:href="#DejaVuSans-83"/>
      <use transform="translate(63.476562 0.015625)" xlink:href="#DejaVuSans-99"/>
      <use transform="translate(118.457031 0.015625)" xlink:href="#DejaVuSans-97"/>
      <use transform="translate(179.736328 0.015625)" xlink:href="#DejaVuSans-116"/>
      <use transform="translate(218.945312 0.015625)" xlink:href="#DejaVuSans-116"/>
      <use transform="translate(258.154297 0.015625)" xlink:href="#DejaVuSans-101"/>
      <use transform="translate(319.677734 0.015625)" xlink:href="#DejaVuSans-114"/>
      <use transform="translate(360.791016 0.015625)" xlink:href="#DejaVuSans-105"/>
      <use transform="translate(388.574219 0.015625)" xlink:href="#DejaVuSans-110"/>
      <use transform="translate(451.953125 0.015625)" xlink:href="#DejaVuSans-103"/>
      <use transform="translate(515.429688 0.015625)" xlink:href="#DejaVuSans-32"/>
      <use transform="translate(547.216797 0.015625)" xlink:href="#DejaVuSans-97"/>
      <use transform="translate(608.496094 0.015625)" xlink:href="#DejaVuSans-110"/>
      <use transform="translate(671.875 0.015625)" xlink:href="#DejaVuSans-103"/>
      <use transform="translate(735.351562 0.015625)" xlink:href="#DejaVuSans-108"/>
      <use transform="translate(763.134766 0.015625)" xlink:href="#DejaVuSans-101"/>
      <use transform="translate(824.658203 0.015625)" xlink:href="#DejaVuSans-32"/>
      <use transform="translate(856.445312 0.015625)" xlink:href="#DejaVuSans-920"/>
      <use transform="translate(935.15625 0.015625)" xlink:href="#DejaVuSans-32"/>
      <use transform="translate(966.943359 0.015625)" xlink:href="#DejaVuSans-40"/>
      <use transform="translate(1005.957031 0.015625)" xlink:href="#DejaVuSans-176"/>
      <use transform="translate(1055.957031 0.015625)" xlink:href="#DejaVuSans-41"/>
     </g>
    </g>
   </g>
   <g id="matplotlib.axis_2">
    <g id="ytick_1">
     <g id="line2d_9">
      <defs>
       <path d="M 0 0 
L -3.5 0 
" id="m44c9014e1d" style="stroke:#000000;stroke-width:0.8;"/>
      </defs>
      <g>
       <use style="stroke:#000000;stroke-width:0.8;" x="57.6" xlink:href="#m44c9014e1d" y="301.822785"/>
      </g>
     </g>
     <g id="text_10">
      <!-- $\mathdefault{10^{-4}}$ -->
      <defs>
       <path d="M 10.59375 35.5 
L 73.1875 35.5 
L 73.1875 27.203125 
L 10.59375 27.203125 
z
" id="DejaVuSans-8722"/>
       <path d="M 37.796875 64.3125 
L 12.890625 25.390625 
L 37.796875 25.390625 
z
M 35.203125 72.90625 
L 47.609375 72.90625 
L 47.609375 25.390625 
L 58.015625 25.390625 
L 58.015625 17.1875 
L 47.609375 17.1875 
L 47.609375 0 
L 37.796875 0 
L 37.796875 17.1875 
L 4.890625 17.1875 
L 4.890625 26.703125 
z
" id="DejaVuSans-52"/>
      </defs>
      <g transform="translate(27.1 305.622004)scale(0.1 -0.1)">
       <use transform="translate(0 0.684375)" xlink:href="#DejaVuSans-49"/>
       <use transform="translate(63.623047 0.684375)" xlink:href="#DejaVuSans-48"/>
       <use transform="translate(128.203125 38.965625)scale(0.7)" xlink:href="#DejaVuSans-8722"/>
       <use transform="translate(186.855469 38.965625)scale(0.7)" xlink:href="#DejaVuSans-52"/>
      </g>
     </g>
    </g>
    <g id="ytick_2">
     <g id="line2d_10">
      <g>
       <use style="stroke:#000000;stroke-width:0.8;" x="57.6" xlink:href="#m44c9014e1d" y="263.802572"/>
      </g>
     </g>
     <g id="text_11">
      <!-- $\mathdefault{10^{-3}}$ -->
      <defs>
       <path d="M 40.578125 39.3125 
Q 47.65625 37.796875 51.625 33 
Q 55.609375 28.21875 55.609375 21.1875 
Q 55.609375 10.40625 48.1875 4.484375 
Q 40.765625 -1.421875 27.09375 -1.421875 
Q 22.515625 -1.421875 17.65625 -0.515625 
Q 12.796875 0.390625 7.625 2.203125 
L 7.625 11.71875 
Q 11.71875 9.328125 16.59375 8.109375 
Q 21.484375 6.890625 26.8125 6.890625 
Q 36.078125 6.890625 40.9375 10.546875 
Q 45.796875 14.203125 45.796875 21.1875 
Q 45.796875 27.640625 41.28125 31.265625 
Q 36.765625 34.90625 28.71875 34.90625 
L 20.21875 34.90625 
L 20.21875 43.015625 
L 29.109375 43.015625 
Q 36.375 43.015625 40.234375 45.921875 
Q 44.09375 48.828125 44.09375 54.296875 
Q 44.09375 59.90625 40.109375 62.90625 
Q 36.140625 65.921875 28.71875 65.921875 
Q 24.65625 65.921875 20.015625 65.03125 
Q 15.375 64.15625 9.8125 62.3125 
L 9.8125 71.09375 
Q 15.4375 72.65625 20.34375 73.4375 
Q 25.25 74.21875 29.59375 74.21875 
Q 40.828125 74.21875 47.359375 69.109375 
Q 53.90625 64.015625 53.90625 55.328125 
Q 53.90625 49.265625 50.4375 45.09375 
Q 46.96875 40.921875 40.578125 39.3125 
z
" id="DejaVuSans-51"/>
      </defs>
      <g transform="translate(27.1 267.601791)scale(0.1 -0.1)">
       <use transform="translate(0 0.765625)" xlink:href="#DejaVuSans-49"/>
       <use transform="translate(63.623047 0.765625)" xlink:href="#DejaVuSans-48"/>
       <use transform="translate(128.203125 39.046875)scale(0.7)" xlink:href="#DejaVuSans-8722"/>
       <use transform="translate(186.855469 39.046875)scale(0.7)" xlink:href="#DejaVuSans-51"/>
      </g>
     </g>
    </g>
    <g id="ytick_3">
     <g id="line2d_11">
      <g>
       <use style="stroke:#000000;stroke-width:0.8;" x="57.6" xlink:href="#m44c9014e1d" y="225.78236"/>
      </g>
     </g>
     <g id="text_12">
      <!-- $\mathdefault{10^{-2}}$ -->
      <g transform="translate(27.1 229.581578)scale(0.1 -0.1)">
       <use transform="translate(0 0.765625)" xlink:href="#DejaVuSans-49"/>
       <use transform="translate(63.623047 0.765625)" xlink:href="#DejaVuSans-48"/>
       <use transform="translate(128.203125 39.046875)scale(0.7)" xlink:href="#DejaVuSans-8722"/>
       <use transform="translate(186.855469 39.046875)scale(0.7)" xlink:href="#DejaVuSans-50"/>
      </g>
     </g>
    </g>
    <g id="ytick_4">
     <g id="line2d_12">
      <g>
       <use style="stroke:#000000;stroke-width:0.8;" x="57.6" xlink:href="#m44c9014e1d" y="187.762147"/>
      </g>
     </g>
     <g id="text_13">
      <!-- $\mathdefault{10^{-1}}$ -->
      <g transform="translate(27.1 191.561365)scale(0.1 -0.1)">
       <use transform="translate(0 0.684375)" xlink:href="#DejaVuSans-49"/>
       <use transform="translate(63.623047 0.684375)" xlink:href="#DejaVuSans-48"/>
       <use transform="translate(128.203125 38.965625)scale(0.7)" xlink:href="#DejaVuSans-8722"/>
       <use transform="translate(186.855469 38.965625)scale(0.7)" xlink:href="#DejaVuSans-49"/>
      </g>
     </g>
    </g>
    <g id="ytick_5">
     <g id="line2d_13">
      <g>
       <use style="stroke:#000000;stroke-width:0.8;" x="57.6" xlink:href="#m44c9014e1d" y="149.741934"/>
      </g>
     </g>
     <g id="text_14">
      <!-- $\mathdefault{10^{0}}$ -->
      <g transform="translate(33 153.541152)scale(0.1 -0.1)">
       <use transform="translate(0 0.765625)" xlink:href="#DejaVuSans-49"/>
       <use transform="translate(63.623047 0.765625)" xlink:href="#DejaVuSans-48"/>
       <use transform="translate(128.203125 39.046875)scale(0.7)" xlink:href="#DejaVuSans-48"/>
      </g>
     </g>
    </g>
    <g id="ytick_6">
     <g id="line2d_14">
      <g>
       <use style="stroke:#000000;stroke-width:0.8;" x="57.6" xlink:href="#m44c9014e1d" y="111.721721"/>
      </g>
     </g>
     <g id="text_15">
      <!-- $\mathdefault{10^{1}}$ -->
      <g transform="translate(33 115.52094)scale(0.1 -0.1)">
       <use transform="translate(0 0.684375)" xlink:href="#DejaVuSans-49"/>
       <use transform="translate(63.623047 0.684375)" xlink:href="#DejaVuSans-48"/>
       <use transform="translate(128.203125 38.965625)scale(0.7)" xlink:href="#DejaVuSans-49"/>
      </g>
     </g>
    </g>
    <g id="ytick_7">
     <g id="line2d_15">
      <g>
       <use style="stroke:#000000;stroke-width:0.8;" x="57.6" xlink:href="#m44c9014e1d" y="73.701508"/>
      </g>
     </g>
     <g id="text_16">
      <!-- $\mathdefault{10^{2}}$ -->
      <g transform="translate(33 77.500727)scale(0.1 -0.1)">
       <use transform="translate(0 0.765625)" xlink:href="#DejaVuSans-49"/>
       <use transform="translate(63.623047 0.765625)" xlink:href="#DejaVuSans-48"/>
       <use transform="translate(128.203125 39.046875)scale(0.7)" xlink:href="#DejaVuSans-50"/>
      </g>
     </g>
    </g>
    <g id="ytick_8">
     <g id="line2d_16">
      <defs>
       <path d="M 0 0 
L -2 0 
" id="m2d2953b147" style="stroke:#000000;stroke-width:0.6;"/>
      </defs>
      <g>
       <use style="stroke:#000000;stroke-width:0.6;" x="57.6" xlink:href="#m2d2953b147" y="305.507325"/>
      </g>
     </g>
    </g>
    <g id="ytick_9">
     <g id="line2d_17">
      <g>
       <use style="stroke:#000000;stroke-width:0.6;" x="57.6" xlink:href="#m2d2953b147" y="303.562495"/>
      </g>
     </g>
    </g>
    <g id="ytick_10">
     <g id="line2d_18">
      <g>
       <use style="stroke:#000000;stroke-width:0.6;" x="57.6" xlink:href="#m2d2953b147" y="290.377561"/>
      </g>
     </g>
    </g>
    <g id="ytick_11">
     <g id="line2d_19">
      <g>
       <use style="stroke:#000000;stroke-width:0.6;" x="57.6" xlink:href="#m2d2953b147" y="283.682534"/>
      </g>
     </g>
    </g>
    <g id="ytick_12">
     <g id="line2d_20">
      <g>
       <use style="stroke:#000000;stroke-width:0.6;" x="57.6" xlink:href="#m2d2953b147" y="278.932336"/>
      </g>
     </g>
    </g>
    <g id="ytick_13">
     <g id="line2d_21">
      <g>
       <use style="stroke:#000000;stroke-width:0.6;" x="57.6" xlink:href="#m2d2953b147" y="275.247797"/>
      </g>
     </g>
    </g>
    <g id="ytick_14">
     <g id="line2d_22">
      <g>
       <use style="stroke:#000000;stroke-width:0.6;" x="57.6" xlink:href="#m2d2953b147" y="272.237309"/>
      </g>
     </g>
    </g>
    <g id="ytick_15">
     <g id="line2d_23">
      <g>
       <use style="stroke:#000000;stroke-width:0.6;" x="57.6" xlink:href="#m2d2953b147" y="269.691978"/>
      </g>
     </g>
    </g>
    <g id="ytick_16">
     <g id="line2d_24">
      <g>
       <use style="stroke:#000000;stroke-width:0.6;" x="57.6" xlink:href="#m2d2953b147" y="267.487112"/>
      </g>
     </g>
    </g>
    <g id="ytick_17">
     <g id="line2d_25">
      <g>
       <use style="stroke:#000000;stroke-width:0.6;" x="57.6" xlink:href="#m2d2953b147" y="265.542282"/>
      </g>
     </g>
    </g>
    <g id="ytick_18">
     <g id="line2d_26">
      <g>
       <use style="stroke:#000000;stroke-width:0.6;" x="57.6" xlink:href="#m2d2953b147" y="252.357348"/>
      </g>
     </g>
    </g>
    <g id="ytick_19">
     <g id="line2d_27">
      <g>
       <use style="stroke:#000000;stroke-width:0.6;" x="57.6" xlink:href="#m2d2953b147" y="245.662321"/>
      </g>
     </g>
    </g>
    <g id="ytick_20">
     <g id="line2d_28">
      <g>
       <use style="stroke:#000000;stroke-width:0.6;" x="57.6" xlink:href="#m2d2953b147" y="240.912123"/>
      </g>
     </g>
    </g>
    <g id="ytick_21">
     <g id="line2d_29">
      <g>
       <use style="stroke:#000000;stroke-width:0.6;" x="57.6" xlink:href="#m2d2953b147" y="237.227584"/>
      </g>
     </g>
    </g>
    <g id="ytick_22">
     <g id="line2d_30">
      <g>
       <use style="stroke:#000000;stroke-width:0.6;" x="57.6" xlink:href="#m2d2953b147" y="234.217096"/>
      </g>
     </g>
    </g>
    <g id="ytick_23">
     <g id="line2d_31">
      <g>
       <use style="stroke:#000000;stroke-width:0.6;" x="57.6" xlink:href="#m2d2953b147" y="231.671765"/>
      </g>
     </g>
    </g>
    <g id="ytick_24">
     <g id="line2d_32">
      <g>
       <use style="stroke:#000000;stroke-width:0.6;" x="57.6" xlink:href="#m2d2953b147" y="229.466899"/>
      </g>
     </g>
    </g>
    <g id="ytick_25">
     <g id="line2d_33">
      <g>
       <use style="stroke:#000000;stroke-width:0.6;" x="57.6" xlink:href="#m2d2953b147" y="227.522069"/>
      </g>
     </g>
    </g>
    <g id="ytick_26">
     <g id="line2d_34">
      <g>
       <use style="stroke:#000000;stroke-width:0.6;" x="57.6" xlink:href="#m2d2953b147" y="214.337135"/>
      </g>
     </g>
    </g>
    <g id="ytick_27">
     <g id="line2d_35">
      <g>
       <use style="stroke:#000000;stroke-width:0.6;" x="57.6" xlink:href="#m2d2953b147" y="207.642108"/>
      </g>
     </g>
    </g>
    <g id="ytick_28">
     <g id="line2d_36">
      <g>
       <use style="stroke:#000000;stroke-width:0.6;" x="57.6" xlink:href="#m2d2953b147" y="202.89191"/>
      </g>
     </g>
    </g>
    <g id="ytick_29">
     <g id="line2d_37">
      <g>
       <use style="stroke:#000000;stroke-width:0.6;" x="57.6" xlink:href="#m2d2953b147" y="199.207371"/>
      </g>
     </g>
    </g>
    <g id="ytick_30">
     <g id="line2d_38">
      <g>
       <use style="stroke:#000000;stroke-width:0.6;" x="57.6" xlink:href="#m2d2953b147" y="196.196883"/>
      </g>
     </g>
    </g>
    <g id="ytick_31">
     <g id="line2d_39">
      <g>
       <use style="stroke:#000000;stroke-width:0.6;" x="57.6" xlink:href="#m2d2953b147" y="193.651552"/>
      </g>
     </g>
    </g>
    <g id="ytick_32">
     <g id="line2d_40">
      <g>
       <use style="stroke:#000000;stroke-width:0.6;" x="57.6" xlink:href="#m2d2953b147" y="191.446686"/>
      </g>
     </g>
    </g>
    <g id="ytick_33">
     <g id="line2d_41">
      <g>
       <use style="stroke:#000000;stroke-width:0.6;" x="57.6" xlink:href="#m2d2953b147" y="189.501856"/>
      </g>
     </g>
    </g>
    <g id="ytick_34">
     <g id="line2d_42">
      <g>
       <use style="stroke:#000000;stroke-width:0.6;" x="57.6" xlink:href="#m2d2953b147" y="176.316922"/>
      </g>
     </g>
    </g>
    <g id="ytick_35">
     <g id="line2d_43">
      <g>
       <use style="stroke:#000000;stroke-width:0.6;" x="57.6" xlink:href="#m2d2953b147" y="169.621895"/>
      </g>
     </g>
    </g>
    <g id="ytick_36">
     <g id="line2d_44">
      <g>
       <use style="stroke:#000000;stroke-width:0.6;" x="57.6" xlink:href="#m2d2953b147" y="164.871698"/>
      </g>
     </g>
    </g>
    <g id="ytick_37">
     <g id="line2d_45">
      <g>
       <use style="stroke:#000000;stroke-width:0.6;" x="57.6" xlink:href="#m2d2953b147" y="161.187158"/>
      </g>
     </g>
    </g>
    <g id="ytick_38">
     <g id="line2d_46">
      <g>
       <use style="stroke:#000000;stroke-width:0.6;" x="57.6" xlink:href="#m2d2953b147" y="158.17667"/>
      </g>
     </g>
    </g>
    <g id="ytick_39">
     <g id="line2d_47">
      <g>
       <use style="stroke:#000000;stroke-width:0.6;" x="57.6" xlink:href="#m2d2953b147" y="155.631339"/>
      </g>
     </g>
    </g>
    <g id="ytick_40">
     <g id="line2d_48">
      <g>
       <use style="stroke:#000000;stroke-width:0.6;" x="57.6" xlink:href="#m2d2953b147" y="153.426473"/>
      </g>
     </g>
    </g>
    <g id="ytick_41">
     <g id="line2d_49">
      <g>
       <use style="stroke:#000000;stroke-width:0.6;" x="57.6" xlink:href="#m2d2953b147" y="151.481643"/>
      </g>
     </g>
    </g>
    <g id="ytick_42">
     <g id="line2d_50">
      <g>
       <use style="stroke:#000000;stroke-width:0.6;" x="57.6" xlink:href="#m2d2953b147" y="138.296709"/>
      </g>
     </g>
    </g>
    <g id="ytick_43">
     <g id="line2d_51">
      <g>
       <use style="stroke:#000000;stroke-width:0.6;" x="57.6" xlink:href="#m2d2953b147" y="131.601682"/>
      </g>
     </g>
    </g>
    <g id="ytick_44">
     <g id="line2d_52">
      <g>
       <use style="stroke:#000000;stroke-width:0.6;" x="57.6" xlink:href="#m2d2953b147" y="126.851485"/>
      </g>
     </g>
    </g>
    <g id="ytick_45">
     <g id="line2d_53">
      <g>
       <use style="stroke:#000000;stroke-width:0.6;" x="57.6" xlink:href="#m2d2953b147" y="123.166945"/>
      </g>
     </g>
    </g>
    <g id="ytick_46">
     <g id="line2d_54">
      <g>
       <use style="stroke:#000000;stroke-width:0.6;" x="57.6" xlink:href="#m2d2953b147" y="120.156457"/>
      </g>
     </g>
    </g>
    <g id="ytick_47">
     <g id="line2d_55">
      <g>
       <use style="stroke:#000000;stroke-width:0.6;" x="57.6" xlink:href="#m2d2953b147" y="117.611126"/>
      </g>
     </g>
    </g>
    <g id="ytick_48">
     <g id="line2d_56">
      <g>
       <use style="stroke:#000000;stroke-width:0.6;" x="57.6" xlink:href="#m2d2953b147" y="115.40626"/>
      </g>
     </g>
    </g>
    <g id="ytick_49">
     <g id="line2d_57">
      <g>
       <use style="stroke:#000000;stroke-width:0.6;" x="57.6" xlink:href="#m2d2953b147" y="113.46143"/>
      </g>
     </g>
    </g>
    <g id="ytick_50">
     <g id="line2d_58">
      <g>
       <use style="stroke:#000000;stroke-width:0.6;" x="57.6" xlink:href="#m2d2953b147" y="100.276496"/>
      </g>
     </g>
    </g>
    <g id="ytick_51">
     <g id="line2d_59">
      <g>
       <use style="stroke:#000000;stroke-width:0.6;" x="57.6" xlink:href="#m2d2953b147" y="93.581469"/>
      </g>
     </g>
    </g>
    <g id="ytick_52">
     <g id="line2d_60">
      <g>
       <use style="stroke:#000000;stroke-width:0.6;" x="57.6" xlink:href="#m2d2953b147" y="88.831272"/>
      </g>
     </g>
    </g>
    <g id="ytick_53">
     <g id="line2d_61">
      <g>
       <use style="stroke:#000000;stroke-width:0.6;" x="57.6" xlink:href="#m2d2953b147" y="85.146732"/>
      </g>
     </g>
    </g>
    <g id="ytick_54">
     <g id="line2d_62">
      <g>
       <use style="stroke:#000000;stroke-width:0.6;" x="57.6" xlink:href="#m2d2953b147" y="82.136245"/>
      </g>
     </g>
    </g>
    <g id="ytick_55">
     <g id="line2d_63">
      <g>
       <use style="stroke:#000000;stroke-width:0.6;" x="57.6" xlink:href="#m2d2953b147" y="79.590913"/>
      </g>
     </g>
    </g>
    <g id="ytick_56">
     <g id="line2d_64">
      <g>
       <use style="stroke:#000000;stroke-width:0.6;" x="57.6" xlink:href="#m2d2953b147" y="77.386047"/>
      </g>
     </g>
    </g>
    <g id="ytick_57">
     <g id="line2d_65">
      <g>
       <use style="stroke:#000000;stroke-width:0.6;" x="57.6" xlink:href="#m2d2953b147" y="75.441217"/>
      </g>
     </g>
    </g>
    <g id="ytick_58">
     <g id="line2d_66">
      <g>
       <use style="stroke:#000000;stroke-width:0.6;" x="57.6" xlink:href="#m2d2953b147" y="62.256283"/>
      </g>
     </g>
    </g>
    <g id="ytick_59">
     <g id="line2d_67">
      <g>
       <use style="stroke:#000000;stroke-width:0.6;" x="57.6" xlink:href="#m2d2953b147" y="55.561256"/>
      </g>
     </g>
    </g>
    <g id="ytick_60">
     <g id="line2d_68">
      <g>
       <use style="stroke:#000000;stroke-width:0.6;" x="57.6" xlink:href="#m2d2953b147" y="50.811059"/>
      </g>
     </g>
    </g>
    <g id="ytick_61">
     <g id="line2d_69">
      <g>
       <use style="stroke:#000000;stroke-width:0.6;" x="57.6" xlink:href="#m2d2953b147" y="47.12652"/>
      </g>
     </g>
    </g>
    <g id="ytick_62">
     <g id="line2d_70">
      <g>
       <use style="stroke:#000000;stroke-width:0.6;" x="57.6" xlink:href="#m2d2953b147" y="44.116032"/>
      </g>
     </g>
    </g>
    <g id="ytick_63">
     <g id="line2d_71">
      <g>
       <use style="stroke:#000000;stroke-width:0.6;" x="57.6" xlink:href="#m2d2953b147" y="41.5707"/>
      </g>
     </g>
    </g>
   </g>
   <g id="line2d_72">
    <path clip-path="url(#p3873dc326a)" d="M 73.832727 132.216024 
L 80.982277 132.324542 
L 88.131826 132.649879 
L 95.281376 133.191374 
L 102.430925 133.947897 
L 109.905455 134.966932 
L 117.379984 136.216636 
L 124.854513 137.693665 
L 132.329042 139.39375 
L 140.12855 141.39976 
L 147.928059 143.635243 
L 156.052547 146.197819 
L 164.502015 149.102441 
L 173.276462 152.358688 
L 182.700868 156.10191 
L 192.775233 160.347202 
L 204.149517 165.386035 
L 218.123636 171.834573 
L 236.647469 180.645271 
L 256.7962 190.463291 
L 270.770319 197.50686 
L 281.494644 203.15203 
L 290.91905 208.362097 
L 299.368518 213.281525 
L 307.493006 218.263286 
L 315.942473 223.712344 
L 325.691859 230.283169 
L 340.965897 240.613795 
L 346.165569 243.847153 
L 350.390303 246.237722 
L 354.290057 248.196674 
L 357.864832 249.747245 
L 361.439607 251.042973 
L 364.689402 251.995616 
L 368.264177 252.805509 
L 371.838952 253.389764 
L 375.738706 253.810524 
L 380.613399 254.095837 
L 387.112989 254.220845 
L 398.487273 254.220021 
L 398.487273 254.220021 
" style="fill:none;stroke:#1f77b4;stroke-linecap:square;stroke-width:1.5;"/>
   </g>
   <g id="line2d_73">
    <path clip-path="url(#p3873dc326a)" d="M 73.832727 113.141211 
L 78.057461 113.25557 
L 82.282195 113.599034 
L 86.506929 114.172777 
L 90.731663 114.978791 
L 94.956396 116.019952 
L 99.18113 117.300107 
L 103.405864 118.824196 
L 107.630598 120.598426 
L 111.855332 122.630492 
L 115.755086 124.743254 
L 119.65484 127.09285 
L 123.554595 129.690292 
L 127.454349 132.548976 
L 131.354103 135.68529 
L 135.253857 139.119441 
L 138.828632 142.550425 
L 142.403407 146.276854 
L 145.978182 150.328845 
L 149.552957 154.744484 
L 152.802752 159.115091 
L 156.052547 163.873469 
L 158.977363 168.537173 
L 161.902179 173.619992 
L 164.826994 179.193073 
L 167.42683 184.62974 
L 170.026667 190.596457 
L 172.626503 197.166117 
L 175.226339 204.373485 
L 181.72593 223.035775 
L 182.700868 225.067961 
L 183.675807 226.564289 
L 184.325766 227.215311 
L 184.975725 227.573009 
L 185.625684 227.64093 
L 186.275643 227.437628 
L 186.925602 226.993621 
L 187.900541 225.960318 
L 189.200459 224.107854 
L 191.475315 220.304402 
L 194.400131 215.512427 
L 196.350008 212.701124 
L 198.299885 210.251117 
L 200.249762 208.149878 
L 202.19964 206.368691 
L 204.149517 204.875484 
L 206.099394 203.639861 
L 208.049271 202.634776 
L 210.324128 201.722542 
L 212.598984 201.061079 
L 214.873841 200.624518 
L 217.473677 200.373815 
L 220.073514 200.363271 
L 222.67335 200.572195 
L 225.598165 201.049206 
L 228.522981 201.765024 
L 231.447797 202.706079 
L 234.697592 204.004302 
L 237.947387 205.560706 
L 241.197183 207.372068 
L 244.446978 209.439846 
L 247.696773 211.770184 
L 250.946568 214.374073 
L 254.196364 217.267616 
L 257.446159 220.47224 
L 260.695954 224.014519 
L 263.62077 227.516329 
L 266.545586 231.338181 
L 269.795381 235.977672 
L 273.045176 241.016313 
L 281.819623 254.955029 
L 283.444521 256.892925 
L 284.744439 258.066598 
L 285.719378 258.681356 
L 286.694316 259.045937 
L 287.669255 259.151644 
L 288.644193 259.002002 
L 289.619132 258.612211 
L 290.59407 258.006935 
L 291.893989 256.918524 
L 293.518886 255.217667 
L 295.793743 252.45695 
L 303.593251 242.685017 
L 306.518067 239.459992 
L 309.442883 236.544787 
L 312.367699 233.923301 
L 315.617494 231.32311 
L 318.867289 229.014837 
L 322.442064 226.770103 
L 326.016839 224.793059 
L 329.916593 222.899585 
L 334.141327 221.114684 
L 338.366061 219.567161 
L 342.915774 218.127838 
L 347.790467 216.809629 
L 353.315119 215.554226 
L 359.16475 214.45988 
L 365.339361 213.528094 
L 372.163931 212.727568 
L 379.313481 212.114353 
L 386.78801 211.693647 
L 394.587518 211.47639 
L 398.487273 211.449448 
L 398.487273 211.449448 
" style="fill:none;stroke:#ff7f0e;stroke-linecap:square;stroke-width:1.5;"/>
   </g>
   <g id="line2d_74">
    <path clip-path="url(#p3873dc326a)" d="M 73.832727 91.47522 
L 76.107584 91.600237 
L 78.382441 91.976014 
L 80.657297 92.60476 
L 82.932154 93.490234 
L 85.207011 94.637867 
L 87.481867 96.054956 
L 89.756724 97.75092 
L 92.031581 99.737663 
L 94.306437 102.03006 
L 96.581294 104.646614 
L 98.856151 107.610357 
L 101.131007 110.950071 
L 103.405864 114.701995 
L 105.680721 118.9122 
L 107.955577 123.639932 
L 110.230434 128.962298 
L 112.180311 134.073549 
L 114.130188 139.777431 
L 116.080066 146.175042 
L 118.029943 153.381134 
L 119.97982 161.487108 
L 122.579656 173.475419 
L 124.204554 180.778973 
L 125.179492 184.367073 
L 125.829451 186.144206 
L 126.47941 187.296536 
L 126.80439 187.621479 
L 127.129369 187.780198 
L 127.454349 187.780128 
L 127.779328 187.633127 
L 128.429287 186.961245 
L 129.079247 185.904297 
L 130.379165 183.170279 
L 132.979001 177.561629 
L 134.278919 175.267183 
L 135.578837 173.406435 
L 136.878755 171.969868 
L 138.178673 170.931456 
L 139.153612 170.396524 
L 140.12855 170.057955 
L 141.103489 169.905746 
L 142.078428 169.931379 
L 143.378346 170.230276 
L 144.678264 170.820371 
L 145.978182 171.693332 
L 147.2781 172.844907 
L 148.578018 174.274781 
L 149.877936 175.986534 
L 151.502834 178.534517 
L 153.127731 181.558941 
L 154.752629 185.094345 
L 156.377527 189.185712 
L 158.002424 193.885209 
L 159.627322 199.239351 
L 161.577199 206.520197 
L 165.151974 220.422305 
L 166.126912 223.095758 
L 166.776871 224.223403 
L 167.42683 224.733726 
L 167.75181 224.753048 
L 168.07679 224.622282 
L 168.726749 223.955907 
L 169.376708 222.850268 
L 170.351646 220.655111 
L 174.57638 210.31738 
L 175.876298 207.836777 
L 177.176216 205.776399 
L 178.476134 204.114963 
L 179.776052 202.824438 
L 181.075971 201.877338 
L 182.375889 201.24945 
L 183.675807 200.920631 
L 184.975725 200.874828 
L 186.275643 201.099833 
L 187.575561 201.586985 
L 188.875479 202.330902 
L 190.175397 203.329275 
L 191.475315 204.582726 
L 193.100213 206.513771 
L 194.725111 208.861736 
L 196.350008 211.645551 
L 197.974906 214.888804 
L 199.599803 218.615542 
L 201.224701 222.839513 
L 203.174578 228.527023 
L 207.399312 241.286916 
L 208.374251 243.390099 
L 209.02421 244.367079 
L 209.674169 244.94098 
L 210.324128 245.089778 
L 210.974087 244.826356 
L 211.624046 244.195271 
L 212.274005 243.262468 
L 213.248943 241.460117 
L 215.198821 237.205039 
L 217.473677 232.359728 
L 219.098575 229.368677 
L 220.723473 226.847316 
L 222.34837 224.790354 
L 223.648288 223.461506 
L 224.948206 222.396864 
L 226.248124 221.580985 
L 227.548043 221.000008 
L 228.847961 220.642022 
L 230.147879 220.497127 
L 231.447797 220.557381 
L 232.747715 220.816688 
L 234.047633 221.270686 
L 235.672531 222.107942 
L 237.297428 223.243213 
L 238.922326 224.677907 
L 240.547224 226.416507 
L 242.172121 228.465987 
L 243.797019 230.834718 
L 245.746896 234.108958 
L 247.696773 237.855189 
L 249.97163 242.773297 
L 255.171302 254.420235 
L 256.146241 256.031162 
L 257.121179 257.194646 
L 257.771138 257.673871 
L 258.421097 257.896268 
L 259.071057 257.859195 
L 259.721016 257.573281 
L 260.370975 257.060747 
L 261.345913 255.935297 
L 262.645831 253.955 
L 264.920688 249.883108 
L 267.845504 244.715576 
L 269.795381 241.68572 
L 271.745258 239.06853 
L 273.695135 236.863876 
L 275.320033 235.326682 
L 276.94493 234.045486 
L 278.569828 233.004483 
L 280.194726 232.189089 
L 281.819623 231.586445 
L 283.444521 231.185577 
L 285.069419 230.977388 
L 287.019296 230.971764 
L 288.969173 231.223889 
L 290.91905 231.727889 
L 292.868927 232.481232 
L 294.818804 233.484752 
L 296.768681 234.742778 
L 298.718559 236.263399 
L 300.668436 238.058878 
L 302.618313 240.146233 
L 304.56819 242.547991 
L 306.518067 245.293083 
L 308.467944 248.417737 
L 310.417821 251.965881 
L 312.367699 255.987724 
L 314.317576 260.532822 
L 316.267453 265.62777 
L 318.867289 273.143924 
L 321.467125 280.55325 
L 322.442064 282.786447 
L 323.092023 283.94054 
L 323.741982 284.752641 
L 324.391941 285.176162 
L 325.0419 285.190544 
L 325.691859 284.80602 
L 326.341818 284.061217 
L 327.316757 282.399286 
L 328.616675 279.517529 
L 334.141327 266.340902 
L 336.091204 262.53854 
L 338.041081 259.269086 
L 339.990958 256.484606 
L 341.940835 254.131899 
L 343.890713 252.162202 
L 345.84059 250.533478 
L 347.790467 249.210172 
L 349.740344 248.1622 
L 351.690221 247.363814 
L 353.640098 246.792556 
L 355.589975 246.428336 
L 357.864832 246.240442 
L 360.139689 246.281241 
L 362.739525 246.572553 
L 365.339361 247.084393 
L 368.589156 247.96595 
L 372.81389 249.366737 
L 381.263358 252.215813 
L 384.838133 253.158655 
L 388.412907 253.859705 
L 391.987682 254.319389 
L 395.887437 254.576753 
L 398.487273 254.623922 
L 398.487273 254.623922 
" style="fill:none;stroke:#2ca02c;stroke-linecap:square;stroke-width:1.5;"/>
   </g>
   <g id="line2d_75">
    <path clip-path="url(#p3873dc326a)" d="M 73.832727 69.482316 
L 74.807666 69.577193 
L 75.782604 69.862272 
L 76.757543 70.338911 
L 78.057461 71.276515 
L 79.357379 72.567058 
L 80.657297 74.222189 
L 81.957215 76.257481 
L 83.257133 78.693077 
L 84.557052 81.554537 
L 85.85697 84.873911 
L 87.481867 89.728513 
L 89.106765 95.458922 
L 90.731663 102.184112 
L 92.35656 110.026504 
L 93.981458 119.024672 
L 97.231253 137.740801 
L 97.881212 140.332413 
L 98.531171 142.036072 
L 98.856151 142.53024 
L 99.18113 142.795727 
L 99.50611 142.853119 
L 99.831089 142.730551 
L 100.481048 142.076003 
L 101.455987 140.540927 
L 103.080885 137.971856 
L 104.055823 136.916797 
L 104.705782 136.490188 
L 105.355741 136.298296 
L 106.0057 136.344894 
L 106.655659 136.630757 
L 107.305618 137.15563 
L 107.955577 137.919398 
L 108.930516 139.514862 
L 109.905455 141.657492 
L 110.880393 144.3622 
L 111.855332 147.650043 
L 113.15525 152.978531 
L 114.455168 159.389029 
L 117.704963 176.831801 
L 118.354922 178.849973 
L 118.679902 179.424854 
L 119.004881 179.693757 
L 119.329861 179.66826 
L 119.65484 179.377255 
L 120.304799 178.169666 
L 121.279738 175.488679 
L 122.904636 170.909824 
L 123.879574 168.787593 
L 124.854513 167.293941 
L 125.504472 166.656973 
L 126.154431 166.304219 
L 126.80439 166.231219 
L 127.454349 166.433821 
L 128.104308 166.909164 
L 128.754267 167.656201 
L 129.404226 168.675979 
L 130.379165 170.724722 
L 131.354103 173.414768 
L 132.329042 176.774069 
L 133.30398 180.829858 
L 134.603898 187.312766 
L 137.528714 202.97372 
L 138.178673 204.729182 
L 138.503653 205.085879 
L 138.828632 205.083816 
L 139.153612 204.746938 
L 139.803571 203.260987 
L 140.778509 199.876683 
L 142.403407 194.001484 
L 143.378346 191.184266 
L 144.353284 189.067275 
L 145.003243 188.047611 
L 145.653202 187.333157 
L 146.303161 186.915383 
L 146.95312 186.786594 
L 147.603079 186.940869 
L 148.253038 187.374512 
L 148.902998 188.086247 
L 149.552957 189.077277 
L 150.527895 191.096074 
L 151.502834 193.773293 
L 152.477772 197.136899 
L 153.452711 201.208476 
L 154.752629 207.687332 
L 157.027486 219.693876 
L 157.677445 221.871899 
L 158.002424 222.484514 
L 158.327404 222.737473 
L 158.652383 222.630441 
L 158.977363 222.189237 
L 159.627322 220.502146 
L 160.60226 216.84108 
L 162.227158 210.545535 
L 163.202097 207.480973 
L 164.177035 205.111739 
L 165.151974 203.436166 
L 165.801933 202.690605 
L 166.451892 202.231489 
L 167.101851 202.050952 
L 167.75181 202.143055 
L 168.401769 202.504033 
L 169.051728 203.13238 
L 169.701687 204.02882 
L 170.676626 205.882826 
L 171.651564 208.363434 
L 172.626503 211.490835 
L 173.601441 215.274793 
L 174.90136 221.263426 
L 177.176216 232.176567 
L 177.826175 234.144087 
L 178.151155 234.707183 
L 178.476134 234.952176 
L 178.801114 234.87537 
L 179.126093 234.494353 
L 179.776052 232.973086 
L 180.750991 229.534893 
L 182.700868 222.207303 
L 183.675807 219.247008 
L 184.650745 216.919789 
L 185.625684 215.225385 
L 186.275643 214.435953 
L 186.925602 213.909405 
L 187.575561 213.638646 
L 188.22552 213.617956 
L 188.875479 213.843218 
L 189.525438 214.311963 
L 190.175397 215.023297 
L 191.150336 216.546549 
L 192.125274 218.622555 
L 193.100213 221.256667 
L 194.400131 225.620911 
L 196.025029 232.200028 
L 197.649926 238.798098 
L 198.299885 240.776387 
L 198.949844 241.987674 
L 199.274824 242.245515 
L 199.599803 242.259806 
L 199.924783 242.037458 
L 200.249762 241.597032 
L 200.899722 240.177445 
L 201.87466 237.206839 
L 204.149517 229.883997 
L 205.124455 227.371377 
L 206.099394 225.378285 
L 207.074333 223.912849 
L 207.724292 223.223913 
L 208.374251 222.760028 
L 209.02421 222.516614 
L 209.674169 222.489651 
L 210.324128 222.67589 
L 210.974087 223.072893 
L 211.624046 223.678944 
L 212.598984 224.977396 
L 213.573923 226.739365 
L 214.548862 228.955752 
L 215.84878 232.5712 
L 217.473677 237.88093 
L 219.098575 243.121891 
L 219.748534 244.767389 
L 220.398493 245.916394 
L 220.723473 246.262872 
L 221.048452 246.443733 
L 221.373432 246.456219 
L 221.698411 246.304013 
L 222.34837 245.549343 
L 222.998329 244.308625 
L 223.973268 241.888789 
L 226.573104 235.105758 
L 227.873022 232.476665 
L 228.847961 230.978948 
L 229.822899 229.90026 
L 230.797838 229.238147 
L 231.447797 229.024923 
L 232.097756 228.991699 
L 232.747715 229.136421 
L 233.397674 229.457252 
L 234.372613 230.265076 
L 235.347551 231.459658 
L 236.32249 233.03296 
L 237.622408 235.692411 
L 238.922326 238.916194 
L 242.497101 248.369371 
L 243.14706 249.49834 
L 243.797019 250.205519 
L 244.446978 250.433565 
L 244.771957 250.364152 
L 245.421916 249.881371 
L 246.071876 249.003618 
L 247.046814 247.165569 
L 250.946568 238.916889 
L 252.246486 236.958437 
L 253.221425 235.870978 
L 254.196364 235.117407 
L 255.171302 234.696534 
L 256.146241 234.604437 
L 257.121179 234.836411 
L 258.096118 235.387794 
L 259.071057 236.254014 
L 260.045995 237.429954 
L 261.020934 238.908527 
L 262.320852 241.329583 
L 263.62077 244.21289 
L 265.570647 249.131566 
L 267.520524 253.937016 
L 268.495463 255.811007 
L 269.145422 256.707001 
L 269.795381 257.257921 
L 270.44534 257.438926 
L 271.095299 257.257347 
L 271.745258 256.750738 
L 272.395217 255.978242 
L 273.370156 254.47234 
L 277.594889 247.32911 
L 278.894808 245.735499 
L 279.869746 244.815692 
L 280.844685 244.137433 
L 281.819623 243.700098 
L 282.794562 243.500764 
L 283.7695 243.535799 
L 284.744439 243.801823 
L 285.719378 244.296306 
L 286.694316 245.017936 
L 287.669255 245.966852 
L 288.969173 247.588827 
L 290.269091 249.626611 
L 291.569009 252.093309 
L 292.868927 255.004834 
L 294.493825 259.290381 
L 296.118722 264.286665 
L 298.393579 272.192997 
L 300.343456 278.752676 
L 301.318395 281.249273 
L 301.968354 282.385553 
L 302.618313 283.010685 
L 302.943292 283.122691 
L 303.268272 283.103594 
L 303.918231 282.700622 
L 304.56819 281.884251 
L 305.543129 280.117486 
L 307.817985 275.10068 
L 309.442883 271.790178 
L 310.742801 269.564398 
L 312.042719 267.737404 
L 313.342637 266.275981 
L 314.642555 265.122312 
L 316.267453 264.004922 
L 318.54231 262.781192 
L 322.442064 260.714036 
L 329.266634 256.718367 
L 330.891532 256.184134 
L 332.19145 255.987076 
L 333.491368 256.017716 
L 334.791286 256.284461 
L 336.091204 256.783152 
L 337.391122 257.496513 
L 339.01602 258.641941 
L 341.290876 260.553988 
L 345.190631 263.874329 
L 348.115446 266.000162 
L 350.390303 267.739877 
L 351.690221 268.98743 
L 352.990139 270.566101 
L 354.290057 272.597253 
L 355.264996 274.488815 
L 356.564914 277.586877 
L 357.864832 281.403298 
L 359.48973 287.069566 
L 361.114627 292.742446 
L 361.764586 294.415428 
L 362.414545 295.359821 
L 362.739525 295.488 
L 363.064505 295.366305 
L 363.389484 294.994546 
L 364.039443 293.561234 
L 364.689402 291.396612 
L 365.98932 285.937409 
L 367.939197 277.667067 
L 369.239115 273.003326 
L 370.539034 269.172902 
L 371.838952 266.150451 
L 372.81389 264.380882 
L 373.788829 263.010801 
L 374.763767 262.018058 
L 375.738706 261.382487 
L 376.713645 261.085177 
L 377.688583 261.107161 
L 378.663522 261.427555 
L 379.63846 262.021044 
L 380.613399 262.854581 
L 381.913317 264.259479 
L 385.488092 268.413851 
L 386.46303 269.113585 
L 387.112989 269.369145 
L 387.762948 269.435201 
L 388.412907 269.308065 
L 389.062867 268.997355 
L 390.037805 268.236433 
L 391.337723 266.841732 
L 394.587518 263.110558 
L 395.887437 262.034019 
L 396.862375 261.486704 
L 397.837314 261.186328 
L 398.487273 261.12868 
L 398.487273 261.12868 
" style="fill:none;stroke:#d62728;stroke-linecap:square;stroke-width:1.5;"/>
   </g>
   <g id="line2d_76">
    <path clip-path="url(#p3873dc326a)" d="M 73.832727 53.568 
L 74.157707 53.628076 
L 74.807666 54.110233 
L 75.457625 55.082943 
L 76.107584 56.563622 
L 76.757543 58.580036 
L 77.407502 61.172514 
L 78.382441 66.26989 
L 79.357379 73.078675 
L 80.332318 82.032704 
L 81.307256 93.656564 
L 82.607174 111.428063 
L 82.932154 114.26399 
L 83.257133 115.292325 
L 83.582113 114.443897 
L 84.232072 109.37051 
L 85.207011 100.927089 
L 85.85697 96.774557 
L 86.506929 93.914414 
L 87.156888 92.206135 
L 87.481867 91.741443 
L 87.806847 91.518087 
L 88.131826 91.525208 
L 88.456806 91.754006 
L 88.781785 92.197454 
L 89.431744 93.707206 
L 90.081704 96.021004 
L 90.731663 99.107446 
L 91.706601 105.041803 
L 93.656478 117.962331 
L 93.981458 119.264902 
L 94.306437 120.058924 
L 94.631417 120.327234 
L 94.956396 120.119204 
L 95.281376 119.534688 
L 96.256314 116.714831 
L 97.231253 114.157273 
L 97.881212 113.203846 
L 98.206192 113.004462 
L 98.531171 112.999327 
L 98.856151 113.192054 
L 99.18113 113.584793 
L 99.831089 114.974766 
L 100.481048 117.17204 
L 101.131007 120.163924 
L 102.105946 125.999602 
L 103.730844 136.763768 
L 104.380803 139.274194 
L 104.705782 139.73152 
L 105.030762 139.653347 
L 105.355741 139.12342 
L 106.0057 137.216313 
L 107.305618 133.092417 
L 107.955577 131.856557 
L 108.280557 131.532532 
L 108.605536 131.416249 
L 108.930516 131.512395 
L 109.255495 131.823921 
L 109.580475 132.352791 
L 110.230434 134.067448 
L 110.880393 136.65889 
L 111.530352 140.103106 
L 112.505291 146.599314 
L 113.480229 153.38958 
L 114.130188 156.479249 
L 114.455168 157.166271 
L 114.780147 157.211651 
L 115.105127 156.680413 
L 115.755086 154.460233 
L 117.055004 149.263435 
L 117.704963 147.525538 
L 118.029943 146.975296 
L 118.354922 146.649709 
L 118.679902 146.553057 
L 119.004881 146.687805 
L 119.329861 147.055572 
L 119.65484 147.657658 
L 120.304799 149.569241 
L 120.954758 152.425533 
L 121.604717 156.196647 
L 122.904636 165.647425 
L 123.554595 169.946904 
L 123.879574 171.416181 
L 124.204554 172.205739 
L 124.529533 172.251819 
L 124.854513 171.615393 
L 125.504472 168.969083 
L 126.80439 162.804226 
L 127.454349 160.687907 
L 128.104308 159.506052 
L 128.429287 159.279428 
L 128.754267 159.297788 
L 129.079247 159.561865 
L 129.404226 160.072492 
L 130.054185 161.838214 
L 130.704144 164.603959 
L 131.354103 168.356079 
L 132.329042 175.52193 
L 133.30398 182.679935 
L 133.62896 184.263741 
L 133.953939 185.097537 
L 134.278919 185.0929 
L 134.603898 184.31483 
L 135.253857 181.230814 
L 136.553776 174.229503 
L 137.203735 171.810277 
L 137.853694 170.384604 
L 138.178673 170.052951 
L 138.503653 169.975519 
L 138.828632 170.15205 
L 139.153612 170.582778 
L 139.803571 172.211315 
L 140.45353 174.874301 
L 141.103489 178.572632 
L 142.078428 185.822094 
L 143.053366 193.380282 
L 143.378346 195.137526 
L 143.703325 196.109047 
L 144.028305 196.166573 
L 144.353284 195.358867 
L 145.003243 192.008996 
L 146.303161 184.304916 
L 146.95312 181.59043 
L 147.603079 179.907014 
L 147.928059 179.456765 
L 148.253038 179.265787 
L 148.578018 179.332716 
L 148.902998 179.65689 
L 149.227977 180.238583 
L 149.877936 182.179923 
L 150.527895 185.169378 
L 151.177854 189.192909 
L 153.127731 203.723586 
L 153.452711 204.908049 
L 153.77769 205.176267 
L 154.10267 204.527235 
L 154.752629 201.258965 
L 156.052547 193.157782 
L 156.702506 190.175309 
L 157.352465 188.222205 
L 157.677445 187.63745 
L 158.002424 187.311722 
L 158.327404 187.243068 
L 158.652383 187.430175 
L 158.977363 187.872674 
L 159.627322 189.527168 
L 160.277281 192.217893 
L 160.92724 195.940649 
L 161.902179 203.16856 
L 162.877117 210.389503 
L 163.202097 211.894502 
L 163.527076 212.552778 
L 163.852056 212.278155 
L 164.177035 211.167989 
L 164.826994 207.396511 
L 166.126912 199.343008 
L 166.776871 196.516115 
L 167.42683 194.708163 
L 167.75181 194.186768 
L 168.07679 193.917363 
L 168.401769 193.89777 
L 168.726749 194.126527 
L 169.051728 194.603064 
L 169.701687 196.301003 
L 170.351646 198.995684 
L 171.001605 202.66603 
L 172.301523 212.078361 
L 172.951482 216.244933 
L 173.276462 217.509251 
L 173.601441 217.966711 
L 173.926421 217.567608 
L 174.2514 216.41915 
L 174.90136 212.747766 
L 176.201278 204.985932 
L 176.851237 202.225237 
L 177.501196 200.427146 
L 177.826175 199.891444 
L 178.151155 199.59549 
L 178.476134 199.537154 
L 178.801114 199.71469 
L 179.126093 200.126875 
L 179.776052 201.6521 
L 180.426011 204.103242 
L 181.075971 207.438835 
L 183.350827 220.742032 
L 183.675807 221.234479 
L 184.000786 220.999455 
L 184.325766 220.099387 
L 184.975725 216.953892 
L 186.275643 209.708644 
L 186.925602 206.958045 
L 187.575561 205.06591 
L 188.22552 204.061513 
L 188.5505 203.891107 
L 188.875479 203.940114 
L 189.200459 204.207178 
L 189.525438 204.69099 
L 190.175397 206.302186 
L 190.825356 208.747953 
L 191.800295 213.778421 
L 193.100213 221.109894 
L 193.425192 222.370317 
L 193.750172 223.12261 
L 194.075152 223.277942 
L 194.400131 222.828846 
L 194.725111 221.851932 
L 195.37507 218.863515 
L 196.674988 212.237077 
L 197.324947 209.695496 
L 197.974906 207.919317 
L 198.624865 206.94575 
L 198.949844 206.761161 
L 199.274824 206.776921 
L 199.599803 206.991749 
L 199.924783 207.404065 
L 200.574742 208.811843 
L 201.224701 210.96729 
L 202.19964 215.393174 
L 203.499558 221.870538 
L 204.149517 223.825255 
L 204.474496 224.122757 
L 204.799476 223.911651 
L 205.124455 223.226789 
L 205.774414 220.808425 
L 207.724292 212.187338 
L 208.374251 210.281554 
L 209.02421 209.083324 
L 209.349189 208.755974 
L 209.674169 208.610079 
L 209.999148 208.644799 
L 210.324128 208.858687 
L 210.649107 209.249641 
L 211.299066 210.549456 
L 211.949025 212.499791 
L 212.923964 216.406881 
L 214.223882 221.908675 
L 214.873841 223.540023 
L 215.198821 223.807212 
L 215.5238 223.6661 
L 215.84878 223.137175 
L 216.498739 221.17117 
L 218.773595 212.558473 
L 219.423554 211.033416 
L 220.073514 210.138755 
L 220.398493 209.933835 
L 220.723473 209.890845 
L 221.048452 210.008793 
L 221.373432 210.285786 
L 222.023391 211.303883 
L 222.67335 212.902605 
L 223.648288 216.183035 
L 225.273186 221.968946 
L 225.598165 222.696017 
L 225.923145 223.138922 
L 226.248124 223.262903 
L 226.573104 223.061176 
L 226.898084 222.556413 
L 227.548043 220.840408 
L 229.822899 213.434218 
L 230.472858 212.097696 
L 231.122817 211.309971 
L 231.447797 211.129522 
L 231.772776 211.092291 
L 232.097756 211.197542 
L 232.747715 211.827225 
L 233.397674 212.989334 
L 234.047633 214.626321 
L 235.347551 218.831173 
L 236.32249 221.846481 
L 236.972449 223.122662 
L 237.297428 223.414316 
L 237.622408 223.447925 
L 237.947387 223.227422 
L 238.272367 222.775887 
L 238.922326 221.34022 
L 241.197183 215.264693 
L 241.847142 214.161744 
L 242.497101 213.516902 
L 243.14706 213.351997 
L 243.472039 213.450188 
L 244.121998 213.999773 
L 244.771957 214.997027 
L 245.421916 216.395062 
L 246.396855 219.062622 
L 248.021753 223.724529 
L 248.671712 224.995674 
L 248.996691 225.388571 
L 249.321671 225.59846 
L 249.64665 225.622746 
L 249.97163 225.470121 
L 250.621589 224.71606 
L 251.596527 222.899246 
L 252.896446 220.367979 
L 253.546405 219.400727 
L 254.196364 218.742113 
L 254.846323 218.430821 
L 255.496282 218.484887 
L 256.146241 218.909018 
L 256.7962 219.698315 
L 257.446159 220.838956 
L 258.421097 223.149867 
L 259.721016 227.066646 
L 261.345913 232.00357 
L 261.995872 233.39158 
L 262.645831 234.156973 
L 262.970811 234.277536 
L 263.29579 234.225982 
L 263.62077 234.015709 
L 264.270729 233.207444 
L 265.245667 231.441445 
L 266.545586 229.131638 
L 267.195545 228.326315 
L 267.845504 227.873922 
L 268.495463 227.829825 
L 269.145422 228.233342 
L 269.795381 229.113705 
L 270.44534 230.492633 
L 271.095299 232.383166 
L 272.070238 236.166466 
L 273.370156 242.653414 
L 274.670074 249.148976 
L 275.320033 251.271946 
L 275.645012 251.845548 
L 275.969992 252.067119 
L 276.294971 251.956943 
L 276.619951 251.563554 
L 277.26991 250.198618 
L 278.894808 246.304877 
L 279.544767 245.34584 
L 280.194726 244.901735 
L 280.519705 244.875594 
L 280.844685 244.974537 
L 281.494644 245.511717 
L 282.144603 246.406573 
L 283.7695 248.958231 
L 284.419459 249.453104 
L 284.744439 249.480142 
L 285.069419 249.347492 
L 285.719378 248.63481 
L 286.694316 246.805172 
L 287.994234 244.24864 
L 288.644193 243.379801 
L 289.294152 242.951624 
L 289.619132 242.925171 
L 289.944111 243.031264 
L 290.59407 243.652055 
L 291.244029 244.816734 
L 291.893989 246.490474 
L 292.868927 249.729052 
L 294.168845 254.08919 
L 294.818804 255.347253 
L 295.143784 255.55674 
L 295.468763 255.45323 
L 295.793743 255.044007 
L 296.443702 253.453539 
L 297.41864 249.95967 
L 299.043538 244.122122 
L 300.018477 241.443155 
L 300.993415 239.425962 
L 301.968354 237.9214 
L 302.943292 236.762946 
L 304.24321 235.587019 
L 305.218149 235.003111 
L 305.868108 234.822781 
L 306.518067 234.873986 
L 307.168026 235.219194 
L 307.817985 235.921947 
L 308.467944 237.043197 
L 309.117903 238.637707 
L 309.767862 240.748159 
L 310.742801 244.907419 
L 313.342637 257.454161 
L 313.667617 258.001206 
L 313.992596 258.071756 
L 314.317576 257.67849 
L 314.642555 256.884928 
L 315.292514 254.493802 
L 316.917412 247.952004 
L 317.567371 246.142239 
L 318.21733 244.999141 
L 318.54231 244.684658 
L 318.867289 244.540021 
L 319.192269 244.561573 
L 319.517248 244.743693 
L 320.167207 245.555475 
L 320.817166 246.875054 
L 322.767043 251.660333 
L 323.092023 252.120811 
L 323.417002 252.361727 
L 323.741982 252.359146 
L 324.066962 252.109713 
L 324.716921 250.958942 
L 325.691859 248.263486 
L 326.991777 244.742563 
L 327.641736 243.52791 
L 328.291695 242.806589 
L 328.616675 242.637775 
L 328.941654 242.594283 
L 329.591613 242.858179 
L 330.241572 243.517132 
L 332.516429 246.471962 
L 332.841409 246.602463 
L 333.166388 246.592468 
L 333.491368 246.439215 
L 334.141327 245.747089 
L 335.116265 244.12463 
L 336.091204 242.560167 
L 336.741163 241.921149 
L 337.066143 241.785472 
L 337.391122 241.793607 
L 337.716102 241.958852 
L 338.041081 242.292891 
L 338.69104 243.507564 
L 339.340999 245.505022 
L 339.990958 248.320272 
L 340.965897 253.925113 
L 341.940835 259.910304 
L 342.265815 261.372845 
L 342.590794 262.240095 
L 342.915774 262.359335 
L 343.240753 261.692432 
L 343.565733 260.333584 
L 344.215692 256.302652 
L 345.51561 247.603478 
L 346.165569 244.217098 
L 346.815528 241.70076 
L 347.465487 240.06042 
L 347.790467 239.561729 
L 348.115446 239.272555 
L 348.440426 239.189178 
L 348.765405 239.307771 
L 349.090385 239.624164 
L 349.740344 240.829087 
L 350.390303 242.740747 
L 351.365242 246.621931 
L 352.34018 250.714314 
L 352.990139 252.562946 
L 353.315119 252.969824 
L 353.640098 252.968786 
L 353.965078 252.566599 
L 354.615037 250.788784 
L 356.889894 242.567973 
L 357.539853 241.201536 
L 358.189812 240.47543 
L 358.514791 240.345342 
L 358.839771 240.359895 
L 359.48973 240.769039 
L 360.139689 241.550503 
L 361.439607 243.2058 
L 361.764586 243.397656 
L 362.089566 243.421021 
L 362.414545 243.25116 
L 362.739525 242.878902 
L 363.389484 241.574437 
L 364.364423 238.717031 
L 365.664341 234.914067 
L 366.3143 233.564401 
L 366.964259 232.772658 
L 367.289238 232.612963 
L 367.614218 232.621585 
L 367.939197 232.805326 
L 368.264177 233.170267 
L 368.914136 234.465175 
L 369.564095 236.541484 
L 370.214054 239.409416 
L 371.188993 245.025606 
L 372.488911 252.766845 
L 372.81389 253.943529 
L 373.13887 254.514172 
L 373.463849 254.414167 
L 373.788829 253.681946 
L 374.438788 250.868951 
L 376.063686 242.673089 
L 376.713645 240.53671 
L 377.363604 239.342403 
L 377.688583 239.114039 
L 378.013563 239.136634 
L 378.338542 239.413507 
L 378.663522 239.947798 
L 379.313481 241.797293 
L 379.96344 244.672876 
L 380.938378 250.495285 
L 381.588337 254.314428 
L 381.913317 255.601833 
L 382.238296 256.119325 
L 382.563276 255.693183 
L 382.888256 254.329666 
L 383.538215 249.605018 
L 385.163112 236.100324 
L 386.138051 230.267726 
L 386.78801 227.519196 
L 387.437969 225.631082 
L 388.087928 224.559355 
L 388.412907 224.319341 
L 388.737887 224.272949 
L 389.062867 224.418655 
L 389.387846 224.755848 
L 390.037805 226.006475 
L 390.687764 228.035537 
L 391.337723 230.861234 
L 391.987682 234.497913 
L 392.962621 241.413523 
L 394.912498 256.562032 
L 395.237477 258.048857 
L 395.562457 258.929874 
L 395.887437 259.219723 
L 396.212416 259.019986 
L 396.862375 257.772073 
L 397.512334 256.351027 
L 398.162293 255.489455 
L 398.487273 255.375476 
L 398.487273 255.375476 
" style="fill:none;stroke:#9467bd;stroke-linecap:square;stroke-width:1.5;"/>
   </g>
   <g id="patch_3">
    <path d="M 57.6 307.584 
L 57.6 41.472 
" style="fill:none;stroke:#000000;stroke-linecap:square;stroke-linejoin:miter;stroke-width:0.8;"/>
   </g>
   <g id="patch_4">
    <path d="M 414.72 307.584 
L 414.72 41.472 
" style="fill:none;stroke:#000000;stroke-linecap:square;stroke-linejoin:miter;stroke-width:0.8;"/>
   </g>
   <g id="patch_5">
    <path d="M 57.6 307.584 
L 414.72 307.584 
" style="fill:none;stroke:#000000;stroke-linecap:square;stroke-linejoin:miter;stroke-width:0.8;"/>
   </g>
   <g id="patch_6">
    <path d="M 57.6 41.472 
L 414.72 41.472 
" style="fill:none;stroke:#000000;stroke-linecap:square;stroke-linejoin:miter;stroke-width:0.8;"/>
   </g>
   <g id="legend_1">
    <g id="patch_7">
     <path d="M 276.52 122.972 
L 407.72 122.972 
Q 409.72 122.972 409.72 120.972 
L 409.72 48.472 
Q 409.72 46.472 407.72 46.472 
L 276.52 46.472 
Q 274.52 46.472 274.52 48.472 
L 274.52 120.972 
Q 274.52 122.972 276.52 122.972 
z
" style="fill:#ffffff;opacity:0.8;stroke:#cccccc;stroke-linejoin:miter;"/>
    </g>
    <g id="line2d_77">
     <path d="M 278.52 54.572 
L 298.52 54.572 
" style="fill:none;stroke:#1f77b4;stroke-linecap:square;stroke-width:1.5;"/>
    </g>
    <g id="line2d_78"/>
    <g id="text_17">
     <!-- $diameter=$0.25 μm -->
     <defs>
      <path d="M 41.796875 8.203125 
Q 38.1875 3.46875 33.25 1.015625 
Q 28.328125 -1.421875 22.3125 -1.421875 
Q 14.109375 -1.421875 9.34375 4.171875 
Q 4.59375 9.765625 4.59375 19.484375 
Q 4.59375 27.59375 7.46875 34.9375 
Q 10.359375 42.28125 15.828125 48.09375 
Q 19.4375 51.953125 23.96875 53.96875 
Q 28.515625 56 33.5 56 
Q 38.765625 56 42.796875 53.453125 
Q 46.828125 50.921875 49.03125 46.1875 
L 54.890625 75.984375 
L 63.921875 75.984375 
L 49.125 0 
L 40.09375 0 
z
M 13.921875 21.09375 
Q 13.921875 14.015625 17.109375 10.0625 
Q 20.3125 6.109375 25.984375 6.109375 
Q 30.171875 6.109375 33.765625 8.125 
Q 37.359375 10.15625 40.09375 14.109375 
Q 42.96875 18.21875 44.625 23.578125 
Q 46.296875 28.953125 46.296875 34.1875 
Q 46.296875 40.96875 43.09375 44.765625 
Q 39.890625 48.578125 34.28125 48.578125 
Q 30.03125 48.578125 26.359375 46.578125 
Q 22.703125 44.578125 20.125 40.828125 
Q 17.28125 36.765625 15.59375 31.390625 
Q 13.921875 26.03125 13.921875 21.09375 
z
" id="DejaVuSans-Oblique-100"/>
      <path d="M 18.3125 75.984375 
L 27.296875 75.984375 
L 25.09375 64.59375 
L 16.109375 64.59375 
z
M 14.203125 54.6875 
L 23.1875 54.6875 
L 12.5 0 
L 3.515625 0 
z
" id="DejaVuSans-Oblique-105"/>
      <path d="M 53.71875 31.203125 
L 47.609375 0 
L 38.625 0 
L 40.28125 8.296875 
Q 36.328125 3.421875 31.265625 1 
Q 26.21875 -1.421875 20.015625 -1.421875 
Q 13.03125 -1.421875 8.5625 2.84375 
Q 4.109375 7.125 4.109375 13.8125 
Q 4.109375 23.390625 11.75 28.953125 
Q 19.390625 34.515625 32.8125 34.515625 
L 45.3125 34.515625 
L 45.796875 36.921875 
Q 45.90625 37.3125 45.953125 37.765625 
Q 46 38.234375 46 39.203125 
Q 46 43.5625 42.453125 45.96875 
Q 38.921875 48.390625 32.515625 48.390625 
Q 28.125 48.390625 23.5 47.265625 
Q 18.890625 46.140625 14.015625 43.890625 
L 15.578125 52.203125 
Q 20.65625 54.109375 25.515625 55.046875 
Q 30.375 56 34.90625 56 
Q 44.578125 56 49.625 51.796875 
Q 54.6875 47.609375 54.6875 39.59375 
Q 54.6875 37.984375 54.4375 35.8125 
Q 54.203125 33.640625 53.71875 31.203125 
z
M 44 27.484375 
L 35.015625 27.484375 
Q 23.96875 27.484375 18.671875 24.53125 
Q 13.375 21.578125 13.375 15.375 
Q 13.375 11.078125 16.078125 8.640625 
Q 18.796875 6.203125 23.578125 6.203125 
Q 30.90625 6.203125 36.375 11.453125 
Q 41.84375 16.703125 43.609375 25.484375 
z
" id="DejaVuSans-Oblique-97"/>
      <path d="M 89.796875 33.015625 
L 83.40625 0 
L 74.421875 0 
L 80.71875 32.71875 
Q 81.109375 34.8125 81.296875 36.328125 
Q 81.5 37.84375 81.5 38.921875 
Q 81.5 43.3125 79.046875 45.75 
Q 76.609375 48.1875 72.21875 48.1875 
Q 65.671875 48.1875 60.546875 43.28125 
Q 55.421875 38.375 53.90625 30.515625 
L 47.90625 0 
L 38.921875 0 
L 45.3125 32.71875 
Q 45.703125 34.515625 45.890625 36.046875 
Q 46.09375 37.59375 46.09375 38.8125 
Q 46.09375 43.265625 43.65625 45.71875 
Q 41.21875 48.1875 36.921875 48.1875 
Q 30.28125 48.1875 25.140625 43.28125 
Q 20.015625 38.375 18.5 30.515625 
L 12.5 0 
L 3.515625 0 
L 14.203125 54.6875 
L 23.1875 54.6875 
L 21.484375 46.1875 
Q 25.140625 50.984375 30.046875 53.484375 
Q 34.96875 56 40.578125 56 
Q 46.53125 56 50.359375 52.875 
Q 54.203125 49.75 54.984375 44.1875 
Q 59.078125 49.953125 64.46875 52.96875 
Q 69.875 56 75.875 56 
Q 82.90625 56 86.734375 51.953125 
Q 90.578125 47.90625 90.578125 40.484375 
Q 90.578125 38.875 90.375 36.9375 
Q 90.1875 35.015625 89.796875 33.015625 
z
" id="DejaVuSans-Oblique-109"/>
      <path d="M 48.09375 32.234375 
Q 48.25 33.015625 48.3125 33.84375 
Q 48.390625 34.671875 48.390625 35.5 
Q 48.390625 41.453125 44.890625 44.921875 
Q 41.40625 48.390625 35.40625 48.390625 
Q 28.71875 48.390625 23.578125 44.15625 
Q 18.453125 39.9375 15.828125 32.171875 
z
M 55.90625 25.203125 
L 14.109375 25.203125 
Q 13.8125 23.34375 13.71875 22.265625 
Q 13.625 21.1875 13.625 20.40625 
Q 13.625 13.625 17.796875 9.90625 
Q 21.96875 6.203125 29.59375 6.203125 
Q 35.453125 6.203125 40.671875 7.515625 
Q 45.90625 8.84375 50.390625 11.375 
L 48.6875 2.484375 
Q 43.84375 0.53125 38.6875 -0.4375 
Q 33.546875 -1.421875 28.21875 -1.421875 
Q 16.84375 -1.421875 10.71875 4.015625 
Q 4.59375 9.46875 4.59375 19.484375 
Q 4.59375 28.03125 7.640625 35.375 
Q 10.6875 42.71875 16.609375 48.484375 
Q 20.40625 52.09375 25.65625 54.046875 
Q 30.90625 56 36.8125 56 
Q 46.09375 56 51.578125 50.4375 
Q 57.078125 44.875 57.078125 35.5 
Q 57.078125 33.25 56.78125 30.6875 
Q 56.5 28.125 55.90625 25.203125 
z
" id="DejaVuSans-Oblique-101"/>
      <path d="M 42.28125 54.6875 
L 40.921875 47.703125 
L 23 47.703125 
L 17.1875 18.015625 
Q 16.890625 16.359375 16.75 15.234375 
Q 16.609375 14.109375 16.609375 13.484375 
Q 16.609375 10.359375 18.484375 8.9375 
Q 20.359375 7.515625 24.515625 7.515625 
L 33.59375 7.515625 
L 32.078125 0 
L 23.484375 0 
Q 15.484375 0 11.546875 3.125 
Q 7.625 6.25 7.625 12.59375 
Q 7.625 13.71875 7.765625 15.0625 
Q 7.90625 16.40625 8.203125 18.015625 
L 14.015625 47.703125 
L 6.390625 47.703125 
L 7.8125 54.6875 
L 15.28125 54.6875 
L 18.3125 70.21875 
L 27.296875 70.21875 
L 24.3125 54.6875 
z
" id="DejaVuSans-Oblique-116"/>
      <path d="M 44.578125 46.390625 
Q 43.21875 47.125 41.453125 47.515625 
Q 39.703125 47.90625 37.703125 47.90625 
Q 30.515625 47.90625 25.140625 42.453125 
Q 19.78125 37.015625 18.015625 27.875 
L 12.5 0 
L 3.515625 0 
L 14.203125 54.6875 
L 23.1875 54.6875 
L 21.484375 46.1875 
Q 25.046875 50.921875 30 53.453125 
Q 34.96875 56 40.578125 56 
Q 42.046875 56 43.453125 55.828125 
Q 44.875 55.671875 46.296875 55.28125 
z
" id="DejaVuSans-Oblique-114"/>
      <path d="M 10.59375 45.40625 
L 73.1875 45.40625 
L 73.1875 37.203125 
L 10.59375 37.203125 
z
M 10.59375 25.484375 
L 73.1875 25.484375 
L 73.1875 17.1875 
L 10.59375 17.1875 
z
" id="DejaVuSans-61"/>
      <path d="M 10.6875 12.40625 
L 21 12.40625 
L 21 0 
L 10.6875 0 
z
" id="DejaVuSans-46"/>
      <path d="M 8.5 -20.796875 
L 8.5 54.6875 
L 17.484375 54.6875 
L 17.484375 20.703125 
Q 17.484375 13.625 20.84375 10 
Q 24.21875 6.390625 30.8125 6.390625 
Q 38.03125 6.390625 41.671875 10.484375 
Q 45.3125 14.59375 45.3125 22.796875 
L 45.3125 54.6875 
L 54.296875 54.6875 
L 54.296875 12.59375 
Q 54.296875 9.671875 55.140625 8.28125 
Q 56 6.890625 57.8125 6.890625 
Q 58.25 6.890625 59.03125 7.15625 
Q 59.8125 7.421875 61.1875 8.015625 
L 61.1875 0.78125 
Q 59.1875 -0.34375 57.390625 -0.875 
Q 55.609375 -1.421875 53.90625 -1.421875 
Q 50.53125 -1.421875 48.53125 0.484375 
Q 46.53125 2.390625 45.796875 6.296875 
Q 43.359375 2.4375 39.8125 0.5 
Q 36.28125 -1.421875 31.5 -1.421875 
Q 26.515625 -1.421875 23.015625 0.484375 
Q 19.53125 2.390625 17.484375 6.203125 
L 17.484375 -20.796875 
z
" id="DejaVuSans-956"/>
      <path d="M 52 44.1875 
Q 55.375 50.25 60.0625 53.125 
Q 64.75 56 71.09375 56 
Q 79.640625 56 84.28125 50.015625 
Q 88.921875 44.046875 88.921875 33.015625 
L 88.921875 0 
L 79.890625 0 
L 79.890625 32.71875 
Q 79.890625 40.578125 77.09375 44.375 
Q 74.3125 48.1875 68.609375 48.1875 
Q 61.625 48.1875 57.5625 43.546875 
Q 53.515625 38.921875 53.515625 30.90625 
L 53.515625 0 
L 44.484375 0 
L 44.484375 32.71875 
Q 44.484375 40.625 41.703125 44.40625 
Q 38.921875 48.1875 33.109375 48.1875 
Q 26.21875 48.1875 22.15625 43.53125 
Q 18.109375 38.875 18.109375 30.90625 
L 18.109375 0 
L 9.078125 0 
L 9.078125 54.6875 
L 18.109375 54.6875 
L 18.109375 46.1875 
Q 21.1875 51.21875 25.484375 53.609375 
Q 29.78125 56 35.6875 56 
Q 41.65625 56 45.828125 52.96875 
Q 50 49.953125 52 44.1875 
z
" id="DejaVuSans-109"/>
     </defs>
     <g transform="translate(306.52 58.072)scale(0.1 -0.1)">
      <use transform="translate(0 0.015625)" xlink:href="#DejaVuSans-Oblique-100"/>
      <use transform="translate(63.476562 0.015625)" xlink:href="#DejaVuSans-Oblique-105"/>
      <use transform="translate(91.259766 0.015625)" xlink:href="#DejaVuSans-Oblique-97"/>
      <use transform="translate(152.539062 0.015625)" xlink:href="#DejaVuSans-Oblique-109"/>
      <use transform="translate(249.951172 0.015625)" xlink:href="#DejaVuSans-Oblique-101"/>
      <use transform="translate(311.474609 0.015625)" xlink:href="#DejaVuSans-Oblique-116"/>
      <use transform="translate(350.683594 0.015625)" xlink:href="#DejaVuSans-Oblique-101"/>
      <use transform="translate(412.207031 0.015625)" xlink:href="#DejaVuSans-Oblique-114"/>
      <use transform="translate(472.802734 0.015625)" xlink:href="#DejaVuSans-61"/>
      <use transform="translate(576.074219 0.015625)" xlink:href="#DejaVuSans-48"/>
      <use transform="translate(639.697266 0.015625)" xlink:href="#DejaVuSans-46"/>
      <use transform="translate(665.984375 0.015625)" xlink:href="#DejaVuSans-50"/>
      <use transform="translate(729.607422 0.015625)" xlink:href="#DejaVuSans-53"/>
      <use transform="translate(793.230469 0.015625)" xlink:href="#DejaVuSans-32"/>
      <use transform="translate(825.017578 0.015625)" xlink:href="#DejaVuSans-956"/>
      <use transform="translate(888.640625 0.015625)" xlink:href="#DejaVuSans-109"/>
     </g>
    </g>
    <g id="line2d_79">
     <path d="M 278.52 69.272 
L 298.52 69.272 
" style="fill:none;stroke:#ff7f0e;stroke-linecap:square;stroke-width:1.5;"/>
    </g>
    <g id="line2d_80"/>
    <g id="text_18">
     <!-- $diameter=$0.50 μm -->
     <g transform="translate(306.52 72.772)scale(0.1 -0.1)">
      <use transform="translate(0 0.015625)" xlink:href="#DejaVuSans-Oblique-100"/>
      <use transform="translate(63.476562 0.015625)" xlink:href="#DejaVuSans-Oblique-105"/>
      <use transform="translate(91.259766 0.015625)" xlink:href="#DejaVuSans-Oblique-97"/>
      <use transform="translate(152.539062 0.015625)" xlink:href="#DejaVuSans-Oblique-109"/>
      <use transform="translate(249.951172 0.015625)" xlink:href="#DejaVuSans-Oblique-101"/>
      <use transform="translate(311.474609 0.015625)" xlink:href="#DejaVuSans-Oblique-116"/>
      <use transform="translate(350.683594 0.015625)" xlink:href="#DejaVuSans-Oblique-101"/>
      <use transform="translate(412.207031 0.015625)" xlink:href="#DejaVuSans-Oblique-114"/>
      <use transform="translate(472.802734 0.015625)" xlink:href="#DejaVuSans-61"/>
      <use transform="translate(576.074219 0.015625)" xlink:href="#DejaVuSans-48"/>
      <use transform="translate(639.697266 0.015625)" xlink:href="#DejaVuSans-46"/>
      <use transform="translate(671.484375 0.015625)" xlink:href="#DejaVuSans-53"/>
      <use transform="translate(735.107422 0.015625)" xlink:href="#DejaVuSans-48"/>
      <use transform="translate(798.730469 0.015625)" xlink:href="#DejaVuSans-32"/>
      <use transform="translate(830.517578 0.015625)" xlink:href="#DejaVuSans-956"/>
      <use transform="translate(894.140625 0.015625)" xlink:href="#DejaVuSans-109"/>
     </g>
    </g>
    <g id="line2d_81">
     <path d="M 278.52 83.972 
L 298.52 83.972 
" style="fill:none;stroke:#2ca02c;stroke-linecap:square;stroke-width:1.5;"/>
    </g>
    <g id="line2d_82"/>
    <g id="text_19">
     <!-- $diameter=$1.00 μm -->
     <g transform="translate(306.52 87.472)scale(0.1 -0.1)">
      <use transform="translate(0 0.015625)" xlink:href="#DejaVuSans-Oblique-100"/>
      <use transform="translate(63.476562 0.015625)" xlink:href="#DejaVuSans-Oblique-105"/>
      <use transform="translate(91.259766 0.015625)" xlink:href="#DejaVuSans-Oblique-97"/>
      <use transform="translate(152.539062 0.015625)" xlink:href="#DejaVuSans-Oblique-109"/>
      <use transform="translate(249.951172 0.015625)" xlink:href="#DejaVuSans-Oblique-101"/>
      <use transform="translate(311.474609 0.015625)" xlink:href="#DejaVuSans-Oblique-116"/>
      <use transform="translate(350.683594 0.015625)" xlink:href="#DejaVuSans-Oblique-101"/>
      <use transform="translate(412.207031 0.015625)" xlink:href="#DejaVuSans-Oblique-114"/>
      <use transform="translate(472.802734 0.015625)" xlink:href="#DejaVuSans-61"/>
      <use transform="translate(576.074219 0.015625)" xlink:href="#DejaVuSans-49"/>
      <use transform="translate(639.697266 0.015625)" xlink:href="#DejaVuSans-46"/>
      <use transform="translate(671.484375 0.015625)" xlink:href="#DejaVuSans-48"/>
      <use transform="translate(735.107422 0.015625)" xlink:href="#DejaVuSans-48"/>
      <use transform="translate(798.730469 0.015625)" xlink:href="#DejaVuSans-32"/>
      <use transform="translate(830.517578 0.015625)" xlink:href="#DejaVuSans-956"/>
      <use transform="translate(894.140625 0.015625)" xlink:href="#DejaVuSans-109"/>
     </g>
    </g>
    <g id="line2d_83">
     <path d="M 278.52 98.672 
L 298.52 98.672 
" style="fill:none;stroke:#d62728;stroke-linecap:square;stroke-width:1.5;"/>
    </g>
    <g id="line2d_84"/>
    <g id="text_20">
     <!-- $diameter=$2.00 μm -->
     <g transform="translate(306.52 102.172)scale(0.1 -0.1)">
      <use transform="translate(0 0.015625)" xlink:href="#DejaVuSans-Oblique-100"/>
      <use transform="translate(63.476562 0.015625)" xlink:href="#DejaVuSans-Oblique-105"/>
      <use transform="translate(91.259766 0.015625)" xlink:href="#DejaVuSans-Oblique-97"/>
      <use transform="translate(152.539062 0.015625)" xlink:href="#DejaVuSans-Oblique-109"/>
      <use transform="translate(249.951172 0.015625)" xlink:href="#DejaVuSans-Oblique-101"/>
      <use transform="translate(311.474609 0.015625)" xlink:href="#DejaVuSans-Oblique-116"/>
      <use transform="translate(350.683594 0.015625)" xlink:href="#DejaVuSans-Oblique-101"/>
      <use transform="translate(412.207031 0.015625)" xlink:href="#DejaVuSans-Oblique-114"/>
      <use transform="translate(472.802734 0.015625)" xlink:href="#DejaVuSans-61"/>
      <use transform="translate(576.074219 0.015625)" xlink:href="#DejaVuSans-50"/>
      <use transform="translate(639.697266 0.015625)" xlink:href="#DejaVuSans-46"/>
      <use transform="translate(671.484375 0.015625)" xlink:href="#DejaVuSans-48"/>
      <use transform="translate(735.107422 0.015625)" xlink:href="#DejaVuSans-48"/>
      <use transform="translate(798.730469 0.015625)" xlink:href="#DejaVuSans-32"/>
      <use transform="translate(830.517578 0.015625)" xlink:href="#DejaVuSans-956"/>
      <use transform="translate(894.140625 0.015625)" xlink:href="#DejaVuSans-109"/>
     </g>
    </g>
    <g id="line2d_85">
     <path d="M 278.52 113.372 
L 298.52 113.372 
" style="fill:none;stroke:#9467bd;stroke-linecap:square;stroke-width:1.5;"/>
    </g>
    <g id="line2d_86"/>
    <g id="text_21">
     <!-- $diameter=$4.00 μm -->
     <g transform="translate(306.52 116.872)scale(0.1 -0.1)">
      <use transform="translate(0 0.015625)" xlink:href="#DejaVuSans-Oblique-100"/>
      <use transform="translate(63.476562 0.015625)" xlink:href="#DejaVuSans-Oblique-105"/>
      <use transform="translate(91.259766 0.015625)" xlink:href="#DejaVuSans-Oblique-97"/>
      <use transform="translate(152.539062 0.015625)" xlink:href="#DejaVuSans-Oblique-109"/>
      <use transform="translate(249.951172 0.015625)" xlink:href="#DejaVuSans-Oblique-101"/>
      <use transform="translate(311.474609 0.015625)" xlink:href="#DejaVuSans-Oblique-116"/>
      <use transform="translate(350.683594 0.015625)" xlink:href="#DejaVuSans-Oblique-101"/>
      <use transform="translate(412.207031 0.015625)" xlink:href="#DejaVuSans-Oblique-114"/>
      <use transform="translate(472.802734 0.015625)" xlink:href="#DejaVuSans-61"/>
      <use transform="translate(576.074219 0.015625)" xlink:href="#DejaVuSans-52"/>
      <use transform="translate(639.697266 0.015625)" xlink:href="#DejaVuSans-46"/>
      <use transform="translate(671.484375 0.015625)" xlink:href="#DejaVuSans-48"/>
      <use transform="translate(735.107422 0.015625)" xlink:href="#DejaVuSans-48"/>
      <use transform="translate(798.730469 0.015625)" xlink:href="#DejaVuSans-32"/>
      <use transform="translate(830.517578 0.015625)" xlink:href="#DejaVuSans-956"/>
      <use transform="translate(894.140625 0.015625)" xlink:href="#DejaVuSans-109"/>
     </g>
    </g>
   </g>
  </g>
 </g>
 <defs>
  <clipPath id="p3873dc326a">
   <rect height="266.112" width="357.12" x="57.6" y="41.472"/>
  </clipPath>
 </defs>
</svg>
