<?xml version="1.0" encoding="utf-8" standalone="no"?>
<!DOCTYPE svg PUBLIC "-//W3C//DTD SVG 1.1//EN"
  "http://www.w3.org/Graphics/SVG/1.1/DTD/svg11.dtd">
<!-- Created with matplotlib (https://matplotlib.org/) -->
<svg height="345.6pt" version="1.1" viewBox="0 0 460.8 345.6" width="460.8pt" xmlns="http://www.w3.org/2000/svg" xmlns:xlink="http://www.w3.org/1999/xlink">
 <defs>
  <style type="text/css">
*{stroke-linecap:butt;stroke-linejoin:round;}
  </style>
 </defs>
 <g id="figure_1">
  <g id="patch_1">
   <path d="M 0 345.6 
L 460.8 345.6 
L 460.8 0 
L 0 0 
z
" style="fill:#ffffff;"/>
  </g>
  <g id="axes_1">
   <g id="patch_2">
    <path clip-path="url(#p81b0bd3410)" d="M 236.16 288.576 
C 266.405883 288.576 295.417045 276.559183 316.804114 255.172114 
C 338.191183 233.785045 350.208 204.773883 350.208 174.528 
C 350.208 144.282117 338.191183 115.270955 316.804114 93.883886 
C 295.417045 72.496817 266.405883 60.48 236.16 60.48 
C 205.914117 60.48 176.902955 72.496817 155.515886 93.883886 
C 134.128817 115.270955 122.112 144.282117 122.112 174.528 
C 122.112 204.773883 134.128817 233.785045 155.515886 255.172114 
C 176.902955 276.559183 205.914117 288.576 236.16 288.576 
z
" style="fill:#808080;stroke:#808080;stroke-linejoin:miter;"/>
   </g>
   <g id="patch_3">
    <path clip-path="url(#p81b0bd3410)" d="M 236.16 178.70976 
C 237.269016 178.70976 238.332758 178.269143 239.116951 177.484951 
C 239.901143 176.700758 240.34176 175.637016 240.34176 174.528 
C 240.34176 173.418984 239.901143 172.355242 239.116951 171.571049 
C 238.332758 170.786857 237.269016 170.34624 236.16 170.34624 
C 235.050984 170.34624 233.987242 170.786857 233.203049 171.571049 
C 232.418857 172.355242 231.97824 173.418984 231.97824 174.528 
C 231.97824 175.637016 232.418857 176.700758 233.203049 177.484951 
C 233.987242 178.269143 235.050984 178.70976 236.16 178.70976 
z
" style="fill:#0000ff;stroke:#0000ff;stroke-linejoin:miter;"/>
   </g>
   <g id="patch_4">
    <path clip-path="url(#p81b0bd3410)" d="M 236.16 178.3296 
C 237.168196 178.3296 238.135235 177.929039 238.848137 177.216137 
C 239.561039 176.503235 239.9616 175.536196 239.9616 174.528 
C 239.9616 173.519804 239.561039 172.552765 238.848137 171.839863 
C 238.135235 171.126961 237.168196 170.7264 236.16 170.7264 
C 235.151804 170.7264 234.184765 171.126961 233.471863 171.839863 
C 232.758961 172.552765 232.3584 173.519804 232.3584 174.528 
C 232.3584 175.536196 232.758961 176.503235 233.471863 177.216137 
C 234.184765 177.929039 235.151804 178.3296 236.16 178.3296 
z
" style="fill:#add8e6;stroke:#add8e6;stroke-linejoin:miter;"/>
   </g>
  </g>
 </g>
 <defs>
  <clipPath id="p81b0bd3410">
   <rect height="266.112" width="266.112" x="103.104" y="41.472"/>
  </clipPath>
 </defs>
</svg>
