<?xml version="1.0" encoding="utf-8" standalone="no"?>
<!DOCTYPE svg PUBLIC "-//W3C//DTD SVG 1.1//EN"
  "http://www.w3.org/Graphics/SVG/1.1/DTD/svg11.dtd">
<!-- Created with matplotlib (https://matplotlib.org/) -->
<svg height="345.6pt" version="1.1" viewBox="0 0 460.8 345.6" width="460.8pt" xmlns="http://www.w3.org/2000/svg" xmlns:xlink="http://www.w3.org/1999/xlink">
 <defs>
  <style type="text/css">
*{stroke-linecap:butt;stroke-linejoin:round;}
  </style>
 </defs>
 <g id="figure_1">
  <g id="patch_1">
   <path d="M 0 345.6 
L 460.8 345.6 
L 460.8 0 
L 0 0 
z
" style="fill:#ffffff;"/>
  </g>
  <g id="axes_1">
   <g id="patch_2">
    <path clip-path="url(#peb3dc7d6a6)" d="M 138.763636 162.432 
C 154.80312 162.432 170.187827 156.059446 181.529454 144.717818 
C 192.871082 133.376191 199.243636 117.991483 199.243636 101.952 
C 199.243636 85.912517 192.871082 70.527809 181.529454 59.186182 
C 170.187827 47.844554 154.80312 41.472 138.763636 41.472 
C 122.724153 41.472 107.339446 47.844554 95.997818 59.186182 
C 84.656191 70.527809 78.283636 85.912517 78.283636 101.952 
C 78.283636 117.991483 84.656191 133.376191 95.997818 144.717818 
C 107.339446 156.059446 122.724153 162.432 138.763636 162.432 
z
" style="fill:#808080;stroke:#808080;stroke-linejoin:miter;"/>
   </g>
   <g id="patch_3">
    <path clip-path="url(#peb3dc7d6a6)" d="M 138.763636 103.1616 
C 139.084426 103.1616 139.39212 103.034149 139.618953 102.807316 
C 139.845785 102.580484 139.973236 102.27279 139.973236 101.952 
C 139.973236 101.63121 139.845785 101.323516 139.618953 101.096684 
C 139.39212 100.869851 139.084426 100.7424 138.763636 100.7424 
C 138.442847 100.7424 138.135153 100.869851 137.90832 101.096684 
C 137.681487 101.323516 137.554036 101.63121 137.554036 101.952 
C 137.554036 102.27279 137.681487 102.580484 137.90832 102.807316 
C 138.135153 103.034149 138.442847 103.1616 138.763636 103.1616 
z
" style="fill:#0000ff;stroke:#0000ff;stroke-linejoin:miter;"/>
   </g>
   <g id="patch_4">
    <path clip-path="url(#peb3dc7d6a6)" d="M 138.763636 102.96 
C 139.030961 102.96 139.287373 102.853791 139.4764 102.664764 
C 139.665427 102.475737 139.771636 102.219325 139.771636 101.952 
C 139.771636 101.684675 139.665427 101.428263 139.4764 101.239236 
C 139.287373 101.050209 139.030961 100.944 138.763636 100.944 
C 138.496312 100.944 138.2399 101.050209 138.050873 101.239236 
C 137.861846 101.428263 137.755636 101.684675 137.755636 101.952 
C 137.755636 102.219325 137.861846 102.475737 138.050873 102.664764 
C 138.2399 102.853791 138.496312 102.96 138.763636 102.96 
z
" style="fill:#add8e6;stroke:#add8e6;stroke-linejoin:miter;"/>
   </g>
  </g>
  <g id="axes_2">
   <g id="patch_5">
    <path clip-path="url(#pcb09a80e52)" d="M 333.556364 162.432 
C 349.595847 162.432 364.980554 156.059446 376.322182 144.717818 
C 387.663809 133.376191 394.036364 117.991483 394.036364 101.952 
C 394.036364 85.912517 387.663809 70.527809 376.322182 59.186182 
C 364.980554 47.844554 349.595847 41.472 333.556364 41.472 
C 317.51688 41.472 302.132173 47.844554 290.790546 59.186182 
C 279.448918 70.527809 273.076364 85.912517 273.076364 101.952 
C 273.076364 117.991483 279.448918 133.376191 290.790546 144.717818 
C 302.132173 156.059446 317.51688 162.432 333.556364 162.432 
z
" style="fill:#808080;stroke:#808080;stroke-linejoin:miter;"/>
   </g>
   <g id="patch_6">
    <path clip-path="url(#pcb09a80e52)" d="M 333.556364 104.1696 
C 334.144478 104.1696 334.708584 103.93594 335.124444 103.52008 
C 335.540303 103.10422 335.773964 102.540114 335.773964 101.952 
C 335.773964 101.363886 335.540303 100.79978 335.124444 100.38392 
C 334.708584 99.96806 334.144478 99.7344 333.556364 99.7344 
C 332.968249 99.7344 332.404143 99.96806 331.988284 100.38392 
C 331.572424 100.79978 331.338764 101.363886 331.338764 101.952 
C 331.338764 102.540114 331.572424 103.10422 331.988284 103.52008 
C 332.404143 103.93594 332.968249 104.1696 333.556364 104.1696 
z
" style="fill:#0000ff;stroke:#0000ff;stroke-linejoin:miter;"/>
   </g>
   <g id="patch_7">
    <path clip-path="url(#pcb09a80e52)" d="M 333.556364 103.968 
C 334.091013 103.968 334.603837 103.755582 334.981891 103.377527 
C 335.359945 102.999473 335.572364 102.486649 335.572364 101.952 
C 335.572364 101.417351 335.359945 100.904527 334.981891 100.526473 
C 334.603837 100.148418 334.091013 99.936 333.556364 99.936 
C 333.021714 99.936 332.508891 100.148418 332.130836 100.526473 
C 331.752782 100.904527 331.540364 101.417351 331.540364 101.952 
C 331.540364 102.486649 331.752782 102.999473 332.130836 103.377527 
C 332.508891 103.755582 333.021714 103.968 333.556364 103.968 
z
" style="fill:#add8e6;stroke:#add8e6;stroke-linejoin:miter;"/>
   </g>
  </g>
  <g id="axes_3">
   <g id="patch_8">
    <path clip-path="url(#p49bb438911)" d="M 138.763636 307.584 
C 154.80312 307.584 170.187827 301.211446 181.529454 289.869818 
C 192.871082 278.528191 199.243636 263.143483 199.243636 247.104 
C 199.243636 231.064517 192.871082 215.679809 181.529454 204.338182 
C 170.187827 192.996554 154.80312 186.624 138.763636 186.624 
C 122.724153 186.624 107.339446 192.996554 95.997818 204.338182 
C 84.656191 215.679809 78.283636 231.064517 78.283636 247.104 
C 78.283636 263.143483 84.656191 278.528191 95.997818 289.869818 
C 107.339446 301.211446 122.724153 307.584 138.763636 307.584 
z
" style="fill:#808080;stroke:#808080;stroke-linejoin:miter;"/>
   </g>
   <g id="patch_9">
    <path clip-path="url(#p49bb438911)" d="M 138.763636 251.3376 
C 139.8864 251.3376 140.96333 250.891521 141.757244 250.097607 
C 142.551158 249.303693 142.997236 248.226764 142.997236 247.104 
C 142.997236 245.981236 142.551158 244.904307 141.757244 244.110393 
C 140.96333 243.316479 139.8864 242.8704 138.763636 242.8704 
C 137.640873 242.8704 136.563943 243.316479 135.770029 244.110393 
C 134.976115 244.904307 134.530036 245.981236 134.530036 247.104 
C 134.530036 248.226764 134.976115 249.303693 135.770029 250.097607 
C 136.563943 250.891521 137.640873 251.3376 138.763636 251.3376 
z
" style="fill:#0000ff;stroke:#0000ff;stroke-linejoin:miter;"/>
   </g>
   <g id="patch_10">
    <path clip-path="url(#p49bb438911)" d="M 138.763636 251.136 
C 139.832935 251.136 140.858582 250.711163 141.614691 249.955055 
C 142.370799 249.198946 142.795636 248.173299 142.795636 247.104 
C 142.795636 246.034701 142.370799 245.009054 141.614691 244.252945 
C 140.858582 243.496837 139.832935 243.072 138.763636 243.072 
C 137.694337 243.072 136.66869 243.496837 135.912582 244.252945 
C 135.156473 245.009054 134.731636 246.034701 134.731636 247.104 
C 134.731636 248.173299 135.156473 249.198946 135.912582 249.955055 
C 136.66869 250.711163 137.694337 251.136 138.763636 251.136 
z
" style="fill:#add8e6;stroke:#add8e6;stroke-linejoin:miter;"/>
   </g>
  </g>
  <g id="axes_4">
   <g id="patch_11">
    <path clip-path="url(#p006995577f)" d="M 333.556364 307.584 
C 349.595847 307.584 364.980554 301.211446 376.322182 289.869818 
C 387.663809 278.528191 394.036364 263.143483 394.036364 247.104 
C 394.036364 231.064517 387.663809 215.679809 376.322182 204.338182 
C 364.980554 192.996554 349.595847 186.624 333.556364 186.624 
C 317.51688 186.624 302.132173 192.996554 290.790546 204.338182 
C 279.448918 215.679809 273.076364 231.064517 273.076364 247.104 
C 273.076364 263.143483 279.448918 278.528191 290.790546 289.869818 
C 302.132173 301.211446 317.51688 307.584 333.556364 307.584 
z
" style="fill:#808080;stroke:#808080;stroke-linejoin:miter;"/>
   </g>
   <g id="patch_12">
    <path clip-path="url(#p006995577f)" d="M 333.556364 255.3696 
C 335.748426 255.3696 337.851003 254.498684 339.401025 252.948662 
C 340.951048 251.398639 341.821964 249.296063 341.821964 247.104 
C 341.821964 244.911937 340.951048 242.809361 339.401025 241.259338 
C 337.851003 239.709316 335.748426 238.8384 333.556364 238.8384 
C 331.364301 238.8384 329.261724 239.709316 327.711702 241.259338 
C 326.161679 242.809361 325.290764 244.911937 325.290764 247.104 
C 325.290764 249.296063 326.161679 251.398639 327.711702 252.948662 
C 329.261724 254.498684 331.364301 255.3696 333.556364 255.3696 
z
" style="fill:#0000ff;stroke:#0000ff;stroke-linejoin:miter;"/>
   </g>
   <g id="patch_13">
    <path clip-path="url(#p006995577f)" d="M 333.556364 255.168 
C 335.694961 255.168 337.746256 254.318326 339.258473 252.806109 
C 340.77069 251.293892 341.620364 249.242598 341.620364 247.104 
C 341.620364 244.965402 340.77069 242.914108 339.258473 241.401891 
C 337.746256 239.889674 335.694961 239.04 333.556364 239.04 
C 331.417766 239.04 329.366472 239.889674 327.854255 241.401891 
C 326.342038 242.914108 325.492364 244.965402 325.492364 247.104 
C 325.492364 249.242598 326.342038 251.293892 327.854255 252.806109 
C 329.366472 254.318326 331.417766 255.168 333.556364 255.168 
z
" style="fill:#add8e6;stroke:#add8e6;stroke-linejoin:miter;"/>
   </g>
  </g>
 </g>
 <defs>
  <clipPath id="peb3dc7d6a6">
   <rect height="120.96" width="120.96" x="78.283636" y="41.472"/>
  </clipPath>
  <clipPath id="pcb09a80e52">
   <rect height="120.96" width="120.96" x="273.076364" y="41.472"/>
  </clipPath>
  <clipPath id="p49bb438911">
   <rect height="120.96" width="120.96" x="78.283636" y="186.624"/>
  </clipPath>
  <clipPath id="p006995577f">
   <rect height="120.96" width="120.96" x="273.076364" y="186.624"/>
  </clipPath>
 </defs>
</svg>
