<?xml version="1.0" encoding="utf-8" standalone="no"?>
<!DOCTYPE svg PUBLIC "-//W3C//DTD SVG 1.1//EN"
  "http://www.w3.org/Graphics/SVG/1.1/DTD/svg11.dtd">
<!-- Created with matplotlib (https://matplotlib.org/) -->
<svg height="345.6pt" version="1.1" viewBox="0 0 460.8 345.6" width="460.8pt" xmlns="http://www.w3.org/2000/svg" xmlns:xlink="http://www.w3.org/1999/xlink">
 <defs>
  <style type="text/css">
*{stroke-linecap:butt;stroke-linejoin:round;}
  </style>
 </defs>
 <g id="figure_1">
  <g id="patch_1">
   <path d="M 0 345.6 
L 460.8 345.6 
L 460.8 0 
L 0 0 
z
" style="fill:#ffffff;"/>
  </g>
  <g id="axes_1">
   <g id="patch_2">
    <path clip-path="url(#pc70f1e9b7c)" d="M 236.16 288.576 
C 266.405883 288.576 295.417045 276.559183 316.804114 255.172114 
C 338.191183 233.785045 350.208 204.773883 350.208 174.528 
C 350.208 144.282117 338.191183 115.270955 316.804114 93.883886 
C 295.417045 72.496817 266.405883 60.48 236.16 60.48 
C 205.914117 60.48 176.902955 72.496817 155.515886 93.883886 
C 134.128817 115.270955 122.112 144.282117 122.112 174.528 
C 122.112 204.773883 134.128817 233.785045 155.515886 255.172114 
C 176.902955 276.559183 205.914117 288.576 236.16 288.576 
z
" style="fill:#808080;stroke:#808080;stroke-linejoin:miter;"/>
   </g>
   <g id="patch_3">
    <path clip-path="url(#pc70f1e9b7c)" d="M 236.16 178.70976 
C 237.269016 178.70976 238.332758 178.269143 239.116951 177.484951 
C 239.901143 176.700758 240.34176 175.637016 240.34176 174.528 
C 240.34176 173.418984 239.901143 172.355242 239.116951 171.571049 
C 238.332758 170.786857 237.269016 170.34624 236.16 170.34624 
C 235.050984 170.34624 233.987242 170.786857 233.203049 171.571049 
C 232.418857 172.355242 231.97824 173.418984 231.97824 174.528 
C 231.97824 175.637016 232.418857 176.700758 233.203049 177.484951 
C 233.987242 178.269143 235.050984 178.70976 236.16 178.70976 
z
" style="fill:#0000ff;stroke:#0000ff;stroke-linejoin:miter;"/>
   </g>
   <g id="patch_4">
    <path clip-path="url(#pc70f1e9b7c)" d="M 236.16 178.3296 
C 237.168196 178.3296 238.135235 177.929039 238.848137 177.216137 
C 239.561039 176.503235 239.9616 175.536196 239.9616 174.528 
C 239.9616 173.519804 239.561039 172.552765 238.848137 171.839863 
C 238.135235 171.126961 237.168196 170.7264 236.16 170.7264 
C 235.151804 170.7264 234.184765 171.126961 233.471863 171.839863 
C 232.758961 172.552765 232.3584 173.519804 232.3584 174.528 
C 232.3584 175.536196 232.758961 176.503235 233.471863 177.216137 
C 234.184765 177.929039 235.151804 178.3296 236.16 178.3296 
z
" style="fill:#ffff00;stroke:#ffff00;stroke-linejoin:miter;"/>
   </g>
   <g id="patch_5">
    <path clip-path="url(#pc70f1e9b7c)" d="M 244.52352 178.70976 
C 245.632536 178.70976 246.696278 178.269143 247.480471 177.484951 
C 248.264663 176.700758 248.70528 175.637016 248.70528 174.528 
C 248.70528 173.418984 248.264663 172.355242 247.480471 171.571049 
C 246.696278 170.786857 245.632536 170.34624 244.52352 170.34624 
C 243.414504 170.34624 242.350762 170.786857 241.566569 171.571049 
C 240.782377 172.355242 240.34176 173.418984 240.34176 174.528 
C 240.34176 175.637016 240.782377 176.700758 241.566569 177.484951 
C 242.350762 178.269143 243.414504 178.70976 244.52352 178.70976 
z
" style="fill:#0000ff;stroke:#0000ff;stroke-linejoin:miter;"/>
   </g>
   <g id="patch_6">
    <path clip-path="url(#pc70f1e9b7c)" d="M 244.52352 178.3296 
C 245.531716 178.3296 246.498755 177.929039 247.211657 177.216137 
C 247.924559 176.503235 248.32512 175.536196 248.32512 174.528 
C 248.32512 173.519804 247.924559 172.552765 247.211657 171.839863 
C 246.498755 171.126961 245.531716 170.7264 244.52352 170.7264 
C 243.515324 170.7264 242.548285 171.126961 241.835383 171.839863 
C 241.122481 172.552765 240.72192 173.519804 240.72192 174.528 
C 240.72192 175.536196 241.122481 176.503235 241.835383 177.216137 
C 242.548285 177.929039 243.515324 178.3296 244.52352 178.3296 
z
" style="fill:#add8e6;stroke:#add8e6;stroke-linejoin:miter;"/>
   </g>
   <g id="patch_7">
    <path clip-path="url(#pc70f1e9b7c)" d="M 240.34176 171.466739 
C 241.450776 171.466739 242.514518 171.026123 243.298711 170.24193 
C 244.082903 169.457738 244.52352 168.393995 244.52352 167.284979 
C 244.52352 166.175963 244.082903 165.112221 243.298711 164.328028 
C 242.514518 163.543836 241.450776 163.103219 240.34176 163.103219 
C 239.232744 163.103219 238.169002 163.543836 237.384809 164.328028 
C 236.600617 165.112221 236.16 166.175963 236.16 167.284979 
C 236.16 168.393995 236.600617 169.457738 237.384809 170.24193 
C 238.169002 171.026123 239.232744 171.466739 240.34176 171.466739 
z
" style="fill:#0000ff;stroke:#0000ff;stroke-linejoin:miter;"/>
   </g>
   <g id="patch_8">
    <path clip-path="url(#pc70f1e9b7c)" d="M 240.34176 171.086579 
C 241.349956 171.086579 242.316995 170.686019 243.029897 169.973116 
C 243.742799 169.260214 244.14336 168.293175 244.14336 167.284979 
C 244.14336 166.276783 243.742799 165.309744 243.029897 164.596842 
C 242.316995 163.88394 241.349956 163.483379 240.34176 163.483379 
C 239.333564 163.483379 238.366525 163.88394 237.653623 164.596842 
C 236.940721 165.309744 236.54016 166.276783 236.54016 167.284979 
C 236.54016 168.293175 236.940721 169.260214 237.653623 169.973116 
C 238.366525 170.686019 239.333564 171.086579 240.34176 171.086579 
z
" style="fill:#add8e6;stroke:#add8e6;stroke-linejoin:miter;"/>
   </g>
   <g id="patch_9">
    <path clip-path="url(#pc70f1e9b7c)" d="M 231.97824 171.466739 
C 233.087256 171.466739 234.150998 171.026123 234.935191 170.24193 
C 235.719383 169.457738 236.16 168.393995 236.16 167.284979 
C 236.16 166.175963 235.719383 165.112221 234.935191 164.328028 
C 234.150998 163.543836 233.087256 163.103219 231.97824 163.103219 
C 230.869224 163.103219 229.805482 163.543836 229.021289 164.328028 
C 228.237097 165.112221 227.79648 166.175963 227.79648 167.284979 
C 227.79648 168.393995 228.237097 169.457738 229.021289 170.24193 
C 229.805482 171.026123 230.869224 171.466739 231.97824 171.466739 
z
" style="fill:#0000ff;stroke:#0000ff;stroke-linejoin:miter;"/>
   </g>
   <g id="patch_10">
    <path clip-path="url(#pc70f1e9b7c)" d="M 231.97824 171.086579 
C 232.986436 171.086579 233.953475 170.686019 234.666377 169.973116 
C 235.379279 169.260214 235.77984 168.293175 235.77984 167.284979 
C 235.77984 166.276783 235.379279 165.309744 234.666377 164.596842 
C 233.953475 163.88394 232.986436 163.483379 231.97824 163.483379 
C 230.970044 163.483379 230.003005 163.88394 229.290103 164.596842 
C 228.577201 165.309744 228.17664 166.276783 228.17664 167.284979 
C 228.17664 168.293175 228.577201 169.260214 229.290103 169.973116 
C 230.003005 170.686019 230.970044 171.086579 231.97824 171.086579 
z
" style="fill:#add8e6;stroke:#add8e6;stroke-linejoin:miter;"/>
   </g>
   <g id="patch_11">
    <path clip-path="url(#pc70f1e9b7c)" d="M 227.79648 178.70976 
C 228.905496 178.70976 229.969238 178.269143 230.753431 177.484951 
C 231.537623 176.700758 231.97824 175.637016 231.97824 174.528 
C 231.97824 173.418984 231.537623 172.355242 230.753431 171.571049 
C 229.969238 170.786857 228.905496 170.34624 227.79648 170.34624 
C 226.687464 170.34624 225.623722 170.786857 224.839529 171.571049 
C 224.055337 172.355242 223.61472 173.418984 223.61472 174.528 
C 223.61472 175.637016 224.055337 176.700758 224.839529 177.484951 
C 225.623722 178.269143 226.687464 178.70976 227.79648 178.70976 
z
" style="fill:#0000ff;stroke:#0000ff;stroke-linejoin:miter;"/>
   </g>
   <g id="patch_12">
    <path clip-path="url(#pc70f1e9b7c)" d="M 227.79648 178.3296 
C 228.804676 178.3296 229.771715 177.929039 230.484617 177.216137 
C 231.197519 176.503235 231.59808 175.536196 231.59808 174.528 
C 231.59808 173.519804 231.197519 172.552765 230.484617 171.839863 
C 229.771715 171.126961 228.804676 170.7264 227.79648 170.7264 
C 226.788284 170.7264 225.821245 171.126961 225.108343 171.839863 
C 224.395441 172.552765 223.99488 173.519804 223.99488 174.528 
C 223.99488 175.536196 224.395441 176.503235 225.108343 177.216137 
C 225.821245 177.929039 226.788284 178.3296 227.79648 178.3296 
z
" style="fill:#add8e6;stroke:#add8e6;stroke-linejoin:miter;"/>
   </g>
   <g id="patch_13">
    <path clip-path="url(#pc70f1e9b7c)" d="M 231.97824 185.952781 
C 233.087256 185.952781 234.150998 185.512164 234.935191 184.727972 
C 235.719383 183.943779 236.16 182.880037 236.16 181.771021 
C 236.16 180.662005 235.719383 179.598262 234.935191 178.81407 
C 234.150998 178.029877 233.087256 177.589261 231.97824 177.589261 
C 230.869224 177.589261 229.805482 178.029877 229.021289 178.81407 
C 228.237097 179.598262 227.79648 180.662005 227.79648 181.771021 
C 227.79648 182.880037 228.237097 183.943779 229.021289 184.727972 
C 229.805482 185.512164 230.869224 185.952781 231.97824 185.952781 
z
" style="fill:#0000ff;stroke:#0000ff;stroke-linejoin:miter;"/>
   </g>
   <g id="patch_14">
    <path clip-path="url(#pc70f1e9b7c)" d="M 231.97824 185.572621 
C 232.986436 185.572621 233.953475 185.17206 234.666377 184.459158 
C 235.379279 183.746256 235.77984 182.779217 235.77984 181.771021 
C 235.77984 180.762825 235.379279 179.795786 234.666377 179.082884 
C 233.953475 178.369981 232.986436 177.969421 231.97824 177.969421 
C 230.970044 177.969421 230.003005 178.369981 229.290103 179.082884 
C 228.577201 179.795786 228.17664 180.762825 228.17664 181.771021 
C 228.17664 182.779217 228.577201 183.746256 229.290103 184.459158 
C 230.003005 185.17206 230.970044 185.572621 231.97824 185.572621 
z
" style="fill:#add8e6;stroke:#add8e6;stroke-linejoin:miter;"/>
   </g>
   <g id="patch_15">
    <path clip-path="url(#pc70f1e9b7c)" d="M 240.34176 185.952781 
C 241.450776 185.952781 242.514518 185.512164 243.298711 184.727972 
C 244.082903 183.943779 244.52352 182.880037 244.52352 181.771021 
C 244.52352 180.662005 244.082903 179.598262 243.298711 178.81407 
C 242.514518 178.029877 241.450776 177.589261 240.34176 177.589261 
C 239.232744 177.589261 238.169002 178.029877 237.384809 178.81407 
C 236.600617 179.598262 236.16 180.662005 236.16 181.771021 
C 236.16 182.880037 236.600617 183.943779 237.384809 184.727972 
C 238.169002 185.512164 239.232744 185.952781 240.34176 185.952781 
z
" style="fill:#0000ff;stroke:#0000ff;stroke-linejoin:miter;"/>
   </g>
   <g id="patch_16">
    <path clip-path="url(#pc70f1e9b7c)" d="M 240.34176 185.572621 
C 241.349956 185.572621 242.316995 185.17206 243.029897 184.459158 
C 243.742799 183.746256 244.14336 182.779217 244.14336 181.771021 
C 244.14336 180.762825 243.742799 179.795786 243.029897 179.082884 
C 242.316995 178.369981 241.349956 177.969421 240.34176 177.969421 
C 239.333564 177.969421 238.366525 178.369981 237.653623 179.082884 
C 236.940721 179.795786 236.54016 180.762825 236.54016 181.771021 
C 236.54016 182.779217 236.940721 183.746256 237.653623 184.459158 
C 238.366525 185.17206 239.333564 185.572621 240.34176 185.572621 
z
" style="fill:#add8e6;stroke:#add8e6;stroke-linejoin:miter;"/>
   </g>
  </g>
 </g>
 <defs>
  <clipPath id="pc70f1e9b7c">
   <rect height="266.112" width="266.112" x="103.104" y="41.472"/>
  </clipPath>
 </defs>
</svg>
