<?xml version="1.0" encoding="utf-8" standalone="no"?>
<!DOCTYPE svg PUBLIC "-//W3C//DTD SVG 1.1//EN"
  "http://www.w3.org/Graphics/SVG/1.1/DTD/svg11.dtd">
<!-- Created with matplotlib (https://matplotlib.org/) -->
<svg height="345.6pt" version="1.1" viewBox="0 0 460.8 345.6" width="460.8pt" xmlns="http://www.w3.org/2000/svg" xmlns:xlink="http://www.w3.org/1999/xlink">
 <defs>
  <style type="text/css">
*{stroke-linecap:butt;stroke-linejoin:round;}
  </style>
 </defs>
 <g id="figure_1">
  <g id="patch_1">
   <path d="M 0 345.6 
L 460.8 345.6 
L 460.8 0 
L 0 0 
z
" style="fill:#ffffff;"/>
  </g>
  <g id="axes_1">
   <g id="patch_2">
    <path clip-path="url(#pac64e955e3)" d="M 138.763636 244.096831 
C 157.213506 244.096831 174.910201 236.76662 187.956229 223.720592 
C 201.002257 210.674564 208.332468 192.97787 208.332468 174.528 
C 208.332468 156.07813 201.002257 138.381436 187.956229 125.335408 
C 174.910201 112.28938 157.213506 104.959169 138.763636 104.959169 
C 120.313767 104.959169 102.617072 112.28938 89.571044 125.335408 
C 76.525016 138.381436 69.194805 156.07813 69.194805 174.528 
C 69.194805 192.97787 76.525016 210.674564 89.571044 223.720592 
C 102.617072 236.76662 120.313767 244.096831 138.763636 244.096831 
z
" style="fill:#808080;stroke:#808080;stroke-linejoin:miter;"/>
   </g>
   <g id="patch_3">
    <path clip-path="url(#pac64e955e3)" d="M 138.763636 177.078857 
C 139.440132 177.078857 140.08901 176.810083 140.567365 176.331728 
C 141.045719 175.853374 141.314494 175.204495 141.314494 174.528 
C 141.314494 173.851505 141.045719 173.202626 140.567365 172.724272 
C 140.08901 172.245917 139.440132 171.977143 138.763636 171.977143 
C 138.087141 171.977143 137.438262 172.245917 136.959908 172.724272 
C 136.481554 173.202626 136.212779 173.851505 136.212779 174.528 
C 136.212779 175.204495 136.481554 175.853374 136.959908 176.331728 
C 137.438262 176.810083 138.087141 177.078857 138.763636 177.078857 
z
" style="fill:#0000ff;stroke:#0000ff;stroke-linejoin:miter;"/>
   </g>
   <g id="patch_4">
    <path clip-path="url(#pac64e955e3)" d="M 138.763636 176.846961 
C 139.378632 176.846961 139.968522 176.602621 140.403389 176.167753 
C 140.838257 175.732885 141.082597 175.142996 141.082597 174.528 
C 141.082597 173.913004 140.838257 173.323115 140.403389 172.888247 
C 139.968522 172.453379 139.378632 172.209039 138.763636 172.209039 
C 138.148641 172.209039 137.558751 172.453379 137.123883 172.888247 
C 136.689016 173.323115 136.444675 173.913004 136.444675 174.528 
C 136.444675 175.142996 136.689016 175.732885 137.123883 176.167753 
C 137.558751 176.602621 138.148641 176.846961 138.763636 176.846961 
z
" style="fill:#ffff00;stroke:#ffff00;stroke-linejoin:miter;"/>
   </g>
   <g id="patch_5">
    <path clip-path="url(#pac64e955e3)" d="M 143.865351 177.078857 
C 144.541846 177.078857 145.190725 176.810083 145.669079 176.331728 
C 146.147433 175.853374 146.416208 175.204495 146.416208 174.528 
C 146.416208 173.851505 146.147433 173.202626 145.669079 172.724272 
C 145.190725 172.245917 144.541846 171.977143 143.865351 171.977143 
C 143.188855 171.977143 142.539977 172.245917 142.061622 172.724272 
C 141.583268 173.202626 141.314494 173.851505 141.314494 174.528 
C 141.314494 175.204495 141.583268 175.853374 142.061622 176.331728 
C 142.539977 176.810083 143.188855 177.078857 143.865351 177.078857 
z
" style="fill:#0000ff;stroke:#0000ff;stroke-linejoin:miter;"/>
   </g>
   <g id="patch_6">
    <path clip-path="url(#pac64e955e3)" d="M 143.865351 176.846961 
C 144.480346 176.846961 145.070236 176.602621 145.505104 176.167753 
C 145.939971 175.732885 146.184312 175.142996 146.184312 174.528 
C 146.184312 173.913004 145.939971 173.323115 145.505104 172.888247 
C 145.070236 172.453379 144.480346 172.209039 143.865351 172.209039 
C 143.250355 172.209039 142.660465 172.453379 142.225598 172.888247 
C 141.79073 173.323115 141.54639 173.913004 141.54639 174.528 
C 141.54639 175.142996 141.79073 175.732885 142.225598 176.167753 
C 142.660465 176.602621 143.250355 176.846961 143.865351 176.846961 
z
" style="fill:#add8e6;stroke:#add8e6;stroke-linejoin:miter;"/>
   </g>
   <g id="patch_7">
    <path clip-path="url(#pac64e955e3)" d="M 141.314494 172.660643 
C 141.990989 172.660643 142.639868 172.391869 143.118222 171.913514 
C 143.596576 171.43516 143.865351 170.786281 143.865351 170.109786 
C 143.865351 169.433291 143.596576 168.784412 143.118222 168.306057 
C 142.639868 167.827703 141.990989 167.558929 141.314494 167.558929 
C 140.637998 167.558929 139.989119 167.827703 139.510765 168.306057 
C 139.032411 168.784412 138.763636 169.433291 138.763636 170.109786 
C 138.763636 170.786281 139.032411 171.43516 139.510765 171.913514 
C 139.989119 172.391869 140.637998 172.660643 141.314494 172.660643 
z
" style="fill:#0000ff;stroke:#0000ff;stroke-linejoin:miter;"/>
   </g>
   <g id="patch_8">
    <path clip-path="url(#pac64e955e3)" d="M 141.314494 172.428747 
C 141.929489 172.428747 142.519379 172.184407 142.954247 171.749539 
C 143.389114 171.314671 143.633455 170.724781 143.633455 170.109786 
C 143.633455 169.49479 143.389114 168.9049 142.954247 168.470033 
C 142.519379 168.035165 141.929489 167.790825 141.314494 167.790825 
C 140.699498 167.790825 140.109608 168.035165 139.67474 168.470033 
C 139.239873 168.9049 138.995532 169.49479 138.995532 170.109786 
C 138.995532 170.724781 139.239873 171.314671 139.67474 171.749539 
C 140.109608 172.184407 140.699498 172.428747 141.314494 172.428747 
z
" style="fill:#add8e6;stroke:#add8e6;stroke-linejoin:miter;"/>
   </g>
   <g id="patch_9">
    <path clip-path="url(#pac64e955e3)" d="M 136.212779 172.660643 
C 136.889274 172.660643 137.538153 172.391869 138.016508 171.913514 
C 138.494862 171.43516 138.763636 170.786281 138.763636 170.109786 
C 138.763636 169.433291 138.494862 168.784412 138.016508 168.306057 
C 137.538153 167.827703 136.889274 167.558929 136.212779 167.558929 
C 135.536284 167.558929 134.887405 167.827703 134.409051 168.306057 
C 133.930696 168.784412 133.661922 169.433291 133.661922 170.109786 
C 133.661922 170.786281 133.930696 171.43516 134.409051 171.913514 
C 134.887405 172.391869 135.536284 172.660643 136.212779 172.660643 
z
" style="fill:#0000ff;stroke:#0000ff;stroke-linejoin:miter;"/>
   </g>
   <g id="patch_10">
    <path clip-path="url(#pac64e955e3)" d="M 136.212779 172.428747 
C 136.827775 172.428747 137.417665 172.184407 137.852532 171.749539 
C 138.2874 171.314671 138.53174 170.724781 138.53174 170.109786 
C 138.53174 169.49479 138.2874 168.9049 137.852532 168.470033 
C 137.417665 168.035165 136.827775 167.790825 136.212779 167.790825 
C 135.597784 167.790825 135.007894 168.035165 134.573026 168.470033 
C 134.138159 168.9049 133.893818 169.49479 133.893818 170.109786 
C 133.893818 170.724781 134.138159 171.314671 134.573026 171.749539 
C 135.007894 172.184407 135.597784 172.428747 136.212779 172.428747 
z
" style="fill:#add8e6;stroke:#add8e6;stroke-linejoin:miter;"/>
   </g>
   <g id="patch_11">
    <path clip-path="url(#pac64e955e3)" d="M 133.661922 177.078857 
C 134.338417 177.078857 134.987296 176.810083 135.46565 176.331728 
C 135.944005 175.853374 136.212779 175.204495 136.212779 174.528 
C 136.212779 173.851505 135.944005 173.202626 135.46565 172.724272 
C 134.987296 172.245917 134.338417 171.977143 133.661922 171.977143 
C 132.985427 171.977143 132.336548 172.245917 131.858194 172.724272 
C 131.379839 173.202626 131.111065 173.851505 131.111065 174.528 
C 131.111065 175.204495 131.379839 175.853374 131.858194 176.331728 
C 132.336548 176.810083 132.985427 177.078857 133.661922 177.078857 
z
" style="fill:#0000ff;stroke:#0000ff;stroke-linejoin:miter;"/>
   </g>
   <g id="patch_12">
    <path clip-path="url(#pac64e955e3)" d="M 133.661922 176.846961 
C 134.276918 176.846961 134.866808 176.602621 135.301675 176.167753 
C 135.736543 175.732885 135.980883 175.142996 135.980883 174.528 
C 135.980883 173.913004 135.736543 173.323115 135.301675 172.888247 
C 134.866808 172.453379 134.276918 172.209039 133.661922 172.209039 
C 133.046926 172.209039 132.457037 172.453379 132.022169 172.888247 
C 131.587301 173.323115 131.342961 173.913004 131.342961 174.528 
C 131.342961 175.142996 131.587301 175.732885 132.022169 176.167753 
C 132.457037 176.602621 133.046926 176.846961 133.661922 176.846961 
z
" style="fill:#add8e6;stroke:#add8e6;stroke-linejoin:miter;"/>
   </g>
   <g id="patch_13">
    <path clip-path="url(#pac64e955e3)" d="M 136.212779 181.497071 
C 136.889274 181.497071 137.538153 181.228297 138.016508 180.749943 
C 138.494862 180.271588 138.763636 179.622709 138.763636 178.946214 
C 138.763636 178.269719 138.494862 177.62084 138.016508 177.142486 
C 137.538153 176.664131 136.889274 176.395357 136.212779 176.395357 
C 135.536284 176.395357 134.887405 176.664131 134.409051 177.142486 
C 133.930696 177.62084 133.661922 178.269719 133.661922 178.946214 
C 133.661922 179.622709 133.930696 180.271588 134.409051 180.749943 
C 134.887405 181.228297 135.536284 181.497071 136.212779 181.497071 
z
" style="fill:#0000ff;stroke:#0000ff;stroke-linejoin:miter;"/>
   </g>
   <g id="patch_14">
    <path clip-path="url(#pac64e955e3)" d="M 136.212779 181.265175 
C 136.827775 181.265175 137.417665 181.020835 137.852532 180.585967 
C 138.2874 180.1511 138.53174 179.56121 138.53174 178.946214 
C 138.53174 178.331219 138.2874 177.741329 137.852532 177.306461 
C 137.417665 176.871593 136.827775 176.627253 136.212779 176.627253 
C 135.597784 176.627253 135.007894 176.871593 134.573026 177.306461 
C 134.138159 177.741329 133.893818 178.331219 133.893818 178.946214 
C 133.893818 179.56121 134.138159 180.1511 134.573026 180.585967 
C 135.007894 181.020835 135.597784 181.265175 136.212779 181.265175 
z
" style="fill:#add8e6;stroke:#add8e6;stroke-linejoin:miter;"/>
   </g>
   <g id="patch_15">
    <path clip-path="url(#pac64e955e3)" d="M 141.314494 181.497071 
C 141.990989 181.497071 142.639868 181.228297 143.118222 180.749943 
C 143.596576 180.271588 143.865351 179.622709 143.865351 178.946214 
C 143.865351 178.269719 143.596576 177.62084 143.118222 177.142486 
C 142.639868 176.664131 141.990989 176.395357 141.314494 176.395357 
C 140.637998 176.395357 139.989119 176.664131 139.510765 177.142486 
C 139.032411 177.62084 138.763636 178.269719 138.763636 178.946214 
C 138.763636 179.622709 139.032411 180.271588 139.510765 180.749943 
C 139.989119 181.228297 140.637998 181.497071 141.314494 181.497071 
z
" style="fill:#0000ff;stroke:#0000ff;stroke-linejoin:miter;"/>
   </g>
   <g id="patch_16">
    <path clip-path="url(#pac64e955e3)" d="M 141.314494 181.265175 
C 141.929489 181.265175 142.519379 181.020835 142.954247 180.585967 
C 143.389114 180.1511 143.633455 179.56121 143.633455 178.946214 
C 143.633455 178.331219 143.389114 177.741329 142.954247 177.306461 
C 142.519379 176.871593 141.929489 176.627253 141.314494 176.627253 
C 140.699498 176.627253 140.109608 176.871593 139.67474 177.306461 
C 139.239873 177.741329 138.995532 178.331219 138.995532 178.946214 
C 138.995532 179.56121 139.239873 180.1511 139.67474 180.585967 
C 140.109608 181.020835 140.699498 181.265175 141.314494 181.265175 
z
" style="fill:#add8e6;stroke:#add8e6;stroke-linejoin:miter;"/>
   </g>
  </g>
  <g id="axes_2">
   <g id="patch_17">
    <path clip-path="url(#p5beb433237)" d="M 333.556364 244.096831 
C 352.006233 244.096831 369.702928 236.76662 382.748956 223.720592 
C 395.794984 210.674564 403.125195 192.97787 403.125195 174.528 
C 403.125195 156.07813 395.794984 138.381436 382.748956 125.335408 
C 369.702928 112.28938 352.006233 104.959169 333.556364 104.959169 
C 315.106494 104.959169 297.409799 112.28938 284.363771 125.335408 
C 271.317743 138.381436 263.987532 156.07813 263.987532 174.528 
C 263.987532 192.97787 271.317743 210.674564 284.363771 223.720592 
C 297.409799 236.76662 315.106494 244.096831 333.556364 244.096831 
z
" style="fill:#808080;stroke:#808080;stroke-linejoin:miter;"/>
   </g>
   <g id="patch_18">
    <path clip-path="url(#p5beb433237)" d="M 333.556364 179.397818 
C 334.847855 179.397818 336.086623 178.884703 336.999845 177.971481 
C 337.913067 177.05826 338.426182 175.819491 338.426182 174.528 
C 338.426182 173.236509 337.913067 171.99774 336.999845 171.084519 
C 336.086623 170.171297 334.847855 169.658182 333.556364 169.658182 
C 332.264873 169.658182 331.026104 170.171297 330.112882 171.084519 
C 329.19966 171.99774 328.686545 173.236509 328.686545 174.528 
C 328.686545 175.819491 329.19966 177.05826 330.112882 177.971481 
C 331.026104 178.884703 332.264873 179.397818 333.556364 179.397818 
z
" style="fill:#0000ff;stroke:#0000ff;stroke-linejoin:miter;"/>
   </g>
   <g id="patch_19">
    <path clip-path="url(#p5beb433237)" d="M 333.556364 179.165922 
C 334.786355 179.165922 335.966135 178.677241 336.83587 177.807506 
C 337.705605 176.937771 338.194286 175.757991 338.194286 174.528 
C 338.194286 173.298009 337.705605 172.118229 336.83587 171.248494 
C 335.966135 170.378759 334.786355 169.890078 333.556364 169.890078 
C 332.326372 169.890078 331.146593 170.378759 330.276857 171.248494 
C 329.407122 172.118229 328.918442 173.298009 328.918442 174.528 
C 328.918442 175.757991 329.407122 176.937771 330.276857 177.807506 
C 331.146593 178.677241 332.326372 179.165922 333.556364 179.165922 
z
" style="fill:#ffff00;stroke:#ffff00;stroke-linejoin:miter;"/>
   </g>
   <g id="patch_20">
    <path clip-path="url(#p5beb433237)" d="M 343.296 179.397818 
C 344.587491 179.397818 345.82626 178.884703 346.739481 177.971481 
C 347.652703 177.05826 348.165818 175.819491 348.165818 174.528 
C 348.165818 173.236509 347.652703 171.99774 346.739481 171.084519 
C 345.82626 170.171297 344.587491 169.658182 343.296 169.658182 
C 342.004509 169.658182 340.76574 170.171297 339.852519 171.084519 
C 338.939297 171.99774 338.426182 173.236509 338.426182 174.528 
C 338.426182 175.819491 338.939297 177.05826 339.852519 177.971481 
C 340.76574 178.884703 342.004509 179.397818 343.296 179.397818 
z
" style="fill:#0000ff;stroke:#0000ff;stroke-linejoin:miter;"/>
   </g>
   <g id="patch_21">
    <path clip-path="url(#p5beb433237)" d="M 343.296 179.165922 
C 344.525991 179.165922 345.705771 178.677241 346.575506 177.807506 
C 347.445241 176.937771 347.933922 175.757991 347.933922 174.528 
C 347.933922 173.298009 347.445241 172.118229 346.575506 171.248494 
C 345.705771 170.378759 344.525991 169.890078 343.296 169.890078 
C 342.066009 169.890078 340.886229 170.378759 340.016494 171.248494 
C 339.146759 172.118229 338.658078 173.298009 338.658078 174.528 
C 338.658078 175.757991 339.146759 176.937771 340.016494 177.807506 
C 340.886229 178.677241 342.066009 179.165922 343.296 179.165922 
z
" style="fill:#add8e6;stroke:#add8e6;stroke-linejoin:miter;"/>
   </g>
   <g id="patch_22">
    <path clip-path="url(#p5beb433237)" d="M 338.426182 170.963046 
C 339.717673 170.963046 340.956441 170.449931 341.869663 169.536709 
C 342.782885 168.623487 343.296 167.384718 343.296 166.093227 
C 343.296 164.801737 342.782885 163.562968 341.869663 162.649746 
C 340.956441 161.736524 339.717673 161.223409 338.426182 161.223409 
C 337.134691 161.223409 335.895922 161.736524 334.9827 162.649746 
C 334.069478 163.562968 333.556364 164.801737 333.556364 166.093227 
C 333.556364 167.384718 334.069478 168.623487 334.9827 169.536709 
C 335.895922 170.449931 337.134691 170.963046 338.426182 170.963046 
z
" style="fill:#0000ff;stroke:#0000ff;stroke-linejoin:miter;"/>
   </g>
   <g id="patch_23">
    <path clip-path="url(#p5beb433237)" d="M 338.426182 170.73115 
C 339.656173 170.73115 340.835953 170.242469 341.705688 169.372734 
C 342.575423 168.502998 343.064104 167.323219 343.064104 166.093227 
C 343.064104 164.863236 342.575423 163.683457 341.705688 162.813721 
C 340.835953 161.943986 339.656173 161.455305 338.426182 161.455305 
C 337.196191 161.455305 336.016411 161.943986 335.146676 162.813721 
C 334.27694 163.683457 333.78826 164.863236 333.78826 166.093227 
C 333.78826 167.323219 334.27694 168.502998 335.146676 169.372734 
C 336.016411 170.242469 337.196191 170.73115 338.426182 170.73115 
z
" style="fill:#add8e6;stroke:#add8e6;stroke-linejoin:miter;"/>
   </g>
   <g id="patch_24">
    <path clip-path="url(#p5beb433237)" d="M 328.686545 170.963046 
C 329.978036 170.963046 331.216805 170.449931 332.130027 169.536709 
C 333.043249 168.623487 333.556364 167.384718 333.556364 166.093227 
C 333.556364 164.801737 333.043249 163.562968 332.130027 162.649746 
C 331.216805 161.736524 329.978036 161.223409 328.686545 161.223409 
C 327.395055 161.223409 326.156286 161.736524 325.243064 162.649746 
C 324.329842 163.562968 323.816727 164.801737 323.816727 166.093227 
C 323.816727 167.384718 324.329842 168.623487 325.243064 169.536709 
C 326.156286 170.449931 327.395055 170.963046 328.686545 170.963046 
z
" style="fill:#0000ff;stroke:#0000ff;stroke-linejoin:miter;"/>
   </g>
   <g id="patch_25">
    <path clip-path="url(#p5beb433237)" d="M 328.686545 170.73115 
C 329.916537 170.73115 331.096316 170.242469 331.966052 169.372734 
C 332.835787 168.502998 333.324468 167.323219 333.324468 166.093227 
C 333.324468 164.863236 332.835787 163.683457 331.966052 162.813721 
C 331.096316 161.943986 329.916537 161.455305 328.686545 161.455305 
C 327.456554 161.455305 326.276775 161.943986 325.407039 162.813721 
C 324.537304 163.683457 324.048623 164.863236 324.048623 166.093227 
C 324.048623 167.323219 324.537304 168.502998 325.407039 169.372734 
C 326.276775 170.242469 327.456554 170.73115 328.686545 170.73115 
z
" style="fill:#add8e6;stroke:#add8e6;stroke-linejoin:miter;"/>
   </g>
   <g id="patch_26">
    <path clip-path="url(#p5beb433237)" d="M 323.816727 179.397818 
C 325.108218 179.397818 326.346987 178.884703 327.260209 177.971481 
C 328.173431 177.05826 328.686545 175.819491 328.686545 174.528 
C 328.686545 173.236509 328.173431 171.99774 327.260209 171.084519 
C 326.346987 170.171297 325.108218 169.658182 323.816727 169.658182 
C 322.525236 169.658182 321.286468 170.171297 320.373246 171.084519 
C 319.460024 171.99774 318.946909 173.236509 318.946909 174.528 
C 318.946909 175.819491 319.460024 177.05826 320.373246 177.971481 
C 321.286468 178.884703 322.525236 179.397818 323.816727 179.397818 
z
" style="fill:#0000ff;stroke:#0000ff;stroke-linejoin:miter;"/>
   </g>
   <g id="patch_27">
    <path clip-path="url(#p5beb433237)" d="M 323.816727 179.165922 
C 325.046719 179.165922 326.226498 178.677241 327.096233 177.807506 
C 327.965969 176.937771 328.454649 175.757991 328.454649 174.528 
C 328.454649 173.298009 327.965969 172.118229 327.096233 171.248494 
C 326.226498 170.378759 325.046719 169.890078 323.816727 169.890078 
C 322.586736 169.890078 321.406956 170.378759 320.537221 171.248494 
C 319.667486 172.118229 319.178805 173.298009 319.178805 174.528 
C 319.178805 175.757991 319.667486 176.937771 320.537221 177.807506 
C 321.406956 178.677241 322.586736 179.165922 323.816727 179.165922 
z
" style="fill:#add8e6;stroke:#add8e6;stroke-linejoin:miter;"/>
   </g>
   <g id="patch_28">
    <path clip-path="url(#p5beb433237)" d="M 328.686545 187.832591 
C 329.978036 187.832591 331.216805 187.319476 332.130027 186.406254 
C 333.043249 185.493032 333.556364 184.254263 333.556364 182.962773 
C 333.556364 181.671282 333.043249 180.432513 332.130027 179.519291 
C 331.216805 178.606069 329.978036 178.092954 328.686545 178.092954 
C 327.395055 178.092954 326.156286 178.606069 325.243064 179.519291 
C 324.329842 180.432513 323.816727 181.671282 323.816727 182.962773 
C 323.816727 184.254263 324.329842 185.493032 325.243064 186.406254 
C 326.156286 187.319476 327.395055 187.832591 328.686545 187.832591 
z
" style="fill:#0000ff;stroke:#0000ff;stroke-linejoin:miter;"/>
   </g>
   <g id="patch_29">
    <path clip-path="url(#p5beb433237)" d="M 328.686545 187.600695 
C 329.916537 187.600695 331.096316 187.112014 331.966052 186.242279 
C 332.835787 185.372543 333.324468 184.192764 333.324468 182.962773 
C 333.324468 181.732781 332.835787 180.553002 331.966052 179.683266 
C 331.096316 178.813531 329.916537 178.32485 328.686545 178.32485 
C 327.456554 178.32485 326.276775 178.813531 325.407039 179.683266 
C 324.537304 180.553002 324.048623 181.732781 324.048623 182.962773 
C 324.048623 184.192764 324.537304 185.372543 325.407039 186.242279 
C 326.276775 187.112014 327.456554 187.600695 328.686545 187.600695 
z
" style="fill:#add8e6;stroke:#add8e6;stroke-linejoin:miter;"/>
   </g>
   <g id="patch_30">
    <path clip-path="url(#p5beb433237)" d="M 338.426182 187.832591 
C 339.717673 187.832591 340.956441 187.319476 341.869663 186.406254 
C 342.782885 185.493032 343.296 184.254263 343.296 182.962773 
C 343.296 181.671282 342.782885 180.432513 341.869663 179.519291 
C 340.956441 178.606069 339.717673 178.092954 338.426182 178.092954 
C 337.134691 178.092954 335.895922 178.606069 334.9827 179.519291 
C 334.069478 180.432513 333.556364 181.671282 333.556364 182.962773 
C 333.556364 184.254263 334.069478 185.493032 334.9827 186.406254 
C 335.895922 187.319476 337.134691 187.832591 338.426182 187.832591 
z
" style="fill:#0000ff;stroke:#0000ff;stroke-linejoin:miter;"/>
   </g>
   <g id="patch_31">
    <path clip-path="url(#p5beb433237)" d="M 338.426182 187.600695 
C 339.656173 187.600695 340.835953 187.112014 341.705688 186.242279 
C 342.575423 185.372543 343.064104 184.192764 343.064104 182.962773 
C 343.064104 181.732781 342.575423 180.553002 341.705688 179.683266 
C 340.835953 178.813531 339.656173 178.32485 338.426182 178.32485 
C 337.196191 178.32485 336.016411 178.813531 335.146676 179.683266 
C 334.27694 180.553002 333.78826 181.732781 333.78826 182.962773 
C 333.78826 184.192764 334.27694 185.372543 335.146676 186.242279 
C 336.016411 187.112014 337.196191 187.600695 338.426182 187.600695 
z
" style="fill:#add8e6;stroke:#add8e6;stroke-linejoin:miter;"/>
   </g>
  </g>
 </g>
 <defs>
  <clipPath id="pac64e955e3">
   <rect height="162.327273" width="162.327273" x="57.6" y="93.364364"/>
  </clipPath>
  <clipPath id="p5beb433237">
   <rect height="162.327273" width="162.327273" x="252.392727" y="93.364364"/>
  </clipPath>
 </defs>
</svg>
