<?xml version="1.0" encoding="utf-8" standalone="no"?>
<!DOCTYPE svg PUBLIC "-//W3C//DTD SVG 1.1//EN"
  "http://www.w3.org/Graphics/SVG/1.1/DTD/svg11.dtd">
<!-- Created with matplotlib (https://matplotlib.org/) -->
<svg height="345.6pt" version="1.1" viewBox="0 0 460.8 345.6" width="460.8pt" xmlns="http://www.w3.org/2000/svg" xmlns:xlink="http://www.w3.org/1999/xlink">
 <defs>
  <style type="text/css">
*{stroke-linecap:butt;stroke-linejoin:round;}
  </style>
 </defs>
 <g id="figure_1">
  <g id="patch_1">
   <path d="M 0 345.6 
L 460.8 345.6 
L 460.8 0 
L 0 0 
z
" style="fill:#ffffff;"/>
  </g>
  <g id="axes_1">
   <g id="patch_2">
    <path clip-path="url(#pc7be46750a)" d="M 236.16 288.576 
C 266.405883 288.576 295.417045 276.559183 316.804114 255.172114 
C 338.191183 233.785045 350.208 204.773883 350.208 174.528 
C 350.208 144.282117 338.191183 115.270955 316.804114 93.883886 
C 295.417045 72.496817 266.405883 60.48 236.16 60.48 
C 205.914117 60.48 176.902955 72.496817 155.515886 93.883886 
C 134.128817 115.270955 122.112 144.282117 122.112 174.528 
C 122.112 204.773883 134.128817 233.785045 155.515886 255.172114 
C 176.902955 276.559183 205.914117 288.576 236.16 288.576 
z
" style="fill:#808080;stroke:#808080;stroke-linejoin:miter;"/>
   </g>
   <g id="patch_3">
    <path clip-path="url(#pc7be46750a)" d="M 215.2512 178.70976 
C 216.360216 178.70976 217.423958 178.269143 218.208151 177.484951 
C 218.992343 176.700758 219.43296 175.637016 219.43296 174.528 
C 219.43296 173.418984 218.992343 172.355242 218.208151 171.571049 
C 217.423958 170.786857 216.360216 170.34624 215.2512 170.34624 
C 214.142184 170.34624 213.078442 170.786857 212.294249 171.571049 
C 211.510057 172.355242 211.06944 173.418984 211.06944 174.528 
C 211.06944 175.637016 211.510057 176.700758 212.294249 177.484951 
C 213.078442 178.269143 214.142184 178.70976 215.2512 178.70976 
z
" style="fill:#0000ff;stroke:#0000ff;stroke-linejoin:miter;"/>
   </g>
   <g id="patch_4">
    <path clip-path="url(#pc7be46750a)" d="M 215.2512 178.3296 
C 216.259396 178.3296 217.226435 177.929039 217.939337 177.216137 
C 218.652239 176.503235 219.0528 175.536196 219.0528 174.528 
C 219.0528 173.519804 218.652239 172.552765 217.939337 171.839863 
C 217.226435 171.126961 216.259396 170.7264 215.2512 170.7264 
C 214.243004 170.7264 213.275965 171.126961 212.563063 171.839863 
C 211.850161 172.552765 211.4496 173.519804 211.4496 174.528 
C 211.4496 175.536196 211.850161 176.503235 212.563063 177.216137 
C 213.275965 177.929039 214.243004 178.3296 215.2512 178.3296 
z
" style="fill:#ffff00;stroke:#ffff00;stroke-linejoin:miter;"/>
   </g>
   <g id="patch_5">
    <path clip-path="url(#pc7be46750a)" d="M 223.61472 178.70976 
C 224.723736 178.70976 225.787478 178.269143 226.571671 177.484951 
C 227.355863 176.700758 227.79648 175.637016 227.79648 174.528 
C 227.79648 173.418984 227.355863 172.355242 226.571671 171.571049 
C 225.787478 170.786857 224.723736 170.34624 223.61472 170.34624 
C 222.505704 170.34624 221.441962 170.786857 220.657769 171.571049 
C 219.873577 172.355242 219.43296 173.418984 219.43296 174.528 
C 219.43296 175.637016 219.873577 176.700758 220.657769 177.484951 
C 221.441962 178.269143 222.505704 178.70976 223.61472 178.70976 
z
" style="fill:#0000ff;stroke:#0000ff;stroke-linejoin:miter;"/>
   </g>
   <g id="patch_6">
    <path clip-path="url(#pc7be46750a)" d="M 223.61472 178.3296 
C 224.622916 178.3296 225.589955 177.929039 226.302857 177.216137 
C 227.015759 176.503235 227.41632 175.536196 227.41632 174.528 
C 227.41632 173.519804 227.015759 172.552765 226.302857 171.839863 
C 225.589955 171.126961 224.622916 170.7264 223.61472 170.7264 
C 222.606524 170.7264 221.639485 171.126961 220.926583 171.839863 
C 220.213681 172.552765 219.81312 173.519804 219.81312 174.528 
C 219.81312 175.536196 220.213681 176.503235 220.926583 177.216137 
C 221.639485 177.929039 222.606524 178.3296 223.61472 178.3296 
z
" style="fill:#add8e6;stroke:#add8e6;stroke-linejoin:miter;"/>
   </g>
   <g id="patch_7">
    <path clip-path="url(#pc7be46750a)" d="M 231.97824 178.70976 
C 233.087256 178.70976 234.150998 178.269143 234.935191 177.484951 
C 235.719383 176.700758 236.16 175.637016 236.16 174.528 
C 236.16 173.418984 235.719383 172.355242 234.935191 171.571049 
C 234.150998 170.786857 233.087256 170.34624 231.97824 170.34624 
C 230.869224 170.34624 229.805482 170.786857 229.021289 171.571049 
C 228.237097 172.355242 227.79648 173.418984 227.79648 174.528 
C 227.79648 175.637016 228.237097 176.700758 229.021289 177.484951 
C 229.805482 178.269143 230.869224 178.70976 231.97824 178.70976 
z
" style="fill:#0000ff;stroke:#0000ff;stroke-linejoin:miter;"/>
   </g>
   <g id="patch_8">
    <path clip-path="url(#pc7be46750a)" d="M 231.97824 178.3296 
C 232.986436 178.3296 233.953475 177.929039 234.666377 177.216137 
C 235.379279 176.503235 235.77984 175.536196 235.77984 174.528 
C 235.77984 173.519804 235.379279 172.552765 234.666377 171.839863 
C 233.953475 171.126961 232.986436 170.7264 231.97824 170.7264 
C 230.970044 170.7264 230.003005 171.126961 229.290103 171.839863 
C 228.577201 172.552765 228.17664 173.519804 228.17664 174.528 
C 228.17664 175.536196 228.577201 176.503235 229.290103 177.216137 
C 230.003005 177.929039 230.970044 178.3296 231.97824 178.3296 
z
" style="fill:#add8e6;stroke:#add8e6;stroke-linejoin:miter;"/>
   </g>
   <g id="patch_9">
    <path clip-path="url(#pc7be46750a)" d="M 240.34176 178.70976 
C 241.450776 178.70976 242.514518 178.269143 243.298711 177.484951 
C 244.082903 176.700758 244.52352 175.637016 244.52352 174.528 
C 244.52352 173.418984 244.082903 172.355242 243.298711 171.571049 
C 242.514518 170.786857 241.450776 170.34624 240.34176 170.34624 
C 239.232744 170.34624 238.169002 170.786857 237.384809 171.571049 
C 236.600617 172.355242 236.16 173.418984 236.16 174.528 
C 236.16 175.637016 236.600617 176.700758 237.384809 177.484951 
C 238.169002 178.269143 239.232744 178.70976 240.34176 178.70976 
z
" style="fill:#0000ff;stroke:#0000ff;stroke-linejoin:miter;"/>
   </g>
   <g id="patch_10">
    <path clip-path="url(#pc7be46750a)" d="M 240.34176 178.3296 
C 241.349956 178.3296 242.316995 177.929039 243.029897 177.216137 
C 243.742799 176.503235 244.14336 175.536196 244.14336 174.528 
C 244.14336 173.519804 243.742799 172.552765 243.029897 171.839863 
C 242.316995 171.126961 241.349956 170.7264 240.34176 170.7264 
C 239.333564 170.7264 238.366525 171.126961 237.653623 171.839863 
C 236.940721 172.552765 236.54016 173.519804 236.54016 174.528 
C 236.54016 175.536196 236.940721 176.503235 237.653623 177.216137 
C 238.366525 177.929039 239.333564 178.3296 240.34176 178.3296 
z
" style="fill:#add8e6;stroke:#add8e6;stroke-linejoin:miter;"/>
   </g>
   <g id="patch_11">
    <path clip-path="url(#pc7be46750a)" d="M 248.70528 178.70976 
C 249.814296 178.70976 250.878038 178.269143 251.662231 177.484951 
C 252.446423 176.700758 252.88704 175.637016 252.88704 174.528 
C 252.88704 173.418984 252.446423 172.355242 251.662231 171.571049 
C 250.878038 170.786857 249.814296 170.34624 248.70528 170.34624 
C 247.596264 170.34624 246.532522 170.786857 245.748329 171.571049 
C 244.964137 172.355242 244.52352 173.418984 244.52352 174.528 
C 244.52352 175.637016 244.964137 176.700758 245.748329 177.484951 
C 246.532522 178.269143 247.596264 178.70976 248.70528 178.70976 
z
" style="fill:#0000ff;stroke:#0000ff;stroke-linejoin:miter;"/>
   </g>
   <g id="patch_12">
    <path clip-path="url(#pc7be46750a)" d="M 248.70528 178.3296 
C 249.713476 178.3296 250.680515 177.929039 251.393417 177.216137 
C 252.106319 176.503235 252.50688 175.536196 252.50688 174.528 
C 252.50688 173.519804 252.106319 172.552765 251.393417 171.839863 
C 250.680515 171.126961 249.713476 170.7264 248.70528 170.7264 
C 247.697084 170.7264 246.730045 171.126961 246.017143 171.839863 
C 245.304241 172.552765 244.90368 173.519804 244.90368 174.528 
C 244.90368 175.536196 245.304241 176.503235 246.017143 177.216137 
C 246.730045 177.929039 247.697084 178.3296 248.70528 178.3296 
z
" style="fill:#add8e6;stroke:#add8e6;stroke-linejoin:miter;"/>
   </g>
   <g id="patch_13">
    <path clip-path="url(#pc7be46750a)" d="M 257.0688 178.70976 
C 258.177816 178.70976 259.241558 178.269143 260.025751 177.484951 
C 260.809943 176.700758 261.25056 175.637016 261.25056 174.528 
C 261.25056 173.418984 260.809943 172.355242 260.025751 171.571049 
C 259.241558 170.786857 258.177816 170.34624 257.0688 170.34624 
C 255.959784 170.34624 254.896042 170.786857 254.111849 171.571049 
C 253.327657 172.355242 252.88704 173.418984 252.88704 174.528 
C 252.88704 175.637016 253.327657 176.700758 254.111849 177.484951 
C 254.896042 178.269143 255.959784 178.70976 257.0688 178.70976 
z
" style="fill:#0000ff;stroke:#0000ff;stroke-linejoin:miter;"/>
   </g>
   <g id="patch_14">
    <path clip-path="url(#pc7be46750a)" d="M 257.0688 178.3296 
C 258.076996 178.3296 259.044035 177.929039 259.756937 177.216137 
C 260.469839 176.503235 260.8704 175.536196 260.8704 174.528 
C 260.8704 173.519804 260.469839 172.552765 259.756937 171.839863 
C 259.044035 171.126961 258.076996 170.7264 257.0688 170.7264 
C 256.060604 170.7264 255.093565 171.126961 254.380663 171.839863 
C 253.667761 172.552765 253.2672 173.519804 253.2672 174.528 
C 253.2672 175.536196 253.667761 176.503235 254.380663 177.216137 
C 255.093565 177.929039 256.060604 178.3296 257.0688 178.3296 
z
" style="fill:#add8e6;stroke:#add8e6;stroke-linejoin:miter;"/>
   </g>
  </g>
 </g>
 <defs>
  <clipPath id="pc7be46750a">
   <rect height="266.112" width="266.112" x="103.104" y="41.472"/>
  </clipPath>
 </defs>
</svg>
