<?xml version="1.0" encoding="utf-8" standalone="no"?>
<!DOCTYPE svg PUBLIC "-//W3C//DTD SVG 1.1//EN"
  "http://www.w3.org/Graphics/SVG/1.1/DTD/svg11.dtd">
<!-- Created with matplotlib (https://matplotlib.org/) -->
<svg height="345.6pt" version="1.1" viewBox="0 0 460.8 345.6" width="460.8pt" xmlns="http://www.w3.org/2000/svg" xmlns:xlink="http://www.w3.org/1999/xlink">
 <defs>
  <style type="text/css">
*{stroke-linecap:butt;stroke-linejoin:round;}
  </style>
 </defs>
 <g id="figure_1">
  <g id="patch_1">
   <path d="M 0 345.6 
L 460.8 345.6 
L 460.8 0 
L 0 0 
z
" style="fill:#ffffff;"/>
  </g>
  <g id="axes_1">
   <g id="patch_2">
    <path clip-path="url(#p8a2ed04920)" d="M 236.16 288.576 
C 266.405883 288.576 295.417045 276.559183 316.804114 255.172114 
C 338.191183 233.785045 350.208 204.773883 350.208 174.528 
C 350.208 144.282117 338.191183 115.270955 316.804114 93.883886 
C 295.417045 72.496817 266.405883 60.48 236.16 60.48 
C 205.914117 60.48 176.902955 72.496817 155.515886 93.883886 
C 134.128817 115.270955 122.112 144.282117 122.112 174.528 
C 122.112 204.773883 134.128817 233.785045 155.515886 255.172114 
C 176.902955 276.559183 205.914117 288.576 236.16 288.576 
z
" style="fill:#808080;stroke:#808080;stroke-linejoin:miter;"/>
   </g>
   <g id="patch_3">
    <path clip-path="url(#p8a2ed04920)" d="M 236.16 182.51136 
C 238.277212 182.51136 240.307993 181.670183 241.805088 180.173088 
C 243.302183 178.675993 244.14336 176.645212 244.14336 174.528 
C 244.14336 172.410788 243.302183 170.380007 241.805088 168.882912 
C 240.307993 167.385817 238.277212 166.54464 236.16 166.54464 
C 234.042788 166.54464 232.012007 167.385817 230.514912 168.882912 
C 229.017817 170.380007 228.17664 172.410788 228.17664 174.528 
C 228.17664 176.645212 229.017817 178.675993 230.514912 180.173088 
C 232.012007 181.670183 234.042788 182.51136 236.16 182.51136 
z
" style="fill:#0000ff;stroke:#0000ff;stroke-linejoin:miter;"/>
   </g>
   <g id="patch_4">
    <path clip-path="url(#p8a2ed04920)" d="M 236.16 182.1312 
C 238.176392 182.1312 240.11047 181.330079 241.536274 179.904274 
C 242.962079 178.47847 243.7632 176.544392 243.7632 174.528 
C 243.7632 172.511608 242.962079 170.57753 241.536274 169.151726 
C 240.11047 167.725921 238.176392 166.9248 236.16 166.9248 
C 234.143608 166.9248 232.20953 167.725921 230.783726 169.151726 
C 229.357921 170.57753 228.5568 172.511608 228.5568 174.528 
C 228.5568 176.544392 229.357921 178.47847 230.783726 179.904274 
C 232.20953 181.330079 234.143608 182.1312 236.16 182.1312 
z
" style="fill:#ffff00;stroke:#ffff00;stroke-linejoin:miter;"/>
   </g>
   <g id="patch_5">
    <path clip-path="url(#p8a2ed04920)" d="M 252.12672 182.51136 
C 254.243932 182.51136 256.274713 181.670183 257.771808 180.173088 
C 259.268903 178.675993 260.11008 176.645212 260.11008 174.528 
C 260.11008 172.410788 259.268903 170.380007 257.771808 168.882912 
C 256.274713 167.385817 254.243932 166.54464 252.12672 166.54464 
C 250.009508 166.54464 247.978727 167.385817 246.481632 168.882912 
C 244.984537 170.380007 244.14336 172.410788 244.14336 174.528 
C 244.14336 176.645212 244.984537 178.675993 246.481632 180.173088 
C 247.978727 181.670183 250.009508 182.51136 252.12672 182.51136 
z
" style="fill:#0000ff;stroke:#0000ff;stroke-linejoin:miter;"/>
   </g>
   <g id="patch_6">
    <path clip-path="url(#p8a2ed04920)" d="M 252.12672 182.1312 
C 254.143112 182.1312 256.07719 181.330079 257.502994 179.904274 
C 258.928799 178.47847 259.72992 176.544392 259.72992 174.528 
C 259.72992 172.511608 258.928799 170.57753 257.502994 169.151726 
C 256.07719 167.725921 254.143112 166.9248 252.12672 166.9248 
C 250.110328 166.9248 248.17625 167.725921 246.750446 169.151726 
C 245.324641 170.57753 244.52352 172.511608 244.52352 174.528 
C 244.52352 176.544392 245.324641 178.47847 246.750446 179.904274 
C 248.17625 181.330079 250.110328 182.1312 252.12672 182.1312 
z
" style="fill:#add8e6;stroke:#add8e6;stroke-linejoin:miter;"/>
   </g>
   <g id="patch_7">
    <path clip-path="url(#p8a2ed04920)" d="M 244.14336 168.683775 
C 246.260572 168.683775 248.291353 167.842598 249.788448 166.345503 
C 251.285543 164.848408 252.12672 162.817627 252.12672 160.700415 
C 252.12672 158.583203 251.285543 156.552422 249.788448 155.055327 
C 248.291353 153.558232 246.260572 152.717055 244.14336 152.717055 
C 242.026148 152.717055 239.995367 153.558232 238.498272 155.055327 
C 237.001177 156.552422 236.16 158.583203 236.16 160.700415 
C 236.16 162.817627 237.001177 164.848408 238.498272 166.345503 
C 239.995367 167.842598 242.026148 168.683775 244.14336 168.683775 
z
" style="fill:#0000ff;stroke:#0000ff;stroke-linejoin:miter;"/>
   </g>
   <g id="patch_8">
    <path clip-path="url(#p8a2ed04920)" d="M 244.14336 168.303615 
C 246.159752 168.303615 248.09383 167.502494 249.519634 166.076689 
C 250.945439 164.650885 251.74656 162.716807 251.74656 160.700415 
C 251.74656 158.684023 250.945439 156.749945 249.519634 155.324141 
C 248.09383 153.898336 246.159752 153.097215 244.14336 153.097215 
C 242.126968 153.097215 240.19289 153.898336 238.767086 155.324141 
C 237.341281 156.749945 236.54016 158.684023 236.54016 160.700415 
C 236.54016 162.716807 237.341281 164.650885 238.767086 166.076689 
C 240.19289 167.502494 242.126968 168.303615 244.14336 168.303615 
z
" style="fill:#add8e6;stroke:#add8e6;stroke-linejoin:miter;"/>
   </g>
   <g id="patch_9">
    <path clip-path="url(#p8a2ed04920)" d="M 228.17664 168.683775 
C 230.293852 168.683775 232.324633 167.842598 233.821728 166.345503 
C 235.318823 164.848408 236.16 162.817627 236.16 160.700415 
C 236.16 158.583203 235.318823 156.552422 233.821728 155.055327 
C 232.324633 153.558232 230.293852 152.717055 228.17664 152.717055 
C 226.059428 152.717055 224.028647 153.558232 222.531552 155.055327 
C 221.034457 156.552422 220.19328 158.583203 220.19328 160.700415 
C 220.19328 162.817627 221.034457 164.848408 222.531552 166.345503 
C 224.028647 167.842598 226.059428 168.683775 228.17664 168.683775 
z
" style="fill:#0000ff;stroke:#0000ff;stroke-linejoin:miter;"/>
   </g>
   <g id="patch_10">
    <path clip-path="url(#p8a2ed04920)" d="M 228.17664 168.303615 
C 230.193032 168.303615 232.12711 167.502494 233.552914 166.076689 
C 234.978719 164.650885 235.77984 162.716807 235.77984 160.700415 
C 235.77984 158.684023 234.978719 156.749945 233.552914 155.324141 
C 232.12711 153.898336 230.193032 153.097215 228.17664 153.097215 
C 226.160248 153.097215 224.22617 153.898336 222.800366 155.324141 
C 221.374561 156.749945 220.57344 158.684023 220.57344 160.700415 
C 220.57344 162.716807 221.374561 164.650885 222.800366 166.076689 
C 224.22617 167.502494 226.160248 168.303615 228.17664 168.303615 
z
" style="fill:#add8e6;stroke:#add8e6;stroke-linejoin:miter;"/>
   </g>
   <g id="patch_11">
    <path clip-path="url(#p8a2ed04920)" d="M 220.19328 182.51136 
C 222.310492 182.51136 224.341273 181.670183 225.838368 180.173088 
C 227.335463 178.675993 228.17664 176.645212 228.17664 174.528 
C 228.17664 172.410788 227.335463 170.380007 225.838368 168.882912 
C 224.341273 167.385817 222.310492 166.54464 220.19328 166.54464 
C 218.076068 166.54464 216.045287 167.385817 214.548192 168.882912 
C 213.051097 170.380007 212.20992 172.410788 212.20992 174.528 
C 212.20992 176.645212 213.051097 178.675993 214.548192 180.173088 
C 216.045287 181.670183 218.076068 182.51136 220.19328 182.51136 
z
" style="fill:#0000ff;stroke:#0000ff;stroke-linejoin:miter;"/>
   </g>
   <g id="patch_12">
    <path clip-path="url(#p8a2ed04920)" d="M 220.19328 182.1312 
C 222.209672 182.1312 224.14375 181.330079 225.569554 179.904274 
C 226.995359 178.47847 227.79648 176.544392 227.79648 174.528 
C 227.79648 172.511608 226.995359 170.57753 225.569554 169.151726 
C 224.14375 167.725921 222.209672 166.9248 220.19328 166.9248 
C 218.176888 166.9248 216.24281 167.725921 214.817006 169.151726 
C 213.391201 170.57753 212.59008 172.511608 212.59008 174.528 
C 212.59008 176.544392 213.391201 178.47847 214.817006 179.904274 
C 216.24281 181.330079 218.176888 182.1312 220.19328 182.1312 
z
" style="fill:#add8e6;stroke:#add8e6;stroke-linejoin:miter;"/>
   </g>
   <g id="patch_13">
    <path clip-path="url(#p8a2ed04920)" d="M 228.17664 196.338945 
C 230.293852 196.338945 232.324633 195.497768 233.821728 194.000673 
C 235.318823 192.503578 236.16 190.472797 236.16 188.355585 
C 236.16 186.238373 235.318823 184.207592 233.821728 182.710497 
C 232.324633 181.213402 230.293852 180.372225 228.17664 180.372225 
C 226.059428 180.372225 224.028647 181.213402 222.531552 182.710497 
C 221.034457 184.207592 220.19328 186.238373 220.19328 188.355585 
C 220.19328 190.472797 221.034457 192.503578 222.531552 194.000673 
C 224.028647 195.497768 226.059428 196.338945 228.17664 196.338945 
z
" style="fill:#0000ff;stroke:#0000ff;stroke-linejoin:miter;"/>
   </g>
   <g id="patch_14">
    <path clip-path="url(#p8a2ed04920)" d="M 228.17664 195.958785 
C 230.193032 195.958785 232.12711 195.157664 233.552914 193.731859 
C 234.978719 192.306055 235.77984 190.371977 235.77984 188.355585 
C 235.77984 186.339193 234.978719 184.405115 233.552914 182.979311 
C 232.12711 181.553506 230.193032 180.752385 228.17664 180.752385 
C 226.160248 180.752385 224.22617 181.553506 222.800366 182.979311 
C 221.374561 184.405115 220.57344 186.339193 220.57344 188.355585 
C 220.57344 190.371977 221.374561 192.306055 222.800366 193.731859 
C 224.22617 195.157664 226.160248 195.958785 228.17664 195.958785 
z
" style="fill:#add8e6;stroke:#add8e6;stroke-linejoin:miter;"/>
   </g>
   <g id="patch_15">
    <path clip-path="url(#p8a2ed04920)" d="M 244.14336 196.338945 
C 246.260572 196.338945 248.291353 195.497768 249.788448 194.000673 
C 251.285543 192.503578 252.12672 190.472797 252.12672 188.355585 
C 252.12672 186.238373 251.285543 184.207592 249.788448 182.710497 
C 248.291353 181.213402 246.260572 180.372225 244.14336 180.372225 
C 242.026148 180.372225 239.995367 181.213402 238.498272 182.710497 
C 237.001177 184.207592 236.16 186.238373 236.16 188.355585 
C 236.16 190.472797 237.001177 192.503578 238.498272 194.000673 
C 239.995367 195.497768 242.026148 196.338945 244.14336 196.338945 
z
" style="fill:#0000ff;stroke:#0000ff;stroke-linejoin:miter;"/>
   </g>
   <g id="patch_16">
    <path clip-path="url(#p8a2ed04920)" d="M 244.14336 195.958785 
C 246.159752 195.958785 248.09383 195.157664 249.519634 193.731859 
C 250.945439 192.306055 251.74656 190.371977 251.74656 188.355585 
C 251.74656 186.339193 250.945439 184.405115 249.519634 182.979311 
C 248.09383 181.553506 246.159752 180.752385 244.14336 180.752385 
C 242.126968 180.752385 240.19289 181.553506 238.767086 182.979311 
C 237.341281 184.405115 236.54016 186.339193 236.54016 188.355585 
C 236.54016 190.371977 237.341281 192.306055 238.767086 193.731859 
C 240.19289 195.157664 242.126968 195.958785 244.14336 195.958785 
z
" style="fill:#add8e6;stroke:#add8e6;stroke-linejoin:miter;"/>
   </g>
  </g>
 </g>
 <defs>
  <clipPath id="p8a2ed04920">
   <rect height="266.112" width="266.112" x="103.104" y="41.472"/>
  </clipPath>
 </defs>
</svg>
