<?xml version="1.0" encoding="utf-8" standalone="no"?>
<!DOCTYPE svg PUBLIC "-//W3C//DTD SVG 1.1//EN"
  "http://www.w3.org/Graphics/SVG/1.1/DTD/svg11.dtd">
<!-- Created with matplotlib (https://matplotlib.org/) -->
<svg height="345.6pt" version="1.1" viewBox="0 0 460.8 345.6" width="460.8pt" xmlns="http://www.w3.org/2000/svg" xmlns:xlink="http://www.w3.org/1999/xlink">
 <defs>
  <style type="text/css">
*{stroke-linecap:butt;stroke-linejoin:round;}
  </style>
 </defs>
 <g id="figure_1">
  <g id="patch_1">
   <path d="M 0 345.6 
L 460.8 345.6 
L 460.8 0 
L 0 0 
z
" style="fill:#ffffff;"/>
  </g>
  <g id="axes_1">
   <g id="patch_2">
    <path clip-path="url(#p670b25f56c)" d="M 236.16 288.576 
C 266.405883 288.576 295.417045 276.559183 316.804114 255.172114 
C 338.191183 233.785045 350.208 204.773883 350.208 174.528 
C 350.208 144.282117 338.191183 115.270955 316.804114 93.883886 
C 295.417045 72.496817 266.405883 60.48 236.16 60.48 
C 205.914117 60.48 176.902955 72.496817 155.515886 93.883886 
C 134.128817 115.270955 122.112 144.282117 122.112 174.528 
C 122.112 204.773883 134.128817 233.785045 155.515886 255.172114 
C 176.902955 276.559183 205.914117 288.576 236.16 288.576 
z
" style="fill:#808080;stroke:#808080;stroke-linejoin:miter;"/>
   </g>
   <g id="patch_3">
    <path clip-path="url(#p670b25f56c)" d="M 236.16 182.51136 
C 238.277212 182.51136 240.307993 181.670183 241.805088 180.173088 
C 243.302183 178.675993 244.14336 176.645212 244.14336 174.528 
C 244.14336 172.410788 243.302183 170.380007 241.805088 168.882912 
C 240.307993 167.385817 238.277212 166.54464 236.16 166.54464 
C 234.042788 166.54464 232.012007 167.385817 230.514912 168.882912 
C 229.017817 170.380007 228.17664 172.410788 228.17664 174.528 
C 228.17664 176.645212 229.017817 178.675993 230.514912 180.173088 
C 232.012007 181.670183 234.042788 182.51136 236.16 182.51136 
z
" style="fill:#0000ff;stroke:#0000ff;stroke-linejoin:miter;"/>
   </g>
   <g id="patch_4">
    <path clip-path="url(#p670b25f56c)" d="M 236.16 182.1312 
C 238.176392 182.1312 240.11047 181.330079 241.536274 179.904274 
C 242.962079 178.47847 243.7632 176.544392 243.7632 174.528 
C 243.7632 172.511608 242.962079 170.57753 241.536274 169.151726 
C 240.11047 167.725921 238.176392 166.9248 236.16 166.9248 
C 234.143608 166.9248 232.20953 167.725921 230.783726 169.151726 
C 229.357921 170.57753 228.5568 172.511608 228.5568 174.528 
C 228.5568 176.544392 229.357921 178.47847 230.783726 179.904274 
C 232.20953 181.330079 234.143608 182.1312 236.16 182.1312 
z
" style="fill:#add8e6;stroke:#add8e6;stroke-linejoin:miter;"/>
   </g>
  </g>
 </g>
 <defs>
  <clipPath id="p670b25f56c">
   <rect height="266.112" width="266.112" x="103.104" y="41.472"/>
  </clipPath>
 </defs>
</svg>
