<?xml version="1.0" encoding="utf-8" standalone="no"?>
<!DOCTYPE svg PUBLIC "-//W3C//DTD SVG 1.1//EN"
  "http://www.w3.org/Graphics/SVG/1.1/DTD/svg11.dtd">
<!-- Created with matplotlib (https://matplotlib.org/) -->
<svg height="345.6pt" version="1.1" viewBox="0 0 460.8 345.6" width="460.8pt" xmlns="http://www.w3.org/2000/svg" xmlns:xlink="http://www.w3.org/1999/xlink">
 <defs>
  <style type="text/css">
*{stroke-linecap:butt;stroke-linejoin:round;}
  </style>
 </defs>
 <g id="figure_1">
  <g id="patch_1">
   <path d="M 0 345.6 
L 460.8 345.6 
L 460.8 0 
L 0 0 
z
" style="fill:#ffffff;"/>
  </g>
  <g id="axes_1">
   <g id="patch_2">
    <path clip-path="url(#p20d0e60fb0)" d="M 236.16 288.576 
C 266.405883 288.576 295.417045 276.559183 316.804114 255.172114 
C 338.191183 233.785045 350.208 204.773883 350.208 174.528 
C 350.208 144.282117 338.191183 115.270955 316.804114 93.883886 
C 295.417045 72.496817 266.405883 60.48 236.16 60.48 
C 205.914117 60.48 176.902955 72.496817 155.515886 93.883886 
C 134.128817 115.270955 122.112 144.282117 122.112 174.528 
C 122.112 204.773883 134.128817 233.785045 155.515886 255.172114 
C 176.902955 276.559183 205.914117 288.576 236.16 288.576 
z
" style="fill:#808080;stroke:#808080;stroke-linejoin:miter;"/>
   </g>
   <g id="patch_3">
    <path clip-path="url(#p20d0e60fb0)" d="M 236.16 176.80896 
C 236.764918 176.80896 237.345141 176.568624 237.772882 176.140882 
C 238.200624 175.713141 238.44096 175.132918 238.44096 174.528 
C 238.44096 173.923082 238.200624 173.342859 237.772882 172.915118 
C 237.345141 172.487376 236.764918 172.24704 236.16 172.24704 
C 235.555082 172.24704 234.974859 172.487376 234.547118 172.915118 
C 234.119376 173.342859 233.87904 173.923082 233.87904 174.528 
C 233.87904 175.132918 234.119376 175.713141 234.547118 176.140882 
C 234.974859 176.568624 235.555082 176.80896 236.16 176.80896 
z
" style="fill:#0000ff;stroke:#0000ff;stroke-linejoin:miter;"/>
   </g>
   <g id="patch_4">
    <path clip-path="url(#p20d0e60fb0)" d="M 236.16 176.4288 
C 236.664098 176.4288 237.147617 176.22852 237.504069 175.872069 
C 237.86052 175.515617 238.0608 175.032098 238.0608 174.528 
C 238.0608 174.023902 237.86052 173.540383 237.504069 173.183931 
C 237.147617 172.82748 236.664098 172.6272 236.16 172.6272 
C 235.655902 172.6272 235.172383 172.82748 234.815931 173.183931 
C 234.45948 173.540383 234.2592 174.023902 234.2592 174.528 
C 234.2592 175.032098 234.45948 175.515617 234.815931 175.872069 
C 235.172383 176.22852 235.655902 176.4288 236.16 176.4288 
z
" style="fill:#add8e6;stroke:#add8e6;stroke-linejoin:miter;"/>
   </g>
  </g>
 </g>
 <defs>
  <clipPath id="p20d0e60fb0">
   <rect height="266.112" width="266.112" x="103.104" y="41.472"/>
  </clipPath>
 </defs>
</svg>
