<?xml version="1.0" encoding="utf-8" standalone="no"?>
<!DOCTYPE svg PUBLIC "-//W3C//DTD SVG 1.1//EN"
  "http://www.w3.org/Graphics/SVG/1.1/DTD/svg11.dtd">
<!-- Created with matplotlib (https://matplotlib.org/) -->
<svg height="345.6pt" version="1.1" viewBox="0 0 460.8 345.6" width="460.8pt" xmlns="http://www.w3.org/2000/svg" xmlns:xlink="http://www.w3.org/1999/xlink">
 <defs>
  <style type="text/css">
*{stroke-linecap:butt;stroke-linejoin:round;}
  </style>
 </defs>
 <g id="figure_1">
  <g id="patch_1">
   <path d="M 0 345.6 
L 460.8 345.6 
L 460.8 0 
L 0 0 
z
" style="fill:#ffffff;"/>
  </g>
  <g id="axes_1">
   <g id="patch_2">
    <path clip-path="url(#pa758df9052)" d="M 236.16 288.576 
C 266.405883 288.576 295.417045 276.559183 316.804114 255.172114 
C 338.191183 233.785045 350.208 204.773883 350.208 174.528 
C 350.208 144.282117 338.191183 115.270955 316.804114 93.883886 
C 295.417045 72.496817 266.405883 60.48 236.16 60.48 
C 205.914117 60.48 176.902955 72.496817 155.515886 93.883886 
C 134.128817 115.270955 122.112 144.282117 122.112 174.528 
C 122.112 204.773883 134.128817 233.785045 155.515886 255.172114 
C 176.902955 276.559183 205.914117 288.576 236.16 288.576 
z
" style="fill:#808080;stroke:#808080;stroke-linejoin:miter;"/>
   </g>
   <g id="patch_3">
    <path clip-path="url(#pa758df9052)" d="M 236.16 190.11456 
C 240.293604 190.11456 244.258463 188.472262 247.181362 185.549362 
C 250.104262 182.626463 251.74656 178.661604 251.74656 174.528 
C 251.74656 170.394396 250.104262 166.429537 247.181362 163.506638 
C 244.258463 160.583738 240.293604 158.94144 236.16 158.94144 
C 232.026396 158.94144 228.061537 160.583738 225.138638 163.506638 
C 222.215738 166.429537 220.57344 170.394396 220.57344 174.528 
C 220.57344 178.661604 222.215738 182.626463 225.138638 185.549362 
C 228.061537 188.472262 232.026396 190.11456 236.16 190.11456 
z
" style="fill:#0000ff;stroke:#0000ff;stroke-linejoin:miter;"/>
   </g>
   <g id="patch_4">
    <path clip-path="url(#pa758df9052)" d="M 236.16 189.7344 
C 240.192784 189.7344 244.060939 188.132158 246.912549 185.280549 
C 249.764158 182.428939 251.3664 178.560784 251.3664 174.528 
C 251.3664 170.495216 249.764158 166.627061 246.912549 163.775451 
C 244.060939 160.923842 240.192784 159.3216 236.16 159.3216 
C 232.127216 159.3216 228.259061 160.923842 225.407451 163.775451 
C 222.555842 166.627061 220.9536 170.495216 220.9536 174.528 
C 220.9536 178.560784 222.555842 182.428939 225.407451 185.280549 
C 228.259061 188.132158 232.127216 189.7344 236.16 189.7344 
z
" style="fill:#add8e6;stroke:#add8e6;stroke-linejoin:miter;"/>
   </g>
  </g>
 </g>
 <defs>
  <clipPath id="pa758df9052">
   <rect height="266.112" width="266.112" x="103.104" y="41.472"/>
  </clipPath>
 </defs>
</svg>
